ply
format ascii 1.0
comment Created by Blender 2.82 (sub 7) - www.blender.org, source file: ''
element vertex 486
property float x
property float y
property float z
property float nx
property float ny
property float nz
property float s
property float t
element face 162
property list uchar uint vertex_indices
end_header
145.815002 111.458656 181.029831 0.800369 0.301102 0.518408 0.000000 0.000000
117.321053 187.510956 180.848785 0.800369 0.301102 0.518408 0.000000 0.000000
124.250381 110.334641 214.976288 0.800369 0.301102 0.518408 0.000000 0.000000
151.544098 33.527309 179.576569 0.842169 0.051903 0.536710 0.000000 0.000000
145.815002 111.458656 181.029831 0.842169 0.051903 0.536710 0.000000 0.000000
124.250381 110.334641 214.976288 0.842169 0.051903 0.536710 0.000000 0.000000
124.250381 110.334641 214.976288 0.795581 0.003487 0.605838 0.000000 0.000000
121.345009 20.918650 219.306305 0.795581 0.003487 0.605838 0.000000 0.000000
151.544098 33.527309 179.576569 0.795581 0.003487 0.605838 0.000000 0.000000
125.302460 -56.837498 180.488922 0.808590 -0.229341 0.541836 0.000000 0.000000
151.544098 33.527309 179.576569 0.808590 -0.229341 0.541836 0.000000 0.000000
121.345009 20.918650 219.306305 0.808590 -0.229341 0.541836 0.000000 0.000000
121.345009 20.918650 219.306305 0.765192 -0.255960 0.590732 0.000000 0.000000
93.320198 -37.310066 230.377548 0.765192 -0.255960 0.590732 0.000000 0.000000
125.302460 -56.837498 180.488922 0.765192 -0.255960 0.590732 0.000000 0.000000
93.320198 -37.310066 230.377548 0.667009 -0.441263 0.600321 0.000000 0.000000
57.462238 -88.237549 232.784851 0.667009 -0.441263 0.600321 0.000000 0.000000
125.302460 -56.837498 180.488922 0.667009 -0.441263 0.600321 0.000000 0.000000
57.462238 -88.237549 232.784851 0.666241 -0.453622 0.591904 0.000000 0.000000
88.370735 -111.913834 179.849579 0.666241 -0.453622 0.591904 0.000000 0.000000
125.302460 -56.837498 180.488922 0.666241 -0.453622 0.591904 0.000000 0.000000
117.321053 187.510956 180.848785 0.648544 0.503938 0.570471 0.000000 0.000000
69.116951 248.776718 181.529587 0.648544 0.503938 0.570471 0.000000 0.000000
69.139366 190.156891 233.287155 0.648544 0.503938 0.570471 0.000000 0.000000
69.139366 190.156891 233.287155 0.700944 0.340143 0.626882 0.000000 0.000000
124.250381 110.334641 214.976288 0.700944 0.340143 0.626882 0.000000 0.000000
117.321053 187.510956 180.848785 0.700944 0.340143 0.626882 0.000000 0.000000
121.345009 20.918650 219.306305 0.740659 0.008468 0.671828 0.000000 0.000000
124.250381 110.334641 214.976288 0.740659 0.008468 0.671828 0.000000 0.000000
82.960670 65.547607 261.060791 0.740659 0.008468 0.671828 0.000000 0.000000
82.960670 65.547607 261.060791 0.692409 -0.075776 0.717515 0.000000 0.000000
74.852409 9.192285 262.933685 0.692409 -0.075776 0.717515 0.000000 0.000000
121.345009 20.918650 219.306305 0.692409 -0.075776 0.717515 0.000000 0.000000
-98.319633 295.880981 213.912949 0.454980 0.546770 -0.702877 0.000000 0.000000
-108.905975 260.086151 179.215408 0.454980 0.546770 -0.702877 0.000000 0.000000
-140.875641 307.489441 195.396225 0.454980 0.546770 -0.702877 0.000000 0.000000
-140.875641 307.489441 195.396225 -0.994488 -0.056290 -0.088461 0.000000 0.000000
-137.189240 270.487366 177.498871 -0.994488 -0.056290 -0.088461 0.000000 0.000000
-143.108322 263.584534 248.434235 -0.994488 -0.056290 -0.088461 0.000000 0.000000
-137.189240 270.487366 177.498871 -0.670332 0.741883 0.016259 0.000000 0.000000
-177.103561 234.342667 181.145874 -0.670332 0.741883 0.016259 0.000000 0.000000
-143.108322 263.584534 248.434235 -0.670332 0.741883 0.016259 0.000000 0.000000
-0.789245 293.608276 181.775024 0.388248 0.707048 0.591056 0.000000 0.000000
-11.241070 248.222290 242.933243 0.388248 0.707048 0.591056 0.000000 0.000000
31.593195 277.682617 179.554916 0.388248 0.707048 0.591056 0.000000 0.000000
-49.043686 253.905960 194.099533 -0.600750 0.550081 -0.580095 0.000000 0.000000
-57.893429 279.709747 227.733078 -0.600750 0.550081 -0.580095 0.000000 0.000000
-0.789245 293.608276 181.775024 -0.600750 0.550081 -0.580095 0.000000 0.000000
-227.321808 293.241272 179.635086 -0.580347 0.671867 0.460209 0.000000 0.000000
-321.087982 211.048981 181.385025 -0.580347 0.671867 0.460209 0.000000 0.000000
-270.543579 230.730011 216.391449 -0.580347 0.671867 0.460209 0.000000 0.000000
-189.793259 248.002457 179.500015 0.769504 0.638290 0.021204 0.000000 0.000000
-227.321808 293.241272 179.635086 0.769504 0.638290 0.021204 0.000000 0.000000
-205.231354 265.035370 227.024780 0.769504 0.638290 0.021204 0.000000 0.000000
-98.319633 295.880981 213.912949 0.592830 0.463236 -0.658760 0.000000 0.000000
-81.665535 225.469040 179.386993 0.592830 0.463236 -0.658760 0.000000 0.000000
-108.905975 260.086151 179.215408 0.592830 0.463236 -0.658760 0.000000 0.000000
-177.103561 234.342667 181.145874 0.726631 0.647278 -0.230301 0.000000 0.000000
-182.886215 240.248642 179.500000 0.726631 0.647278 -0.230301 0.000000 0.000000
-189.793259 248.002457 179.500015 0.726631 0.647278 -0.230301 0.000000 0.000000
-177.103561 234.342667 181.145874 0.732974 0.680233 -0.005695 0.000000 0.000000
-189.793259 248.002457 179.500015 0.732974 0.680233 -0.005695 0.000000 0.000000
-205.231354 265.035370 227.024780 0.732974 0.680233 -0.005695 0.000000 0.000000
-182.842255 240.199280 179.500000 0.726632 0.647291 -0.230263 0.000000 0.000000
-182.869766 240.230164 179.500000 0.726632 0.647291 -0.230263 0.000000 0.000000
-177.103561 234.342667 181.145874 0.726632 0.647291 -0.230263 0.000000 0.000000
-11.241070 248.222290 242.933243 0.462583 0.642247 0.611175 0.000000 0.000000
69.116951 248.776718 181.529587 0.462583 0.642247 0.611175 0.000000 0.000000
31.593195 277.682617 179.554916 0.462583 0.642247 0.611175 0.000000 0.000000
-11.241070 248.222290 242.933243 0.303464 0.739614 0.600734 0.000000 0.000000
-0.789245 293.608276 181.775024 0.303464 0.739614 0.600734 0.000000 0.000000
-57.893429 279.709747 227.733078 0.303464 0.739614 0.600734 0.000000 0.000000
-179.501343 236.343658 179.500015 0.722904 0.626398 -0.291609 0.000000 0.000000
-182.842255 240.199280 179.500000 0.722904 0.626398 -0.291609 0.000000 0.000000
-177.103561 234.342667 181.145874 0.722904 0.626398 -0.291609 0.000000 0.000000
-140.875641 307.489441 195.396225 -0.089996 0.737580 0.669235 0.000000 0.000000
-96.102608 265.460266 247.738495 -0.089996 0.737580 0.669235 0.000000 0.000000
-98.319633 295.880981 213.912949 -0.089996 0.737580 0.669235 0.000000 0.000000
-49.043686 253.905960 194.099533 -0.331100 0.704564 -0.627664 0.000000 0.000000
-81.665535 225.469040 179.386993 -0.331100 0.704564 -0.627664 0.000000 0.000000
-57.893429 279.709747 227.733078 -0.331100 0.704564 -0.627664 0.000000 0.000000
-143.108322 263.584534 248.434235 -0.651260 0.758854 -0.000751 0.000000 0.000000
-177.103561 234.342667 181.145874 -0.651260 0.758854 -0.000751 0.000000 0.000000
-175.548874 235.757233 262.253601 -0.651260 0.758854 -0.000751 0.000000 0.000000
-98.319633 295.880981 213.912949 0.070448 0.743982 0.664476 0.000000 0.000000
-96.102608 265.460266 247.738495 0.070448 0.743982 0.664476 0.000000 0.000000
-57.893429 279.709747 227.733078 0.070448 0.743982 0.664476 0.000000 0.000000
-270.543579 230.730011 216.391449 -0.445910 0.662327 0.602069 0.000000 0.000000
-205.231354 265.035370 227.024780 -0.445910 0.662327 0.602069 0.000000 0.000000
-227.321808 293.241272 179.635086 -0.445910 0.662327 0.602069 0.000000 0.000000
-96.102608 265.460266 247.738495 -0.021321 0.770579 0.636988 0.000000 0.000000
-140.875641 307.489441 195.396225 -0.021321 0.770579 0.636988 0.000000 0.000000
-143.108322 263.584534 248.434235 -0.021321 0.770579 0.636988 0.000000 0.000000
-369.548706 45.499645 179.836365 -0.845233 0.086579 0.527338 0.000000 0.000000
-345.218201 51.659306 217.822723 -0.845233 0.086579 0.527338 0.000000 0.000000
-361.331757 127.754211 179.502029 -0.845233 0.086579 0.527338 0.000000 0.000000
-369.548706 45.499645 179.836365 -0.818683 -0.162612 0.550740 0.000000 0.000000
-353.356537 -35.893200 179.874069 -0.818683 -0.162612 0.550740 0.000000 0.000000
-345.218201 51.659306 217.822723 -0.818683 -0.162612 0.550740 0.000000 0.000000
-332.268311 146.577591 212.034882 -0.788880 0.370055 0.490639 0.000000 0.000000
-321.087982 211.048981 181.385025 -0.788880 0.370055 0.490639 0.000000 0.000000
-361.331757 127.754211 179.502029 -0.788880 0.370055 0.490639 0.000000 0.000000
-345.218201 51.659306 217.822723 -0.777829 0.143432 0.611890 0.000000 0.000000
-332.268311 146.577591 212.034882 -0.777829 0.143432 0.611890 0.000000 0.000000
-361.331757 127.754211 179.502029 -0.777829 0.143432 0.611890 0.000000 0.000000
-314.781921 -21.396128 234.699142 -0.779564 -0.186671 0.597857 0.000000 0.000000
-345.218201 51.659306 217.822723 -0.779564 -0.186671 0.597857 0.000000 0.000000
-353.356537 -35.893200 179.874069 -0.779564 -0.186671 0.597857 0.000000 0.000000
-353.356537 -35.893200 179.874069 -0.713435 -0.427078 0.555531 0.000000 0.000000
-311.589447 -106.110542 179.531784 -0.713435 -0.427078 0.555531 0.000000 0.000000
-293.618744 -70.927841 229.658005 -0.713435 -0.427078 0.555531 0.000000 0.000000
-314.781921 -21.396128 234.699142 -0.713011 -0.365540 0.598328 0.000000 0.000000
-353.356537 -35.893200 179.874069 -0.713011 -0.365540 0.598328 0.000000 0.000000
-293.618744 -70.927841 229.658005 -0.713011 -0.365540 0.598328 0.000000 0.000000
-293.618744 -70.927841 229.658005 -0.618291 -0.521697 0.587833 0.000000 0.000000
-311.589447 -106.110542 179.531784 -0.618291 -0.521697 0.587833 0.000000 0.000000
-271.156403 -114.630684 214.498306 -0.618291 -0.521697 0.587833 0.000000 0.000000
-345.218201 51.659306 217.822723 -0.748427 0.141618 0.647921 0.000000 0.000000
-304.663269 88.562180 256.602600 -0.748427 0.141618 0.647921 0.000000 0.000000
-332.268311 146.577591 212.034882 -0.748427 0.141618 0.647921 0.000000 0.000000
-314.781921 -21.396128 234.699142 -0.729035 -0.149424 0.667968 0.000000 0.000000
-309.565521 34.395782 252.873016 -0.729035 -0.149424 0.667968 0.000000 0.000000
-345.218201 51.659306 217.822723 -0.729035 -0.149424 0.667968 0.000000 0.000000
-332.268311 146.577591 212.034882 -0.655408 0.238627 0.716587 0.000000 0.000000
-304.663269 88.562180 256.602600 -0.655408 0.238627 0.716587 0.000000 0.000000
-276.945557 167.305420 255.731979 -0.655408 0.238627 0.716587 0.000000 0.000000
-166.271667 -198.343384 179.632904 0.008328 -0.866892 0.498426 0.000000 0.000000
-57.400040 -197.372879 179.501846 0.008328 -0.866892 0.498426 0.000000 0.000000
-85.782372 -174.931702 219.007095 0.008328 -0.866892 0.498426 0.000000 0.000000
-57.400040 -197.372879 179.501846 0.311792 -0.805120 0.504546 0.000000 0.000000
23.021441 -166.230331 179.499283 0.311792 -0.805120 0.504546 0.000000 0.000000
-24.417503 -158.993668 220.362717 0.311792 -0.805120 0.504546 0.000000 0.000000
-24.417503 -158.993668 220.362717 0.191697 -0.787854 0.585268 0.000000 0.000000
-85.782372 -174.931702 219.007095 0.191697 -0.787854 0.585268 0.000000 0.000000
-57.400040 -197.372879 179.501846 0.191697 -0.787854 0.585268 0.000000 0.000000
-154.947617 -165.264359 226.951874 -0.047078 -0.813358 0.579856 0.000000 0.000000
-166.271667 -198.343384 179.632904 -0.047078 -0.813358 0.579856 0.000000 0.000000
-85.782372 -174.931702 219.007095 -0.047078 -0.813358 0.579856 0.000000 0.000000
-154.947617 -165.264359 226.951874 -0.284984 -0.752243 0.594067 0.000000 0.000000
-228.873383 -149.091461 211.967453 -0.284984 -0.752243 0.594067 0.000000 0.000000
-166.271667 -198.343384 179.632904 -0.284984 -0.752243 0.594067 0.000000 0.000000
-259.771179 -154.592072 179.523987 -0.370624 -0.790836 0.487049 0.000000 0.000000
-166.271667 -198.343384 179.632904 -0.370624 -0.790836 0.487049 0.000000 0.000000
-228.873383 -149.091461 211.967453 -0.370624 -0.790836 0.487049 0.000000 0.000000
-24.417503 -158.993668 220.362717 0.388568 -0.717464 0.578153 0.000000 0.000000
23.021441 -166.230331 179.499283 0.388568 -0.717464 0.578153 0.000000 0.000000
7.412392 -133.924286 230.080353 0.388568 -0.717464 0.578153 0.000000 0.000000
7.412392 -133.924286 230.080353 0.450288 -0.682958 0.575160 0.000000 0.000000
23.021441 -166.230331 179.499283 0.450288 -0.682958 0.575160 0.000000 0.000000
47.822121 -127.300835 206.308762 0.450288 -0.682958 0.575160 0.000000 0.000000
-228.873383 -149.091461 211.967453 -0.493541 -0.648160 0.579919 0.000000 0.000000
-271.156403 -114.630684 214.498306 -0.493541 -0.648160 0.579919 0.000000 0.000000
-259.771179 -154.592072 179.523987 -0.493541 -0.648160 0.579919 0.000000 0.000000
-311.589447 -106.110542 179.531784 -0.582690 -0.622878 0.522011 0.000000 0.000000
-259.771179 -154.592072 179.523987 -0.582690 -0.622878 0.522011 0.000000 0.000000
-271.156403 -114.630684 214.498306 -0.582690 -0.622878 0.522011 0.000000 0.000000
-154.947617 -165.264359 226.951874 -0.018644 -0.711044 0.702900 0.000000 0.000000
-85.782372 -174.931702 219.007095 -0.018644 -0.711044 0.702900 0.000000 0.000000
-110.826225 -122.564117 271.317169 -0.018644 -0.711044 0.702900 0.000000 0.000000
67.297577 131.648163 262.841888 0.667034 0.138333 0.732072 0.000000 0.000000
82.960670 65.547607 261.060791 0.667034 0.138333 0.732072 0.000000 0.000000
124.250381 110.334641 214.976288 0.667034 0.138333 0.732072 0.000000 0.000000
57.462238 -88.237549 232.784851 0.593102 -0.546866 0.590904 0.000000 0.000000
47.822121 -127.300835 206.308762 0.593102 -0.546866 0.590904 0.000000 0.000000
88.370735 -111.913834 179.849579 0.593102 -0.546866 0.590904 0.000000 0.000000
69.139366 190.156891 233.287155 0.676958 0.314765 0.665320 0.000000 0.000000
67.297577 131.648163 262.841888 0.676958 0.314765 0.665320 0.000000 0.000000
124.250381 110.334641 214.976288 0.676958 0.314765 0.665320 0.000000 0.000000
74.852409 9.192285 262.933685 0.584267 -0.296783 0.755349 0.000000 0.000000
33.188744 -59.509266 268.167389 0.584267 -0.296783 0.755349 0.000000 0.000000
93.320198 -37.310066 230.377548 0.584267 -0.296783 0.755349 0.000000 0.000000
69.139366 190.156891 233.287155 0.535765 0.558974 0.632854 0.000000 0.000000
69.116951 248.776718 181.529587 0.535765 0.558974 0.632854 0.000000 0.000000
31.596472 205.865707 251.195450 0.535765 0.558974 0.632854 0.000000 0.000000
57.462238 -88.237549 232.784851 0.588696 -0.380795 0.713044 0.000000 0.000000
93.320198 -37.310066 230.377548 0.588696 -0.380795 0.713044 0.000000 0.000000
33.188744 -59.509266 268.167389 0.588696 -0.380795 0.713044 0.000000 0.000000
31.596472 205.865707 251.195450 0.521763 0.371495 0.767955 0.000000 0.000000
67.297577 131.648163 262.841888 0.521763 0.371495 0.767955 0.000000 0.000000
69.139366 190.156891 233.287155 0.521763 0.371495 0.767955 0.000000 0.000000
31.596472 205.865707 251.195450 0.479309 0.608179 0.632756 0.000000 0.000000
69.116951 248.776718 181.529587 0.479309 0.608179 0.632756 0.000000 0.000000
-11.241070 248.222290 242.933243 0.479309 0.608179 0.632756 0.000000 0.000000
82.960670 65.547607 261.060791 0.572562 -0.055194 0.818002 0.000000 0.000000
33.442535 41.086166 294.070587 0.572562 -0.055194 0.818002 0.000000 0.000000
74.852409 9.192285 262.933685 0.572562 -0.055194 0.818002 0.000000 0.000000
82.960670 65.547607 261.060791 0.544059 0.106494 0.832262 0.000000 0.000000
67.297577 131.648163 262.841888 0.544059 0.106494 0.832262 0.000000 0.000000
12.980920 103.607140 301.937347 0.544059 0.106494 0.832262 0.000000 0.000000
57.462238 -88.237549 232.784851 0.484093 -0.569643 0.664199 0.000000 0.000000
7.412392 -133.924286 230.080353 0.484093 -0.569643 0.664199 0.000000 0.000000
47.822121 -127.300835 206.308762 0.484093 -0.569643 0.664199 0.000000 0.000000
33.442535 41.086166 294.070587 0.530230 0.067185 0.845187 0.000000 0.000000
82.960670 65.547607 261.060791 0.530230 0.067185 0.845187 0.000000 0.000000
12.980920 103.607140 301.937347 0.530230 0.067185 0.845187 0.000000 0.000000
31.596472 205.865707 251.195450 0.477696 0.355834 0.803236 0.000000 0.000000
-9.177635 170.775620 290.989319 0.477696 0.355834 0.803236 0.000000 0.000000
67.297577 131.648163 262.841888 0.477696 0.355834 0.803236 0.000000 0.000000
33.188744 -59.509266 268.167389 0.504689 -0.242957 0.828409 0.000000 0.000000
74.852409 9.192285 262.933685 0.504689 -0.242957 0.828409 0.000000 0.000000
3.855684 -18.770227 297.985870 0.504689 -0.242957 0.828409 0.000000 0.000000
33.188744 -59.509266 268.167389 0.440073 -0.525216 0.728344 0.000000 0.000000
7.412392 -133.924286 230.080353 0.440073 -0.525216 0.728344 0.000000 0.000000
57.462238 -88.237549 232.784851 0.440073 -0.525216 0.728344 0.000000 0.000000
33.442535 41.086166 294.070587 0.493423 -0.188354 0.849151 0.000000 0.000000
3.855684 -18.770227 297.985870 0.493423 -0.188354 0.849151 0.000000 0.000000
74.852409 9.192285 262.933685 0.493423 -0.188354 0.849151 0.000000 0.000000
12.980920 103.607140 301.937347 0.457059 0.287947 0.841536 0.000000 0.000000
67.297577 131.648163 262.841888 0.457059 0.287947 0.841536 0.000000 0.000000
-9.177635 170.775620 290.989319 0.457059 0.287947 0.841536 0.000000 0.000000
-11.241070 248.222290 242.933243 0.343056 0.501836 0.794024 0.000000 0.000000
-9.177635 170.775620 290.989319 0.343056 0.501836 0.794024 0.000000 0.000000
31.596472 205.865707 251.195450 0.343056 0.501836 0.794024 0.000000 0.000000
7.412392 -133.924286 230.080353 0.367456 -0.521441 0.770114 0.000000 0.000000
33.188744 -59.509266 268.167389 0.367456 -0.521441 0.770114 0.000000 0.000000
-40.710388 -110.543495 268.872925 0.367456 -0.521441 0.770114 0.000000 0.000000
12.980920 103.607140 301.937347 0.393583 0.013152 0.919195 0.000000 0.000000
-30.695211 61.368053 321.243011 0.393583 0.013152 0.919195 0.000000 0.000000
33.442535 41.086166 294.070587 0.393583 0.013152 0.919195 0.000000 0.000000
3.855684 -18.770227 297.985870 0.356304 -0.115470 0.927208 0.000000 0.000000
33.442535 41.086166 294.070587 0.356304 -0.115470 0.927208 0.000000 0.000000
-30.695211 61.368053 321.243011 0.356304 -0.115470 0.927208 0.000000 0.000000
33.188744 -59.509266 268.167389 0.312499 -0.404193 0.859635 0.000000 0.000000
3.855684 -18.770227 297.985870 0.312499 -0.404193 0.859635 0.000000 0.000000
-65.647865 -60.816460 303.482391 0.312499 -0.404193 0.859635 0.000000 0.000000
-65.647865 -60.816460 303.482391 0.308143 -0.434500 0.846320 0.000000 0.000000
-40.710388 -110.543495 268.872925 0.308143 -0.434500 0.846320 0.000000 0.000000
33.188744 -59.509266 268.167389 0.308143 -0.434500 0.846320 0.000000 0.000000
-24.417503 -158.993668 220.362717 0.276634 -0.631884 0.724014 0.000000 0.000000
7.412392 -133.924286 230.080353 0.276634 -0.631884 0.724014 0.000000 0.000000
-40.710388 -110.543495 268.872925 0.276634 -0.631884 0.724014 0.000000 0.000000
-9.177635 170.775620 290.989319 0.250447 0.515256 0.819627 0.000000 0.000000
-11.241070 248.222290 242.933243 0.250447 0.515256 0.819627 0.000000 0.000000
-85.034302 211.652649 288.471069 0.250447 0.515256 0.819627 0.000000 0.000000
-9.177635 170.775620 290.989319 0.267606 0.240365 0.933066 0.000000 0.000000
-73.885178 133.332443 319.193268 0.267606 0.240365 0.933066 0.000000 0.000000
12.980920 103.607140 301.937347 0.267606 0.240365 0.933066 0.000000 0.000000
-30.695211 61.368053 321.243011 0.253674 -0.167128 0.952742 0.000000 0.000000
-82.598671 -1.286503 324.071930 0.253674 -0.167128 0.952742 0.000000 0.000000
3.855684 -18.770227 297.985870 0.253674 -0.167128 0.952742 0.000000 0.000000
-73.885178 133.332443 319.193268 0.249674 0.176960 0.952023 0.000000 0.000000
-30.695211 61.368053 321.243011 0.249674 0.176960 0.952023 0.000000 0.000000
12.980920 103.607140 301.937347 0.249674 0.176960 0.952023 0.000000 0.000000
-65.647865 -60.816460 303.482391 0.230700 -0.258733 0.937995 0.000000 0.000000
3.855684 -18.770227 297.985870 0.230700 -0.258733 0.937995 0.000000 0.000000
-82.598671 -1.286503 324.071930 0.230700 -0.258733 0.937995 0.000000 0.000000
-40.710388 -110.543495 268.872925 0.141155 -0.676353 0.722925 0.000000 0.000000
-110.826225 -122.564117 271.317169 0.141155 -0.676353 0.722925 0.000000 0.000000
-24.417503 -158.993668 220.362717 0.141155 -0.676353 0.722925 0.000000 0.000000
-85.782372 -174.931702 219.007095 0.155187 -0.660021 0.735044 0.000000 0.000000
-24.417503 -158.993668 220.362717 0.155187 -0.660021 0.735044 0.000000 0.000000
-110.826225 -122.564117 271.317169 0.155187 -0.660021 0.735044 0.000000 0.000000
-57.893429 279.709747 227.733078 0.169414 0.620596 0.765610 0.000000 0.000000
-96.102608 265.460266 247.738495 0.169414 0.620596 0.765610 0.000000 0.000000
-11.241070 248.222290 242.933243 0.169414 0.620596 0.765610 0.000000 0.000000
-85.034302 211.652649 288.471069 0.175195 0.381040 0.907808 0.000000 0.000000
-73.885178 133.332443 319.193268 0.175195 0.381040 0.907808 0.000000 0.000000
-9.177635 170.775620 290.989319 0.175195 0.381040 0.907808 0.000000 0.000000
-85.034302 211.652649 288.471069 0.168816 0.616746 0.768847 0.000000 0.000000
-11.241070 248.222290 242.933243 0.168816 0.616746 0.768847 0.000000 0.000000
-96.102608 265.460266 247.738495 0.168816 0.616746 0.768847 0.000000 0.000000
-125.022835 62.839226 331.684814 0.110990 0.094789 0.989291 0.000000 0.000000
-30.695211 61.368053 321.243011 0.110990 0.094789 0.989291 0.000000 0.000000
-73.885178 133.332443 319.193268 0.110990 0.094789 0.989291 0.000000 0.000000
-40.710388 -110.543495 268.872925 0.119542 -0.526072 0.841997 0.000000 0.000000
-65.647865 -60.816460 303.482391 0.119542 -0.526072 0.841997 0.000000 0.000000
-110.826225 -122.564117 271.317169 0.119542 -0.526072 0.841997 0.000000 0.000000
-85.034302 211.652649 288.471069 0.057300 0.371633 0.926610 0.000000 0.000000
-134.650635 148.802475 316.746368 0.057300 0.371633 0.926610 0.000000 0.000000
-73.885178 133.332443 319.193268 0.057300 0.371633 0.926610 0.000000 0.000000
-125.022835 62.839226 331.684814 0.109207 -0.045634 0.992971 0.000000 0.000000
-82.598671 -1.286503 324.071930 0.109207 -0.045634 0.992971 0.000000 0.000000
-30.695211 61.368053 321.243011 0.109207 -0.045634 0.992971 0.000000 0.000000
-143.108322 263.584534 248.434235 -0.012201 0.601926 0.798458 0.000000 0.000000
-85.034302 211.652649 288.471069 -0.012201 0.601926 0.798458 0.000000 0.000000
-96.102608 265.460266 247.738495 -0.012201 0.601926 0.798458 0.000000 0.000000
-125.022835 62.839226 331.684814 0.004029 0.171648 0.985150 0.000000 0.000000
-73.885178 133.332443 319.193268 0.004029 0.171648 0.985150 0.000000 0.000000
-134.650635 148.802475 316.746368 0.004029 0.171648 0.985150 0.000000 0.000000
-65.647865 -60.816460 303.482391 -0.062208 -0.342012 0.937634 0.000000 0.000000
-82.598671 -1.286503 324.071930 -0.062208 -0.342012 0.937634 0.000000 0.000000
-176.152893 0.168470 318.395752 -0.062208 -0.342012 0.937634 0.000000 0.000000
-176.152893 0.168470 318.395752 -0.046456 -0.315919 0.947648 0.000000 0.000000
-175.681076 -66.975044 296.035156 -0.046456 -0.315919 0.947648 0.000000 0.000000
-65.647865 -60.816460 303.482391 -0.046456 -0.315919 0.947648 0.000000 0.000000
-110.826225 -122.564117 271.317169 -0.036028 -0.440830 0.896867 0.000000 0.000000
-65.647865 -60.816460 303.482391 -0.036028 -0.440830 0.896867 0.000000 0.000000
-175.681076 -66.975044 296.035156 -0.036028 -0.440830 0.896867 0.000000 0.000000
-125.022835 62.839226 331.684814 -0.062250 -0.158173 0.985447 0.000000 0.000000
-176.152893 0.168470 318.395752 -0.062250 -0.158173 0.985447 0.000000 0.000000
-82.598671 -1.286503 324.071930 -0.062250 -0.158173 0.985447 0.000000 0.000000
-85.034302 211.652649 288.471069 -0.107855 0.528547 0.842025 0.000000 0.000000
-143.108322 263.584534 248.434235 -0.107855 0.528547 0.842025 0.000000 0.000000
-199.332245 210.919220 274.290985 -0.107855 0.528547 0.842025 0.000000 0.000000
-134.650635 148.802475 316.746368 -0.111081 0.479346 0.870568 0.000000 0.000000
-85.034302 211.652649 288.471069 -0.111081 0.479346 0.870568 0.000000 0.000000
-199.332245 210.919220 274.290985 -0.111081 0.479346 0.870568 0.000000 0.000000
-154.947617 -165.264359 226.951874 -0.157459 -0.628611 0.761613 0.000000 0.000000
-110.826225 -122.564117 271.317169 -0.157459 -0.628611 0.761613 0.000000 0.000000
-200.671432 -119.486305 255.282486 -0.157459 -0.628611 0.761613 0.000000 0.000000
-125.022835 62.839226 331.684814 -0.185635 0.148017 0.971407 0.000000 0.000000
-134.650635 148.802475 316.746368 -0.185635 0.148017 0.971407 0.000000 0.000000
-212.594681 82.725876 311.919739 -0.185635 0.148017 0.971407 0.000000 0.000000
-110.826225 -122.564117 271.317169 -0.164567 -0.554673 0.815632 0.000000 0.000000
-175.681076 -66.975044 296.035156 -0.164567 -0.554673 0.815632 0.000000 0.000000
-200.671432 -119.486305 255.282486 -0.164567 -0.554673 0.815632 0.000000 0.000000
-175.548874 235.757233 262.253601 0.052768 0.394142 0.917534 0.000000 0.000000
-199.332245 210.919220 274.290985 0.052768 0.394142 0.917534 0.000000 0.000000
-143.108322 263.584534 248.434235 0.052768 0.394142 0.917534 0.000000 0.000000
-199.332245 210.919220 274.290985 -0.227893 0.376442 0.897974 0.000000 0.000000
-216.805450 149.689102 295.524963 -0.227893 0.376442 0.897974 0.000000 0.000000
-134.650635 148.802475 316.746368 -0.227893 0.376442 0.897974 0.000000 0.000000
-212.594681 82.725876 311.919739 -0.241987 0.216358 0.945850 0.000000 0.000000
-134.650635 148.802475 316.746368 -0.241987 0.216358 0.945850 0.000000 0.000000
-216.805450 149.689102 295.524963 -0.241987 0.216358 0.945850 0.000000 0.000000
-176.152893 0.168470 318.395752 -0.225058 -0.022934 0.974075 0.000000 0.000000
-125.022835 62.839226 331.684814 -0.225058 -0.022934 0.974075 0.000000 0.000000
-212.594681 82.725876 311.919739 -0.225058 -0.022934 0.974075 0.000000 0.000000
-177.103561 234.342667 181.145874 0.717414 0.696166 -0.025893 0.000000 0.000000
-205.231354 265.035370 227.024780 0.717414 0.696166 -0.025893 0.000000 0.000000
-175.548874 235.757233 262.253601 0.717414 0.696166 -0.025893 0.000000 0.000000
-205.231354 265.035370 227.024780 -0.269620 0.616630 0.739644 0.000000 0.000000
-199.332245 210.919220 274.290985 -0.269620 0.616630 0.739644 0.000000 0.000000
-175.548874 235.757233 262.253601 -0.269620 0.616630 0.739644 0.000000 0.000000
-175.681076 -66.975044 296.035156 -0.346473 -0.298586 0.889271 0.000000 0.000000
-176.152893 0.168470 318.395752 -0.346473 -0.298586 0.889271 0.000000 0.000000
-253.668808 -6.829764 285.844666 -0.346473 -0.298586 0.889271 0.000000 0.000000
-200.671432 -119.486305 255.282486 -0.285777 -0.694245 0.660572 0.000000 0.000000
-228.873383 -149.091461 211.967453 -0.285777 -0.694245 0.660572 0.000000 0.000000
-154.947617 -165.264359 226.951874 -0.285777 -0.694245 0.660572 0.000000 0.000000
-212.594681 82.725876 311.919739 -0.378157 -0.094686 0.920886 0.000000 0.000000
-253.668808 -6.829764 285.844666 -0.378157 -0.094686 0.920886 0.000000 0.000000
-176.152893 0.168470 318.395752 -0.378157 -0.094686 0.920886 0.000000 0.000000
-253.668808 -6.829764 285.844666 -0.369021 -0.331368 0.868343 0.000000 0.000000
-242.724457 -74.218407 264.779510 -0.369021 -0.331368 0.868343 0.000000 0.000000
-175.681076 -66.975044 296.035156 -0.369021 -0.331368 0.868343 0.000000 0.000000
-212.594681 82.725876 311.919739 -0.429120 0.189252 0.883198 0.000000 0.000000
-216.805450 149.689102 295.524963 -0.429120 0.189252 0.883198 0.000000 0.000000
-266.467987 79.161461 286.508057 -0.429120 0.189252 0.883198 0.000000 0.000000
-200.671432 -119.486305 255.282486 -0.328694 -0.476431 0.815459 0.000000 0.000000
-175.681076 -66.975044 296.035156 -0.328694 -0.476431 0.815459 0.000000 0.000000
-242.724457 -74.218407 264.779510 -0.328694 -0.476431 0.815459 0.000000 0.000000
-253.668808 -6.829764 285.844666 -0.421797 -0.069756 0.904003 0.000000 0.000000
-212.594681 82.725876 311.919739 -0.421797 -0.069756 0.904003 0.000000 0.000000
-266.467987 79.161461 286.508057 -0.421797 -0.069756 0.904003 0.000000 0.000000
-199.332245 210.919220 274.290985 -0.420425 0.402051 0.813387 0.000000 0.000000
-276.945557 167.305420 255.731979 -0.420425 0.402051 0.813387 0.000000 0.000000
-216.805450 149.689102 295.524963 -0.420425 0.402051 0.813387 0.000000 0.000000
-276.945557 167.305420 255.731979 -0.487322 0.235652 0.840824 0.000000 0.000000
-266.467987 79.161461 286.508057 -0.487322 0.235652 0.840824 0.000000 0.000000
-216.805450 149.689102 295.524963 -0.487322 0.235652 0.840824 0.000000 0.000000
-205.231354 265.035370 227.024780 -0.415648 0.572191 0.706990 0.000000 0.000000
-270.543579 230.730011 216.391449 -0.415648 0.572191 0.706990 0.000000 0.000000
-199.332245 210.919220 274.290985 -0.415648 0.572191 0.706990 0.000000 0.000000
-270.543579 230.730011 216.391449 -0.457449 0.501611 0.734253 0.000000 0.000000
-276.945557 167.305420 255.731979 -0.457449 0.501611 0.734253 0.000000 0.000000
-199.332245 210.919220 274.290985 -0.457449 0.501611 0.734253 0.000000 0.000000
-242.724457 -74.218407 264.779510 -0.443739 -0.559150 0.700319 0.000000 0.000000
-271.156403 -114.630684 214.498306 -0.443739 -0.559150 0.700319 0.000000 0.000000
-200.671432 -119.486305 255.282486 -0.443739 -0.559150 0.700319 0.000000 0.000000
-242.724457 -74.218407 264.779510 -0.550639 -0.329211 0.767083 0.000000 0.000000
-253.668808 -6.829764 285.844666 -0.550639 -0.329211 0.767083 0.000000 0.000000
-293.618744 -70.927841 229.658005 -0.550639 -0.329211 0.767083 0.000000 0.000000
-266.467987 79.161461 286.508057 -0.553843 -0.088822 0.827870 0.000000 0.000000
-309.565521 34.395782 252.873016 -0.553843 -0.088822 0.827870 0.000000 0.000000
-253.668808 -6.829764 285.844666 -0.553843 -0.088822 0.827870 0.000000 0.000000
-228.873383 -149.091461 211.967453 -0.435960 -0.585136 0.683780 0.000000 0.000000
-200.671432 -119.486305 255.282486 -0.435960 -0.585136 0.683780 0.000000 0.000000
-271.156403 -114.630684 214.498306 -0.435960 -0.585136 0.683780 0.000000 0.000000
-304.663269 88.562180 256.602600 -0.616244 0.001546 0.787554 0.000000 0.000000
-309.565521 34.395782 252.873016 -0.616244 0.001546 0.787554 0.000000 0.000000
-266.467987 79.161461 286.508057 -0.616244 0.001546 0.787554 0.000000 0.000000
-309.565521 34.395782 252.873016 -0.601440 -0.196052 0.774489 0.000000 0.000000
-314.781921 -21.396128 234.699142 -0.601440 -0.196052 0.774489 0.000000 0.000000
-253.668808 -6.829764 285.844666 -0.601440 -0.196052 0.774489 0.000000 0.000000
-293.618744 -70.927841 229.658005 -0.562730 -0.318089 0.762991 0.000000 0.000000
-253.668808 -6.829764 285.844666 -0.562730 -0.318089 0.762991 0.000000 0.000000
-314.781921 -21.396128 234.699142 -0.562730 -0.318089 0.762991 0.000000 0.000000
-276.945557 167.305420 255.731979 -0.570305 0.209530 0.794260 0.000000 0.000000
-304.663269 88.562180 256.602600 -0.570305 0.209530 0.794260 0.000000 0.000000
-266.467987 79.161461 286.508057 -0.570305 0.209530 0.794260 0.000000 0.000000
-293.618744 -70.927841 229.658005 -0.512280 -0.504412 0.695082 0.000000 0.000000
-271.156403 -114.630684 214.498306 -0.512280 -0.504412 0.695082 0.000000 0.000000
-242.724457 -74.218407 264.779510 -0.512280 -0.504412 0.695082 0.000000 0.000000
-276.945557 167.305420 255.731979 -0.619738 0.457903 0.637377 0.000000 0.000000
-270.543579 230.730011 216.391449 -0.619738 0.457903 0.637377 0.000000 0.000000
-321.087982 211.048981 181.385025 -0.619738 0.457903 0.637377 0.000000 0.000000
-321.087982 211.048981 181.385025 -0.654658 0.414159 0.632373 0.000000 0.000000
-332.268311 146.577591 212.034882 -0.654658 0.414159 0.632373 0.000000 0.000000
-276.945557 167.305420 255.731979 -0.654658 0.414159 0.632373 0.000000 0.000000
74.852409 9.192285 262.933685 0.696750 -0.204619 0.687510 0.000000 0.000000
93.320198 -37.310066 230.377548 0.696750 -0.204619 0.687510 0.000000 0.000000
121.345009 20.918650 219.306305 0.696750 -0.204619 0.687510 0.000000 0.000000
-345.218201 51.659306 217.822723 -0.697582 0.013808 0.716372 0.000000 0.000000
-309.565521 34.395782 252.873016 -0.697582 0.013808 0.716372 0.000000 0.000000
-304.663269 88.562180 256.602600 -0.697582 0.013808 0.716372 0.000000 0.000000
-137.189240 270.487366 177.498871 0.215563 0.442509 -0.870470 0.000000 0.000000
-140.875641 307.489441 195.396225 0.215563 0.442509 -0.870470 0.000000 0.000000
-108.905975 260.086151 179.215408 0.215563 0.442509 -0.870470 0.000000 0.000000
-182.886215 240.248642 179.500000 0.726561 0.646773 -0.231934 0.000000 0.000000
-177.103561 234.342667 181.145874 0.726561 0.646773 -0.231934 0.000000 0.000000
-182.869766 240.230164 179.500000 0.726561 0.646773 -0.231934 0.000000 0.000000
-189.793259 248.002457 179.500015 -0.003176 -0.002828 -0.999991 0.755931 0.617250
-182.886215 240.248642 179.500000 -0.003176 -0.002828 -0.999991 0.755715 0.617492
-182.869766 240.230164 179.500000 -0.003176 -0.002828 -0.999991 0.755715 0.617493
-0.789245 293.608276 181.775024 -0.642498 0.764455 -0.052965 0.000000 0.000000
-81.665535 225.469040 179.386993 -0.642498 0.764455 -0.052965 0.000000 0.000000
-49.043686 253.905960 194.099533 -0.642498 0.764455 -0.052965 0.000000 0.000000
-98.319633 295.880981 213.912949 0.449050 0.476755 -0.755684 0.000000 0.000000
-57.893429 279.709747 227.733078 0.449050 0.476755 -0.755684 0.000000 0.000000
-81.665535 225.469040 179.386993 0.449050 0.476755 -0.755684 0.000000 0.000000
23.021441 -166.230331 179.499283 0.563539 -0.681021 0.467583 0.000000 0.000000
88.370735 -111.913834 179.849579 0.563539 -0.681021 0.467583 0.000000 0.000000
47.822121 -127.300835 206.308762 0.563539 -0.681021 0.467583 0.000000 0.000000
145.815002 111.458656 181.029831 0.017196 0.019906 -0.999654 0.745536 0.621253
151.544098 33.527309 179.576569 0.017196 0.019906 -0.999654 0.745398 0.624089
-81.665535 225.469040 179.386993 0.017196 0.019906 -0.999654 0.752481 0.617899
117.321053 187.510956 180.848785 0.007422 0.000400 -0.999972 0.746150 0.619601
145.815002 111.458656 181.029831 0.007422 0.000400 -0.999972 0.745536 0.621253
-81.665535 225.469040 179.386993 0.007422 0.000400 -0.999972 0.752481 0.617899
69.116951 248.776718 181.529587 0.011135 0.019870 -0.999741 0.747410 0.617741
117.321053 187.510956 180.848785 0.011135 0.019870 -0.999741 0.746150 0.619601
-81.665535 225.469040 179.386993 0.011135 0.019870 -0.999741 0.752481 0.617899
69.116951 248.776718 181.529587 0.010765 0.022259 -0.999694 0.747410 0.617741
-81.665535 225.469040 179.386993 0.010765 0.022259 -0.999694 0.752481 0.617899
-0.789245 293.608276 181.775024 0.010765 0.022259 -0.999694 0.750054 0.615795
-189.793259 248.002457 179.500015 -0.012319 -0.007234 -0.999898 0.755931 0.617250
-321.087982 211.048981 181.385025 -0.012319 -0.007234 -0.999898 0.759838 0.618293
-227.321808 293.241272 179.635086 -0.012319 -0.007234 -0.999898 0.756966 0.615889
-182.869766 240.230164 179.500000 -0.011478 -0.010223 -0.999882 0.755715 0.617493
-321.087982 211.048981 181.385025 -0.011478 -0.010223 -0.999882 0.759838 0.618293
-189.793259 248.002457 179.500015 -0.011478 -0.010223 -0.999882 0.755931 0.617250
-179.501343 236.343658 179.500015 -0.011526 -0.009994 -0.999884 0.755609 0.617614
-321.087982 211.048981 181.385025 -0.011526 -0.009994 -0.999884 0.759838 0.618293
-182.869766 240.230164 179.500000 -0.011526 -0.009994 -0.999884 0.755715 0.617493
-361.331757 127.754211 179.502029 -0.018978 0.031760 -0.999315 0.761242 0.621294
-321.087982 211.048981 181.385025 -0.018978 0.031760 -0.999315 0.759838 0.618293
-179.501343 236.343658 179.500015 -0.018978 0.031760 -0.999315 0.755609 0.617614
-369.548706 45.499645 179.836365 0.002570 -0.004321 -0.999987 0.761522 0.623278
-361.331757 127.754211 179.502029 0.002570 -0.004321 -0.999987 0.761242 0.621294
-179.501343 236.343658 179.500015 0.002570 -0.004321 -0.999987 0.755609 0.617614
-353.356537 -35.893200 179.874069 0.006073 0.000745 -0.999981 0.761098 0.625605
-369.548706 45.499645 179.836365 0.006073 0.000745 -0.999981 0.761522 0.623278
-177.103561 234.342667 181.145874 0.006073 0.000745 -0.999981 0.755516 0.617659
151.544098 33.527309 179.576569 -0.006050 -0.008339 -0.999947 0.745398 0.624089
125.302460 -56.837498 180.488922 -0.006050 -0.008339 -0.999947 0.746050 0.626540
-81.665535 225.469040 179.386993 -0.006050 -0.008339 -0.999947 0.752481 0.617899
125.302460 -56.837498 180.488922 0.011050 0.004198 -0.999930 0.746050 0.626540
88.370735 -111.913834 179.849579 0.011050 0.004198 -0.999930 0.747253 0.628413
-81.665535 225.469040 179.386993 0.011050 0.004198 -0.999930 0.752481 0.617899
-311.589447 -106.110542 179.531784 -0.004123 0.002422 -0.999989 0.759792 0.628159
-353.356537 -35.893200 179.874069 -0.004123 0.002422 -0.999989 0.761098 0.625605
-81.665535 225.469040 179.386993 -0.004123 0.002422 -0.999989 0.752481 0.617899
-57.400040 -197.372879 179.501846 -0.001201 -0.000341 -0.999999 0.751716 0.631077
-166.271667 -198.343384 179.632904 -0.001201 -0.000341 -0.999999 0.755255 0.631008
-81.665535 225.469040 179.386993 -0.001201 -0.000341 -0.999999 0.752481 0.617899
23.021441 -166.230331 179.499283 0.000072 -0.000268 -1.000000 0.749198 0.630074
-57.400040 -197.372879 179.501846 0.000072 -0.000268 -1.000000 0.751716 0.631077
-81.665535 225.469040 179.386993 0.000072 -0.000268 -1.000000 0.752481 0.617899
88.370735 -111.913834 179.849579 0.004581 0.000938 -0.999989 0.747253 0.628413
23.021441 -166.230331 179.499283 0.004581 0.000938 -0.999989 0.749198 0.630074
-81.665535 225.469040 179.386993 0.004581 0.000938 -0.999989 0.752481 0.617899
-166.271667 -198.343384 179.632904 0.000817 -0.000743 -0.999999 0.755255 0.631008
-259.771179 -154.592072 179.523987 0.000817 -0.000743 -0.999999 0.758092 0.629772
-81.665535 225.469040 179.386993 0.000817 -0.000743 -0.999999 0.752481 0.617899
-259.771179 -154.592072 179.523987 -0.000339 -0.000202 -1.000000 0.758092 0.629772
-311.589447 -106.110542 179.531784 -0.000339 -0.000202 -1.000000 0.759792 0.628159
-81.665535 225.469040 179.386993 -0.000339 -0.000202 -1.000000 0.752481 0.617899
-353.356537 -35.893200 179.874069 -0.016959 0.015766 -0.999732 0.761098 0.625605
-177.103561 234.342667 181.145874 -0.016959 0.015766 -0.999732 0.755516 0.617659
-81.665535 225.469040 179.386993 -0.016959 0.015766 -0.999732 0.752481 0.617899
31.593195 277.682617 179.554916 -0.250790 -0.386200 -0.887668 0.748853 0.616481
69.116951 248.776718 181.529587 -0.250790 -0.386200 -0.887668 0.747410 0.617741
-0.789245 293.608276 181.775024 -0.250790 -0.386200 -0.887668 0.750054 0.615795
-108.905975 260.086151 179.215408 -0.020373 -0.020986 -0.999572 0.753371 0.616849
-81.665535 225.469040 179.386993 -0.020373 -0.020986 -0.999572 0.752481 0.617899
-177.103561 234.342667 181.145874 -0.020373 -0.020986 -0.999572 0.755516 0.617659
-177.103561 234.342667 181.145874 0.016652 -0.118563 -0.992807 0.755516 0.617659
-137.189240 270.487366 177.498871 0.016652 -0.118563 -0.992807 0.754390 0.616527
-108.905975 260.086151 179.215408 0.016652 -0.118563 -0.992807 0.753371 0.616849
-179.501343 236.343658 179.500015 0.330635 -0.330812 -0.883880 0.755609 0.617614
-177.103561 234.342667 181.145874 0.330635 -0.330812 -0.883880 0.755516 0.617659
-369.548706 45.499645 179.836365 0.330635 -0.330812 -0.883880 0.761522 0.623278
-182.869766 240.230164 179.500000 -0.000163 -0.000145 -1.000000 0.755715 0.617493
-182.842255 240.199280 179.500000 -0.000163 -0.000145 -1.000000 0.755714 0.617494
-179.501343 236.343658 179.500015 -0.000163 -0.000145 -1.000000 0.755609 0.617614
3 0 1 2
3 3 4 5
3 6 7 8
3 9 10 11
3 12 13 14
3 15 16 17
3 18 19 20
3 21 22 23
3 24 25 26
3 27 28 29
3 30 31 32
3 33 34 35
3 36 37 38
3 39 40 41
3 42 43 44
3 45 46 47
3 48 49 50
3 51 52 53
3 54 55 56
3 57 58 59
3 60 61 62
3 63 64 65
3 66 67 68
3 69 70 71
3 72 73 74
3 75 76 77
3 78 79 80
3 81 82 83
3 84 85 86
3 87 88 89
3 90 91 92
3 93 94 95
3 96 97 98
3 99 100 101
3 102 103 104
3 105 106 107
3 108 109 110
3 111 112 113
3 114 115 116
3 117 118 119
3 120 121 122
3 123 124 125
3 126 127 128
3 129 130 131
3 132 133 134
3 135 136 137
3 138 139 140
3 141 142 143
3 144 145 146
3 147 148 149
3 150 151 152
3 153 154 155
3 156 157 158
3 159 160 161
3 162 163 164
3 165 166 167
3 168 169 170
3 171 172 173
3 174 175 176
3 177 178 179
3 180 181 182
3 183 184 185
3 186 187 188
3 189 190 191
3 192 193 194
3 195 196 197
3 198 199 200
3 201 202 203
3 204 205 206
3 207 208 209
3 210 211 212
3 213 214 215
3 216 217 218
3 219 220 221
3 222 223 224
3 225 226 227
3 228 229 230
3 231 232 233
3 234 235 236
3 237 238 239
3 240 241 242
3 243 244 245
3 246 247 248
3 249 250 251
3 252 253 254
3 255 256 257
3 258 259 260
3 261 262 263
3 264 265 266
3 267 268 269
3 270 271 272
3 273 274 275
3 276 277 278
3 279 280 281
3 282 283 284
3 285 286 287
3 288 289 290
3 291 292 293
3 294 295 296
3 297 298 299
3 300 301 302
3 303 304 305
3 306 307 308
3 309 310 311
3 312 313 314
3 315 316 317
3 318 319 320
3 321 322 323
3 324 325 326
3 327 328 329
3 330 331 332
3 333 334 335
3 336 337 338
3 339 340 341
3 342 343 344
3 345 346 347
3 348 349 350
3 351 352 353
3 354 355 356
3 357 358 359
3 360 361 362
3 363 364 365
3 366 367 368
3 369 370 371
3 372 373 374
3 375 376 377
3 378 379 380
3 381 382 383
3 384 385 386
3 387 388 389
3 390 391 392
3 393 394 395
3 396 397 398
3 399 400 401
3 402 403 404
3 405 406 407
3 408 409 410
3 411 412 413
3 414 415 416
3 417 418 419
3 420 421 422
3 423 424 425
3 426 427 428
3 429 430 431
3 432 433 434
3 435 436 437
3 438 439 440
3 441 442 443
3 444 445 446
3 447 448 449
3 450 451 452
3 453 454 455
3 456 457 458
3 459 460 461
3 462 463 464
3 465 466 467
3 468 469 470
3 471 472 473
3 474 475 476
3 477 478 479
3 480 481 482
3 483 484 485
