ply
format ascii 1.0
comment Created by Blender 2.82 (sub 7) - www.blender.org, source file: ''
element vertex 498
property float x
property float y
property float z
property float nx
property float ny
property float nz
property float s
property float t
element face 166
property list uchar uint vertex_indices
end_header
-284.179169 -113.047516 156.558105 0.807311 0.109687 0.579843 0.000000 0.000000
-306.137177 -180.928055 199.970871 0.807311 0.109687 0.579843 0.000000 0.000000
-274.308807 -179.361816 155.360153 0.807311 0.109687 0.579843 0.000000 0.000000
-306.137177 -180.928055 199.970871 0.759827 0.157595 0.630735 0.000000 0.000000
-284.179169 -113.047516 156.558105 0.759827 0.157595 0.630735 0.000000 0.000000
-338.421509 -131.013077 226.391083 0.759827 0.157595 0.630735 0.000000 0.000000
-603.413696 26.457382 155.205429 -0.339769 0.467275 -0.816217 0.000000 0.000000
-659.438904 25.625694 178.051086 -0.339769 0.467275 -0.816217 0.000000 0.000000
-607.105530 51.245270 170.933014 -0.339769 0.467275 -0.816217 0.000000 0.000000
-721.902588 -7.184324 155.766830 -0.536010 0.693055 0.482045 0.000000 0.000000
-659.438904 25.625694 178.051086 -0.536010 0.693055 0.482045 0.000000 0.000000
-662.798218 36.788029 158.267181 -0.536010 0.693055 0.482045 0.000000 0.000000
-607.105530 51.245270 170.933014 -0.272146 0.730075 0.626838 0.000000 0.000000
-659.438904 25.625694 178.051086 -0.272146 0.730075 0.626838 0.000000 0.000000
-637.164246 2.582931 214.559586 -0.272146 0.730075 0.626838 0.000000 0.000000
-637.164246 2.582931 214.559586 -0.290424 0.731962 0.616349 0.000000 0.000000
-592.781921 24.971819 208.884033 -0.290424 0.731962 0.616349 0.000000 0.000000
-607.105530 51.245270 170.933014 -0.290424 0.731962 0.616349 0.000000 0.000000
-410.983551 36.654694 162.209885 0.471837 0.637347 0.609229 0.000000 0.000000
-359.484436 -29.797794 191.844223 0.471837 0.637347 0.609229 0.000000 0.000000
-376.671326 15.637223 157.623169 0.471837 0.637347 0.609229 0.000000 0.000000
-437.553558 9.180783 210.552750 0.464960 0.635306 0.616602 0.000000 0.000000
-359.484436 -29.797794 191.844223 0.464960 0.635306 0.616602 0.000000 0.000000
-410.983551 36.654694 162.209885 0.464960 0.635306 0.616602 0.000000 0.000000
-769.440186 -221.810287 192.652405 -0.754170 -0.257249 0.604194 0.000000 0.000000
-796.345825 -229.730484 155.695892 -0.754170 -0.257249 0.604194 0.000000 0.000000
-740.298157 -300.045837 195.717651 -0.754170 -0.257249 0.604194 0.000000 0.000000
-754.378174 -192.310654 212.306915 -0.520505 0.641336 -0.563704 0.000000 0.000000
-716.271240 -211.466965 155.325851 -0.520505 0.641336 -0.563704 0.000000 0.000000
-769.440186 -221.810287 192.652405 -0.520505 0.641336 -0.563704 0.000000 0.000000
-703.191101 -116.196732 155.204758 -0.669560 -0.655051 -0.350138 0.000000 0.000000
-739.664917 -109.604675 212.620041 -0.669560 -0.655051 -0.350138 0.000000 0.000000
-760.395752 -60.268169 159.962616 -0.669560 -0.655051 -0.350138 0.000000 0.000000
-769.440186 -221.810287 192.652405 -0.712598 -0.239601 0.659390 0.000000 0.000000
-740.298157 -300.045837 195.717651 -0.712598 -0.239601 0.659390 0.000000 0.000000
-722.187317 -252.039551 232.733856 -0.712598 -0.239601 0.659390 0.000000 0.000000
-722.187317 -252.039551 232.733856 -0.687286 -0.125742 0.715421 0.000000 0.000000
-754.378174 -192.310654 212.306915 -0.687286 -0.125742 0.715421 0.000000 0.000000
-769.440186 -221.810287 192.652405 -0.687286 -0.125742 0.715421 0.000000 0.000000
-721.902588 -7.184324 155.766830 -0.628544 0.502692 0.593493 0.000000 0.000000
-760.395752 -60.268169 159.962616 -0.628544 0.502692 0.593493 0.000000 0.000000
-693.646667 -48.613411 220.782181 -0.628544 0.502692 0.593493 0.000000 0.000000
-646.989197 -397.460388 192.238342 -0.518100 -0.596462 0.613030 0.000000 0.000000
-733.414673 -358.531891 157.072647 -0.518100 -0.596462 0.613030 0.000000 0.000000
-680.843872 -405.942902 155.372925 -0.518100 -0.596462 0.613030 0.000000 0.000000
-590.097229 -330.315399 155.147812 0.522138 -0.706393 -0.477892 0.000000 0.000000
-605.635071 -386.180481 220.747940 0.522138 -0.706393 -0.477892 0.000000 0.000000
-646.989197 -397.460388 192.238342 0.522138 -0.706393 -0.477892 0.000000 0.000000
-646.989197 -397.460388 192.238342 -0.518120 -0.596972 0.612516 0.000000 0.000000
-689.154358 -327.353760 224.898880 -0.518120 -0.596972 0.612516 0.000000 0.000000
-733.414673 -358.531891 157.072647 -0.518120 -0.596972 0.612516 0.000000 0.000000
-338.421509 -131.013077 226.391083 0.687627 0.061836 0.723426 0.000000 0.000000
-357.449799 -182.184921 248.851746 0.687627 0.061836 0.723426 0.000000 0.000000
-306.137177 -180.928055 199.970871 0.687627 0.061836 0.723426 0.000000 0.000000
-369.323212 -40.423264 206.981216 0.710039 -0.703423 -0.032257 0.000000 0.000000
-396.020905 -65.002037 155.298767 0.710039 -0.703423 -0.032257 0.000000 0.000000
-359.484436 -29.797794 191.844223 0.710039 -0.703423 -0.032257 0.000000 0.000000
-359.484436 -29.797794 191.844223 0.602926 0.413596 0.682216 0.000000 0.000000
-383.312927 -50.298431 225.331833 0.602926 0.413596 0.682216 0.000000 0.000000
-369.323212 -40.423264 206.981216 0.602926 0.413596 0.682216 0.000000 0.000000
-383.312927 -50.298431 225.331833 0.630086 -0.773893 0.063889 0.000000 0.000000
-423.081390 -88.536995 154.348557 0.630086 -0.773893 0.063889 0.000000 0.000000
-369.323212 -40.423264 206.981216 0.630086 -0.773893 0.063889 0.000000 0.000000
-383.312927 -50.298431 225.331833 0.452136 0.580567 0.677137 0.000000 0.000000
-359.484436 -29.797794 191.844223 0.452136 0.580567 0.677137 0.000000 0.000000
-437.553558 9.180783 210.552750 0.452136 0.580567 0.677137 0.000000 0.000000
-338.421509 -131.013077 226.391083 0.259564 0.879799 -0.398222 0.000000 0.000000
-397.955048 -144.710724 157.324173 0.259564 0.879799 -0.398222 0.000000 0.000000
-382.633392 -106.718971 251.246826 0.259564 0.879799 -0.398222 0.000000 0.000000
-425.151917 -117.347809 155.651184 0.991490 -0.066186 0.112101 0.000000 0.000000
-423.081390 -88.536995 154.348557 0.991490 -0.066186 0.112101 0.000000 0.000000
-426.891541 -109.424263 175.715637 0.991490 -0.066186 0.112101 0.000000 0.000000
-383.312927 -50.298431 225.331833 0.868422 -0.423013 -0.258658 0.000000 0.000000
-426.891541 -109.424263 175.715637 0.868422 -0.423013 -0.258658 0.000000 0.000000
-423.081390 -88.536995 154.348557 0.868422 -0.423013 -0.258658 0.000000 0.000000
-357.449799 -182.184921 248.851746 0.548071 0.156821 0.821599 0.000000 0.000000
-338.421509 -131.013077 226.391083 0.548071 0.156821 0.821599 0.000000 0.000000
-382.633392 -106.718971 251.246826 0.548071 0.156821 0.821599 0.000000 0.000000
-357.449799 -182.184921 248.851746 0.562905 -0.075263 0.823088 0.000000 0.000000
-394.334320 -224.199493 270.235046 0.562905 -0.075263 0.823088 0.000000 0.000000
-367.322662 -206.630508 253.368439 0.562905 -0.075263 0.823088 0.000000 0.000000
-397.955048 -144.710724 157.324173 0.699951 0.682925 -0.209003 0.000000 0.000000
-425.151917 -117.347809 155.651184 0.699951 0.682925 -0.209003 0.000000 0.000000
-426.891541 -109.424263 175.715637 0.699951 0.682925 -0.209003 0.000000 0.000000
-426.891541 -109.424263 175.715637 0.607629 0.696865 -0.381005 0.000000 0.000000
-382.633392 -106.718971 251.246826 0.607629 0.696865 -0.381005 0.000000 0.000000
-397.955048 -144.710724 157.324173 0.607629 0.696865 -0.381005 0.000000 0.000000
-383.312927 -50.298431 225.331833 0.645574 -0.710602 0.279782 0.000000 0.000000
-403.284271 -60.754013 244.858566 0.645574 -0.710602 0.279782 0.000000 0.000000
-426.891541 -109.424263 175.715637 0.645574 -0.710602 0.279782 0.000000 0.000000
-437.553558 9.180783 210.552750 0.413558 0.556238 0.720812 0.000000 0.000000
-403.284271 -60.754013 244.858566 0.413558 0.556238 0.720812 0.000000 0.000000
-383.312927 -50.298431 225.331833 0.413558 0.556238 0.720812 0.000000 0.000000
-403.284271 -60.754013 244.858566 0.818450 0.299565 -0.490307 0.000000 0.000000
-382.633392 -106.718971 251.246826 0.818450 0.299565 -0.490307 0.000000 0.000000
-426.891541 -109.424263 175.715637 0.818450 0.299565 -0.490307 0.000000 0.000000
-357.449799 -182.184921 248.851746 0.507514 0.142391 0.849797 0.000000 0.000000
-382.633392 -106.718971 251.246826 0.507514 0.142391 0.849797 0.000000 0.000000
-421.802246 -135.376495 279.440979 0.507514 0.142391 0.849797 0.000000 0.000000
-394.334320 -224.199493 270.235046 0.612108 -0.702325 -0.363405 0.000000 0.000000
-467.712219 -228.585037 155.115341 0.612108 -0.702325 -0.363405 0.000000 0.000000
-438.773560 -203.315903 155.022964 0.612108 -0.702325 -0.363405 0.000000 0.000000
-403.284271 -60.754013 244.858566 0.402252 0.300895 0.864671 0.000000 0.000000
-421.802246 -135.376495 279.440979 0.402252 0.300895 0.864671 0.000000 0.000000
-382.633392 -106.718971 251.246826 0.402252 0.300895 0.864671 0.000000 0.000000
-394.334320 -224.199493 270.235046 0.458004 0.049644 0.887563 0.000000 0.000000
-357.449799 -182.184921 248.851746 0.458004 0.049644 0.887563 0.000000 0.000000
-421.802246 -135.376495 279.440979 0.458004 0.049644 0.887563 0.000000 0.000000
-437.553558 9.180783 210.552750 0.328929 0.540906 0.774097 0.000000 0.000000
-476.559601 -31.828117 255.782455 0.328929 0.540906 0.774097 0.000000 0.000000
-403.284271 -60.754013 244.858566 0.328929 0.540906 0.774097 0.000000 0.000000
-394.334320 -224.199493 270.235046 0.354588 -0.192641 0.914963 0.000000 0.000000
-433.964172 -275.077240 274.881256 0.354588 -0.192641 0.914963 0.000000 0.000000
-407.980347 -251.274155 269.823029 0.354588 -0.192641 0.914963 0.000000 0.000000
-403.284271 -60.754013 244.858566 0.321006 0.331484 0.887172 0.000000 0.000000
-484.587250 -108.045387 291.946533 0.321006 0.331484 0.887172 0.000000 0.000000
-421.802246 -135.376495 279.440979 0.321006 0.331484 0.887172 0.000000 0.000000
-421.802246 -135.376495 279.440979 0.346133 0.009808 0.938134 0.000000 0.000000
-482.190796 -192.047653 302.314301 0.346133 0.009808 0.938134 0.000000 0.000000
-394.334320 -224.199493 270.235046 0.346133 0.009808 0.938134 0.000000 0.000000
-394.334320 -224.199493 270.235046 0.347467 -0.186734 0.918911 0.000000 0.000000
-464.249542 -250.488037 291.329865 0.347467 -0.186734 0.918911 0.000000 0.000000
-433.964172 -275.077240 274.881256 0.347467 -0.186734 0.918911 0.000000 0.000000
-476.559601 -31.828117 255.782455 0.269347 0.586380 0.763944 0.000000 0.000000
-437.553558 9.180783 210.552750 0.269347 0.586380 0.763944 0.000000 0.000000
-459.761261 5.824263 220.958984 0.269347 0.586380 0.763944 0.000000 0.000000
-464.249542 -250.488037 291.329865 0.254209 -0.301602 0.918920 0.000000 0.000000
-461.494781 -298.908905 274.675415 0.254209 -0.301602 0.918920 0.000000 0.000000
-433.964172 -275.077240 274.881256 0.254209 -0.301602 0.918920 0.000000 0.000000
-479.976685 -4.298900 236.329758 0.292224 0.575823 0.763566 0.000000 0.000000
-476.559601 -31.828117 255.782455 0.292224 0.575823 0.763566 0.000000 0.000000
-459.761261 5.824263 220.958984 0.292224 0.575823 0.763566 0.000000 0.000000
-476.559601 -31.828117 255.782455 0.283437 0.386569 0.877626 0.000000 0.000000
-484.587250 -108.045387 291.946533 0.283437 0.386569 0.877626 0.000000 0.000000
-403.284271 -60.754013 244.858566 0.283437 0.386569 0.877626 0.000000 0.000000
-482.190796 -192.047653 302.314301 0.315638 -0.080802 0.945433 0.000000 0.000000
-464.249542 -250.488037 291.329865 0.315638 -0.080802 0.945433 0.000000 0.000000
-394.334320 -224.199493 270.235046 0.315638 -0.080802 0.945433 0.000000 0.000000
-484.587250 -108.045387 291.946533 0.246117 0.125638 0.961063 0.000000 0.000000
-482.190796 -192.047653 302.314301 0.246117 0.125638 0.961063 0.000000 0.000000
-421.802246 -135.376495 279.440979 0.246117 0.125638 0.961063 0.000000 0.000000
-461.494781 -298.908905 274.675415 0.182033 -0.310540 0.932968 0.000000 0.000000
-464.249542 -250.488037 291.329865 0.182033 -0.310540 0.932968 0.000000 0.000000
-522.506958 -279.888428 292.910614 0.182033 -0.310540 0.932968 0.000000 0.000000
-522.506958 -279.888428 292.910614 0.166994 -0.348548 0.922295 0.000000 0.000000
-491.311462 -322.254822 271.251404 0.166994 -0.348548 0.922295 0.000000 0.000000
-461.494781 -298.908905 274.675415 0.166994 -0.348548 0.922295 0.000000 0.000000
-484.587250 -108.045387 291.946533 0.140884 0.412252 0.900111 0.000000 0.000000
-476.559601 -31.828117 255.782455 0.140884 0.412252 0.900111 0.000000 0.000000
-536.263794 -50.091625 273.491974 0.140884 0.412252 0.900111 0.000000 0.000000
-479.976685 -4.298900 236.329758 0.354699 0.682022 -0.639558 0.000000 0.000000
-499.924561 -69.947205 155.259567 0.354699 0.682022 -0.639558 0.000000 0.000000
-522.956116 11.437261 229.274368 0.354699 0.682022 -0.639558 0.000000 0.000000
-484.587250 -108.045387 291.946533 0.106621 0.124790 0.986438 0.000000 0.000000
-551.505188 -161.444733 305.934814 0.106621 0.124790 0.986438 0.000000 0.000000
-482.190796 -192.047653 302.314301 0.106621 0.124790 0.986438 0.000000 0.000000
-476.559601 -31.828117 255.782455 0.080174 0.581846 0.809338 0.000000 0.000000
-479.976685 -4.298900 236.329758 0.080174 0.581846 0.809338 0.000000 0.000000
-522.956116 11.437261 229.274368 0.080174 0.581846 0.809338 0.000000 0.000000
-482.190796 -192.047653 302.314301 0.103807 -0.152855 0.982782 0.000000 0.000000
-522.506958 -279.888428 292.910614 0.103807 -0.152855 0.982782 0.000000 0.000000
-464.249542 -250.488037 291.329865 0.103807 -0.152855 0.982782 0.000000 0.000000
-522.956116 11.437261 229.274368 0.107247 0.685377 -0.720248 0.000000 0.000000
-499.924561 -69.947205 155.259567 0.107247 0.685377 -0.720248 0.000000 0.000000
-536.056274 -64.360794 155.195404 0.107247 0.685377 -0.720248 0.000000 0.000000
-476.559601 -31.828117 255.782455 0.067183 0.572640 0.817049 0.000000 0.000000
-522.956116 11.437261 229.274368 0.067183 0.572640 0.817049 0.000000 0.000000
-536.263794 -50.091625 273.491974 0.067183 0.572640 0.817049 0.000000 0.000000
-551.505188 -161.444733 305.934814 0.004107 -0.108308 0.994109 0.000000 0.000000
-522.506958 -279.888428 292.910614 0.004107 -0.108308 0.994109 0.000000 0.000000
-482.190796 -192.047653 302.314301 0.004107 -0.108308 0.994109 0.000000 0.000000
-522.506958 -279.888428 292.910614 0.083689 -0.404060 0.910896 0.000000 0.000000
-526.657898 -340.367279 266.464447 0.083689 -0.404060 0.910896 0.000000 0.000000
-491.311462 -322.254822 271.251404 0.083689 -0.404060 0.910896 0.000000 0.000000
-553.543091 4.377545 236.839508 0.070067 0.572110 0.817179 0.000000 0.000000
-536.263794 -50.091625 273.491974 0.070067 0.572110 0.817179 0.000000 0.000000
-522.956116 11.437261 229.274368 0.070067 0.572110 0.817179 0.000000 0.000000
-522.506958 -279.888428 292.910614 0.090009 -0.087059 0.992129 0.000000 0.000000
-551.505188 -161.444733 305.934814 0.090009 -0.087059 0.992129 0.000000 0.000000
-567.768433 -235.451706 300.916168 0.090009 -0.087059 0.992129 0.000000 0.000000
-484.587250 -108.045387 291.946533 0.000456 0.303793 0.952738 0.000000 0.000000
-536.263794 -50.091625 273.491974 0.000456 0.303793 0.952738 0.000000 0.000000
-579.576660 -97.244408 288.548004 0.000456 0.303793 0.952738 0.000000 0.000000
-579.576660 -97.244408 288.548004 -0.005065 0.259337 0.965774 0.000000 0.000000
-551.505188 -161.444733 305.934814 -0.005065 0.259337 0.965774 0.000000 0.000000
-484.587250 -108.045387 291.946533 -0.005065 0.259337 0.965774 0.000000 0.000000
-550.985352 -359.593414 251.832504 0.578927 -0.689833 -0.434711 0.000000 0.000000
-561.657654 -307.582672 155.085083 0.578927 -0.689833 -0.434711 0.000000 0.000000
-533.356995 -283.849762 155.113342 0.578927 -0.689833 -0.434711 0.000000 0.000000
-553.543091 4.377545 236.839508 0.636154 0.651949 -0.412639 0.000000 0.000000
-536.056274 -64.360794 155.195404 0.636154 0.651949 -0.412639 0.000000 0.000000
-592.781921 24.971819 208.884033 0.636154 0.651949 -0.412639 0.000000 0.000000
-567.768433 -235.451706 300.916168 -0.125361 -0.298161 0.946248 0.000000 0.000000
-609.106812 -307.313965 272.795898 -0.125361 -0.298161 0.946248 0.000000 0.000000
-522.506958 -279.888428 292.910614 -0.125361 -0.298161 0.946248 0.000000 0.000000
-526.657898 -340.367279 266.464447 -0.087713 -0.394045 0.914896 0.000000 0.000000
-522.506958 -279.888428 292.910614 -0.087713 -0.394045 0.914896 0.000000 0.000000
-609.106812 -307.313965 272.795898 -0.087713 -0.394045 0.914896 0.000000 0.000000
-609.106812 -307.313965 272.795898 -0.134963 -0.500465 0.855172 0.000000 0.000000
-578.428345 -373.280396 239.032593 -0.134963 -0.500465 0.855172 0.000000 0.000000
-526.657898 -340.367279 266.464447 -0.134963 -0.500465 0.855172 0.000000 0.000000
-550.985352 -359.593414 251.832504 -0.208909 -0.410995 0.887378 0.000000 0.000000
-526.657898 -340.367279 266.464447 -0.208909 -0.410995 0.887378 0.000000 0.000000
-578.428345 -373.280396 239.032593 -0.208909 -0.410995 0.887378 0.000000 0.000000
-615.696594 -52.171955 261.865173 -0.142307 0.417309 0.897553 0.000000 0.000000
-579.576660 -97.244408 288.548004 -0.142307 0.417309 0.897553 0.000000 0.000000
-536.263794 -50.091625 273.491974 -0.142307 0.417309 0.897553 0.000000 0.000000
-567.768433 -235.451706 300.916168 -0.166046 -0.030351 0.985651 0.000000 0.000000
-551.505188 -161.444733 305.934814 -0.166046 -0.030351 0.985651 0.000000 0.000000
-631.713745 -215.804199 290.748749 -0.166046 -0.030351 0.985651 0.000000 0.000000
-536.263794 -50.091625 273.491974 -0.136851 0.522776 0.841414 0.000000 0.000000
-553.543091 4.377545 236.839508 -0.136851 0.522776 0.841414 0.000000 0.000000
-615.696594 -52.171955 261.865173 -0.136851 0.522776 0.841414 0.000000 0.000000
-631.713745 -215.804199 290.748749 -0.224097 -0.240637 0.944391 0.000000 0.000000
-609.106812 -307.313965 272.795898 -0.224097 -0.240637 0.944391 0.000000 0.000000
-567.768433 -235.451706 300.916168 -0.224097 -0.240637 0.944391 0.000000 0.000000
-651.777466 -120.094055 275.672272 -0.249717 0.099378 0.963206 0.000000 0.000000
-631.713745 -215.804199 290.748749 -0.249717 0.099378 0.963206 0.000000 0.000000
-551.505188 -161.444733 305.934814 -0.249717 0.099378 0.963206 0.000000 0.000000
-579.576660 -97.244408 288.548004 -0.222931 0.162821 0.961140 0.000000 0.000000
-651.777466 -120.094055 275.672272 -0.222931 0.162821 0.961140 0.000000 0.000000
-551.505188 -161.444733 305.934814 -0.222931 0.162821 0.961140 0.000000 0.000000
-615.696594 -52.171955 261.865173 -0.264811 0.325208 0.907808 0.000000 0.000000
-651.777466 -120.094055 275.672272 -0.264811 0.325208 0.907808 0.000000 0.000000
-579.576660 -97.244408 288.548004 -0.264811 0.325208 0.907808 0.000000 0.000000
-578.428345 -373.280396 239.032593 -0.173978 -0.511580 0.841438 0.000000 0.000000
-609.106812 -307.313965 272.795898 -0.173978 -0.511580 0.841438 0.000000 0.000000
-630.221741 -337.406647 250.134277 -0.173978 -0.511580 0.841438 0.000000 0.000000
-630.221741 -337.406647 250.134277 -0.240999 -0.587104 0.772806 0.000000 0.000000
-605.635071 -386.180481 220.747940 -0.240999 -0.587104 0.772806 0.000000 0.000000
-578.428345 -373.280396 239.032593 -0.240999 -0.587104 0.772806 0.000000 0.000000
-553.543091 4.377545 236.839508 -0.214829 0.617646 0.756546 0.000000 0.000000
-592.781921 24.971819 208.884033 -0.214829 0.617646 0.756546 0.000000 0.000000
-637.164246 2.582931 214.559586 -0.214829 0.617646 0.756546 0.000000 0.000000
-615.696594 -52.171955 261.865173 -0.220199 0.586844 0.779183 0.000000 0.000000
-553.543091 4.377545 236.839508 -0.220199 0.586844 0.779183 0.000000 0.000000
-637.164246 2.582931 214.559586 -0.220199 0.586844 0.779183 0.000000 0.000000
-630.221741 -337.406647 250.134277 -0.400407 -0.355165 0.844708 0.000000 0.000000
-609.106812 -307.313965 272.795898 -0.400407 -0.355165 0.844708 0.000000 0.000000
-663.678345 -245.813049 272.786591 -0.400407 -0.355165 0.844708 0.000000 0.000000
-631.713745 -215.804199 290.748749 -0.283733 -0.251625 0.925300 0.000000 0.000000
-663.678345 -245.813049 272.786591 -0.283733 -0.251625 0.925300 0.000000 0.000000
-609.106812 -307.313965 272.795898 -0.283733 -0.251625 0.925300 0.000000 0.000000
-651.777466 -120.094055 275.672272 -0.392287 0.062328 0.917729 0.000000 0.000000
-692.991028 -175.573730 261.823273 -0.392287 0.062328 0.917729 0.000000 0.000000
-631.713745 -215.804199 290.748749 -0.392287 0.062328 0.917729 0.000000 0.000000
-605.635071 -386.180481 220.747940 -0.333943 -0.604225 0.723460 0.000000 0.000000
-630.221741 -337.406647 250.134277 -0.333943 -0.604225 0.723460 0.000000 0.000000
-646.989197 -397.460388 192.238342 -0.333943 -0.604225 0.723460 0.000000 0.000000
-663.678345 -245.813049 272.786591 -0.453074 -0.050154 0.890061 0.000000 0.000000
-631.713745 -215.804199 290.748749 -0.453074 -0.050154 0.890061 0.000000 0.000000
-692.991028 -175.573730 261.823273 -0.453074 -0.050154 0.890061 0.000000 0.000000
-637.164246 2.582931 214.559586 -0.381411 0.514165 0.768219 0.000000 0.000000
-693.646667 -48.613411 220.782181 -0.381411 0.514165 0.768219 0.000000 0.000000
-615.696594 -52.171955 261.865173 -0.381411 0.514165 0.768219 0.000000 0.000000
-693.646667 -48.613411 220.782181 -0.415783 0.388067 0.822513 0.000000 0.000000
-651.777466 -120.094055 275.672272 -0.415783 0.388067 0.822513 0.000000 0.000000
-615.696594 -52.171955 261.865173 -0.415783 0.388067 0.822513 0.000000 0.000000
-630.221741 -337.406647 250.134277 -0.418475 -0.359165 0.834194 0.000000 0.000000
-663.678345 -245.813049 272.786591 -0.418475 -0.359165 0.834194 0.000000 0.000000
-689.154358 -327.353760 224.898880 -0.418475 -0.359165 0.834194 0.000000 0.000000
-646.989197 -397.460388 192.238342 -0.403071 -0.574355 0.712496 0.000000 0.000000
-630.221741 -337.406647 250.134277 -0.403071 -0.574355 0.712496 0.000000 0.000000
-689.154358 -327.353760 224.898880 -0.403071 -0.574355 0.712496 0.000000 0.000000
-692.991028 -175.573730 261.823273 -0.541011 0.197850 0.817412 0.000000 0.000000
-651.777466 -120.094055 275.672272 -0.541011 0.197850 0.817412 0.000000 0.000000
-731.973022 -152.760162 230.500854 -0.541011 0.197850 0.817412 0.000000 0.000000
-689.154358 -327.353760 224.898880 -0.514643 -0.308929 0.799816 0.000000 0.000000
-663.678345 -245.813049 272.786591 -0.514643 -0.308929 0.799816 0.000000 0.000000
-722.187317 -252.039551 232.733856 -0.514643 -0.308929 0.799816 0.000000 0.000000
-659.438904 25.625694 178.051086 -0.464817 0.592751 0.657717 0.000000 0.000000
-693.646667 -48.613411 220.782181 -0.464817 0.592751 0.657717 0.000000 0.000000
-637.164246 2.582931 214.559586 -0.464817 0.592751 0.657717 0.000000 0.000000
-739.664917 -109.604675 212.620041 -0.547930 0.234984 0.802842 0.000000 0.000000
-731.973022 -152.760162 230.500854 -0.547930 0.234984 0.802842 0.000000 0.000000
-651.777466 -120.094055 275.672272 -0.547930 0.234984 0.802842 0.000000 0.000000
-692.991028 -175.573730 261.823273 -0.554456 -0.102481 0.825879 0.000000 0.000000
-722.187317 -252.039551 232.733856 -0.554456 -0.102481 0.825879 0.000000 0.000000
-663.678345 -245.813049 272.786591 -0.554456 -0.102481 0.825879 0.000000 0.000000
-693.646667 -48.613411 220.782181 -0.533167 0.296228 0.792453 0.000000 0.000000
-739.664917 -109.604675 212.620041 -0.533167 0.296228 0.792453 0.000000 0.000000
-651.777466 -120.094055 275.672272 -0.533167 0.296228 0.792453 0.000000 0.000000
-722.187317 -252.039551 232.733856 -0.616024 -0.063484 0.785165 0.000000 0.000000
-692.991028 -175.573730 261.823273 -0.616024 -0.063484 0.785165 0.000000 0.000000
-754.378174 -192.310654 212.306915 -0.616024 -0.063484 0.785165 0.000000 0.000000
-722.187317 -252.039551 232.733856 -0.595896 -0.337183 0.728845 0.000000 0.000000
-740.298157 -300.045837 195.717651 -0.595896 -0.337183 0.728845 0.000000 0.000000
-689.154358 -327.353760 224.898880 -0.595896 -0.337183 0.728845 0.000000 0.000000
-754.378174 -192.310654 212.306915 -0.627364 -0.002827 0.778721 0.000000 0.000000
-692.991028 -175.573730 261.823273 -0.627364 -0.002827 0.778721 0.000000 0.000000
-731.973022 -152.760162 230.500854 -0.627364 -0.002827 0.778721 0.000000 0.000000
-693.646667 -48.613411 220.782181 -0.528292 0.593122 0.607547 0.000000 0.000000
-659.438904 25.625694 178.051086 -0.528292 0.593122 0.607547 0.000000 0.000000
-721.902588 -7.184324 155.766830 -0.528292 0.593122 0.607547 0.000000 0.000000
-739.664917 -109.604675 212.620041 -0.652971 0.407210 0.638599 0.000000 0.000000
-693.646667 -48.613411 220.782181 -0.652971 0.407210 0.638599 0.000000 0.000000
-760.395752 -60.268169 159.962616 -0.652971 0.407210 0.638599 0.000000 0.000000
-703.191101 -116.196732 155.204758 -0.810572 -0.341576 -0.475709 0.000000 0.000000
-731.973022 -152.760162 230.500854 -0.810572 -0.341576 -0.475709 0.000000 0.000000
-739.664917 -109.604675 212.620041 -0.810572 -0.341576 -0.475709 0.000000 0.000000
-740.298157 -300.045837 195.717651 -0.614121 -0.484118 0.623285 0.000000 0.000000
-733.414673 -358.531891 157.072647 -0.614121 -0.484118 0.623285 0.000000 0.000000
-689.154358 -327.353760 224.898880 -0.614121 -0.484118 0.623285 0.000000 0.000000
-472.237549 -52.394260 155.125977 -0.378070 0.727889 -0.572049 0.000000 0.000000
-459.761261 5.824263 220.958984 -0.378070 0.727889 -0.572049 0.000000 0.000000
-437.553558 9.180783 210.552750 -0.378070 0.727889 -0.572049 0.000000 0.000000
-696.294617 -189.620941 155.143509 -0.557303 0.610679 -0.562570 0.000000 0.000000
-731.973022 -152.760162 230.500854 -0.557303 0.610679 -0.562570 0.000000 0.000000
-671.884460 -167.279053 155.214355 -0.557303 0.610679 -0.562570 0.000000 0.000000
-796.345825 -229.730484 155.695892 -0.222332 0.973845 -0.046840 0.000000 0.000000
-769.440186 -221.810287 192.652405 -0.222332 0.973845 -0.046840 0.000000 0.000000
-716.271240 -211.466965 155.325851 -0.222332 0.973845 -0.046840 0.000000 0.000000
-467.712219 -228.585037 155.115341 0.573851 -0.695858 -0.431829 0.000000 0.000000
-433.964172 -275.077240 274.881256 0.573851 -0.695858 -0.431829 0.000000 0.000000
-500.743256 -255.640350 154.818390 0.573851 -0.695858 -0.431829 0.000000 0.000000
-561.657654 -307.582672 155.085083 0.602001 -0.682752 -0.414059 0.000000 0.000000
-578.428345 -373.280396 239.032593 0.602001 -0.682752 -0.414059 0.000000 0.000000
-605.635071 -386.180481 220.747940 0.602001 -0.682752 -0.414059 0.000000 0.000000
-561.657654 -307.582672 155.085083 0.556679 -0.704533 -0.440160 0.000000 0.000000
-550.985352 -359.593414 251.832504 0.556679 -0.704533 -0.440160 0.000000 0.000000
-578.428345 -373.280396 239.032593 0.556679 -0.704533 -0.440160 0.000000 0.000000
-500.743256 -255.640350 154.818390 0.600251 -0.698050 -0.390416 0.000000 0.000000
-526.657898 -340.367279 266.464447 0.600251 -0.698050 -0.390416 0.000000 0.000000
-533.356995 -283.849762 155.113342 0.600251 -0.698050 -0.390416 0.000000 0.000000
-397.955048 -144.710724 157.324173 -0.267645 0.962696 0.039776 0.000000 0.000000
-338.421509 -131.013077 226.391083 -0.267645 0.962696 0.039776 0.000000 0.000000
-284.179169 -113.047516 156.558105 -0.267645 0.962696 0.039776 0.000000 0.000000
-603.413696 26.457382 155.205429 0.836967 0.376591 -0.397070 0.000000 0.000000
-607.105530 51.245270 170.933014 0.836967 0.376591 -0.397070 0.000000 0.000000
-577.596130 -30.842806 155.280243 0.836967 0.376591 -0.397070 0.000000 0.000000
-341.559204 -15.520241 155.355576 0.671878 -0.739543 0.040689 0.000000 0.000000
-359.484436 -29.797794 191.844223 0.671878 -0.739543 0.040689 0.000000 0.000000
-396.020905 -65.002037 155.298767 0.671878 -0.739543 0.040689 0.000000 0.000000
-472.237549 -52.394260 155.125977 -0.644979 0.628996 -0.434011 0.000000 0.000000
-479.976685 -4.298900 236.329758 -0.644979 0.628996 -0.434011 0.000000 0.000000
-459.761261 5.824263 220.958984 -0.644979 0.628996 -0.434011 0.000000 0.000000
-423.081390 -88.536995 154.348557 0.655705 -0.754746 0.020218 0.000000 0.000000
-396.020905 -65.002037 155.298767 0.655705 -0.754746 0.020218 0.000000 0.000000
-369.323212 -40.423264 206.981216 0.655705 -0.754746 0.020218 0.000000 0.000000
-536.056274 -64.360794 155.195404 -0.319853 0.689930 -0.649377 0.000000 0.000000
-553.543091 4.377545 236.839508 -0.319853 0.689930 -0.649377 0.000000 0.000000
-522.956116 11.437261 229.274368 -0.319853 0.689930 -0.649377 0.000000 0.000000
-472.237549 -52.394260 155.125977 -0.812988 0.569048 -0.123433 0.000000 0.000000
-437.553558 9.180783 210.552750 -0.812988 0.569048 -0.123433 0.000000 0.000000
-410.983551 36.654694 162.209885 -0.812988 0.569048 -0.123433 0.000000 0.000000
-536.056274 -64.360794 155.195404 0.529850 0.658014 -0.535048 0.000000 0.000000
-577.596130 -30.842806 155.280243 0.529850 0.658014 -0.535048 0.000000 0.000000
-592.781921 24.971819 208.884033 0.529850 0.658014 -0.535048 0.000000 0.000000
-274.308807 -179.361816 155.360153 0.037944 -0.999248 -0.008011 0.000000 0.000000
-306.137177 -180.928055 199.970871 0.037944 -0.999248 -0.008011 0.000000 0.000000
-415.385345 -184.718735 155.340790 0.037944 -0.999248 -0.008011 0.000000 0.000000
-415.385345 -184.718735 155.340790 0.587256 -0.732668 -0.343987 0.000000 0.000000
-357.449799 -182.184921 248.851746 0.587256 -0.732668 -0.343987 0.000000 0.000000
-438.773560 -203.315903 155.022964 0.587256 -0.732668 -0.343987 0.000000 0.000000
-341.559204 -15.520241 155.355576 0.582500 0.618009 0.527975 0.000000 0.000000
-376.671326 15.637223 157.623169 0.582500 0.618009 0.527975 0.000000 0.000000
-359.484436 -29.797794 191.844223 0.582500 0.618009 0.527975 0.000000 0.000000
-603.413696 26.457382 155.205429 0.175104 0.869910 0.461082 0.000000 0.000000
-662.798218 36.788029 158.267181 0.175104 0.869910 0.461082 0.000000 0.000000
-659.438904 25.625694 178.051086 0.175104 0.869910 0.461082 0.000000 0.000000
-740.298157 -300.045837 195.717651 -0.806316 -0.389198 0.445397 0.000000 0.000000
-796.345825 -229.730484 155.695892 -0.806316 -0.389198 0.445397 0.000000 0.000000
-733.414673 -358.531891 157.072647 -0.806316 -0.389198 0.445397 0.000000 0.000000
-754.378174 -192.310654 212.306915 -0.600951 0.544644 -0.584997 0.000000 0.000000
-696.294617 -189.620941 155.143509 -0.600951 0.544644 -0.584997 0.000000 0.000000
-716.271240 -211.466965 155.325851 -0.600951 0.544644 -0.584997 0.000000 0.000000
-680.843872 -405.942902 155.372925 0.591696 -0.711116 -0.379750 0.000000 0.000000
-590.097229 -330.315399 155.147812 0.591696 -0.711116 -0.379750 0.000000 0.000000
-646.989197 -397.460388 192.238342 0.591696 -0.711116 -0.379750 0.000000 0.000000
-357.449799 -182.184921 248.851746 0.735633 -0.398331 -0.547884 0.000000 0.000000
-367.322662 -206.630508 253.368439 0.735633 -0.398331 -0.547884 0.000000 0.000000
-438.773560 -203.315903 155.022964 0.735633 -0.398331 -0.547884 0.000000 0.000000
-394.334320 -224.199493 270.235046 0.783922 -0.387729 -0.484905 0.000000 0.000000
-407.980347 -251.274155 269.823029 0.783922 -0.387729 -0.484905 0.000000 0.000000
-467.712219 -228.585037 155.115341 0.783922 -0.387729 -0.484905 0.000000 0.000000
-703.191101 -116.196732 155.204758 -0.737601 -0.452145 -0.501507 0.000000 0.000000
-671.884460 -167.279053 155.214355 -0.737601 -0.452145 -0.501507 0.000000 0.000000
-731.973022 -152.760162 230.500854 -0.737601 -0.452145 -0.501507 0.000000 0.000000
-696.294617 -189.620941 155.143509 -0.581030 0.588010 -0.562715 0.000000 0.000000
-754.378174 -192.310654 212.306915 -0.581030 0.588010 -0.562715 0.000000 0.000000
-731.973022 -152.760162 230.500854 -0.581030 0.588010 -0.562715 0.000000 0.000000
-438.773560 -203.315903 155.022964 0.378461 -0.874124 -0.304424 0.000000 0.000000
-367.322662 -206.630508 253.368439 0.378461 -0.874124 -0.304424 0.000000 0.000000
-394.334320 -224.199493 270.235046 0.378461 -0.874124 -0.304424 0.000000 0.000000
-577.596130 -30.842806 155.280243 0.929213 0.354159 -0.105523 0.000000 0.000000
-607.105530 51.245270 170.933014 0.929213 0.354159 -0.105523 0.000000 0.000000
-592.781921 24.971819 208.884033 0.929213 0.354159 -0.105523 0.000000 0.000000
-500.743256 -255.640350 154.818390 0.452078 -0.757944 -0.470262 0.000000 0.000000
-491.311462 -322.254822 271.251404 0.452078 -0.757944 -0.470262 0.000000 0.000000
-526.657898 -340.367279 266.464447 0.452078 -0.757944 -0.470262 0.000000 0.000000
-467.712219 -228.585037 155.115341 0.561974 -0.705292 -0.432144 0.000000 0.000000
-407.980347 -251.274155 269.823029 0.561974 -0.705292 -0.432144 0.000000 0.000000
-433.964172 -275.077240 274.881256 0.561974 -0.705292 -0.432144 0.000000 0.000000
-590.097229 -330.315399 155.147812 0.553803 -0.694099 -0.459923 0.000000 0.000000
-561.657654 -307.582672 155.085083 0.553803 -0.694099 -0.459923 0.000000 0.000000
-605.635071 -386.180481 220.747940 0.553803 -0.694099 -0.459923 0.000000 0.000000
-415.385345 -184.718735 155.340790 0.031619 -0.999472 0.007492 0.000000 0.000000
-306.137177 -180.928055 199.970871 0.031619 -0.999472 0.007492 0.000000 0.000000
-357.449799 -182.184921 248.851746 0.031619 -0.999472 0.007492 0.000000 0.000000
-472.237549 -52.394260 155.125977 -0.470678 0.738748 -0.482404 0.000000 0.000000
-499.924561 -69.947205 155.259567 -0.470678 0.738748 -0.482404 0.000000 0.000000
-479.976685 -4.298900 236.329758 -0.470678 0.738748 -0.482404 0.000000 0.000000
-500.743256 -255.640350 154.818390 0.584857 -0.682725 -0.437982 0.000000 0.000000
-461.494781 -298.908905 274.675415 0.584857 -0.682725 -0.437982 0.000000 0.000000
-491.311462 -322.254822 271.251404 0.584857 -0.682725 -0.437982 0.000000 0.000000
-533.356995 -283.849762 155.113342 0.701751 -0.617350 -0.355562 0.000000 0.000000
-526.657898 -340.367279 266.464447 0.701751 -0.617350 -0.355562 0.000000 0.000000
-550.985352 -359.593414 251.832504 0.701751 -0.617350 -0.355562 0.000000 0.000000
-500.743256 -255.640350 154.818390 0.590222 -0.678048 -0.438051 0.000000 0.000000
-433.964172 -275.077240 274.881256 0.590222 -0.678048 -0.438051 0.000000 0.000000
-461.494781 -298.908905 274.675415 0.590222 -0.678048 -0.438051 0.000000 0.000000
-733.414673 -358.531891 157.072647 -0.001964 -0.011648 -0.999930 0.773160 0.635779
-796.345825 -229.730484 155.695892 -0.001964 -0.011648 -0.999930 0.774721 0.632167
-716.271240 -211.466965 155.325851 -0.001964 -0.011648 -0.999930 0.772443 0.631561
-680.843872 -405.942902 155.372925 -0.016813 0.017198 -0.999711 0.771316 0.637583
-733.414673 -358.531891 157.072647 -0.016813 0.017198 -0.999711 0.773160 0.635779
-590.097229 -330.315399 155.147812 -0.016813 0.017198 -0.999711 0.768424 0.635341
-590.097229 -330.315399 155.147812 -0.011351 -0.010553 -0.999880 0.768424 0.635341
-733.414673 -358.531891 157.072647 -0.011351 -0.010553 -0.999880 0.773160 0.635779
-716.271240 -211.466965 155.325851 -0.011351 -0.010553 -0.999880 0.772443 0.631561
-716.271240 -211.466965 155.325851 -0.004982 -0.003791 -0.999980 0.772443 0.631561
-696.294617 -189.620941 155.143509 -0.004982 -0.003791 -0.999980 0.771770 0.630914
-590.097229 -330.315399 155.147812 -0.004982 -0.003791 -0.999980 0.768424 0.635341
-696.294617 -189.620941 155.143509 -0.001360 -0.001057 -0.999999 0.771770 0.630914
-561.657654 -307.582672 155.085083 -0.001360 -0.001057 -0.999999 0.767554 0.634607
-590.097229 -330.315399 155.147812 -0.001360 -0.001057 -0.999999 0.768424 0.635341
-696.294617 -189.620941 155.143509 0.001198 0.001862 -0.999998 0.771770 0.630914
-671.884460 -167.279053 155.214355 0.001198 0.001862 -0.999998 0.771012 0.630209
-561.657654 -307.582672 155.085083 0.001198 0.001862 -0.999998 0.767554 0.634607
-274.308807 -179.361816 155.360153 -0.000546 0.017981 -0.999838 0.758612 0.630604
-415.385345 -184.718735 155.340790 -0.000546 0.017981 -0.999838 0.762958 0.630808
-284.179169 -113.047516 156.558105 -0.000546 0.017981 -0.999838 0.758958 0.628532
-397.955048 -144.710724 157.324173 -0.023314 0.059630 -0.997948 0.762387 0.629531
-284.179169 -113.047516 156.558105 -0.023314 0.059630 -0.997948 0.758958 0.628532
-415.385345 -184.718735 155.340790 -0.023314 0.059630 -0.997948 0.762958 0.630808
-415.385345 -184.718735 155.340790 0.008899 0.005897 -0.999943 0.762958 0.630808
-438.773560 -203.315903 155.022964 0.008899 0.005897 -0.999943 0.763701 0.631364
-425.151917 -117.347809 155.651184 0.008899 0.005897 -0.999943 0.763252 0.628637
-415.385345 -184.718735 155.340790 0.077204 0.015785 -0.996890 0.762958 0.630808
-425.151917 -117.347809 155.651184 0.077204 0.015785 -0.996890 0.763252 0.628637
-397.955048 -144.710724 157.324173 0.077204 0.015785 -0.996890 0.762387 0.629531
-438.773560 -203.315903 155.022964 -0.003386 0.000222 -0.999994 0.763701 0.631364
-467.712219 -228.585037 155.115341 -0.003386 0.000222 -0.999994 0.764616 0.632142
-499.924561 -69.947205 155.259567 -0.003386 0.000222 -0.999994 0.765658 0.627138
-425.151917 -117.347809 155.651184 0.008969 0.005886 -0.999942 0.763252 0.628637
-438.773560 -203.315903 155.022964 0.008969 0.005886 -0.999942 0.763701 0.631364
-499.924561 -69.947205 155.259567 0.008969 0.005886 -0.999942 0.765658 0.627138
-423.081390 -88.536995 154.348557 -0.022377 -0.043551 -0.998801 0.763143 0.627757
-425.151917 -117.347809 155.651184 -0.022377 -0.043551 -0.998801 0.763252 0.628637
-499.924561 -69.947205 155.259567 -0.022377 -0.043551 -0.998801 0.765658 0.627138
-341.559204 -15.520241 155.355576 -0.032118 0.036497 -0.998818 0.760675 0.625486
-396.020905 -65.002037 155.298767 -0.032118 0.036497 -0.998818 0.762378 0.627030
-376.671326 15.637223 157.623169 -0.032118 0.036497 -0.998818 0.761892 0.624670
-410.983551 36.654694 162.209885 -0.059232 0.119583 -0.991056 0.763117 0.624366
-376.671326 15.637223 157.623169 -0.059232 0.119583 -0.991056 0.761892 0.624670
-472.237549 -52.394260 155.125977 -0.059232 0.119583 -0.991056 0.764874 0.626464
-499.924561 -69.947205 155.259567 -0.009913 0.008026 -0.999919 0.765658 0.627138
-472.237549 -52.394260 155.125977 -0.009913 0.008026 -0.999919 0.764874 0.626464
-423.081390 -88.536995 154.348557 -0.009913 0.008026 -0.999919 0.763143 0.627757
-472.237549 -52.394260 155.125977 0.006764 0.027190 -0.999607 0.764874 0.626464
-376.671326 15.637223 157.623169 0.006764 0.027190 -0.999607 0.761892 0.624670
-396.020905 -65.002037 155.298767 0.006764 0.027190 -0.999607 0.762378 0.627030
-472.237549 -52.394260 155.125977 0.007512 0.031715 -0.999469 0.764874 0.626464
-396.020905 -65.002037 155.298767 0.007512 0.031715 -0.999469 0.762378 0.627030
-423.081390 -88.536995 154.348557 0.007512 0.031715 -0.999469 0.763143 0.627757
-536.056274 -64.360794 155.195404 0.001978 0.001311 -0.999997 0.766791 0.626961
-499.924561 -69.947205 155.259567 0.001978 0.001311 -0.999997 0.765658 0.627138
-467.712219 -228.585037 155.115341 0.001978 0.001311 -0.999997 0.764616 0.632142
-577.596130 -30.842806 155.280243 -0.001061 0.001216 -0.999999 0.768004 0.625917
-536.056274 -64.360794 155.195404 -0.001061 0.001216 -0.999999 0.766791 0.626961
-671.884460 -167.279053 155.214355 -0.001061 0.001216 -0.999999 0.771012 0.630209
-577.596130 -30.842806 155.280243 0.000514 0.000127 -1.000000 0.768004 0.625917
-671.884460 -167.279053 155.214355 0.000514 0.000127 -1.000000 0.771012 0.630209
-703.191101 -116.196732 155.204758 0.000514 0.000127 -1.000000 0.771972 0.628629
-577.596130 -30.842806 155.280243 -0.056081 -0.026571 -0.998073 0.768004 0.625917
-662.798218 36.788029 158.267181 -0.056081 -0.026571 -0.998073 0.770855 0.623982
-603.413696 26.457382 155.205429 -0.056081 -0.026571 -0.998073 0.768871 0.624193
-760.395752 -60.268169 159.962616 -0.093471 -0.010911 -0.995562 0.773684 0.626722
-721.902588 -7.184324 155.766830 -0.093471 -0.010911 -0.995562 0.772752 0.625480
-703.191101 -116.196732 155.204758 -0.093471 -0.010911 -0.995562 0.771972 0.628629
-577.596130 -30.842806 155.280243 -0.015840 0.024192 -0.999582 0.768004 0.625917
-703.191101 -116.196732 155.204758 -0.015840 0.024192 -0.999582 0.771972 0.628629
-662.798218 36.788029 158.267181 -0.015840 0.024192 -0.999582 0.770855 0.623982
-662.798218 36.788029 158.267181 0.034090 0.011004 -0.999358 0.770855 0.623982
-703.191101 -116.196732 155.204758 0.034090 0.011004 -0.999358 0.771972 0.628629
-721.902588 -7.184324 155.766830 0.034090 0.011004 -0.999358 0.772752 0.625480
-561.657654 -307.582672 155.085083 0.000136 0.001028 -1.000000 0.767554 0.634607
-671.884460 -167.279053 155.214355 0.000136 0.001028 -1.000000 0.771012 0.630209
-533.356995 -283.849762 155.113342 0.000136 0.001028 -1.000000 0.766666 0.633867
-533.356995 -283.849762 155.113342 -0.004829 -0.004872 -0.999977 0.766666 0.633867
-671.884460 -167.279053 155.214355 -0.004829 -0.004872 -0.999977 0.771012 0.630209
-500.743256 -255.640350 154.818390 -0.004829 -0.004872 -0.999977 0.765637 0.633000
-500.743256 -255.640350 154.818390 -0.001433 0.001707 -0.999998 0.765637 0.633000
-671.884460 -167.279053 155.214355 -0.001433 0.001707 -0.999998 0.771012 0.630209
-536.056274 -64.360794 155.195404 -0.001433 0.001707 -0.999998 0.766791 0.626961
-500.743256 -255.640350 154.818390 0.006407 0.003154 -0.999974 0.765637 0.633000
-536.056274 -64.360794 155.195404 0.006407 0.003154 -0.999974 0.766791 0.626961
-467.712219 -228.585037 155.115341 0.006407 0.003154 -0.999974 0.764616 0.632142
3 0 1 2
3 3 4 5
3 6 7 8
3 9 10 11
3 12 13 14
3 15 16 17
3 18 19 20
3 21 22 23
3 24 25 26
3 27 28 29
3 30 31 32
3 33 34 35
3 36 37 38
3 39 40 41
3 42 43 44
3 45 46 47
3 48 49 50
3 51 52 53
3 54 55 56
3 57 58 59
3 60 61 62
3 63 64 65
3 66 67 68
3 69 70 71
3 72 73 74
3 75 76 77
3 78 79 80
3 81 82 83
3 84 85 86
3 87 88 89
3 90 91 92
3 93 94 95
3 96 97 98
3 99 100 101
3 102 103 104
3 105 106 107
3 108 109 110
3 111 112 113
3 114 115 116
3 117 118 119
3 120 121 122
3 123 124 125
3 126 127 128
3 129 130 131
3 132 133 134
3 135 136 137
3 138 139 140
3 141 142 143
3 144 145 146
3 147 148 149
3 150 151 152
3 153 154 155
3 156 157 158
3 159 160 161
3 162 163 164
3 165 166 167
3 168 169 170
3 171 172 173
3 174 175 176
3 177 178 179
3 180 181 182
3 183 184 185
3 186 187 188
3 189 190 191
3 192 193 194
3 195 196 197
3 198 199 200
3 201 202 203
3 204 205 206
3 207 208 209
3 210 211 212
3 213 214 215
3 216 217 218
3 219 220 221
3 222 223 224
3 225 226 227
3 228 229 230
3 231 232 233
3 234 235 236
3 237 238 239
3 240 241 242
3 243 244 245
3 246 247 248
3 249 250 251
3 252 253 254
3 255 256 257
3 258 259 260
3 261 262 263
3 264 265 266
3 267 268 269
3 270 271 272
3 273 274 275
3 276 277 278
3 279 280 281
3 282 283 284
3 285 286 287
3 288 289 290
3 291 292 293
3 294 295 296
3 297 298 299
3 300 301 302
3 303 304 305
3 306 307 308
3 309 310 311
3 312 313 314
3 315 316 317
3 318 319 320
3 321 322 323
3 324 325 326
3 327 328 329
3 330 331 332
3 333 334 335
3 336 337 338
3 339 340 341
3 342 343 344
3 345 346 347
3 348 349 350
3 351 352 353
3 354 355 356
3 357 358 359
3 360 361 362
3 363 364 365
3 366 367 368
3 369 370 371
3 372 373 374
3 375 376 377
3 378 379 380
3 381 382 383
3 384 385 386
3 387 388 389
3 390 391 392
3 393 394 395
3 396 397 398
3 399 400 401
3 402 403 404
3 405 406 407
3 408 409 410
3 411 412 413
3 414 415 416
3 417 418 419
3 420 421 422
3 423 424 425
3 426 427 428
3 429 430 431
3 432 433 434
3 435 436 437
3 438 439 440
3 441 442 443
3 444 445 446
3 447 448 449
3 450 451 452
3 453 454 455
3 456 457 458
3 459 460 461
3 462 463 464
3 465 466 467
3 468 469 470
3 471 472 473
3 474 475 476
3 477 478 479
3 480 481 482
3 483 484 485
3 486 487 488
3 489 490 491
3 492 493 494
3 495 496 497
