ply
format ascii 1.0
comment Created by Blender 2.82 (sub 7) - www.blender.org, source file: ''
element vertex 498
property float x
property float y
property float z
property float nx
property float ny
property float nz
property float s
property float t
element face 166
property list uchar uint vertex_indices
end_header
274.845062 -116.746269 186.145706 -0.391996 0.773558 0.497942 0.000000 0.000000
301.277618 -80.585434 150.778046 -0.391996 0.773558 0.497942 0.000000 0.000000
222.056564 -120.574806 150.536530 -0.391996 0.773558 0.497942 0.000000 0.000000
490.099091 -119.549385 183.616348 0.373667 0.767868 0.520339 0.000000 0.000000
519.459595 -111.401245 150.507645 0.373667 0.767868 0.520339 0.000000 0.000000
459.988373 -82.471642 150.523621 0.373667 0.767868 0.520339 0.000000 0.000000
463.125610 -125.495087 204.658066 0.289544 0.757437 0.585195 0.000000 0.000000
490.099091 -119.549385 183.616348 0.289544 0.757437 0.585195 0.000000 0.000000
459.988373 -82.471642 150.523621 0.289544 0.757437 0.585195 0.000000 0.000000
413.248108 -101.145561 193.383530 0.239715 0.766762 0.595494 0.000000 0.000000
463.125610 -125.495087 204.658066 0.239715 0.766762 0.595494 0.000000 0.000000
459.988373 -82.471642 150.523621 0.239715 0.766762 0.595494 0.000000 0.000000
490.099091 -119.549385 183.616348 0.438862 0.701296 0.561769 0.000000 0.000000
522.093994 -139.079849 183.002731 0.438862 0.701296 0.561769 0.000000 0.000000
519.459595 -111.401245 150.507645 0.438862 0.701296 0.561769 0.000000 0.000000
345.720673 -99.671013 191.067123 -0.003356 0.796388 0.604777 0.000000 0.000000
413.248108 -101.145561 193.383530 -0.003356 0.796388 0.604777 0.000000 0.000000
362.900574 -69.046318 150.834961 -0.003356 0.796388 0.604777 0.000000 0.000000
570.306152 -153.526108 150.635315 0.545100 0.659528 0.517580 0.000000 0.000000
519.459595 -111.401245 150.507645 0.545100 0.659528 0.517580 0.000000 0.000000
522.093994 -139.079849 183.002731 0.545100 0.659528 0.517580 0.000000 0.000000
362.900574 -69.046318 150.834961 -0.153456 0.816764 0.556191 0.000000 0.000000
301.277618 -80.585434 150.778046 -0.153456 0.816764 0.556191 0.000000 0.000000
345.720673 -99.671013 191.067123 -0.153456 0.816764 0.556191 0.000000 0.000000
345.720673 -99.671013 191.067123 -0.225494 0.760455 0.608983 0.000000 0.000000
301.277618 -80.585434 150.778046 -0.225494 0.760455 0.608983 0.000000 0.000000
274.845062 -116.746269 186.145706 -0.225494 0.760455 0.608983 0.000000 0.000000
232.977493 -147.556122 190.262115 -0.443175 0.680237 0.583844 0.000000 0.000000
274.845062 -116.746269 186.145706 -0.443175 0.680237 0.583844 0.000000 0.000000
222.056564 -120.574806 150.536530 -0.443175 0.680237 0.583844 0.000000 0.000000
200.814270 -177.207382 190.142212 -0.560279 0.605459 0.565249 0.000000 0.000000
232.977493 -147.556122 190.262115 -0.560279 0.605459 0.565249 0.000000 0.000000
222.056564 -120.574806 150.536530 -0.560279 0.605459 0.565249 0.000000 0.000000
345.720673 -99.671013 191.067123 -0.220953 0.731070 0.645535 0.000000 0.000000
274.845062 -116.746269 186.145706 -0.220953 0.731070 0.645535 0.000000 0.000000
310.161377 -135.266586 219.208023 -0.220953 0.731070 0.645535 0.000000 0.000000
345.720673 -99.671013 191.067123 -0.006304 0.750113 0.661280 0.000000 0.000000
360.874878 -125.207306 220.178314 -0.006304 0.750113 0.661280 0.000000 0.000000
413.248108 -101.145561 193.383530 -0.006304 0.750113 0.661280 0.000000 0.000000
310.161377 -135.266586 219.208023 -0.152594 0.702217 0.695418 0.000000 0.000000
360.874878 -125.207306 220.178314 -0.152594 0.702217 0.695418 0.000000 0.000000
345.720673 -99.671013 191.067123 -0.152594 0.702217 0.695418 0.000000 0.000000
552.484741 -169.497696 184.944962 0.562413 0.598350 0.570673 0.000000 0.000000
570.306152 -153.526108 150.635315 0.562413 0.598350 0.570673 0.000000 0.000000
522.093994 -139.079849 183.002731 0.562413 0.598350 0.570673 0.000000 0.000000
122.836029 -387.483948 150.721954 -0.799850 -0.347230 0.489562 0.000000 0.000000
159.970062 -472.718109 150.938141 -0.799850 -0.347230 0.489562 0.000000 0.000000
155.705368 -413.879639 185.702576 -0.799850 -0.347230 0.489562 0.000000 0.000000
145.978058 -210.561920 150.573990 -0.795401 0.274495 0.540360 0.000000 0.000000
121.581993 -281.314056 150.604431 -0.795401 0.274495 0.540360 0.000000 0.000000
164.748764 -236.670135 191.466751 -0.795401 0.274495 0.540360 0.000000 0.000000
138.610229 -315.428925 182.655273 -0.770594 0.187601 0.609090 0.000000 0.000000
164.748764 -236.670135 191.466751 -0.770594 0.187601 0.609090 0.000000 0.000000
121.581993 -281.314056 150.604431 -0.770594 0.187601 0.609090 0.000000 0.000000
138.610229 -315.428925 182.655273 -0.805392 -0.083741 0.586798 0.000000 0.000000
122.836029 -387.483948 150.721954 -0.805392 -0.083741 0.586798 0.000000 0.000000
157.977829 -351.694397 204.062271 -0.805392 -0.083741 0.586798 0.000000 0.000000
188.892502 -508.669800 150.538116 -0.651804 -0.530395 0.542063 0.000000 0.000000
203.824509 -492.836853 183.985275 -0.651804 -0.530395 0.542063 0.000000 0.000000
159.970062 -472.718109 150.938141 -0.651804 -0.530395 0.542063 0.000000 0.000000
155.705368 -413.879639 185.702576 -0.775105 -0.152690 0.613106 0.000000 0.000000
157.977829 -351.694397 204.062271 -0.775105 -0.152690 0.613106 0.000000 0.000000
122.836029 -387.483948 150.721954 -0.775105 -0.152690 0.613106 0.000000 0.000000
172.071365 -170.751236 150.621353 -0.598902 0.597521 0.533184 0.000000 0.000000
200.814270 -177.207382 190.142212 -0.598902 0.597521 0.533184 0.000000 0.000000
222.056564 -120.574806 150.536530 -0.598902 0.597521 0.533184 0.000000 0.000000
138.610229 -315.428925 182.655273 -0.758553 0.181740 0.625754 0.000000 0.000000
168.640945 -299.460754 214.421478 -0.758553 0.181740 0.625754 0.000000 0.000000
164.748764 -236.670135 191.466751 -0.758553 0.181740 0.625754 0.000000 0.000000
164.748764 -236.670135 191.466751 -0.685446 0.428846 0.588434 0.000000 0.000000
200.814270 -177.207382 190.142212 -0.685446 0.428846 0.588434 0.000000 0.000000
145.978058 -210.561920 150.573990 -0.685446 0.428846 0.588434 0.000000 0.000000
172.071365 -170.751236 150.621353 -0.686127 0.449031 0.572364 0.000000 0.000000
145.978058 -210.561920 150.573990 -0.686127 0.449031 0.572364 0.000000 0.000000
200.814270 -177.207382 190.142212 -0.686127 0.449031 0.572364 0.000000 0.000000
203.824509 -492.836853 183.985275 -0.660393 -0.440129 0.608414 0.000000 0.000000
190.525436 -436.072174 210.613846 -0.660393 -0.440129 0.608414 0.000000 0.000000
159.970062 -472.718109 150.938141 -0.660393 -0.440129 0.608414 0.000000 0.000000
155.705368 -413.879639 185.702576 -0.688543 -0.405243 0.601404 0.000000 0.000000
159.970062 -472.718109 150.938141 -0.688543 -0.405243 0.601404 0.000000 0.000000
190.525436 -436.072174 210.613846 -0.688543 -0.405243 0.601404 0.000000 0.000000
197.745483 -246.210083 226.710663 -0.683897 0.212734 0.697875 0.000000 0.000000
164.748764 -236.670135 191.466751 -0.683897 0.212734 0.697875 0.000000 0.000000
168.640945 -299.460754 214.421478 -0.683897 0.212734 0.697875 0.000000 0.000000
157.977829 -351.694397 204.062271 -0.710747 -0.175172 0.681288 0.000000 0.000000
155.705368 -413.879639 185.702576 -0.710747 -0.175172 0.681288 0.000000 0.000000
187.920547 -378.573669 228.388535 -0.710747 -0.175172 0.681288 0.000000 0.000000
157.977829 -351.694397 204.062271 -0.729992 0.013503 0.683322 0.000000 0.000000
168.640945 -299.460754 214.421478 -0.729992 0.013503 0.683322 0.000000 0.000000
138.610229 -315.428925 182.655273 -0.729992 0.013503 0.683322 0.000000 0.000000
541.653809 -179.351700 202.438507 0.678869 -0.734229 0.006728 0.000000 0.000000
517.270752 -202.372696 150.446426 0.678869 -0.734229 0.006728 0.000000 0.000000
552.484741 -169.497696 184.944962 0.678869 -0.734229 0.006728 0.000000 0.000000
552.484741 -169.497696 184.944962 0.522429 0.562861 0.640512 0.000000 0.000000
522.093994 -139.079849 183.002731 0.522429 0.562861 0.640512 0.000000 0.000000
541.653809 -179.351700 202.438507 0.522429 0.562861 0.640512 0.000000 0.000000
527.326843 -192.929352 221.961578 0.684033 -0.729432 -0.005320 0.000000 0.000000
482.728882 -234.230042 150.449097 0.684033 -0.729432 -0.005320 0.000000 0.000000
541.653809 -179.351700 202.438507 0.684033 -0.729432 -0.005320 0.000000 0.000000
522.093994 -139.079849 183.002731 0.461061 0.557226 0.690595 0.000000 0.000000
485.441376 -167.108688 230.088943 0.461061 0.557226 0.690595 0.000000 0.000000
541.653809 -179.351700 202.438507 0.461061 0.557226 0.690595 0.000000 0.000000
541.653809 -179.351700 202.438507 0.464427 0.530067 0.709462 0.000000 0.000000
485.441376 -167.108688 230.088943 0.464427 0.530067 0.709462 0.000000 0.000000
527.326843 -192.929352 221.961578 0.464427 0.530067 0.709462 0.000000 0.000000
515.300720 -203.821960 235.550354 0.674389 -0.738359 0.004976 0.000000 0.000000
466.242096 -249.203781 150.449860 0.674389 -0.738359 0.004976 0.000000 0.000000
527.326843 -192.929352 221.961578 0.674389 -0.738359 0.004976 0.000000 0.000000
515.300720 -203.821960 235.550354 0.438688 0.470668 0.765523 0.000000 0.000000
527.326843 -192.929352 221.961578 0.438688 0.470668 0.765523 0.000000 0.000000
485.441376 -167.108688 230.088943 0.438688 0.470668 0.765523 0.000000 0.000000
490.099091 -119.549385 183.616348 0.393061 0.622656 0.676611 0.000000 0.000000
485.441376 -167.108688 230.088943 0.393061 0.622656 0.676611 0.000000 0.000000
522.093994 -139.079849 183.002731 0.393061 0.622656 0.676611 0.000000 0.000000
515.300720 -203.821960 235.550354 0.407845 0.449896 0.794516 0.000000 0.000000
485.441376 -167.108688 230.088943 0.407845 0.449896 0.794516 0.000000 0.000000
500.507446 -215.613235 249.820938 0.407845 0.449896 0.794516 0.000000 0.000000
485.441376 -167.108688 230.088943 0.390841 0.623432 0.677182 0.000000 0.000000
490.099091 -119.549385 183.616348 0.390841 0.623432 0.677182 0.000000 0.000000
463.125610 -125.495087 204.658066 0.390841 0.623432 0.677182 0.000000 0.000000
448.220795 -201.263138 264.027954 0.338553 0.382397 0.859741 0.000000 0.000000
482.196808 -232.177795 264.398987 0.338553 0.382397 0.859741 0.000000 0.000000
500.507446 -215.613235 249.820938 0.338553 0.382397 0.859741 0.000000 0.000000
448.220795 -201.263138 264.027954 0.346368 0.443803 0.826479 0.000000 0.000000
500.507446 -215.613235 249.820938 0.346368 0.443803 0.826479 0.000000 0.000000
485.441376 -167.108688 230.088943 0.346368 0.443803 0.826479 0.000000 0.000000
460.238831 -253.011337 278.995392 0.689206 -0.724561 0.002630 0.000000 0.000000
433.214264 -279.183807 150.443237 0.689206 -0.724561 0.002630 0.000000 0.000000
482.196808 -232.177795 264.398987 0.689206 -0.724561 0.002630 0.000000 0.000000
460.238831 -253.011337 278.995392 0.287872 0.327181 0.900046 0.000000 0.000000
482.196808 -232.177795 264.398987 0.287872 0.327181 0.900046 0.000000 0.000000
448.220795 -201.263138 264.027954 0.287872 0.327181 0.900046 0.000000 0.000000
463.125610 -125.495087 204.658066 0.186066 0.583070 0.790828 0.000000 0.000000
448.220795 -201.263138 264.027954 0.186066 0.583070 0.790828 0.000000 0.000000
485.441376 -167.108688 230.088943 0.186066 0.583070 0.790828 0.000000 0.000000
448.220795 -201.263138 264.027954 0.250115 0.566213 0.785395 0.000000 0.000000
463.125610 -125.495087 204.658066 0.250115 0.566213 0.785395 0.000000 0.000000
410.304749 -148.328613 237.940628 0.250115 0.566213 0.785395 0.000000 0.000000
413.248108 -101.145561 193.383530 0.164688 0.671760 0.722229 0.000000 0.000000
410.304749 -148.328613 237.940628 0.164688 0.671760 0.722229 0.000000 0.000000
463.125610 -125.495087 204.658066 0.164688 0.671760 0.722229 0.000000 0.000000
436.516632 -276.484833 289.933441 0.701355 -0.712761 -0.008532 0.000000 0.000000
413.606934 -297.357147 150.366302 0.701355 -0.712761 -0.008532 0.000000 0.000000
460.238831 -253.011337 278.995392 0.701355 -0.712761 -0.008532 0.000000 0.000000
460.238831 -253.011337 278.995392 0.175701 0.310963 0.934040 0.000000 0.000000
448.220795 -201.263138 264.027954 0.175701 0.310963 0.934040 0.000000 0.000000
394.230774 -251.384506 290.870483 0.175701 0.310963 0.934040 0.000000 0.000000
460.238831 -253.011337 278.995392 0.177104 0.262956 0.948413 0.000000 0.000000
394.230774 -251.384506 290.870483 0.177104 0.262956 0.948413 0.000000 0.000000
436.516632 -276.484833 289.933441 0.177104 0.262956 0.948413 0.000000 0.000000
410.304749 -148.328613 237.940628 0.142171 0.517633 0.843708 0.000000 0.000000
399.367462 -198.646545 270.654755 0.142171 0.517633 0.843708 0.000000 0.000000
448.220795 -201.263138 264.027954 0.142171 0.517633 0.843708 0.000000 0.000000
399.367462 -198.646545 270.654755 0.144273 0.341901 0.928595 0.000000 0.000000
394.230774 -251.384506 290.870483 0.144273 0.341901 0.928595 0.000000 0.000000
448.220795 -201.263138 264.027954 0.144273 0.341901 0.928595 0.000000 0.000000
411.821503 -298.168182 297.099884 0.127125 0.177735 0.975833 0.000000 0.000000
436.516632 -276.484833 289.933441 0.127125 0.177735 0.975833 0.000000 0.000000
394.230774 -251.384506 290.870483 0.127125 0.177735 0.975833 0.000000 0.000000
410.304749 -148.328613 237.940628 0.058245 0.683497 0.727626 0.000000 0.000000
413.248108 -101.145561 193.383530 0.058245 0.683497 0.727626 0.000000 0.000000
360.874878 -125.207306 220.178314 0.058245 0.683497 0.727626 0.000000 0.000000
394.230774 -251.384506 290.870483 0.040794 0.146935 0.988305 0.000000 0.000000
351.085999 -287.919617 298.083160 0.040794 0.146935 0.988305 0.000000 0.000000
411.821503 -298.168182 297.099884 0.040794 0.146935 0.988305 0.000000 0.000000
385.583801 -323.794617 300.521790 0.698662 -0.715451 -0.000931 0.000000 0.000000
388.628571 -320.625763 150.292191 0.698662 -0.715451 -0.000931 0.000000 0.000000
411.821503 -298.168182 297.099884 0.698662 -0.715451 -0.000931 0.000000 0.000000
385.583801 -323.794617 300.521790 0.032837 0.099180 0.994528 0.000000 0.000000
411.821503 -298.168182 297.099884 0.032837 0.099180 0.994528 0.000000 0.000000
351.085999 -287.919617 298.083160 0.032837 0.099180 0.994528 0.000000 0.000000
360.874878 -125.207306 220.178314 -0.003792 0.604093 0.796905 0.000000 0.000000
347.942230 -167.866272 252.454346 -0.003792 0.604093 0.796905 0.000000 0.000000
410.304749 -148.328613 237.940628 -0.003792 0.604093 0.796905 0.000000 0.000000
399.367462 -198.646545 270.654755 0.026203 0.540879 0.840692 0.000000 0.000000
410.304749 -148.328613 237.940628 0.026203 0.540879 0.840692 0.000000 0.000000
347.942230 -167.866272 252.454346 0.026203 0.540879 0.840692 0.000000 0.000000
351.085999 -287.919617 298.083160 -0.054413 0.015542 0.998398 0.000000 0.000000
358.657898 -348.718018 299.442291 -0.054413 0.015542 0.998398 0.000000 0.000000
385.583801 -323.794617 300.521790 -0.054413 0.015542 0.998398 0.000000 0.000000
358.657898 -348.718018 299.442291 0.683255 -0.730179 -0.000233 0.000000 0.000000
365.878296 -341.914062 150.406204 0.683255 -0.730179 -0.000233 0.000000 0.000000
388.628571 -320.625763 150.292191 0.683255 -0.730179 -0.000233 0.000000 0.000000
347.942230 -167.866272 252.454346 -0.076813 0.409264 0.909177 0.000000 0.000000
314.225281 -231.717010 278.347992 -0.076813 0.409264 0.909177 0.000000 0.000000
399.367462 -198.646545 270.654755 -0.076813 0.409264 0.909177 0.000000 0.000000
394.230774 -251.384506 290.870483 -0.056598 0.362156 0.930397 0.000000 0.000000
399.367462 -198.646545 270.654755 -0.056598 0.362156 0.930397 0.000000 0.000000
314.225281 -231.717010 278.347992 -0.056598 0.362156 0.930397 0.000000 0.000000
314.225281 -231.717010 278.347992 -0.079989 0.283140 0.955737 0.000000 0.000000
351.085999 -287.919617 298.083160 -0.079989 0.283140 0.955737 0.000000 0.000000
394.230774 -251.384506 290.870483 -0.079989 0.283140 0.955737 0.000000 0.000000
351.085999 -287.919617 298.083160 -0.118290 0.007465 0.992951 0.000000 0.000000
333.875275 -367.841400 296.633728 -0.118290 0.007465 0.992951 0.000000 0.000000
358.657898 -348.718018 299.442291 -0.118290 0.007465 0.992951 0.000000 0.000000
302.332153 -190.755783 256.370941 -0.142272 0.435581 0.888835 0.000000 0.000000
314.225281 -231.717010 278.347992 -0.142272 0.435581 0.888835 0.000000 0.000000
347.942230 -167.866272 252.454346 -0.142272 0.435581 0.888835 0.000000 0.000000
351.085999 -287.919617 298.083160 -0.180306 0.020994 0.983386 0.000000 0.000000
289.375488 -304.057007 287.112885 -0.180306 0.020994 0.983386 0.000000 0.000000
333.875275 -367.841400 296.633728 -0.180306 0.020994 0.983386 0.000000 0.000000
314.845276 -389.638214 287.952332 0.707321 -0.706845 0.008197 0.000000 0.000000
336.101776 -369.962402 150.418060 0.707321 -0.706845 0.008197 0.000000 0.000000
350.511871 -355.542114 150.460098 0.707321 -0.706845 0.008197 0.000000 0.000000
347.942230 -167.866272 252.454346 -0.138471 0.623909 0.769132 0.000000 0.000000
360.874878 -125.207306 220.178314 -0.138471 0.623909 0.769132 0.000000 0.000000
310.161377 -135.266586 219.208023 -0.138471 0.623909 0.769132 0.000000 0.000000
314.225281 -231.717010 278.347992 -0.220114 0.191503 0.956492 0.000000 0.000000
289.375488 -304.057007 287.112885 -0.220114 0.191503 0.956492 0.000000 0.000000
351.085999 -287.919617 298.083160 -0.220114 0.191503 0.956492 0.000000 0.000000
310.161377 -135.266586 219.208023 -0.214696 0.564218 0.797222 0.000000 0.000000
302.332153 -190.755783 256.370941 -0.214696 0.564218 0.797222 0.000000 0.000000
347.942230 -167.866272 252.454346 -0.214696 0.564218 0.797222 0.000000 0.000000
333.875275 -367.841400 296.633728 -0.292704 -0.122173 0.948366 0.000000 0.000000
249.803848 -375.928528 269.644043 -0.292704 -0.122173 0.948366 0.000000 0.000000
314.845276 -389.638214 287.952332 -0.292704 -0.122173 0.948366 0.000000 0.000000
249.803848 -375.928528 269.644043 -0.300665 -0.174203 0.937685 0.000000 0.000000
290.049103 -412.641174 275.728058 -0.300665 -0.174203 0.937685 0.000000 0.000000
314.845276 -389.638214 287.952332 -0.300665 -0.174203 0.937685 0.000000 0.000000
289.375488 -304.057007 287.112885 -0.281901 -0.053683 0.957941 0.000000 0.000000
254.443283 -347.975800 274.371918 -0.281901 -0.053683 0.957941 0.000000 0.000000
333.875275 -367.841400 296.633728 -0.281901 -0.053683 0.957941 0.000000 0.000000
249.803848 -375.928528 269.644043 -0.293990 -0.111760 0.949252 0.000000 0.000000
333.875275 -367.841400 296.633728 -0.293990 -0.111760 0.949252 0.000000 0.000000
254.443283 -347.975800 274.371918 -0.293990 -0.111760 0.949252 0.000000 0.000000
290.049103 -412.641174 275.728058 0.681113 -0.732178 0.000947 0.000000 0.000000
317.972382 -386.827393 150.417496 0.681113 -0.732178 0.000947 0.000000 0.000000
336.101776 -369.962402 150.418060 0.681113 -0.732178 0.000947 0.000000 0.000000
302.332153 -190.755783 256.370941 -0.259818 0.562392 0.784990 0.000000 0.000000
310.161377 -135.266586 219.208023 -0.259818 0.562392 0.784990 0.000000 0.000000
263.993469 -169.122208 228.182526 -0.259818 0.562392 0.784990 0.000000 0.000000
314.225281 -231.717010 278.347992 -0.333355 0.368757 0.867694 0.000000 0.000000
302.332153 -190.755783 256.370941 -0.333355 0.368757 0.867694 0.000000 0.000000
242.606430 -216.325333 244.291916 -0.333355 0.368757 0.867694 0.000000 0.000000
289.375488 -304.057007 287.112885 -0.313860 0.219732 0.923693 0.000000 0.000000
314.225281 -231.717010 278.347992 -0.313860 0.219732 0.923693 0.000000 0.000000
249.245209 -280.370270 267.842377 -0.313860 0.219732 0.923693 0.000000 0.000000
249.803848 -375.928528 269.644043 -0.374523 -0.263224 0.889070 0.000000 0.000000
268.696808 -433.385071 260.591766 -0.374523 -0.263224 0.889070 0.000000 0.000000
290.049103 -412.641174 275.728058 -0.374523 -0.263224 0.889070 0.000000 0.000000
242.606430 -216.325333 244.291916 -0.359772 0.288937 0.887175 0.000000 0.000000
249.245209 -280.370270 267.842377 -0.359772 0.288937 0.887175 0.000000 0.000000
314.225281 -231.717010 278.347992 -0.359772 0.288937 0.887175 0.000000 0.000000
249.245209 -280.370270 267.842377 -0.404612 0.057042 0.912708 0.000000 0.000000
254.443283 -347.975800 274.371918 -0.404612 0.057042 0.912708 0.000000 0.000000
289.375488 -304.057007 287.112885 -0.404612 0.057042 0.912708 0.000000 0.000000
242.606430 -216.325333 244.291916 -0.355821 0.442198 0.823318 0.000000 0.000000
302.332153 -190.755783 256.370941 -0.355821 0.442198 0.823318 0.000000 0.000000
263.993469 -169.122208 228.182526 -0.355821 0.442198 0.823318 0.000000 0.000000
274.845062 -116.746269 186.145706 -0.326695 0.631829 0.702895 0.000000 0.000000
263.993469 -169.122208 228.182526 -0.326695 0.631829 0.702895 0.000000 0.000000
310.161377 -135.266586 219.208023 -0.326695 0.631829 0.702895 0.000000 0.000000
268.696808 -433.385071 260.591766 -0.435478 -0.333850 0.836004 0.000000 0.000000
224.543274 -418.513062 243.531006 -0.435478 -0.333850 0.836004 0.000000 0.000000
253.622620 -445.910950 247.737473 -0.435478 -0.333850 0.836004 0.000000 0.000000
268.696808 -433.385071 260.591766 -0.425864 -0.275799 0.861728 0.000000 0.000000
249.803848 -375.928528 269.644043 -0.425864 -0.275799 0.861728 0.000000 0.000000
224.543274 -418.513062 243.531006 -0.425864 -0.275799 0.861728 0.000000 0.000000
242.033386 -458.482819 235.086349 -0.468194 -0.374015 0.800567 0.000000 0.000000
253.622620 -445.910950 247.737473 -0.468194 -0.374015 0.800567 0.000000 0.000000
224.543274 -418.513062 243.531006 -0.468194 -0.374015 0.800567 0.000000 0.000000
254.443283 -347.975800 274.371918 -0.488467 0.046599 0.871337 0.000000 0.000000
249.245209 -280.370270 267.842377 -0.488467 0.046599 0.871337 0.000000 0.000000
206.139328 -291.153473 244.254135 -0.488467 0.046599 0.871337 0.000000 0.000000
242.033386 -458.482819 235.086349 0.695571 -0.718434 0.005762 0.000000 0.000000
282.123413 -420.347900 150.380356 0.695571 -0.718434 0.005762 0.000000 0.000000
301.088257 -401.986023 150.447830 0.695571 -0.718434 0.005762 0.000000 0.000000
249.245209 -280.370270 267.842377 -0.494981 0.254221 0.830882 0.000000 0.000000
242.606430 -216.325333 244.291916 -0.494981 0.254221 0.830882 0.000000 0.000000
197.745483 -246.210083 226.710663 -0.494981 0.254221 0.830882 0.000000 0.000000
224.543274 -418.513062 243.531006 -0.468022 -0.373966 0.800690 0.000000 0.000000
229.778717 -465.324036 224.727997 -0.468022 -0.373966 0.800690 0.000000 0.000000
242.033386 -458.482819 235.086349 -0.468022 -0.373966 0.800690 0.000000 0.000000
206.139328 -291.153473 244.254135 -0.481206 0.054661 0.874902 0.000000 0.000000
203.198547 -334.344116 245.335083 -0.481206 0.054661 0.874902 0.000000 0.000000
254.443283 -347.975800 274.371918 -0.481206 0.054661 0.874902 0.000000 0.000000
249.803848 -375.928528 269.644043 -0.504463 -0.061935 0.861209 0.000000 0.000000
254.443283 -347.975800 274.371918 -0.504463 -0.061935 0.861209 0.000000 0.000000
203.198547 -334.344116 245.335083 -0.504463 -0.061935 0.861209 0.000000 0.000000
274.845062 -116.746269 186.145706 -0.392581 0.623778 0.675856 0.000000 0.000000
232.977493 -147.556122 190.262115 -0.392581 0.623778 0.675856 0.000000 0.000000
263.993469 -169.122208 228.182526 -0.392581 0.623778 0.675856 0.000000 0.000000
197.745483 -246.210083 226.710663 -0.510688 0.228191 0.828931 0.000000 0.000000
206.139328 -291.153473 244.254135 -0.510688 0.228191 0.828931 0.000000 0.000000
249.245209 -280.370270 267.842377 -0.510688 0.228191 0.828931 0.000000 0.000000
224.543274 -418.513062 243.531006 -0.539834 -0.183537 0.821519 0.000000 0.000000
249.803848 -375.928528 269.644043 -0.539834 -0.183537 0.821519 0.000000 0.000000
187.920547 -378.573669 228.388535 -0.539834 -0.183537 0.821519 0.000000 0.000000
232.977493 -147.556122 190.262115 -0.487175 0.525627 0.697407 0.000000 0.000000
200.814270 -177.207382 190.142212 -0.487175 0.525627 0.697407 0.000000 0.000000
263.993469 -169.122208 228.182526 -0.487175 0.525627 0.697407 0.000000 0.000000
242.606430 -216.325333 244.291916 -0.498002 0.473560 0.726454 0.000000 0.000000
263.993469 -169.122208 228.182526 -0.498002 0.473560 0.726454 0.000000 0.000000
200.814270 -177.207382 190.142212 -0.498002 0.473560 0.726454 0.000000 0.000000
187.920547 -378.573669 228.388535 -0.546301 -0.128422 0.827686 0.000000 0.000000
249.803848 -375.928528 269.644043 -0.546301 -0.128422 0.827686 0.000000 0.000000
203.198547 -334.344116 245.335083 -0.546301 -0.128422 0.827686 0.000000 0.000000
229.778717 -465.324036 224.727997 -0.543512 -0.364508 0.756127 0.000000 0.000000
224.543274 -418.513062 243.531006 -0.543512 -0.364508 0.756127 0.000000 0.000000
190.525436 -436.072174 210.613846 -0.543512 -0.364508 0.756127 0.000000 0.000000
223.369003 -475.753326 212.401566 0.685777 -0.727812 -0.000521 0.000000 0.000000
261.873169 -439.428650 150.452194 0.685777 -0.727812 -0.000521 0.000000 0.000000
282.123413 -420.347900 150.380356 0.685777 -0.727812 -0.000521 0.000000 0.000000
200.814270 -177.207382 190.142212 -0.555836 0.408429 0.724039 0.000000 0.000000
197.745483 -246.210083 226.710663 -0.555836 0.408429 0.724039 0.000000 0.000000
242.606430 -216.325333 244.291916 -0.555836 0.408429 0.724039 0.000000 0.000000
187.920547 -378.573669 228.388535 -0.598183 -0.261288 0.757565 0.000000 0.000000
190.525436 -436.072174 210.613846 -0.598183 -0.261288 0.757565 0.000000 0.000000
224.543274 -418.513062 243.531006 -0.598183 -0.261288 0.757565 0.000000 0.000000
223.369003 -475.753326 212.401566 -0.512637 -0.505346 0.694139 0.000000 0.000000
229.778717 -465.324036 224.727997 -0.512637 -0.505346 0.694139 0.000000 0.000000
212.136948 -484.894592 197.451431 -0.512637 -0.505346 0.694139 0.000000 0.000000
206.139328 -291.153473 244.254135 -0.629782 0.062259 0.774273 0.000000 0.000000
168.640945 -299.460754 214.421478 -0.629782 0.062259 0.774273 0.000000 0.000000
203.198547 -334.344116 245.335083 -0.629782 0.062259 0.774273 0.000000 0.000000
212.136948 -484.894592 197.451431 0.684605 -0.728651 0.019594 0.000000 0.000000
241.455963 -458.611328 150.465027 0.684605 -0.728651 0.019594 0.000000 0.000000
261.873169 -439.428650 150.452194 0.684605 -0.728651 0.019594 0.000000 0.000000
197.745483 -246.210083 226.710663 -0.636411 0.174434 0.751368 0.000000 0.000000
168.640945 -299.460754 214.421478 -0.636411 0.174434 0.751368 0.000000 0.000000
206.139328 -291.153473 244.254135 -0.636411 0.174434 0.751368 0.000000 0.000000
212.136948 -484.894592 197.451431 -0.575931 -0.440587 0.688612 0.000000 0.000000
229.778717 -465.324036 224.727997 -0.575931 -0.440587 0.688612 0.000000 0.000000
190.525436 -436.072174 210.613846 -0.575931 -0.440587 0.688612 0.000000 0.000000
187.920547 -378.573669 228.388535 -0.660621 -0.058567 0.748432 0.000000 0.000000
203.198547 -334.344116 245.335083 -0.660621 -0.058567 0.748432 0.000000 0.000000
157.977829 -351.694397 204.062271 -0.660621 -0.058567 0.748432 0.000000 0.000000
190.525436 -436.072174 210.613846 -0.618351 -0.447830 0.645825 0.000000 0.000000
203.824509 -492.836853 183.985275 -0.618351 -0.447830 0.645825 0.000000 0.000000
212.136948 -484.894592 197.451431 -0.618351 -0.447830 0.645825 0.000000 0.000000
168.640945 -299.460754 214.421478 -0.672077 -0.009643 0.740418 0.000000 0.000000
157.977829 -351.694397 204.062271 -0.672077 -0.009643 0.740418 0.000000 0.000000
203.198547 -334.344116 245.335083 -0.672077 -0.009643 0.740418 0.000000 0.000000
197.745483 -246.210083 226.710663 -0.617326 0.389646 0.683436 0.000000 0.000000
200.814270 -177.207382 190.142212 -0.617326 0.389646 0.683436 0.000000 0.000000
164.748764 -236.670135 191.466751 -0.617326 0.389646 0.683436 0.000000 0.000000
190.525436 -436.072174 210.613846 -0.663307 -0.248285 0.705959 0.000000 0.000000
187.920547 -378.573669 228.388535 -0.663307 -0.248285 0.705959 0.000000 0.000000
155.705368 -413.879639 185.702576 -0.663307 -0.248285 0.705959 0.000000 0.000000
466.242096 -249.203781 150.449860 0.672043 -0.740281 0.018503 0.000000 0.000000
500.507446 -215.613235 249.820938 0.672043 -0.740281 0.018503 0.000000 0.000000
449.739014 -264.185822 150.442047 0.672043 -0.740281 0.018503 0.000000 0.000000
282.123413 -420.347900 150.380356 0.756113 -0.637835 0.146490 0.000000 0.000000
229.778717 -465.324036 224.727997 0.756113 -0.637835 0.146490 0.000000 0.000000
223.369003 -475.753326 212.401566 0.756113 -0.637835 0.146490 0.000000 0.000000
499.218170 -219.253845 150.452026 0.672199 -0.740117 0.019372 0.000000 0.000000
541.653809 -179.351700 202.438507 0.672199 -0.740117 0.019372 0.000000 0.000000
482.728882 -234.230042 150.449097 0.672199 -0.740117 0.019372 0.000000 0.000000
261.873169 -439.428650 150.452194 0.657077 -0.753093 -0.033183 0.000000 0.000000
223.369003 -475.753326 212.401566 0.657077 -0.753093 -0.033183 0.000000 0.000000
212.136948 -484.894592 197.451431 0.657077 -0.753093 -0.033183 0.000000 0.000000
413.606934 -297.357147 150.366302 0.681608 -0.731705 0.004249 0.000000 0.000000
411.821503 -298.168182 297.099884 0.681608 -0.731705 0.004249 0.000000 0.000000
388.628571 -320.625763 150.292191 0.681608 -0.731705 0.004249 0.000000 0.000000
388.628571 -320.625763 150.292191 0.679327 -0.733834 -0.001711 0.000000 0.000000
385.583801 -323.794617 300.521790 0.679327 -0.733834 -0.001711 0.000000 0.000000
358.657898 -348.718018 299.442291 0.679327 -0.733834 -0.001711 0.000000 0.000000
482.728882 -234.230042 150.449097 0.672300 -0.740233 0.008235 0.000000 0.000000
527.326843 -192.929352 221.961578 0.672300 -0.740233 0.008235 0.000000 0.000000
466.242096 -249.203781 150.449860 0.672300 -0.740233 0.008235 0.000000 0.000000
365.878296 -341.914062 150.406204 0.611360 -0.791326 -0.006508 0.000000 0.000000
358.657898 -348.718018 299.442291 0.611360 -0.791326 -0.006508 0.000000 0.000000
333.875275 -367.841400 296.633728 0.611360 -0.791326 -0.006508 0.000000 0.000000
301.088257 -401.986023 150.447830 0.716828 -0.696354 0.035332 0.000000 0.000000
253.622620 -445.910950 247.737473 0.716828 -0.696354 0.035332 0.000000 0.000000
242.033386 -458.482819 235.086349 0.716828 -0.696354 0.035332 0.000000 0.000000
570.306152 -153.526108 150.635315 0.677414 -0.735542 0.009464 0.000000 0.000000
552.484741 -169.497696 184.944962 0.677414 -0.735542 0.009464 0.000000 0.000000
517.270752 -202.372696 150.446426 0.677414 -0.735542 0.009464 0.000000 0.000000
241.455963 -458.611328 150.465027 0.689247 -0.723687 0.034869 0.000000 0.000000
203.824509 -492.836853 183.985275 0.689247 -0.723687 0.034869 0.000000 0.000000
188.892502 -508.669800 150.538116 0.689247 -0.723687 0.034869 0.000000 0.000000
301.088257 -401.986023 150.447830 0.651274 -0.758441 -0.024683 0.000000 0.000000
268.696808 -433.385071 260.591766 0.651274 -0.758441 -0.024683 0.000000 0.000000
253.622620 -445.910950 247.737473 0.651274 -0.758441 -0.024683 0.000000 0.000000
449.739014 -264.185822 150.442047 0.671980 -0.740384 0.016561 0.000000 0.000000
482.196808 -232.177795 264.398987 0.671980 -0.740384 0.016561 0.000000 0.000000
433.214264 -279.183807 150.443237 0.671980 -0.740384 0.016561 0.000000 0.000000
317.972382 -386.827393 150.417496 0.694420 -0.719540 0.006515 0.000000 0.000000
290.049103 -412.641174 275.728058 0.694420 -0.719540 0.006515 0.000000 0.000000
268.696808 -433.385071 260.591766 0.694420 -0.719540 0.006515 0.000000 0.000000
241.455963 -458.611328 150.465027 0.679298 -0.733739 0.013436 0.000000 0.000000
212.136948 -484.894592 197.451431 0.679298 -0.733739 0.013436 0.000000 0.000000
203.824509 -492.836853 183.985275 0.679298 -0.733739 0.013436 0.000000 0.000000
433.214264 -279.183807 150.443237 0.679751 -0.733415 0.006420 0.000000 0.000000
460.238831 -253.011337 278.995392 0.679751 -0.733415 0.006420 0.000000 0.000000
413.606934 -297.357147 150.366302 0.679751 -0.733415 0.006420 0.000000 0.000000
336.101776 -369.962402 150.418060 0.680044 -0.733171 0.000215 0.000000 0.000000
314.845276 -389.638214 287.952332 0.680044 -0.733171 0.000215 0.000000 0.000000
290.049103 -412.641174 275.728058 0.680044 -0.733171 0.000215 0.000000 0.000000
350.511871 -355.542114 150.460098 0.747193 -0.663966 0.029174 0.000000 0.000000
333.875275 -367.841400 296.633728 0.747193 -0.663966 0.029174 0.000000 0.000000
314.845276 -389.638214 287.952332 0.747193 -0.663966 0.029174 0.000000 0.000000
282.123413 -420.347900 150.380356 0.553568 -0.825551 -0.109671 0.000000 0.000000
242.033386 -458.482819 235.086349 0.553568 -0.825551 -0.109671 0.000000 0.000000
229.778717 -465.324036 224.727997 0.553568 -0.825551 -0.109671 0.000000 0.000000
517.270752 -202.372696 150.446426 0.683009 -0.730404 0.003092 0.000000 0.000000
541.653809 -179.351700 202.438507 0.683009 -0.730404 0.003092 0.000000 0.000000
499.218170 -219.253845 150.452026 0.683009 -0.730404 0.003092 0.000000 0.000000
138.610229 -315.428925 182.655273 -0.887417 -0.009972 0.460860 0.000000 0.000000
121.581993 -281.314056 150.604431 -0.887417 -0.009972 0.460860 0.000000 0.000000
122.836029 -387.483948 150.721954 -0.887417 -0.009972 0.460860 0.000000 0.000000
459.988373 -82.471642 150.523621 0.119927 0.855594 0.503564 0.000000 0.000000
362.900574 -69.046318 150.834961 0.119927 0.855594 0.503564 0.000000 0.000000
413.248108 -101.145561 193.383530 0.119927 0.855594 0.503564 0.000000 0.000000
350.511871 -355.542114 150.460098 0.663493 -0.748077 0.012570 0.000000 0.000000
365.878296 -341.914062 150.406204 0.663493 -0.748077 0.012570 0.000000 0.000000
333.875275 -367.841400 296.633728 0.663493 -0.748077 0.012570 0.000000 0.000000
413.606934 -297.357147 150.366302 0.660430 -0.750878 0.003886 0.000000 0.000000
436.516632 -276.484833 289.933441 0.660430 -0.750878 0.003886 0.000000 0.000000
411.821503 -298.168182 297.099884 0.660430 -0.750878 0.003886 0.000000 0.000000
466.242096 -249.203781 150.449860 0.644027 -0.764145 0.036230 0.000000 0.000000
515.300720 -203.821960 235.550354 0.644027 -0.764145 0.036230 0.000000 0.000000
500.507446 -215.613235 249.820938 0.644027 -0.764145 0.036230 0.000000 0.000000
301.088257 -401.986023 150.447830 0.667964 -0.744029 -0.015666 0.000000 0.000000
317.972382 -386.827393 150.417496 0.667964 -0.744029 -0.015666 0.000000 0.000000
268.696808 -433.385071 260.591766 0.667964 -0.744029 -0.015666 0.000000 0.000000
449.739014 -264.185822 150.442047 0.676874 -0.735967 0.013927 0.000000 0.000000
500.507446 -215.613235 249.820938 0.676874 -0.735967 0.013927 0.000000 0.000000
482.196808 -232.177795 264.398987 0.676874 -0.735967 0.013927 0.000000 0.000000
362.900574 -69.046318 150.834961 -0.003205 0.000011 -0.999995 0.738361 0.627246
459.988373 -82.471642 150.523621 -0.003205 0.000011 -0.999995 0.735712 0.627611
482.728882 -234.230042 150.449097 -0.003205 0.000011 -0.999995 0.734923 0.632314
459.988373 -82.471642 150.523621 0.000058 0.000672 -1.000000 0.735712 0.627611
519.459595 -111.401245 150.507645 0.000058 0.000672 -1.000000 0.733817 0.628489
517.270752 -202.372696 150.446426 0.000058 0.000672 -1.000000 0.733837 0.631323
517.270752 -202.372696 150.446426 0.003008 0.000601 -0.999995 0.733837 0.631323
519.459595 -111.401245 150.507645 0.003008 0.000601 -0.999995 0.733817 0.628489
570.306152 -153.526108 150.635315 0.003008 0.000601 -0.999995 0.732204 0.629826
499.218170 -219.253845 150.452026 -0.000631 0.000343 -1.000000 0.734408 0.631845
459.988373 -82.471642 150.523621 -0.000631 0.000343 -1.000000 0.735712 0.627611
517.270752 -202.372696 150.446426 -0.000631 0.000343 -1.000000 0.733837 0.631323
449.739014 -264.185822 150.442047 -0.000965 0.001584 -0.999998 0.735953 0.633251
362.900574 -69.046318 150.834961 -0.000965 0.001584 -0.999998 0.738361 0.627246
466.242096 -249.203781 150.449860 -0.000965 0.001584 -0.999998 0.735438 0.632782
301.277618 -80.585434 150.778046 0.000505 0.002238 -0.999997 0.740938 0.627696
362.900574 -69.046318 150.834961 0.000505 0.002238 -0.999997 0.738361 0.627246
449.739014 -264.185822 150.442047 0.000505 0.002238 -0.999997 0.735953 0.633251
121.581993 -281.314056 150.604431 -0.001192 -0.000019 -0.999999 0.746182 0.634046
145.978058 -210.561920 150.573990 -0.001192 -0.000019 -0.999999 0.745353 0.631571
241.455963 -458.611328 150.465027 -0.001192 -0.000019 -0.999999 0.742458 0.639325
122.836029 -387.483948 150.721954 -0.002850 -0.001141 -0.999995 0.746171 0.636408
121.581993 -281.314056 150.604431 -0.002850 -0.001141 -0.999995 0.746182 0.634046
241.455963 -458.611328 150.465027 -0.002850 -0.001141 -0.999995 0.742458 0.639325
159.970062 -472.718109 150.938141 -0.004990 -0.004711 -0.999977 0.744937 0.639785
122.836029 -387.483948 150.721954 -0.004990 -0.004711 -0.999977 0.746171 0.636408
241.455963 -458.611328 150.465027 -0.004990 -0.004711 -0.999977 0.742458 0.639325
188.892502 -508.669800 150.538116 -0.006787 0.005666 -0.999961 0.744089 0.640889
159.970062 -472.718109 150.938141 -0.006787 0.005666 -0.999961 0.744937 0.639785
241.455963 -458.611328 150.465027 -0.006787 0.005666 -0.999961 0.742458 0.639325
145.978058 -210.561920 150.573990 0.000721 0.000717 -0.999999 0.745353 0.631571
172.071365 -170.751236 150.621353 0.000721 0.000717 -0.999999 0.744414 0.630108
241.455963 -458.611328 150.465027 0.000721 0.000717 -0.999999 0.742458 0.639325
459.988373 -82.471642 150.523621 -0.000236 0.000456 -1.000000 0.735712 0.627611
499.218170 -219.253845 150.452026 -0.000236 0.000456 -1.000000 0.734408 0.631845
482.728882 -234.230042 150.449097 -0.000236 0.000456 -1.000000 0.734923 0.632314
466.242096 -249.203781 150.449860 -0.001307 0.001388 -0.999998 0.735438 0.632782
362.900574 -69.046318 150.834961 -0.001307 0.001388 -0.999998 0.738361 0.627246
482.728882 -234.230042 150.449097 -0.001307 0.001388 -0.999998 0.734923 0.632314
301.277618 -80.585434 150.778046 -0.000999 0.001022 -0.999999 0.740938 0.627696
449.739014 -264.185822 150.442047 -0.000999 0.001022 -0.999999 0.735953 0.633251
433.214264 -279.183807 150.443237 -0.000999 0.001022 -0.999999 0.736469 0.633720
172.071365 -170.751236 150.621353 -0.001805 0.000108 -0.999998 0.744414 0.630108
222.056564 -120.574806 150.536530 -0.001805 0.000108 -0.999998 0.743004 0.628822
241.455963 -458.611328 150.465027 -0.001805 0.000108 -0.999998 0.742458 0.639325
222.056564 -120.574806 150.536530 0.002859 0.000376 -0.999996 0.743004 0.628822
301.277618 -80.585434 150.778046 0.002859 0.000376 -0.999996 0.740938 0.627696
241.455963 -458.611328 150.465027 0.002859 0.000376 -0.999996 0.742458 0.639325
261.873169 -439.428650 150.452194 -0.001652 0.001089 -0.999998 0.741817 0.638726
241.455963 -458.611328 150.465027 -0.001652 0.001089 -0.999998 0.742458 0.639325
301.277618 -80.585434 150.778046 -0.001652 0.001089 -0.999998 0.740938 0.627696
261.873169 -439.428650 150.452194 -0.004911 0.001447 -0.999987 0.741817 0.638726
301.277618 -80.585434 150.778046 -0.004911 0.001447 -0.999987 0.740938 0.627696
282.123413 -420.347900 150.380356 -0.004911 0.001447 -0.999987 0.741183 0.638131
282.123413 -420.347900 150.380356 0.002565 0.001026 -0.999996 0.741183 0.638131
301.277618 -80.585434 150.778046 0.002565 0.001026 -0.999996 0.740938 0.627696
301.088257 -401.986023 150.447830 0.002565 0.001026 -0.999996 0.740586 0.637562
301.277618 -80.585434 150.778046 0.001461 0.002657 -0.999995 0.740938 0.627696
433.214264 -279.183807 150.443237 0.001461 0.002657 -0.999995 0.736469 0.633720
413.606934 -297.357147 150.366302 0.001461 0.002657 -0.999995 0.737082 0.634288
301.088257 -401.986023 150.447830 -0.002720 0.001029 -0.999996 0.740586 0.637562
301.277618 -80.585434 150.778046 -0.002720 0.001029 -0.999996 0.740938 0.627696
317.972382 -386.827393 150.417496 -0.002720 0.001029 -0.999996 0.740062 0.637086
336.101776 -369.962402 150.418060 -0.001013 0.001122 -0.999999 0.739499 0.636554
317.972382 -386.827393 150.417496 -0.001013 0.001122 -0.999999 0.740062 0.637086
301.277618 -80.585434 150.778046 -0.001013 0.001122 -0.999999 0.740938 0.627696
301.277618 -80.585434 150.778046 0.000808 0.002318 -0.999997 0.740938 0.627696
413.606934 -297.357147 150.366302 0.000808 0.002318 -0.999997 0.737082 0.634288
388.628571 -320.625763 150.292191 0.000808 0.002318 -0.999997 0.737862 0.635015
350.511871 -355.542114 150.460098 0.001493 0.001424 -0.999998 0.739042 0.636111
336.101776 -369.962402 150.418060 0.001493 0.001424 -0.999998 0.739499 0.636554
301.277618 -80.585434 150.778046 0.001493 0.001424 -0.999998 0.740938 0.627696
301.277618 -80.585434 150.778046 -0.005151 0.000149 -0.999987 0.740938 0.627696
388.628571 -320.625763 150.292191 -0.005151 0.000149 -0.999987 0.737862 0.635015
365.878296 -341.914062 150.406204 -0.005151 0.000149 -0.999987 0.738573 0.635679
350.511871 -355.542114 150.460098 -0.003912 0.000456 -0.999992 0.739042 0.636111
301.277618 -80.585434 150.778046 -0.003912 0.000456 -0.999992 0.740938 0.627696
365.878296 -341.914062 150.406204 -0.003912 0.000456 -0.999992 0.738573 0.635679
3 0 1 2
3 3 4 5
3 6 7 8
3 9 10 11
3 12 13 14
3 15 16 17
3 18 19 20
3 21 22 23
3 24 25 26
3 27 28 29
3 30 31 32
3 33 34 35
3 36 37 38
3 39 40 41
3 42 43 44
3 45 46 47
3 48 49 50
3 51 52 53
3 54 55 56
3 57 58 59
3 60 61 62
3 63 64 65
3 66 67 68
3 69 70 71
3 72 73 74
3 75 76 77
3 78 79 80
3 81 82 83
3 84 85 86
3 87 88 89
3 90 91 92
3 93 94 95
3 96 97 98
3 99 100 101
3 102 103 104
3 105 106 107
3 108 109 110
3 111 112 113
3 114 115 116
3 117 118 119
3 120 121 122
3 123 124 125
3 126 127 128
3 129 130 131
3 132 133 134
3 135 136 137
3 138 139 140
3 141 142 143
3 144 145 146
3 147 148 149
3 150 151 152
3 153 154 155
3 156 157 158
3 159 160 161
3 162 163 164
3 165 166 167
3 168 169 170
3 171 172 173
3 174 175 176
3 177 178 179
3 180 181 182
3 183 184 185
3 186 187 188
3 189 190 191
3 192 193 194
3 195 196 197
3 198 199 200
3 201 202 203
3 204 205 206
3 207 208 209
3 210 211 212
3 213 214 215
3 216 217 218
3 219 220 221
3 222 223 224
3 225 226 227
3 228 229 230
3 231 232 233
3 234 235 236
3 237 238 239
3 240 241 242
3 243 244 245
3 246 247 248
3 249 250 251
3 252 253 254
3 255 256 257
3 258 259 260
3 261 262 263
3 264 265 266
3 267 268 269
3 270 271 272
3 273 274 275
3 276 277 278
3 279 280 281
3 282 283 284
3 285 286 287
3 288 289 290
3 291 292 293
3 294 295 296
3 297 298 299
3 300 301 302
3 303 304 305
3 306 307 308
3 309 310 311
3 312 313 314
3 315 316 317
3 318 319 320
3 321 322 323
3 324 325 326
3 327 328 329
3 330 331 332
3 333 334 335
3 336 337 338
3 339 340 341
3 342 343 344
3 345 346 347
3 348 349 350
3 351 352 353
3 354 355 356
3 357 358 359
3 360 361 362
3 363 364 365
3 366 367 368
3 369 370 371
3 372 373 374
3 375 376 377
3 378 379 380
3 381 382 383
3 384 385 386
3 387 388 389
3 390 391 392
3 393 394 395
3 396 397 398
3 399 400 401
3 402 403 404
3 405 406 407
3 408 409 410
3 411 412 413
3 414 415 416
3 417 418 419
3 420 421 422
3 423 424 425
3 426 427 428
3 429 430 431
3 432 433 434
3 435 436 437
3 438 439 440
3 441 442 443
3 444 445 446
3 447 448 449
3 450 451 452
3 453 454 455
3 456 457 458
3 459 460 461
3 462 463 464
3 465 466 467
3 468 469 470
3 471 472 473
3 474 475 476
3 477 478 479
3 480 481 482
3 483 484 485
3 486 487 488
3 489 490 491
3 492 493 494
3 495 496 497
