ply
format ascii 1.0
comment Created by Blender 2.82 (sub 7) - www.blender.org, source file: ''
element vertex 486
property float x
property float y
property float z
property float nx
property float ny
property float nz
property float s
property float t
element face 162
property list uchar uint vertex_indices
end_header
339.408539 -85.802849 199.593048 0.879258 0.005747 0.476311 0.000000 0.000000
338.613342 35.426426 199.598343 0.879258 0.005747 0.476311 0.000000 0.000000
317.338898 -5.278178 239.361481 0.879258 0.005747 0.476311 0.000000 0.000000
317.338898 -5.278178 239.361481 0.825667 -0.051177 0.561832 0.000000 0.000000
318.846954 -73.188316 230.959351 0.825667 -0.051177 0.561832 0.000000 0.000000
339.408539 -85.802849 199.593048 0.825667 -0.051177 0.561832 0.000000 0.000000
318.846954 -73.188316 230.959351 0.748227 -0.278116 0.602335 0.000000 0.000000
282.087952 -121.068314 254.514145 0.748227 -0.278116 0.602335 0.000000 0.000000
339.408539 -85.802849 199.593048 0.748227 -0.278116 0.602335 0.000000 0.000000
339.408539 -85.802849 199.593048 0.751253 -0.371557 0.545495 0.000000 0.000000
282.087952 -121.068314 254.514145 0.751253 -0.371557 0.545495 0.000000 0.000000
295.015137 -175.638397 199.541153 0.751253 -0.371557 0.545495 0.000000 0.000000
317.338898 -5.278178 239.361481 0.770973 0.190654 0.607661 0.000000 0.000000
338.613342 35.426426 199.598343 0.770973 0.190654 0.607661 0.000000 0.000000
290.716431 24.952066 263.654083 0.770973 0.190654 0.607661 0.000000 0.000000
316.052887 96.262505 201.097183 0.751339 0.263723 0.604929 0.000000 0.000000
290.716431 24.952066 263.654083 0.751339 0.263723 0.604929 0.000000 0.000000
338.613342 35.426426 199.598343 0.751339 0.263723 0.604929 0.000000 0.000000
295.015137 -175.638397 199.541153 0.705752 -0.412820 0.575755 0.000000 0.000000
282.087952 -121.068314 254.514145 0.705752 -0.412820 0.575755 0.000000 0.000000
267.777252 -156.111130 246.930069 0.705752 -0.412820 0.575755 0.000000 0.000000
263.697144 -211.801422 200.597717 0.626035 -0.525323 0.576295 0.000000 0.000000
295.015137 -175.638397 199.541153 0.626035 -0.525323 0.576295 0.000000 0.000000
267.777252 -156.111130 246.930069 0.626035 -0.525323 0.576295 0.000000 0.000000
290.716431 24.952066 263.654083 0.720531 0.294651 0.627707 0.000000 0.000000
316.052887 96.262505 201.097183 0.720531 0.294651 0.627707 0.000000 0.000000
263.373871 79.570534 269.401672 0.720531 0.294651 0.627707 0.000000 0.000000
316.052887 96.262505 201.097183 0.657916 0.472673 0.586282 0.000000 0.000000
273.296661 156.695770 200.354919 0.657916 0.472673 0.586282 0.000000 0.000000
246.192535 128.134033 253.797836 0.657916 0.472673 0.586282 0.000000 0.000000
246.192535 128.134033 253.797836 0.660447 0.431178 0.614731 0.000000 0.000000
263.373871 79.570534 269.401672 0.660447 0.431178 0.614731 0.000000 0.000000
316.052887 96.262505 201.097183 0.660447 0.431178 0.614731 0.000000 0.000000
318.846954 -73.188316 230.959351 0.696898 -0.195590 0.689984 0.000000 0.000000
267.927307 -65.280266 284.630890 0.696898 -0.195590 0.689984 0.000000 0.000000
282.087952 -121.068314 254.514145 0.696898 -0.195590 0.689984 0.000000 0.000000
269.474792 -24.037333 286.980652 0.716699 -0.066443 0.694210 0.000000 0.000000
267.927307 -65.280266 284.630890 0.716699 -0.066443 0.694210 0.000000 0.000000
317.338898 -5.278178 239.361481 0.716699 -0.066443 0.694210 0.000000 0.000000
318.846954 -73.188316 230.959351 0.718553 -0.069657 0.691975 0.000000 0.000000
317.338898 -5.278178 239.361481 0.718553 -0.069657 0.691975 0.000000 0.000000
267.927307 -65.280266 284.630890 0.718553 -0.069657 0.691975 0.000000 0.000000
52.249313 237.205338 200.839127 0.060644 0.870821 0.487846 0.000000 0.000000
105.995483 215.315918 233.231323 0.060644 0.870821 0.487846 0.000000 0.000000
143.409775 231.596863 199.518356 0.060644 0.870821 0.487846 0.000000 0.000000
219.285141 200.789017 200.216904 0.317225 0.793072 0.520005 0.000000 0.000000
143.409775 231.596863 199.518356 0.317225 0.793072 0.520005 0.000000 0.000000
163.928925 195.783768 241.620178 0.317225 0.793072 0.520005 0.000000 0.000000
-17.564323 219.095352 199.539551 -0.268048 0.763360 0.587735 0.000000 0.000000
-25.000868 190.705154 233.021652 -0.268048 0.763360 0.587735 0.000000 0.000000
29.581785 200.378983 245.350571 -0.268048 0.763360 0.587735 0.000000 0.000000
52.249313 237.205338 200.839127 -0.218767 0.803625 0.553469 0.000000 0.000000
-17.564323 219.095352 199.539551 -0.218767 0.803625 0.553469 0.000000 0.000000
29.581785 200.378983 245.350571 -0.218767 0.803625 0.553469 0.000000 0.000000
105.995483 215.315918 233.231323 0.182105 0.790995 0.584092 0.000000 0.000000
163.928925 195.783768 241.620178 0.182105 0.790995 0.584092 0.000000 0.000000
143.409775 231.596863 199.518356 0.182105 0.790995 0.584092 0.000000 0.000000
-25.000868 190.705154 233.021652 -0.423771 0.735104 0.529189 0.000000 0.000000
-17.564323 219.095352 199.539551 -0.423771 0.735104 0.529189 0.000000 0.000000
-75.083038 185.296982 200.428757 -0.423771 0.735104 0.529189 0.000000 0.000000
105.995483 215.315918 233.231323 -0.055427 0.782205 0.620551 0.000000 0.000000
52.249313 237.205338 200.839127 -0.055427 0.782205 0.620551 0.000000 0.000000
78.957878 188.889236 264.127228 -0.055427 0.782205 0.620551 0.000000 0.000000
29.581785 200.378983 245.350571 -0.053714 0.782636 0.620157 0.000000 0.000000
78.957878 188.889236 264.127228 -0.053714 0.782636 0.620157 0.000000 0.000000
52.249313 237.205338 200.839127 -0.053714 0.782636 0.620157 0.000000 0.000000
163.928925 195.783768 241.620178 0.148038 0.727040 0.670446 0.000000 0.000000
105.995483 215.315918 233.231323 0.148038 0.727040 0.670446 0.000000 0.000000
113.682251 170.224869 280.431274 0.148038 0.727040 0.670446 0.000000 0.000000
273.296661 156.695770 200.354919 0.526065 0.646128 0.552969 0.000000 0.000000
219.285141 200.789017 200.216904 0.526065 0.646128 0.552969 0.000000 0.000000
221.151291 163.849792 241.603897 0.526065 0.646128 0.552969 0.000000 0.000000
-25.000868 190.705154 233.021652 -0.460298 0.655691 0.598494 0.000000 0.000000
-75.083038 185.296982 200.428757 -0.460298 0.655691 0.598494 0.000000 0.000000
-81.375114 147.730408 236.746277 -0.460298 0.655691 0.598494 0.000000 0.000000
163.928925 195.783768 241.620178 0.388617 0.696053 0.603727 0.000000 0.000000
221.151291 163.849792 241.603897 0.388617 0.696053 0.603727 0.000000 0.000000
219.285141 200.789017 200.216904 0.388617 0.696053 0.603727 0.000000 0.000000
-75.083038 185.296982 200.428757 -0.586207 0.611715 0.531193 0.000000 0.000000
-112.721359 150.017731 199.519531 -0.586207 0.611715 0.531193 0.000000 0.000000
-81.375114 147.730408 236.746277 -0.586207 0.611715 0.531193 0.000000 0.000000
29.581785 200.378983 245.350571 -0.273751 0.687932 0.672169 0.000000 0.000000
-25.000868 190.705154 233.021652 -0.273751 0.687932 0.672169 0.000000 0.000000
19.803814 162.808182 279.820221 -0.273751 0.687932 0.672169 0.000000 0.000000
-178.353928 -6.219503 200.583832 -0.848380 -0.127211 0.513876 0.000000 0.000000
-161.837158 -118.654541 200.018631 -0.848380 -0.127211 0.513876 0.000000 0.000000
-144.313507 -47.535542 246.554733 -0.848380 -0.127211 0.513876 0.000000 0.000000
-162.175003 72.233093 199.569717 -0.755134 0.480384 0.446099 0.000000 0.000000
-129.529739 102.179398 222.582108 -0.755134 0.480384 0.446099 0.000000 0.000000
-112.721359 150.017731 199.519531 -0.755134 0.480384 0.446099 0.000000 0.000000
-178.353928 -6.219503 200.583832 -0.815816 0.175366 0.551082 0.000000 0.000000
-143.930588 54.773022 232.134705 -0.815816 0.175366 0.551082 0.000000 0.000000
-162.175003 72.233093 199.569717 -0.815816 0.175366 0.551082 0.000000 0.000000
-162.175003 72.233093 199.569717 -0.730207 0.341106 0.591983 0.000000 0.000000
-143.930588 54.773022 232.134705 -0.730207 0.341106 0.591983 0.000000 0.000000
-129.529739 102.179398 222.582108 -0.730207 0.341106 0.591983 0.000000 0.000000
-161.837158 -118.654541 200.018631 -0.747086 -0.225164 0.625431 0.000000 0.000000
-129.910980 -131.590439 233.497742 -0.747086 -0.225164 0.625431 0.000000 0.000000
-144.313507 -47.535542 246.554733 -0.747086 -0.225164 0.625431 0.000000 0.000000
-161.837158 -118.654541 200.018631 -0.699877 -0.455902 0.549841 0.000000 0.000000
-108.582993 -200.887329 199.620941 -0.699877 -0.455902 0.549841 0.000000 0.000000
-90.987343 -182.171555 237.536163 -0.699877 -0.455902 0.549841 0.000000 0.000000
-129.910980 -131.590439 233.497742 -0.744735 -0.225194 0.628218 0.000000 0.000000
-108.380310 -107.796318 267.551147 -0.744735 -0.225194 0.628218 0.000000 0.000000
-144.313507 -47.535542 246.554733 -0.744735 -0.225194 0.628218 0.000000 0.000000
-143.930588 54.773022 232.134705 -0.789120 0.135450 0.599118 0.000000 0.000000
-178.353928 -6.219503 200.583832 -0.789120 0.135450 0.599118 0.000000 0.000000
-126.358246 26.802235 261.603607 -0.789120 0.135450 0.599118 0.000000 0.000000
-112.721359 150.017731 199.519531 -0.645346 0.503638 0.574349 0.000000 0.000000
-129.529739 102.179398 222.582108 -0.645346 0.503638 0.574349 0.000000 0.000000
-81.375114 147.730408 236.746277 -0.645346 0.503638 0.574349 0.000000 0.000000
-126.358246 26.802235 261.603607 -0.775599 0.060131 0.628356 0.000000 0.000000
-178.353928 -6.219503 200.583832 -0.775599 0.060131 0.628356 0.000000 0.000000
-144.313507 -47.535542 246.554733 -0.775599 0.060131 0.628356 0.000000 0.000000
-90.987343 -182.171555 237.536163 -0.712390 -0.509689 0.482408 0.000000 0.000000
-129.910980 -131.590439 233.497742 -0.712390 -0.509689 0.482408 0.000000 0.000000
-161.837158 -118.654541 200.018631 -0.712390 -0.509689 0.482408 0.000000 0.000000
-143.930588 54.773022 232.134705 -0.690096 0.338528 0.639661 0.000000 0.000000
-98.884987 97.180542 258.288605 -0.690096 0.338528 0.639661 0.000000 0.000000
-129.529739 102.179398 222.582108 -0.690096 0.338528 0.639661 0.000000 0.000000
-98.884987 97.180542 258.288605 -0.671737 0.294245 0.679845 0.000000 0.000000
-143.930588 54.773022 232.134705 -0.671737 0.294245 0.679845 0.000000 0.000000
-126.358246 26.802235 261.603607 -0.671737 0.294245 0.679845 0.000000 0.000000
20.330797 -276.263580 199.539398 -0.033904 -0.891823 0.451112 0.000000 0.000000
133.173569 -280.423279 199.796692 -0.033904 -0.891823 0.451112 0.000000 0.000000
63.651905 -260.049561 234.849411 -0.033904 -0.891823 0.451112 0.000000 0.000000
-40.131664 -253.442383 199.989563 -0.288118 -0.774450 0.563219 0.000000 0.000000
20.330797 -276.263580 199.539398 -0.288118 -0.774450 0.563219 0.000000 0.000000
9.010703 -233.654968 252.337128 -0.288118 -0.774450 0.563219 0.000000 0.000000
63.651905 -260.049561 234.849411 -0.189101 -0.783578 0.591816 0.000000 0.000000
9.010703 -233.654968 252.337128 -0.189101 -0.783578 0.591816 0.000000 0.000000
20.330797 -276.263580 199.539398 -0.189101 -0.783578 0.591816 0.000000 0.000000
-108.582993 -200.887329 199.620941 -0.527338 -0.683300 0.504991 0.000000 0.000000
-40.131664 -253.442383 199.989563 -0.527338 -0.683300 0.504991 0.000000 0.000000
-51.883522 -219.131973 234.142807 -0.527338 -0.683300 0.504991 0.000000 0.000000
196.848312 -257.929596 200.356171 0.268847 -0.775263 0.571567 0.000000 0.000000
151.734619 -235.501862 251.996735 0.268847 -0.775263 0.571567 0.000000 0.000000
133.173569 -280.423279 199.796692 0.268847 -0.775263 0.571567 0.000000 0.000000
63.651905 -260.049561 234.849411 0.070768 -0.795016 0.602446 0.000000 0.000000
133.173569 -280.423279 199.796692 0.070768 -0.795016 0.602446 0.000000 0.000000
103.353310 -237.581482 259.835693 0.070768 -0.795016 0.602446 0.000000 0.000000
196.848312 -257.929596 200.356171 0.472717 -0.687944 0.550701 0.000000 0.000000
263.697144 -211.801422 200.597717 0.472717 -0.687944 0.550701 0.000000 0.000000
210.694214 -208.101761 250.716644 0.472717 -0.687944 0.550701 0.000000 0.000000
151.734619 -235.501862 251.996735 0.133528 -0.774166 0.618739 0.000000 0.000000
103.353310 -237.581482 259.835693 0.133528 -0.774166 0.618739 0.000000 0.000000
133.173569 -280.423279 199.796692 0.133528 -0.774166 0.618739 0.000000 0.000000
210.694214 -208.101761 250.716644 0.344593 -0.712966 0.610684 0.000000 0.000000
151.734619 -235.501862 251.996735 0.344593 -0.712966 0.610684 0.000000 0.000000
196.848312 -257.929596 200.356171 0.344593 -0.712966 0.610684 0.000000 0.000000
-40.131664 -253.442383 199.989563 -0.350827 -0.718261 0.600850 0.000000 0.000000
9.010703 -233.654968 252.337128 -0.350827 -0.718261 0.600850 0.000000 0.000000
-51.883522 -219.131973 234.142807 -0.350827 -0.718261 0.600850 0.000000 0.000000
63.651905 -260.049561 234.849411 -0.038341 -0.711984 0.701148 0.000000 0.000000
103.353310 -237.581482 259.835693 -0.038341 -0.711984 0.701148 0.000000 0.000000
75.817978 -211.007553 285.314575 -0.038341 -0.711984 0.701148 0.000000 0.000000
-51.883522 -219.131973 234.142807 -0.542610 -0.625545 0.560596 0.000000 0.000000
-90.987343 -182.171555 237.536163 -0.542610 -0.625545 0.560596 0.000000 0.000000
-108.582993 -200.887329 199.620941 -0.542610 -0.625545 0.560596 0.000000 0.000000
234.656723 -172.078812 263.170990 0.566242 -0.551274 0.612753 0.000000 0.000000
263.697144 -211.801422 200.597717 0.566242 -0.551274 0.612753 0.000000 0.000000
267.777252 -156.111130 246.930069 0.566242 -0.551274 0.612753 0.000000 0.000000
269.474792 -24.037333 286.980652 0.697117 0.038620 0.715917 0.000000 0.000000
317.338898 -5.278178 239.361481 0.697117 0.038620 0.715917 0.000000 0.000000
290.716431 24.952066 263.654083 0.697117 0.038620 0.715917 0.000000 0.000000
246.192535 128.134033 253.797836 0.549882 0.588048 0.593152 0.000000 0.000000
273.296661 156.695770 200.354919 0.549882 0.588048 0.593152 0.000000 0.000000
221.151291 163.849792 241.603897 0.549882 0.588048 0.593152 0.000000 0.000000
234.656723 -172.078812 263.170990 0.541637 -0.572959 0.615099 0.000000 0.000000
210.694214 -208.101761 250.716644 0.541637 -0.572959 0.615099 0.000000 0.000000
263.697144 -211.801422 200.597717 0.541637 -0.572959 0.615099 0.000000 0.000000
263.373871 79.570534 269.401672 0.598703 0.218630 0.770556 0.000000 0.000000
233.569580 40.124310 303.750946 0.598703 0.218630 0.770556 0.000000 0.000000
290.716431 24.952066 263.654083 0.598703 0.218630 0.770556 0.000000 0.000000
233.569580 40.124310 303.750946 0.591665 0.122843 0.796770 0.000000 0.000000
269.474792 -24.037333 286.980652 0.591665 0.122843 0.796770 0.000000 0.000000
290.716431 24.952066 263.654083 0.591665 0.122843 0.796770 0.000000 0.000000
267.927307 -65.280266 284.630890 0.569633 -0.273768 0.774964 0.000000 0.000000
221.892868 -123.321785 297.964172 0.569633 -0.273768 0.774964 0.000000 0.000000
282.087952 -121.068314 254.514145 0.569633 -0.273768 0.774964 0.000000 0.000000
282.087952 -121.068314 254.514145 0.549263 -0.384841 0.741760 0.000000 0.000000
234.656723 -172.078812 263.170990 0.549263 -0.384841 0.741760 0.000000 0.000000
267.777252 -156.111130 246.930069 0.549263 -0.384841 0.741760 0.000000 0.000000
234.656723 -172.078812 263.170990 0.549554 -0.385178 0.741369 0.000000 0.000000
282.087952 -121.068314 254.514145 0.549554 -0.385178 0.741369 0.000000 0.000000
221.892868 -123.321785 297.964172 0.549554 -0.385178 0.741369 0.000000 0.000000
269.474792 -24.037333 286.980652 0.520304 0.068678 0.851215 0.000000 0.000000
233.569580 40.124310 303.750946 0.520304 0.068678 0.851215 0.000000 0.000000
203.379379 5.384869 325.007507 0.520304 0.068678 0.851215 0.000000 0.000000
267.927307 -65.280266 284.630890 0.514868 -0.068006 0.854568 0.000000 0.000000
269.474792 -24.037333 286.980652 0.514868 -0.068006 0.854568 0.000000 0.000000
198.171219 -62.376369 326.889313 0.514868 -0.068006 0.854568 0.000000 0.000000
263.373871 79.570534 269.401672 0.493522 0.419416 0.761923 0.000000 0.000000
246.192535 128.134033 253.797836 0.493522 0.419416 0.761923 0.000000 0.000000
200.578537 101.277092 298.127472 0.493522 0.419416 0.761923 0.000000 0.000000
198.171219 -62.376369 326.889313 0.500996 -0.204155 0.841025 0.000000 0.000000
221.892868 -123.321785 297.964172 0.500996 -0.204155 0.841025 0.000000 0.000000
267.927307 -65.280266 284.630890 0.500996 -0.204155 0.841025 0.000000 0.000000
198.171219 -62.376369 326.889313 0.494009 -0.013827 0.869347 0.000000 0.000000
269.474792 -24.037333 286.980652 0.494009 -0.013827 0.869347 0.000000 0.000000
203.379379 5.384869 325.007507 0.494009 -0.013827 0.869347 0.000000 0.000000
246.192535 128.134033 253.797836 0.431598 0.547398 0.716993 0.000000 0.000000
221.151291 163.849792 241.603897 0.431598 0.547398 0.716993 0.000000 0.000000
180.601852 147.160614 278.754456 0.431598 0.547398 0.716993 0.000000 0.000000
200.578537 101.277092 298.127472 0.430985 0.503743 0.748662 0.000000 0.000000
246.192535 128.134033 253.797836 0.430985 0.503743 0.748662 0.000000 0.000000
180.601852 147.160614 278.754456 0.430985 0.503743 0.748662 0.000000 0.000000
233.569580 40.124310 303.750946 0.485392 0.336083 0.807120 0.000000 0.000000
263.373871 79.570534 269.401672 0.485392 0.336083 0.807120 0.000000 0.000000
200.578537 101.277092 298.127472 0.485392 0.336083 0.807120 0.000000 0.000000
180.601852 147.160614 278.754456 0.358003 0.641159 0.678785 0.000000 0.000000
221.151291 163.849792 241.603897 0.358003 0.641159 0.678785 0.000000 0.000000
163.928925 195.783768 241.620178 0.358003 0.641159 0.678785 0.000000 0.000000
234.656723 -172.078812 263.170990 0.407108 -0.457542 0.790518 0.000000 0.000000
221.892868 -123.321785 297.964172 0.407108 -0.457542 0.790518 0.000000 0.000000
168.974823 -147.815994 311.039429 0.407108 -0.457542 0.790518 0.000000 0.000000
210.694214 -208.101761 250.716644 0.372565 -0.514784 0.772135 0.000000 0.000000
234.656723 -172.078812 263.170990 0.372565 -0.514784 0.772135 0.000000 0.000000
168.974823 -147.815994 311.039429 0.372565 -0.514784 0.772135 0.000000 0.000000
200.578537 101.277092 298.127472 0.384217 0.287944 0.877192 0.000000 0.000000
158.044205 55.331783 331.839722 0.384217 0.287944 0.877192 0.000000 0.000000
233.569580 40.124310 303.750946 0.384217 0.287944 0.877192 0.000000 0.000000
203.379379 5.384869 325.007507 0.378729 0.220817 0.898779 0.000000 0.000000
233.569580 40.124310 303.750946 0.378729 0.220817 0.898779 0.000000 0.000000
158.044205 55.331783 331.839722 0.378729 0.220817 0.898779 0.000000 0.000000
168.974823 -147.815994 311.039429 0.345801 -0.533235 0.772064 0.000000 0.000000
145.431381 -197.683578 287.142731 0.345801 -0.533235 0.772064 0.000000 0.000000
210.694214 -208.101761 250.716644 0.345801 -0.533235 0.772064 0.000000 0.000000
145.431381 -197.683578 287.142731 0.304188 -0.620796 0.722552 0.000000 0.000000
151.734619 -235.501862 251.996735 0.304188 -0.620796 0.722552 0.000000 0.000000
210.694214 -208.101761 250.716644 0.304188 -0.620796 0.722552 0.000000 0.000000
198.171219 -62.376369 326.889313 0.352453 -0.285754 0.891135 0.000000 0.000000
168.974823 -147.815994 311.039429 0.352453 -0.285754 0.891135 0.000000 0.000000
221.892868 -123.321785 297.964172 0.352453 -0.285754 0.891135 0.000000 0.000000
180.601852 147.160614 278.754456 0.300028 0.478950 0.824979 0.000000 0.000000
138.840714 109.838837 315.609650 0.300028 0.478950 0.824979 0.000000 0.000000
200.578537 101.277092 298.127472 0.300028 0.478950 0.824979 0.000000 0.000000
138.840714 109.838837 315.609650 0.300225 0.367831 0.880094 0.000000 0.000000
158.044205 55.331783 331.839722 0.300225 0.367831 0.880094 0.000000 0.000000
200.578537 101.277092 298.127472 0.300225 0.367831 0.880094 0.000000 0.000000
163.928925 195.783768 241.620178 0.238811 0.639788 0.730507 0.000000 0.000000
113.682251 170.224869 280.431274 0.238811 0.639788 0.730507 0.000000 0.000000
180.601852 147.160614 278.754456 0.238811 0.639788 0.730507 0.000000 0.000000
198.171219 -62.376369 326.889313 0.330592 0.000800 0.943774 0.000000 0.000000
203.379379 5.384869 325.007507 0.330592 0.000800 0.943774 0.000000 0.000000
148.193085 -22.543945 344.362244 0.330592 0.000800 0.943774 0.000000 0.000000
158.044205 55.331783 331.839722 0.274583 0.118704 0.954208 0.000000 0.000000
148.193085 -22.543945 344.362244 0.274583 0.118704 0.954208 0.000000 0.000000
203.379379 5.384869 325.007507 0.274583 0.118704 0.954208 0.000000 0.000000
113.682251 170.224869 280.431274 0.211882 0.556350 0.803480 0.000000 0.000000
138.840714 109.838837 315.609650 0.211882 0.556350 0.803480 0.000000 0.000000
180.601852 147.160614 278.754456 0.211882 0.556350 0.803480 0.000000 0.000000
168.974823 -147.815994 311.039429 0.263987 -0.262390 0.928150 0.000000 0.000000
198.171219 -62.376369 326.889313 0.263987 -0.262390 0.928150 0.000000 0.000000
109.569481 -100.621315 341.277740 0.263987 -0.262390 0.928150 0.000000 0.000000
148.193085 -22.543945 344.362244 0.220036 -0.146946 0.964360 0.000000 0.000000
109.569481 -100.621315 341.277740 0.220036 -0.146946 0.964360 0.000000 0.000000
198.171219 -62.376369 326.889313 0.220036 -0.146946 0.964360 0.000000 0.000000
145.431381 -197.683578 287.142731 0.163198 -0.487954 0.857477 0.000000 0.000000
168.974823 -147.815994 311.039429 0.163198 -0.487954 0.857477 0.000000 0.000000
95.554352 -140.281189 329.300781 0.163198 -0.487954 0.857477 0.000000 0.000000
148.193085 -22.543945 344.362244 0.181409 0.133717 0.974274 0.000000 0.000000
158.044205 55.331783 331.839722 0.181409 0.133717 0.974274 0.000000 0.000000
101.403542 39.575214 344.548706 0.181409 0.133717 0.974274 0.000000 0.000000
145.431381 -197.683578 287.142731 0.147721 -0.659962 0.736634 0.000000 0.000000
103.353310 -237.581482 259.835693 0.147721 -0.659962 0.736634 0.000000 0.000000
151.734619 -235.501862 251.996735 0.147721 -0.659962 0.736634 0.000000 0.000000
95.554352 -140.281189 329.300781 0.192957 -0.345524 0.918358 0.000000 0.000000
168.974823 -147.815994 311.039429 0.192957 -0.345524 0.918358 0.000000 0.000000
109.569481 -100.621315 341.277740 0.192957 -0.345524 0.918358 0.000000 0.000000
109.569481 -100.621315 341.277740 0.073777 -0.075781 0.994391 0.000000 0.000000
148.193085 -22.543945 344.362244 0.073777 -0.075781 0.994391 0.000000 0.000000
69.045715 -4.416483 351.615906 0.073777 -0.075781 0.994391 0.000000 0.000000
95.554352 -140.281189 329.300781 0.081926 -0.542728 0.835904 0.000000 0.000000
75.817978 -211.007553 285.314575 0.081926 -0.542728 0.835904 0.000000 0.000000
145.431381 -197.683578 287.142731 0.081926 -0.542728 0.835904 0.000000 0.000000
75.817978 -211.007553 285.314575 0.100816 -0.632143 0.768265 0.000000 0.000000
103.353310 -237.581482 259.835693 0.100816 -0.632143 0.768265 0.000000 0.000000
145.431381 -197.683578 287.142731 0.100816 -0.632143 0.768265 0.000000 0.000000
101.403542 39.575214 344.548706 0.108923 0.079069 0.990901 0.000000 0.000000
69.045715 -4.416483 351.615906 0.108923 0.079069 0.990901 0.000000 0.000000
148.193085 -22.543945 344.362244 0.108923 0.079069 0.990901 0.000000 0.000000
158.044205 55.331783 331.839722 0.121036 0.322210 0.938899 0.000000 0.000000
138.840714 109.838837 315.609650 0.121036 0.322210 0.938899 0.000000 0.000000
101.403542 39.575214 344.548706 0.121036 0.322210 0.938899 0.000000 0.000000
105.995483 215.315918 233.231323 0.070019 0.726972 0.683088 0.000000 0.000000
78.957878 188.889236 264.127228 0.070019 0.726972 0.683088 0.000000 0.000000
113.682251 170.224869 280.431274 0.070019 0.726972 0.683088 0.000000 0.000000
113.682251 170.224869 280.431274 0.073882 0.524799 0.848014 0.000000 0.000000
73.896309 112.796600 319.437378 0.073882 0.524799 0.848014 0.000000 0.000000
138.840714 109.838837 315.609650 0.073882 0.524799 0.848014 0.000000 0.000000
69.045715 -4.416483 351.615906 0.048652 -0.086437 0.995069 0.000000 0.000000
52.207886 -66.420815 347.053162 0.048652 -0.086437 0.995069 0.000000 0.000000
109.569481 -100.621315 341.277740 0.048652 -0.086437 0.995069 0.000000 0.000000
101.403542 39.575214 344.548706 0.070929 0.347325 0.935058 0.000000 0.000000
138.840714 109.838837 315.609650 0.070929 0.347325 0.935058 0.000000 0.000000
73.896309 112.796600 319.437378 0.070929 0.347325 0.935058 0.000000 0.000000
75.817978 -211.007553 285.314575 -0.038408 -0.519977 0.853316 0.000000 0.000000
95.554352 -140.281189 329.300781 -0.038408 -0.519977 0.853316 0.000000 0.000000
31.582521 -180.453415 301.942017 -0.038408 -0.519977 0.853316 0.000000 0.000000
113.682251 170.224869 280.431274 -0.052576 0.599701 0.798495 0.000000 0.000000
78.957878 188.889236 264.127228 -0.052576 0.599701 0.798495 0.000000 0.000000
19.803814 162.808182 279.820221 -0.052576 0.599701 0.798495 0.000000 0.000000
19.803814 162.808182 279.820221 -0.051507 0.585293 0.809184 0.000000 0.000000
73.896309 112.796600 319.437378 -0.051507 0.585293 0.809184 0.000000 0.000000
113.682251 170.224869 280.431274 -0.051507 0.585293 0.809184 0.000000 0.000000
101.403542 39.575214 344.548706 -0.025016 0.315881 0.948469 0.000000 0.000000
73.896309 112.796600 319.437378 -0.025016 0.315881 0.948469 0.000000 0.000000
36.388153 60.915527 335.726715 -0.025016 0.315881 0.948469 0.000000 0.000000
36.388153 60.915527 335.726715 -0.065263 0.204894 0.976606 0.000000 0.000000
69.045715 -4.416483 351.615906 -0.065263 0.204894 0.976606 0.000000 0.000000
101.403542 39.575214 344.548706 -0.065263 0.204894 0.976606 0.000000 0.000000
109.569481 -100.621315 341.277740 -0.063024 -0.268046 0.961342 0.000000 0.000000
52.207886 -66.420815 347.053162 -0.063024 -0.268046 0.961342 0.000000 0.000000
95.554352 -140.281189 329.300781 -0.063024 -0.268046 0.961342 0.000000 0.000000
29.581785 200.378983 245.350571 -0.112814 0.687508 0.717360 0.000000 0.000000
19.803814 162.808182 279.820221 -0.112814 0.687508 0.717360 0.000000 0.000000
78.957878 188.889236 264.127228 -0.112814 0.687508 0.717360 0.000000 0.000000
19.803814 162.808182 279.820221 -0.141842 0.515846 0.844857 0.000000 0.000000
13.699600 104.099602 314.641174 -0.141842 0.515846 0.844857 0.000000 0.000000
73.896309 112.796600 319.437378 -0.141842 0.515846 0.844857 0.000000 0.000000
36.388153 60.915527 335.726715 -0.127902 0.380089 0.916064 0.000000 0.000000
73.896309 112.796600 319.437378 -0.127902 0.380089 0.916064 0.000000 0.000000
13.699600 104.099602 314.641174 -0.127902 0.380089 0.916064 0.000000 0.000000
95.554352 -140.281189 329.300781 -0.119984 -0.298024 0.946988 0.000000 0.000000
52.207886 -66.420815 347.053162 -0.119984 -0.298024 0.946988 0.000000 0.000000
2.745269 -125.944969 322.053558 -0.119984 -0.298024 0.946988 0.000000 0.000000
31.582521 -180.453415 301.942017 -0.133112 -0.404292 0.904892 0.000000 0.000000
95.554352 -140.281189 329.300781 -0.133112 -0.404292 0.904892 0.000000 0.000000
2.745269 -125.944969 322.053558 -0.133112 -0.404292 0.904892 0.000000 0.000000
69.045715 -4.416483 351.615906 -0.161899 -0.028621 0.986392 0.000000 0.000000
6.772815 -1.514711 341.479065 -0.161899 -0.028621 0.986392 0.000000 0.000000
52.207886 -66.420815 347.053162 -0.161899 -0.028621 0.986392 0.000000 0.000000
63.651905 -260.049561 234.849411 -0.111649 -0.699076 0.706277 0.000000 0.000000
75.817978 -211.007553 285.314575 -0.111649 -0.699076 0.706277 0.000000 0.000000
9.010703 -233.654968 252.337128 -0.111649 -0.699076 0.706277 0.000000 0.000000
36.388153 60.915527 335.726715 -0.151215 0.161588 0.975204 0.000000 0.000000
6.772815 -1.514711 341.479065 -0.151215 0.161588 0.975204 0.000000 0.000000
69.045715 -4.416483 351.615906 -0.151215 0.161588 0.975204 0.000000 0.000000
31.582521 -180.453415 301.942017 -0.156485 -0.637220 0.754628 0.000000 0.000000
9.010703 -233.654968 252.337128 -0.156485 -0.637220 0.754628 0.000000 0.000000
75.817978 -211.007553 285.314575 -0.156485 -0.637220 0.754628 0.000000 0.000000
52.207886 -66.420815 347.053162 -0.226668 -0.075276 0.971059 0.000000 0.000000
6.772815 -1.514711 341.479065 -0.226668 -0.075276 0.971059 0.000000 0.000000
-29.290192 -43.604141 329.798340 -0.226668 -0.075276 0.971059 0.000000 0.000000
2.745269 -125.944969 322.053558 -0.253505 -0.187881 0.948913 0.000000 0.000000
52.207886 -66.420815 347.053162 -0.253505 -0.187881 0.948913 0.000000 0.000000
-29.290192 -43.604141 329.798340 -0.253505 -0.187881 0.948913 0.000000 0.000000
13.699600 104.099602 314.641174 -0.276512 0.300437 0.912841 0.000000 0.000000
-33.628262 41.016411 321.067047 -0.276512 0.300437 0.912841 0.000000 0.000000
36.388153 60.915527 335.726715 -0.276512 0.300437 0.912841 0.000000 0.000000
6.772815 -1.514711 341.479065 -0.256914 0.208818 0.943605 0.000000 0.000000
36.388153 60.915527 335.726715 -0.256914 0.208818 0.943605 0.000000 0.000000
-33.628262 41.016411 321.067047 -0.256914 0.208818 0.943605 0.000000 0.000000
13.699600 104.099602 314.641174 -0.278840 0.511184 0.812982 0.000000 0.000000
19.803814 162.808182 279.820221 -0.278840 0.511184 0.812982 0.000000 0.000000
-38.694099 127.135147 282.186737 -0.278840 0.511184 0.812982 0.000000 0.000000
-29.290192 -43.604141 329.798340 -0.350945 -0.222100 0.909675 0.000000 0.000000
-65.718964 -84.240852 305.822845 -0.350945 -0.222100 0.909675 0.000000 0.000000
2.745269 -125.944969 322.053558 -0.350945 -0.222100 0.909675 0.000000 0.000000
31.582521 -180.453415 301.942017 -0.291831 -0.463157 0.836851 0.000000 0.000000
2.745269 -125.944969 322.053558 -0.291831 -0.463157 0.836851 0.000000 0.000000
-40.293819 -172.798431 281.113617 -0.291831 -0.463157 0.836851 0.000000 0.000000
9.010703 -233.654968 252.337128 -0.282344 -0.587390 0.758455 0.000000 0.000000
31.582521 -180.453415 301.942017 -0.282344 -0.587390 0.758455 0.000000 0.000000
-40.293819 -172.798431 281.113617 -0.282344 -0.587390 0.758455 0.000000 0.000000
-33.628262 41.016411 321.067047 -0.369416 0.364236 0.854905 0.000000 0.000000
13.699600 104.099602 314.641174 -0.369416 0.364236 0.854905 0.000000 0.000000
-38.694099 127.135147 282.186737 -0.369416 0.364236 0.854905 0.000000 0.000000
-29.290192 -43.604141 329.798340 -0.385543 0.075124 0.919627 0.000000 0.000000
6.772815 -1.514711 341.479065 -0.385543 0.075124 0.919627 0.000000 0.000000
-33.628262 41.016411 321.067047 -0.385543 0.075124 0.919627 0.000000 0.000000
-38.694099 127.135147 282.186737 -0.420866 0.352583 0.835797 0.000000 0.000000
-79.422981 50.316925 294.083649 -0.420866 0.352583 0.835797 0.000000 0.000000
-33.628262 41.016411 321.067047 -0.420866 0.352583 0.835797 0.000000 0.000000
-65.718964 -84.240852 305.822845 -0.413926 -0.352963 0.839096 0.000000 0.000000
-40.293819 -172.798431 281.113617 -0.413926 -0.352963 0.839096 0.000000 0.000000
2.745269 -125.944969 322.053558 -0.413926 -0.352963 0.839096 0.000000 0.000000
-40.293819 -172.798431 281.113617 -0.356681 -0.619596 0.699199 0.000000 0.000000
-51.883522 -219.131973 234.142807 -0.356681 -0.619596 0.699199 0.000000 0.000000
9.010703 -233.654968 252.337128 -0.356681 -0.619596 0.699199 0.000000 0.000000
-25.000868 190.705154 233.021652 -0.349135 0.619184 0.703360 0.000000 0.000000
-38.694099 127.135147 282.186737 -0.349135 0.619184 0.703360 0.000000 0.000000
19.803814 162.808182 279.820221 -0.349135 0.619184 0.703360 0.000000 0.000000
-29.290192 -43.604141 329.798340 -0.496966 0.063819 0.865420 0.000000 0.000000
-33.628262 41.016411 321.067047 -0.496966 0.063819 0.865420 0.000000 0.000000
-79.422981 50.316925 294.083649 -0.496966 0.063819 0.865420 0.000000 0.000000
-79.422981 50.316925 294.083649 -0.468783 0.084139 0.879297 0.000000 0.000000
-95.694206 -24.784401 292.595245 -0.468783 0.084139 0.879297 0.000000 0.000000
-29.290192 -43.604141 329.798340 -0.468783 0.084139 0.879297 0.000000 0.000000
-65.718964 -84.240852 305.822845 -0.500857 -0.060420 0.863419 0.000000 0.000000
-29.290192 -43.604141 329.798340 -0.500857 -0.060420 0.863419 0.000000 0.000000
-95.694206 -24.784401 292.595245 -0.500857 -0.060420 0.863419 0.000000 0.000000
-38.694099 127.135147 282.186737 -0.420631 0.609987 0.671555 0.000000 0.000000
-25.000868 190.705154 233.021652 -0.420631 0.609987 0.671555 0.000000 0.000000
-81.375114 147.730408 236.746277 -0.420631 0.609987 0.671555 0.000000 0.000000
-40.293819 -172.798431 281.113617 -0.502998 -0.363234 0.784254 0.000000 0.000000
-65.718964 -84.240852 305.822845 -0.502998 -0.363234 0.784254 0.000000 0.000000
-108.380310 -107.796318 267.551147 -0.502998 -0.363234 0.784254 0.000000 0.000000
-51.883522 -219.131973 234.142807 -0.475373 -0.564866 0.674497 0.000000 0.000000
-40.293819 -172.798431 281.113617 -0.475373 -0.564866 0.674497 0.000000 0.000000
-90.987343 -182.171555 237.536163 -0.475373 -0.564866 0.674497 0.000000 0.000000
-79.422981 50.316925 294.083649 -0.499705 0.385104 0.775880 0.000000 0.000000
-38.694099 127.135147 282.186737 -0.499705 0.385104 0.775880 0.000000 0.000000
-98.884987 97.180542 258.288605 -0.499705 0.385104 0.775880 0.000000 0.000000
-81.375114 147.730408 236.746277 -0.519702 0.480939 0.706121 0.000000 0.000000
-98.884987 97.180542 258.288605 -0.519702 0.480939 0.706121 0.000000 0.000000
-38.694099 127.135147 282.186737 -0.519702 0.480939 0.706121 0.000000 0.000000
-108.380310 -107.796318 267.551147 -0.545603 -0.420207 0.725082 0.000000 0.000000
-90.987343 -182.171555 237.536163 -0.545603 -0.420207 0.725082 0.000000 0.000000
-40.293819 -172.798431 281.113617 -0.545603 -0.420207 0.725082 0.000000 0.000000
-79.422981 50.316925 294.083649 -0.603627 0.115145 0.788908 0.000000 0.000000
-126.358246 26.802235 261.603607 -0.603627 0.115145 0.788908 0.000000 0.000000
-95.694206 -24.784401 292.595245 -0.603627 0.115145 0.788908 0.000000 0.000000
-95.694206 -24.784401 292.595245 -0.617601 -0.139152 0.774083 0.000000 0.000000
-108.380310 -107.796318 267.551147 -0.617601 -0.139152 0.774083 0.000000 0.000000
-65.718964 -84.240852 305.822845 -0.617601 -0.139152 0.774083 0.000000 0.000000
-98.884987 97.180542 258.288605 -0.637560 0.282639 0.716682 0.000000 0.000000
-126.358246 26.802235 261.603607 -0.637560 0.282639 0.716682 0.000000 0.000000
-79.422981 50.316925 294.083649 -0.637560 0.282639 0.716682 0.000000 0.000000
-95.694206 -24.784401 292.595245 -0.650160 -0.126659 0.749166 0.000000 0.000000
-144.313507 -47.535542 246.554733 -0.650160 -0.126659 0.749166 0.000000 0.000000
-108.380310 -107.796318 267.551147 -0.650160 -0.126659 0.749166 0.000000 0.000000
-90.987343 -182.171555 237.536163 -0.609507 -0.415108 0.675416 0.000000 0.000000
-108.380310 -107.796318 267.551147 -0.609507 -0.415108 0.675416 0.000000 0.000000
-129.910980 -131.590439 233.497742 -0.609507 -0.415108 0.675416 0.000000 0.000000
-126.358246 26.802235 261.603607 -0.692684 0.021365 0.720925 0.000000 0.000000
-144.313507 -47.535542 246.554733 -0.692684 0.021365 0.720925 0.000000 0.000000
-95.694206 -24.784401 292.595245 -0.692684 0.021365 0.720925 0.000000 0.000000
-81.375114 147.730408 236.746277 -0.632034 0.478651 0.609447 0.000000 0.000000
-129.529739 102.179398 222.582108 -0.632034 0.478651 0.609447 0.000000 0.000000
-98.884987 97.180542 258.288605 -0.632034 0.478651 0.609447 0.000000 0.000000
295.015137 -175.638397 199.541153 -0.000021 0.000076 -1.000000 0.740784 0.630395
20.330797 -276.263580 199.539398 -0.000021 0.000076 -1.000000 0.749691 0.633484
-162.175003 72.233093 199.569717 -0.000021 0.000076 -1.000000 0.754948 0.622892
-108.582993 -200.887329 199.620941 0.000381 0.005083 -0.999987 0.753192 0.631376
-161.837158 -118.654541 200.018631 0.000381 0.005083 -0.999987 0.754965 0.628561
-178.353928 -6.219503 200.583832 0.000381 0.005083 -0.999987 0.755510 0.625751
-108.582993 -200.887329 199.620941 -0.031637 -0.006395 -0.999479 0.753192 0.631376
-178.353928 -6.219503 200.583832 -0.031637 -0.006395 -0.999479 0.755510 0.625751
-162.175003 72.233093 199.569717 -0.031637 -0.006395 -0.999479 0.754948 0.622892
273.296661 156.695770 200.354919 0.108784 0.064781 -0.991952 0.741538 0.620102
316.052887 96.262505 201.097183 0.108784 0.064781 -0.991952 0.740501 0.621426
338.613342 35.426426 199.598343 0.108784 0.064781 -0.991952 0.739575 0.623725
-17.564323 219.095352 199.539551 -0.008099 0.102601 -0.994690 0.750451 0.618213
52.249313 237.205338 200.839127 -0.008099 0.102601 -0.994690 0.747763 0.617604
143.409775 231.596863 199.518356 -0.008099 0.102601 -0.994690 0.745381 0.617862
-112.721359 150.017731 199.519531 -0.081234 0.112189 -0.990361 0.753475 0.620322
-75.083038 185.296982 200.428757 -0.081234 0.112189 -0.990361 0.752243 0.619179
-17.564323 219.095352 199.539551 -0.081234 0.112189 -0.990361 0.750451 0.618213
219.285141 200.789017 200.216904 0.013648 0.013589 -0.999814 0.743233 0.618756
273.296661 156.695770 200.354919 0.013648 0.013589 -0.999814 0.741538 0.620102
338.613342 35.426426 199.598343 0.013648 0.013589 -0.999814 0.739575 0.623725
338.613342 35.426426 199.598343 0.001066 0.000051 -0.999999 0.739575 0.623725
339.408539 -85.802849 199.593048 0.001066 0.000051 -0.999999 0.739647 0.627834
295.015137 -175.638397 199.541153 0.001066 0.000051 -0.999999 0.740784 0.630395
295.015137 -175.638397 199.541153 0.058787 -0.079983 -0.995061 0.740784 0.630395
263.697144 -211.801422 200.597717 0.058787 -0.079983 -0.995061 0.742477 0.632166
196.848312 -257.929596 200.356171 0.058787 -0.079983 -0.995061 0.743566 0.632873
196.848312 -257.929596 200.356171 0.021215 -0.035204 -0.999155 0.743566 0.632873
133.173569 -280.423279 199.796692 0.021215 -0.035204 -0.999155 0.746284 0.633682
295.015137 -175.638397 199.541153 0.021215 -0.035204 -0.999155 0.740784 0.630395
133.173569 -280.423279 199.796692 0.002072 -0.005639 -0.999982 0.746284 0.633682
20.330797 -276.263580 199.539398 0.002072 -0.005639 -0.999982 0.749691 0.633484
295.015137 -175.638397 199.541153 0.002072 -0.005639 -0.999982 0.740784 0.630395
-40.131664 -253.442383 199.989563 -0.019838 -0.032847 -0.999264 0.751351 0.632803
-108.582993 -200.887329 199.620941 -0.019838 -0.032847 -0.999264 0.753192 0.631376
20.330797 -276.263580 199.539398 -0.019838 -0.032847 -0.999264 0.749691 0.633484
-108.582993 -200.887329 199.620941 -0.000838 -0.000352 -1.000000 0.753192 0.631376
-162.175003 72.233093 199.569717 -0.000838 -0.000352 -1.000000 0.754948 0.622892
20.330797 -276.263580 199.539398 -0.000838 -0.000352 -1.000000 0.749691 0.633484
-162.175003 72.233093 199.569717 0.001261 -0.001447 -0.999998 0.754948 0.622892
-112.721359 150.017731 199.519531 0.001261 -0.001447 -0.999998 0.753475 0.620322
-17.564323 219.095352 199.539551 0.001261 -0.001447 -0.999998 0.750451 0.618213
-17.564323 219.095352 199.539551 -0.000125 -0.000082 -1.000000 0.750451 0.618213
143.409775 231.596863 199.518356 -0.000125 -0.000082 -1.000000 0.745381 0.617862
-162.175003 72.233093 199.569717 -0.000125 -0.000082 -1.000000 0.754948 0.622892
143.409775 231.596863 199.518356 0.005102 -0.010106 -0.999936 0.745381 0.617862
219.285141 200.789017 200.216904 0.005102 -0.010106 -0.999936 0.743233 0.618756
-162.175003 72.233093 199.569717 0.005102 -0.010106 -0.999936 0.754948 0.622892
219.285141 200.789017 200.216904 0.000351 0.003994 -0.999992 0.743233 0.618756
338.613342 35.426426 199.598343 0.000351 0.003994 -0.999992 0.739575 0.623725
-162.175003 72.233093 199.569717 0.000351 0.003994 -0.999992 0.754948 0.622892
338.613342 35.426426 199.598343 0.000076 0.000255 -1.000000 0.739575 0.623725
295.015137 -175.638397 199.541153 0.000076 0.000255 -1.000000 0.740784 0.630395
-162.175003 72.233093 199.569717 0.000076 0.000255 -1.000000 0.754948 0.622892
3 0 1 2
3 3 4 5
3 6 7 8
3 9 10 11
3 12 13 14
3 15 16 17
3 18 19 20
3 21 22 23
3 24 25 26
3 27 28 29
3 30 31 32
3 33 34 35
3 36 37 38
3 39 40 41
3 42 43 44
3 45 46 47
3 48 49 50
3 51 52 53
3 54 55 56
3 57 58 59
3 60 61 62
3 63 64 65
3 66 67 68
3 69 70 71
3 72 73 74
3 75 76 77
3 78 79 80
3 81 82 83
3 84 85 86
3 87 88 89
3 90 91 92
3 93 94 95
3 96 97 98
3 99 100 101
3 102 103 104
3 105 106 107
3 108 109 110
3 111 112 113
3 114 115 116
3 117 118 119
3 120 121 122
3 123 124 125
3 126 127 128
3 129 130 131
3 132 133 134
3 135 136 137
3 138 139 140
3 141 142 143
3 144 145 146
3 147 148 149
3 150 151 152
3 153 154 155
3 156 157 158
3 159 160 161
3 162 163 164
3 165 166 167
3 168 169 170
3 171 172 173
3 174 175 176
3 177 178 179
3 180 181 182
3 183 184 185
3 186 187 188
3 189 190 191
3 192 193 194
3 195 196 197
3 198 199 200
3 201 202 203
3 204 205 206
3 207 208 209
3 210 211 212
3 213 214 215
3 216 217 218
3 219 220 221
3 222 223 224
3 225 226 227
3 228 229 230
3 231 232 233
3 234 235 236
3 237 238 239
3 240 241 242
3 243 244 245
3 246 247 248
3 249 250 251
3 252 253 254
3 255 256 257
3 258 259 260
3 261 262 263
3 264 265 266
3 267 268 269
3 270 271 272
3 273 274 275
3 276 277 278
3 279 280 281
3 282 283 284
3 285 286 287
3 288 289 290
3 291 292 293
3 294 295 296
3 297 298 299
3 300 301 302
3 303 304 305
3 306 307 308
3 309 310 311
3 312 313 314
3 315 316 317
3 318 319 320
3 321 322 323
3 324 325 326
3 327 328 329
3 330 331 332
3 333 334 335
3 336 337 338
3 339 340 341
3 342 343 344
3 345 346 347
3 348 349 350
3 351 352 353
3 354 355 356
3 357 358 359
3 360 361 362
3 363 364 365
3 366 367 368
3 369 370 371
3 372 373 374
3 375 376 377
3 378 379 380
3 381 382 383
3 384 385 386
3 387 388 389
3 390 391 392
3 393 394 395
3 396 397 398
3 399 400 401
3 402 403 404
3 405 406 407
3 408 409 410
3 411 412 413
3 414 415 416
3 417 418 419
3 420 421 422
3 423 424 425
3 426 427 428
3 429 430 431
3 432 433 434
3 435 436 437
3 438 439 440
3 441 442 443
3 444 445 446
3 447 448 449
3 450 451 452
3 453 454 455
3 456 457 458
3 459 460 461
3 462 463 464
3 465 466 467
3 468 469 470
3 471 472 473
3 474 475 476
3 477 478 479
3 480 481 482
3 483 484 485
