ply
format ascii 1.0
comment Created by Blender 2.82 (sub 7) - www.blender.org, source file: ''
element vertex 486
property float x
property float y
property float z
property float nx
property float ny
property float nz
property float s
property float t
element face 162
property list uchar uint vertex_indices
end_header
56.838463 -193.855270 286.173737 0.811275 0.054296 0.582138 0.000000 0.000000
56.584190 -245.624710 291.356598 0.811275 0.054296 0.582138 0.000000 0.000000
84.458672 -213.224655 249.488464 0.811275 0.054296 0.582138 0.000000 0.000000
74.007729 -315.964264 249.624008 0.858908 -0.086704 0.504737 0.000000 0.000000
84.458672 -213.224655 249.488464 0.858908 -0.086704 0.504737 0.000000 0.000000
56.584190 -245.624710 291.356598 0.858908 -0.086704 0.504737 0.000000 0.000000
84.458672 -213.224655 249.488464 0.831554 0.218967 0.510462 0.000000 0.000000
62.150978 -128.595612 249.525894 0.831554 0.218967 0.510462 0.000000 0.000000
56.838463 -193.855270 286.173737 0.831554 0.218967 0.510462 0.000000 0.000000
56.584190 -245.624710 291.356598 0.873154 -0.069925 0.482404 0.000000 0.000000
58.505630 -286.140137 282.005981 0.873154 -0.069925 0.482404 0.000000 0.000000
74.007729 -315.964264 249.624008 0.873154 -0.069925 0.482404 0.000000 0.000000
56.838463 -193.855270 286.173737 0.768108 0.264854 0.582978 0.000000 0.000000
62.150978 -128.595612 249.525894 0.768108 0.264854 0.582978 0.000000 0.000000
29.716507 -140.717285 297.767273 0.768108 0.264854 0.582978 0.000000 0.000000
74.007729 -315.964264 249.624008 0.732738 -0.389930 0.557719 0.000000 0.000000
12.276806 -368.310028 294.129211 0.732738 -0.389930 0.557719 0.000000 0.000000
34.396751 -390.612946 249.474625 0.732738 -0.389930 0.557719 0.000000 0.000000
37.245083 -313.809753 297.766418 0.729466 -0.372479 0.573706 0.000000 0.000000
12.276806 -368.310028 294.129211 0.729466 -0.372479 0.573706 0.000000 0.000000
74.007729 -315.964264 249.624008 0.729466 -0.372479 0.573706 0.000000 0.000000
62.150978 -128.595612 249.525894 0.714118 0.470597 0.518240 0.000000 0.000000
15.828414 -58.288174 249.513000 0.714118 0.470597 0.518240 0.000000 0.000000
8.900384 -82.472839 281.020905 0.714118 0.470597 0.518240 0.000000 0.000000
8.900384 -82.472839 281.020905 0.702349 0.416904 0.576972 0.000000 0.000000
29.716507 -140.717285 297.767273 0.702349 0.416904 0.576972 0.000000 0.000000
62.150978 -128.595612 249.525894 0.702349 0.416904 0.576972 0.000000 0.000000
74.007729 -315.964264 249.624008 0.764437 -0.248541 0.594864 0.000000 0.000000
58.505630 -286.140137 282.005981 0.764437 -0.248541 0.594864 0.000000 0.000000
37.245083 -313.809753 297.766418 0.764437 -0.248541 0.594864 0.000000 0.000000
-5.728565 -433.590424 249.570236 0.625214 -0.582567 0.519348 0.000000 0.000000
34.396751 -390.612946 249.474625 0.625214 -0.582567 0.519348 0.000000 0.000000
-15.958164 -424.107727 272.522064 0.625214 -0.582567 0.519348 0.000000 0.000000
12.276806 -368.310028 294.129211 0.619133 -0.535662 0.574230 0.000000 0.000000
-15.958164 -424.107727 272.522064 0.619133 -0.535662 0.574230 0.000000 0.000000
34.396751 -390.612946 249.474625 0.619133 -0.535662 0.574230 0.000000 0.000000
56.584190 -245.624710 291.356598 0.694352 -0.130407 0.707721 0.000000 0.000000
37.245083 -313.809753 297.766418 0.694352 -0.130407 0.707721 0.000000 0.000000
58.505630 -286.140137 282.005981 0.694352 -0.130407 0.707721 0.000000 0.000000
-160.382858 -0.522590 286.306030 -0.061862 0.812423 0.579778 0.000000 0.000000
-221.333481 21.120134 249.475464 -0.061862 0.812423 0.579778 0.000000 0.000000
-233.509186 -2.263732 280.943329 -0.061862 0.812423 0.579778 0.000000 0.000000
-221.333481 21.120134 249.475464 -0.314684 0.816114 0.484698 0.000000 0.000000
-313.774658 -14.591855 249.589569 -0.314684 0.816114 0.484698 0.000000 0.000000
-233.509186 -2.263732 280.943329 -0.314684 0.816114 0.484698 0.000000 0.000000
-160.382858 -0.522590 286.306030 0.168250 0.794037 0.584120 0.000000 0.000000
-90.457687 -15.951297 287.138153 0.168250 0.794037 0.584120 0.000000 0.000000
-130.734222 20.297766 249.463409 0.168250 0.794037 0.584120 0.000000 0.000000
15.828414 -58.288174 249.513000 0.512311 0.681321 0.522818 0.000000 0.000000
-57.059086 -3.684813 249.778152 0.512311 0.681321 0.522818 0.000000 0.000000
-40.224812 -51.626221 295.758087 0.512311 0.681321 0.522818 0.000000 0.000000
-233.509186 -2.263732 280.943329 -0.341447 0.735831 0.584779 0.000000 0.000000
-313.774658 -14.591855 249.589569 -0.341447 0.735831 0.584779 0.000000 0.000000
-303.908020 -46.607990 295.636719 -0.341447 0.735831 0.584779 0.000000 0.000000
-40.224812 -51.626221 295.758087 0.550628 0.599297 0.581078 0.000000 0.000000
8.900384 -82.472839 281.020905 0.550628 0.599297 0.581078 0.000000 0.000000
15.828414 -58.288174 249.513000 0.550628 0.599297 0.581078 0.000000 0.000000
-40.224812 -51.626221 295.758087 0.398982 0.703812 0.587760 0.000000 0.000000
-57.059086 -3.684813 249.778152 0.398982 0.703812 0.587760 0.000000 0.000000
-90.457687 -15.951297 287.138153 0.398982 0.703812 0.587760 0.000000 0.000000
-313.774658 -14.591855 249.589569 -0.517239 0.646754 0.560512 0.000000 0.000000
-363.309753 -54.824409 250.301590 -0.517239 0.646754 0.560512 0.000000 0.000000
-303.908020 -46.607990 295.636719 -0.517239 0.646754 0.560512 0.000000 0.000000
-160.382858 -0.522590 286.306030 -0.065442 0.761169 0.645243 0.000000 0.000000
-233.509186 -2.263732 280.943329 -0.065442 0.761169 0.645243 0.000000 0.000000
-197.225220 -30.284052 317.677887 -0.065442 0.761169 0.645243 0.000000 0.000000
-90.457687 -15.951297 287.138153 0.150722 0.719649 0.677781 0.000000 0.000000
-160.382858 -0.522590 286.306030 0.150722 0.719649 0.677781 0.000000 0.000000
-137.493393 -47.148376 330.721924 0.150722 0.719649 0.677781 0.000000 0.000000
-233.509186 -2.263732 280.943329 -0.296557 0.689687 0.660595 0.000000 0.000000
-303.908020 -46.607990 295.636719 -0.296557 0.689687 0.660595 0.000000 0.000000
-265.585876 -58.538586 325.296478 -0.296557 0.689687 0.660595 0.000000 0.000000
-430.119324 -176.845474 249.584991 -0.845256 0.058619 0.531137 0.000000 0.000000
-435.561005 -256.924683 249.762955 -0.845256 0.058619 0.531137 0.000000 0.000000
-407.940765 -237.604446 291.585815 -0.845256 0.058619 0.531137 0.000000 0.000000
-400.557434 -317.843567 282.721283 -0.824266 -0.183898 0.535507 0.000000 0.000000
-435.561005 -256.924683 249.762955 -0.824266 -0.183898 0.535507 0.000000 0.000000
-417.777924 -337.379547 249.506241 -0.824266 -0.183898 0.535507 0.000000 0.000000
-407.940765 -237.604446 291.585815 -0.807452 0.106378 0.580264 0.000000 0.000000
-392.672150 -196.654984 305.325317 -0.807452 0.106378 0.580264 0.000000 0.000000
-430.119324 -176.845474 249.584991 -0.807452 0.106378 0.580264 0.000000 0.000000
-400.557434 -317.843567 282.721283 -0.708553 -0.383044 0.592646 0.000000 0.000000
-417.777924 -337.379547 249.506241 -0.708553 -0.383044 0.592646 0.000000 0.000000
-366.333588 -377.209991 285.268250 -0.708553 -0.383044 0.592646 0.000000 0.000000
-404.834167 -112.366676 249.474594 -0.774856 0.304805 0.553798 0.000000 0.000000
-430.119324 -176.845474 249.584991 -0.774856 0.304805 0.553798 0.000000 0.000000
-382.032471 -141.875504 297.619385 -0.774856 0.304805 0.553798 0.000000 0.000000
-404.834167 -112.366676 249.474594 -0.712571 0.395202 0.579705 0.000000 0.000000
-382.032471 -141.875504 297.619385 -0.712571 0.395202 0.579705 0.000000 0.000000
-366.227051 -98.524544 287.493744 -0.712571 0.395202 0.579705 0.000000 0.000000
-417.777924 -337.379547 249.506241 -0.720541 -0.539333 0.435822 0.000000 0.000000
-342.765381 -437.633209 249.459152 -0.720541 -0.539333 0.435822 0.000000 0.000000
-366.333588 -377.209991 285.268250 -0.720541 -0.539333 0.435822 0.000000 0.000000
-400.557434 -317.843567 282.721283 -0.795837 -0.138355 0.589492 0.000000 0.000000
-407.940765 -237.604446 291.585815 -0.795837 -0.138355 0.589492 0.000000 0.000000
-435.561005 -256.924683 249.762955 -0.795837 -0.138355 0.589492 0.000000 0.000000
-392.672150 -196.654984 305.325317 -0.766852 0.233067 0.598012 0.000000 0.000000
-382.032471 -141.875504 297.619385 -0.766852 0.233067 0.598012 0.000000 0.000000
-430.119324 -176.845474 249.584991 -0.766852 0.233067 0.598012 0.000000 0.000000
-363.309753 -54.824409 250.301590 -0.693749 0.493088 0.524953 0.000000 0.000000
-404.834167 -112.366676 249.474594 -0.693749 0.493088 0.524953 0.000000 0.000000
-366.227051 -98.524544 287.493744 -0.693749 0.493088 0.524953 0.000000 0.000000
-407.940765 -237.604446 291.585815 -0.742868 -0.140662 0.654494 0.000000 0.000000
-400.557434 -317.843567 282.721283 -0.742868 -0.140662 0.654494 0.000000 0.000000
-369.611084 -279.424988 326.103058 -0.742868 -0.140662 0.654494 0.000000 0.000000
-342.765381 -437.633209 249.459152 -0.588934 -0.569534 0.573400 0.000000 0.000000
-326.079651 -419.275848 284.830505 -0.588934 -0.569534 0.573400 0.000000 0.000000
-366.333588 -377.209991 285.268250 -0.588934 -0.569534 0.573400 0.000000 0.000000
-252.799026 -485.565430 249.561478 -0.116964 -0.861040 0.494903 0.000000 0.000000
-164.406693 -497.623108 249.473785 -0.116964 -0.861040 0.494903 0.000000 0.000000
-207.252502 -470.768494 286.069794 -0.116964 -0.861040 0.494903 0.000000 0.000000
-283.332031 -437.901550 295.841064 -0.403993 -0.757179 0.513293 0.000000 0.000000
-342.765381 -437.633209 249.459152 -0.403993 -0.757179 0.513293 0.000000 0.000000
-252.799026 -485.565430 249.561478 -0.403993 -0.757179 0.513293 0.000000 0.000000
-164.406693 -497.623108 249.473785 0.190355 -0.815718 0.546232 0.000000 0.000000
-71.227333 -475.644989 249.822998 0.190355 -0.815718 0.546232 0.000000 0.000000
-136.356232 -455.578552 302.485901 0.190355 -0.815718 0.546232 0.000000 0.000000
-136.356232 -455.578552 302.485901 0.027567 -0.790247 0.612168 0.000000 0.000000
-207.252502 -470.768494 286.069794 0.027567 -0.790247 0.612168 0.000000 0.000000
-164.406693 -497.623108 249.473785 0.027567 -0.790247 0.612168 0.000000 0.000000
-207.252502 -470.768494 286.069794 -0.246177 -0.751730 0.611800 0.000000 0.000000
-283.332031 -437.901550 295.841064 -0.246177 -0.751730 0.611800 0.000000 0.000000
-252.799026 -485.565430 249.561478 -0.246177 -0.751730 0.611800 0.000000 0.000000
-283.332031 -437.901550 295.841064 -0.447231 -0.690020 0.569085 0.000000 0.000000
-326.079651 -419.275848 284.830505 -0.447231 -0.690020 0.569085 0.000000 0.000000
-342.765381 -437.633209 249.459152 -0.447231 -0.690020 0.569085 0.000000 0.000000
-136.356232 -455.578552 302.485901 0.241909 -0.768714 0.592080 0.000000 0.000000
-71.227333 -475.644989 249.822998 0.241909 -0.768714 0.592080 0.000000 0.000000
-79.197601 -442.374146 296.275970 0.241909 -0.768714 0.592080 0.000000 0.000000
-15.958164 -424.107727 272.522064 0.418979 -0.702627 0.575127 0.000000 0.000000
-79.197601 -442.374146 296.275970 0.418979 -0.702627 0.575127 0.000000 0.000000
-71.227333 -475.644989 249.822998 0.418979 -0.702627 0.575127 0.000000 0.000000
-283.332031 -437.901550 295.841064 -0.220173 -0.708868 0.670097 0.000000 0.000000
-207.252502 -470.768494 286.069794 -0.220173 -0.708868 0.670097 0.000000 0.000000
-258.960449 -415.126587 327.941498 -0.220173 -0.708868 0.670097 0.000000 0.000000
29.716507 -140.717285 297.767273 0.689020 0.199677 0.696693 0.000000 0.000000
15.224339 -200.569519 329.253876 0.689020 0.199677 0.696693 0.000000 0.000000
56.838463 -193.855270 286.173737 0.689020 0.199677 0.696693 0.000000 0.000000
56.584190 -245.624710 291.356598 0.712456 0.066437 0.698565 0.000000 0.000000
56.838463 -193.855270 286.173737 0.712456 0.066437 0.698565 0.000000 0.000000
15.224339 -200.569519 329.253876 0.712456 0.066437 0.698565 0.000000 0.000000
37.245083 -313.809753 297.766418 0.691709 -0.129397 0.710490 0.000000 0.000000
56.584190 -245.624710 291.356598 0.691709 -0.129397 0.710490 0.000000 0.000000
7.911575 -254.485992 337.128754 0.691709 -0.129397 0.710490 0.000000 0.000000
7.911575 -254.485992 337.128754 0.658050 -0.162462 0.735239 0.000000 0.000000
-5.716496 -311.501923 336.727600 0.658050 -0.162462 0.735239 0.000000 0.000000
37.245083 -313.809753 297.766418 0.658050 -0.162462 0.735239 0.000000 0.000000
7.911575 -254.485992 337.128754 0.683663 0.013847 0.729666 0.000000 0.000000
56.584190 -245.624710 291.356598 0.683663 0.013847 0.729666 0.000000 0.000000
15.224339 -200.569519 329.253876 0.683663 0.013847 0.729666 0.000000 0.000000
-5.716496 -311.501923 336.727600 0.623588 -0.332891 0.707334 0.000000 0.000000
12.276806 -368.310028 294.129211 0.623588 -0.332891 0.707334 0.000000 0.000000
37.245083 -313.809753 297.766418 0.623588 -0.332891 0.707334 0.000000 0.000000
29.716507 -140.717285 297.767273 0.594611 0.411164 0.690928 0.000000 0.000000
8.900384 -82.472839 281.020905 0.594611 0.411164 0.690928 0.000000 0.000000
-30.458694 -104.988342 328.291962 0.594611 0.411164 0.690928 0.000000 0.000000
29.716507 -140.717285 297.767273 0.606414 0.250222 0.754753 0.000000 0.000000
-32.322670 -146.046982 349.380219 0.606414 0.250222 0.754753 0.000000 0.000000
15.224339 -200.569519 329.253876 0.606414 0.250222 0.754753 0.000000 0.000000
-15.958164 -424.107727 272.522064 0.554410 -0.529259 0.642273 0.000000 0.000000
12.276806 -368.310028 294.129211 0.554410 -0.529259 0.642273 0.000000 0.000000
-30.399593 -387.339966 315.286041 0.554410 -0.529259 0.642273 0.000000 0.000000
-30.458694 -104.988342 328.291962 0.580897 0.350864 0.734474 0.000000 0.000000
-32.322670 -146.046982 349.380219 0.580897 0.350864 0.734474 0.000000 0.000000
29.716507 -140.717285 297.767273 0.580897 0.350864 0.734474 0.000000 0.000000
-36.053894 -205.435135 365.033295 0.568967 0.042779 0.821247 0.000000 0.000000
7.911575 -254.485992 337.128754 0.568967 0.042779 0.821247 0.000000 0.000000
15.224339 -200.569519 329.253876 0.568967 0.042779 0.821247 0.000000 0.000000
-40.224812 -51.626221 295.758087 0.525048 0.511024 0.680572 0.000000 0.000000
-30.458694 -104.988342 328.291962 0.525048 0.511024 0.680572 0.000000 0.000000
8.900384 -82.472839 281.020905 0.525048 0.511024 0.680572 0.000000 0.000000
-5.716496 -311.501923 336.727600 0.542323 -0.387305 0.745574 0.000000 0.000000
-30.399593 -387.339966 315.286041 0.542323 -0.387305 0.745574 0.000000 0.000000
12.276806 -368.310028 294.129211 0.542323 -0.387305 0.745574 0.000000 0.000000
-32.322670 -146.046982 349.380219 0.551320 0.180075 0.814628 0.000000 0.000000
-36.053894 -205.435135 365.033295 0.551320 0.180075 0.814628 0.000000 0.000000
15.224339 -200.569519 329.253876 0.551320 0.180075 0.814628 0.000000 0.000000
-30.399593 -387.339966 315.286041 0.426967 -0.609366 0.668110 0.000000 0.000000
-79.197601 -442.374146 296.275970 0.426967 -0.609366 0.668110 0.000000 0.000000
-15.958164 -424.107727 272.522064 0.426967 -0.609366 0.668110 0.000000 0.000000
7.911575 -254.485992 337.128754 0.533160 -0.133315 0.835444 0.000000 0.000000
-48.701256 -285.067871 368.377625 0.533160 -0.133315 0.835444 0.000000 0.000000
-5.716496 -311.501923 336.727600 0.533160 -0.133315 0.835444 0.000000 0.000000
-77.289833 -408.642151 325.960602 0.428888 -0.610337 0.665990 0.000000 0.000000
-79.197601 -442.374146 296.275970 0.428888 -0.610337 0.665990 0.000000 0.000000
-30.399593 -387.339966 315.286041 0.428888 -0.610337 0.665990 0.000000 0.000000
-36.053894 -205.435135 365.033295 0.500577 -0.043191 0.864614 0.000000 0.000000
-48.701256 -285.067871 368.377625 0.500577 -0.043191 0.864614 0.000000 0.000000
7.911575 -254.485992 337.128754 0.500577 -0.043191 0.864614 0.000000 0.000000
-5.716496 -311.501923 336.727600 0.483589 -0.380288 0.788367 0.000000 0.000000
-69.592422 -353.035614 355.874695 0.483589 -0.380288 0.788367 0.000000 0.000000
-30.399593 -387.339966 315.286041 0.483589 -0.380288 0.788367 0.000000 0.000000
-48.701256 -285.067871 368.377625 0.443949 -0.292273 0.847045 0.000000 0.000000
-69.592422 -353.035614 355.874695 0.443949 -0.292273 0.847045 0.000000 0.000000
-5.716496 -311.501923 336.727600 0.443949 -0.292273 0.847045 0.000000 0.000000
-69.592422 -353.035614 355.874695 0.395393 -0.477001 0.784943 0.000000 0.000000
-77.289833 -408.642151 325.960602 0.395393 -0.477001 0.784943 0.000000 0.000000
-30.399593 -387.339966 315.286041 0.395393 -0.477001 0.784943 0.000000 0.000000
-30.458694 -104.988342 328.291962 0.384048 0.530865 0.755440 0.000000 0.000000
-40.224812 -51.626221 295.758087 0.384048 0.530865 0.755440 0.000000 0.000000
-98.434311 -80.953491 345.959351 0.384048 0.530865 0.755440 0.000000 0.000000
-69.592422 -353.035614 355.874695 0.348648 -0.272147 0.896873 0.000000 0.000000
-48.701256 -285.067871 368.377625 0.348648 -0.272147 0.896873 0.000000 0.000000
-110.865509 -331.168945 378.554291 0.348648 -0.272147 0.896873 0.000000 0.000000
-32.322670 -146.046982 349.380219 0.363029 0.412612 0.835441 0.000000 0.000000
-30.458694 -104.988342 328.291962 0.363029 0.412612 0.835441 0.000000 0.000000
-98.434311 -80.953491 345.959351 0.363029 0.412612 0.835441 0.000000 0.000000
-85.043587 -189.639023 382.517548 0.388403 0.211964 0.896780 0.000000 0.000000
-36.053894 -205.435135 365.033295 0.388403 0.211964 0.896780 0.000000 0.000000
-32.322670 -146.046982 349.380219 0.388403 0.211964 0.896780 0.000000 0.000000
-90.457687 -15.951297 287.138153 0.313261 0.615780 0.722968 0.000000 0.000000
-98.434311 -80.953491 345.959351 0.313261 0.615780 0.722968 0.000000 0.000000
-40.224812 -51.626221 295.758087 0.313261 0.615780 0.722968 0.000000 0.000000
-36.053894 -205.435135 365.033295 0.365287 -0.018929 0.930703 0.000000 0.000000
-112.768646 -248.647888 394.263824 0.365287 -0.018929 0.930703 0.000000 0.000000
-48.701256 -285.067871 368.377625 0.365287 -0.018929 0.930703 0.000000 0.000000
-112.768646 -248.647888 394.263824 0.343327 0.025580 0.938868 0.000000 0.000000
-36.053894 -205.435135 365.033295 0.343327 0.025580 0.938868 0.000000 0.000000
-85.043587 -189.639023 382.517548 0.343327 0.025580 0.938868 0.000000 0.000000
-137.493393 -47.148376 330.721924 0.259979 0.630168 0.731642 0.000000 0.000000
-98.434311 -80.953491 345.959351 0.259979 0.630168 0.731642 0.000000 0.000000
-90.457687 -15.951297 287.138153 0.259979 0.630168 0.731642 0.000000 0.000000
-32.322670 -146.046982 349.380219 0.336006 0.386403 0.858949 0.000000 0.000000
-98.434311 -80.953491 345.959351 0.336006 0.386403 0.858949 0.000000 0.000000
-120.571739 -122.793518 373.441101 0.336006 0.386403 0.858949 0.000000 0.000000
-120.571739 -122.793518 373.441101 0.322710 0.293694 0.899779 0.000000 0.000000
-85.043587 -189.639023 382.517548 0.322710 0.293694 0.899779 0.000000 0.000000
-32.322670 -146.046982 349.380219 0.322710 0.293694 0.899779 0.000000 0.000000
-77.289833 -408.642151 325.960602 0.271591 -0.484838 0.831367 0.000000 0.000000
-69.592422 -353.035614 355.874695 0.271591 -0.484838 0.831367 0.000000 0.000000
-129.749832 -401.555695 347.230957 0.271591 -0.484838 0.831367 0.000000 0.000000
-79.197601 -442.374146 296.275970 0.228933 -0.650354 0.724313 0.000000 0.000000
-77.289833 -408.642151 325.960602 0.228933 -0.650354 0.724313 0.000000 0.000000
-136.356232 -455.578552 302.485901 0.228933 -0.650354 0.724313 0.000000 0.000000
-112.768646 -248.647888 394.263824 0.282802 -0.173079 0.943433 0.000000 0.000000
-110.865509 -331.168945 378.554291 0.282802 -0.173079 0.943433 0.000000 0.000000
-48.701256 -285.067871 368.377625 0.282802 -0.173079 0.943433 0.000000 0.000000
-110.865509 -331.168945 378.554291 0.236892 -0.447347 0.862417 0.000000 0.000000
-129.749832 -401.555695 347.230957 0.236892 -0.447347 0.862417 0.000000 0.000000
-69.592422 -353.035614 355.874695 0.236892 -0.447347 0.862417 0.000000 0.000000
-136.356232 -455.578552 302.485901 0.213538 -0.638520 0.739388 0.000000 0.000000
-77.289833 -408.642151 325.960602 0.213538 -0.638520 0.739388 0.000000 0.000000
-129.749832 -401.555695 347.230957 0.213538 -0.638520 0.739388 0.000000 0.000000
-85.043587 -189.639023 382.517548 0.209497 0.240053 0.947885 0.000000 0.000000
-120.571739 -122.793518 373.441101 0.209497 0.240053 0.947885 0.000000 0.000000
-157.760071 -168.622147 393.266418 0.209497 0.240053 0.947885 0.000000 0.000000
-112.768646 -248.647888 394.263824 0.176804 0.111590 0.977900 0.000000 0.000000
-85.043587 -189.639023 382.517548 0.176804 0.111590 0.977900 0.000000 0.000000
-157.760071 -168.622147 393.266418 0.176804 0.111590 0.977900 0.000000 0.000000
-110.865509 -331.168945 378.554291 0.156109 -0.436249 0.886181 0.000000 0.000000
-163.386581 -363.733734 371.775360 0.156109 -0.436249 0.886181 0.000000 0.000000
-129.749832 -401.555695 347.230957 0.156109 -0.436249 0.886181 0.000000 0.000000
-110.865509 -331.168945 378.554291 0.168681 -0.180576 0.968989 0.000000 0.000000
-112.768646 -248.647888 394.263824 0.168681 -0.180576 0.968989 0.000000 0.000000
-165.854279 -297.785034 394.347992 0.168681 -0.180576 0.968989 0.000000 0.000000
-120.571739 -122.793518 373.441101 0.104693 0.506688 0.855749 0.000000 0.000000
-98.434311 -80.953491 345.959351 0.104693 0.506688 0.855749 0.000000 0.000000
-137.493393 -47.148376 330.721924 0.104693 0.506688 0.855749 0.000000 0.000000
-137.493393 -47.148376 330.721924 0.122992 0.508721 0.852101 0.000000 0.000000
-181.362915 -83.217728 358.588135 0.122992 0.508721 0.852101 0.000000 0.000000
-120.571739 -122.793518 373.441101 0.122992 0.508721 0.852101 0.000000 0.000000
-205.235794 -233.542221 399.399048 0.047331 -0.049426 0.997656 0.000000 0.000000
-165.854279 -297.785034 394.347992 0.047331 -0.049426 0.997656 0.000000 0.000000
-112.768646 -248.647888 394.263824 0.047331 -0.049426 0.997656 0.000000 0.000000
-137.493393 -47.148376 330.721924 0.041867 0.699834 0.713078 0.000000 0.000000
-160.382858 -0.522590 286.306030 0.041867 0.699834 0.713078 0.000000 0.000000
-197.225220 -30.284052 317.677887 0.041867 0.699834 0.713078 0.000000 0.000000
-157.760071 -168.622147 393.266418 0.022553 0.381465 0.924108 0.000000 0.000000
-120.571739 -122.793518 373.441101 0.022553 0.381465 0.924108 0.000000 0.000000
-181.362915 -83.217728 358.588135 0.022553 0.381465 0.924108 0.000000 0.000000
-157.760071 -168.622147 393.266418 0.063194 0.047953 0.996849 0.000000 0.000000
-205.235794 -233.542221 399.399048 0.063194 0.047953 0.996849 0.000000 0.000000
-112.768646 -248.647888 394.263824 0.063194 0.047953 0.996849 0.000000 0.000000
-110.865509 -331.168945 378.554291 0.076731 -0.320306 0.944201 0.000000 0.000000
-165.854279 -297.785034 394.347992 0.076731 -0.320306 0.944201 0.000000 0.000000
-163.386581 -363.733734 371.775360 0.076731 -0.320306 0.944201 0.000000 0.000000
-129.749832 -401.555695 347.230957 0.024059 -0.529065 0.848240 0.000000 0.000000
-163.386581 -363.733734 371.775360 0.024059 -0.529065 0.848240 0.000000 0.000000
-201.070251 -415.759735 340.394470 0.024059 -0.529065 0.848240 0.000000 0.000000
-136.356232 -455.578552 302.485901 0.054233 -0.640863 0.765737 0.000000 0.000000
-129.749832 -401.555695 347.230957 0.054233 -0.640863 0.765737 0.000000 0.000000
-201.070251 -415.759735 340.394470 0.054233 -0.640863 0.765737 0.000000 0.000000
-197.225220 -30.284052 317.677887 -0.000149 0.611485 0.791256 0.000000 0.000000
-181.362915 -83.217728 358.588135 -0.000149 0.611485 0.791256 0.000000 0.000000
-137.493393 -47.148376 330.721924 -0.000149 0.611485 0.791256 0.000000 0.000000
-201.070251 -415.759735 340.394470 -0.070783 -0.477107 0.875990 0.000000 0.000000
-163.386581 -363.733734 371.775360 -0.070783 -0.477107 0.875990 0.000000 0.000000
-220.596603 -349.764557 374.760895 -0.070783 -0.477107 0.875990 0.000000 0.000000
-157.760071 -168.622147 393.266418 -0.021443 0.371037 0.928371 0.000000 0.000000
-181.362915 -83.217728 358.588135 -0.021443 0.371037 0.928371 0.000000 0.000000
-228.478699 -147.163147 383.056610 -0.021443 0.371037 0.928371 0.000000 0.000000
-201.070251 -415.759735 340.394470 -0.014567 -0.701765 0.712260 0.000000 0.000000
-207.252502 -470.768494 286.069794 -0.014567 -0.701765 0.712260 0.000000 0.000000
-136.356232 -455.578552 302.485901 -0.014567 -0.701765 0.712260 0.000000 0.000000
-163.386581 -363.733734 371.775360 -0.029947 -0.324690 0.945346 0.000000 0.000000
-165.854279 -297.785034 394.347992 -0.029947 -0.324690 0.945346 0.000000 0.000000
-220.596603 -349.764557 374.760895 -0.029947 -0.324690 0.945346 0.000000 0.000000
-205.235794 -233.542221 399.399048 -0.093045 0.160862 0.982581 0.000000 0.000000
-157.760071 -168.622147 393.266418 -0.093045 0.160862 0.982581 0.000000 0.000000
-228.478699 -147.163147 383.056610 -0.093045 0.160862 0.982581 0.000000 0.000000
-205.235794 -233.542221 399.399048 -0.103660 -0.140956 0.984574 0.000000 0.000000
-256.835358 -283.435333 386.823517 -0.103660 -0.140956 0.984574 0.000000 0.000000
-165.854279 -297.785034 394.347992 -0.103660 -0.140956 0.984574 0.000000 0.000000
-256.835358 -283.435333 386.823517 -0.117475 -0.239454 0.963775 0.000000 0.000000
-220.596603 -349.764557 374.760895 -0.117475 -0.239454 0.963775 0.000000 0.000000
-165.854279 -297.785034 394.347992 -0.117475 -0.239454 0.963775 0.000000 0.000000
-181.362915 -83.217728 358.588135 -0.069835 0.596834 0.799320 0.000000 0.000000
-197.225220 -30.284052 317.677887 -0.069835 0.596834 0.799320 0.000000 0.000000
-230.015869 -74.342224 347.710297 -0.069835 0.596834 0.799320 0.000000 0.000000
-230.015869 -74.342224 347.710297 -0.121186 0.431376 0.893996 0.000000 0.000000
-228.478699 -147.163147 383.056610 -0.121186 0.431376 0.893996 0.000000 0.000000
-181.362915 -83.217728 358.588135 -0.121186 0.431376 0.893996 0.000000 0.000000
-228.478699 -147.163147 383.056610 -0.192799 0.132077 0.972309 0.000000 0.000000
-275.326508 -216.167465 383.140594 -0.192799 0.132077 0.972309 0.000000 0.000000
-205.235794 -233.542221 399.399048 -0.192799 0.132077 0.972309 0.000000 0.000000
-207.252502 -470.768494 286.069794 -0.160485 -0.684371 0.711253 0.000000 0.000000
-201.070251 -415.759735 340.394470 -0.160485 -0.684371 0.711253 0.000000 0.000000
-258.960449 -415.126587 327.941498 -0.160485 -0.684371 0.711253 0.000000 0.000000
-271.864777 -138.602127 368.114288 -0.284874 0.194547 0.938615 0.000000 0.000000
-275.326508 -216.167465 383.140594 -0.284874 0.194547 0.938615 0.000000 0.000000
-228.478699 -147.163147 383.056610 -0.284874 0.194547 0.938615 0.000000 0.000000
-220.596603 -349.764557 374.760895 -0.187707 -0.496780 0.847335 0.000000 0.000000
-258.960449 -415.126587 327.941498 -0.187707 -0.496780 0.847335 0.000000 0.000000
-201.070251 -415.759735 340.394470 -0.187707 -0.496780 0.847335 0.000000 0.000000
-256.835358 -283.435333 386.823517 -0.228168 -0.009417 0.973576 0.000000 0.000000
-205.235794 -233.542221 399.399048 -0.228168 -0.009417 0.973576 0.000000 0.000000
-275.326508 -216.167465 383.140594 -0.228168 -0.009417 0.973576 0.000000 0.000000
-233.509186 -2.263732 280.943329 -0.199382 0.674156 0.711168 0.000000 0.000000
-265.585876 -58.538586 325.296478 -0.199382 0.674156 0.711168 0.000000 0.000000
-197.225220 -30.284052 317.677887 -0.199382 0.674156 0.711168 0.000000 0.000000
-230.015869 -74.342224 347.710297 -0.182903 0.643048 0.743664 0.000000 0.000000
-197.225220 -30.284052 317.677887 -0.182903 0.643048 0.743664 0.000000 0.000000
-265.585876 -58.538586 325.296478 -0.182903 0.643048 0.743664 0.000000 0.000000
-220.596603 -349.764557 374.760895 -0.222312 -0.290704 0.930628 0.000000 0.000000
-256.835358 -283.435333 386.823517 -0.222312 -0.290704 0.930628 0.000000 0.000000
-275.466339 -332.117157 367.165955 -0.222312 -0.290704 0.930628 0.000000 0.000000
-275.466339 -332.117157 367.165955 -0.263933 -0.454488 0.850753 0.000000 0.000000
-258.960449 -415.126587 327.941498 -0.263933 -0.454488 0.850753 0.000000 0.000000
-220.596603 -349.764557 374.760895 -0.263933 -0.454488 0.850753 0.000000 0.000000
-265.585876 -58.538586 325.296478 -0.313639 0.466807 0.826874 0.000000 0.000000
-271.864777 -138.602127 368.114288 -0.313639 0.466807 0.826874 0.000000 0.000000
-230.015869 -74.342224 347.710297 -0.313639 0.466807 0.826874 0.000000 0.000000
-228.478699 -147.163147 383.056610 -0.219577 0.422254 0.879482 0.000000 0.000000
-230.015869 -74.342224 347.710297 -0.219577 0.422254 0.879482 0.000000 0.000000
-271.864777 -138.602127 368.114288 -0.219577 0.422254 0.879482 0.000000 0.000000
-271.864777 -138.602127 368.114288 -0.368136 0.192641 0.909596 0.000000 0.000000
-325.316589 -178.732391 354.980133 -0.368136 0.192641 0.909596 0.000000 0.000000
-275.326508 -216.167465 383.140594 -0.368136 0.192641 0.909596 0.000000 0.000000
-256.835358 -283.435333 386.823517 -0.372264 -0.221479 0.901314 0.000000 0.000000
-312.062683 -304.016724 358.955902 -0.372264 -0.221479 0.901314 0.000000 0.000000
-275.466339 -332.117157 367.165955 -0.372264 -0.221479 0.901314 0.000000 0.000000
-271.864777 -138.602127 368.114288 -0.350244 0.462933 0.814262 0.000000 0.000000
-265.585876 -58.538586 325.296478 -0.350244 0.462933 0.814262 0.000000 0.000000
-324.109497 -107.597748 328.014954 -0.350244 0.462933 0.814262 0.000000 0.000000
-319.152466 -370.324432 327.655487 -0.343463 -0.456205 0.820920 0.000000 0.000000
-258.960449 -415.126587 327.941498 -0.343463 -0.456205 0.820920 0.000000 0.000000
-275.466339 -332.117157 367.165955 -0.343463 -0.456205 0.820920 0.000000 0.000000
-312.062683 -304.016724 358.955902 -0.447949 -0.342038 0.826046 0.000000 0.000000
-319.152466 -370.324432 327.655487 -0.447949 -0.342038 0.826046 0.000000 0.000000
-275.466339 -332.117157 367.165955 -0.447949 -0.342038 0.826046 0.000000 0.000000
-325.316589 -178.732391 354.980133 -0.452262 0.065183 0.889500 0.000000 0.000000
-340.931915 -236.755585 351.292572 -0.452262 0.065183 0.889500 0.000000 0.000000
-275.326508 -216.167465 383.140594 -0.452262 0.065183 0.889500 0.000000 0.000000
-256.835358 -283.435333 386.823517 -0.419033 -0.065606 0.905598 0.000000 0.000000
-275.326508 -216.167465 383.140594 -0.419033 -0.065606 0.905598 0.000000 0.000000
-340.931915 -236.755585 351.292572 -0.419033 -0.065606 0.905598 0.000000 0.000000
-312.062683 -304.016724 358.955902 -0.425202 -0.079781 0.901576 0.000000 0.000000
-256.835358 -283.435333 386.823517 -0.425202 -0.079781 0.901576 0.000000 0.000000
-340.931915 -236.755585 351.292572 -0.425202 -0.079781 0.901576 0.000000 0.000000
-324.109497 -107.597748 328.014954 -0.447754 0.323576 0.833556 0.000000 0.000000
-325.316589 -178.732391 354.980133 -0.447754 0.323576 0.833556 0.000000 0.000000
-271.864777 -138.602127 368.114288 -0.447754 0.323576 0.833556 0.000000 0.000000
-283.332031 -437.901550 295.841064 -0.419519 -0.559061 0.715160 0.000000 0.000000
-258.960449 -415.126587 327.941498 -0.419519 -0.559061 0.715160 0.000000 0.000000
-319.152466 -370.324432 327.655487 -0.419519 -0.559061 0.715160 0.000000 0.000000
-303.908020 -46.607990 295.636719 -0.409713 0.529899 0.742524 0.000000 0.000000
-324.109497 -107.597748 328.014954 -0.409713 0.529899 0.742524 0.000000 0.000000
-265.585876 -58.538586 325.296478 -0.409713 0.529899 0.742524 0.000000 0.000000
-319.152466 -370.324432 327.655487 -0.467338 -0.336037 0.817725 0.000000 0.000000
-312.062683 -304.016724 358.955902 -0.467338 -0.336037 0.817725 0.000000 0.000000
-347.098145 -332.657990 327.162933 -0.467338 -0.336037 0.817725 0.000000 0.000000
-319.152466 -370.324432 327.655487 -0.426973 -0.560424 0.709662 0.000000 0.000000
-326.079651 -419.275848 284.830505 -0.426973 -0.560424 0.709662 0.000000 0.000000
-283.332031 -437.901550 295.841064 -0.426973 -0.560424 0.709662 0.000000 0.000000
-340.931915 -236.755585 351.292572 -0.533878 -0.134026 0.834872 0.000000 0.000000
-369.611084 -279.424988 326.103058 -0.533878 -0.134026 0.834872 0.000000 0.000000
-312.062683 -304.016724 358.955902 -0.533878 -0.134026 0.834872 0.000000 0.000000
-347.098145 -332.657990 327.162933 -0.552363 -0.217580 0.804708 0.000000 0.000000
-312.062683 -304.016724 358.955902 -0.552363 -0.217580 0.804708 0.000000 0.000000
-369.611084 -279.424988 326.103058 -0.552363 -0.217580 0.804708 0.000000 0.000000
-340.931915 -236.755585 351.292572 -0.608996 0.114009 0.784937 0.000000 0.000000
-325.316589 -178.732391 354.980133 -0.608996 0.114009 0.784937 0.000000 0.000000
-392.672150 -196.654984 305.325317 -0.608996 0.114009 0.784937 0.000000 0.000000
-324.109497 -107.597748 328.014954 -0.526939 0.528071 0.665940 0.000000 0.000000
-303.908020 -46.607990 295.636719 -0.526939 0.528071 0.665940 0.000000 0.000000
-366.227051 -98.524544 287.493744 -0.526939 0.528071 0.665940 0.000000 0.000000
-325.316589 -178.732391 354.980133 -0.575935 0.298296 0.761129 0.000000 0.000000
-324.109497 -107.597748 328.014954 -0.575935 0.298296 0.761129 0.000000 0.000000
-382.032471 -141.875504 297.619385 -0.575935 0.298296 0.761129 0.000000 0.000000
-326.079651 -419.275848 284.830505 -0.530308 -0.514478 0.673859 0.000000 0.000000
-319.152466 -370.324432 327.655487 -0.530308 -0.514478 0.673859 0.000000 0.000000
-366.333588 -377.209991 285.268250 -0.530308 -0.514478 0.673859 0.000000 0.000000
-382.032471 -141.875504 297.619385 -0.616278 0.225829 0.754455 0.000000 0.000000
-392.672150 -196.654984 305.325317 -0.616278 0.225829 0.754455 0.000000 0.000000
-325.316589 -178.732391 354.980133 -0.616278 0.225829 0.754455 0.000000 0.000000
-366.333588 -377.209991 285.268250 -0.573332 -0.416140 0.705774 0.000000 0.000000
-319.152466 -370.324432 327.655487 -0.573332 -0.416140 0.705774 0.000000 0.000000
-347.098145 -332.657990 327.162933 -0.573332 -0.416140 0.705774 0.000000 0.000000
-369.611084 -279.424988 326.103058 -0.662716 0.003343 0.748863 0.000000 0.000000
-340.931915 -236.755585 351.292572 -0.662716 0.003343 0.748863 0.000000 0.000000
-392.672150 -196.654984 305.325317 -0.662716 0.003343 0.748863 0.000000 0.000000
-366.227051 -98.524544 287.493744 -0.549363 0.562528 0.617869 0.000000 0.000000
-303.908020 -46.607990 295.636719 -0.549363 0.562528 0.617869 0.000000 0.000000
-363.309753 -54.824409 250.301590 -0.549363 0.562528 0.617869 0.000000 0.000000
-366.227051 -98.524544 287.493744 -0.596552 0.382322 0.705660 0.000000 0.000000
-382.032471 -141.875504 297.619385 -0.596552 0.382322 0.705660 0.000000 0.000000
-324.109497 -107.597748 328.014954 -0.596552 0.382322 0.705660 0.000000 0.000000
-347.098145 -332.657990 327.162933 -0.658790 -0.264589 0.704265 0.000000 0.000000
-369.611084 -279.424988 326.103058 -0.658790 -0.264589 0.704265 0.000000 0.000000
-400.557434 -317.843567 282.721283 -0.658790 -0.264589 0.704265 0.000000 0.000000
-392.672150 -196.654984 305.325317 -0.669104 0.000135 0.743169 0.000000 0.000000
-407.940765 -237.604446 291.585815 -0.669104 0.000135 0.743169 0.000000 0.000000
-369.611084 -279.424988 326.103058 -0.669104 0.000135 0.743169 0.000000 0.000000
-400.557434 -317.843567 282.721283 -0.654419 -0.348473 0.671045 0.000000 0.000000
-366.333588 -377.209991 285.268250 -0.654419 -0.348473 0.671045 0.000000 0.000000
-347.098145 -332.657990 327.162933 -0.654419 -0.348473 0.671045 0.000000 0.000000
-57.059086 -3.684813 249.778152 0.264968 0.820634 0.506313 0.000000 0.000000
-130.734222 20.297766 249.463409 0.264968 0.820634 0.506313 0.000000 0.000000
-90.457687 -15.951297 287.138153 0.264968 0.820634 0.506313 0.000000 0.000000
-130.734222 20.297766 249.463409 0.007943 0.867822 0.496812 0.000000 0.000000
-221.333481 21.120134 249.475464 0.007943 0.867822 0.496812 0.000000 0.000000
-160.382858 -0.522590 286.306030 0.007943 0.867822 0.496812 0.000000 0.000000
-164.406693 -497.623108 249.473785 -0.000206 0.000176 -1.000000 0.754831 0.640415
-430.119324 -176.845474 249.584991 -0.000206 0.000176 -1.000000 0.763398 0.630656
-313.774658 -14.591855 249.589569 -0.000206 0.000176 -1.000000 0.759845 0.625586
-71.227333 -475.644989 249.822998 0.466971 -0.724244 0.507354 0.000000 0.000000
-5.728565 -433.590424 249.570236 0.466971 -0.724244 0.507354 0.000000 0.000000
-15.958164 -424.107727 272.522064 0.466971 -0.724244 0.507354 0.000000 0.000000
-430.119324 -176.845474 249.584991 -0.018728 -0.000949 -0.999824 0.763398 0.630656
-417.777924 -337.379547 249.506241 -0.018728 -0.000949 -0.999824 0.762907 0.635480
-435.561005 -256.924683 249.762955 -0.018728 -0.000949 -0.999824 0.763590 0.632710
-404.834167 -112.366676 249.474594 -0.062697 0.059562 -0.996254 0.762617 0.628528
-363.309753 -54.824409 250.301590 -0.062697 0.059562 -0.996254 0.761528 0.626984
-313.774658 -14.591855 249.589569 -0.062697 0.059562 -0.996254 0.759845 0.625586
-5.728565 -433.590424 249.570236 -0.006068 0.003441 -0.999976 0.750585 0.638835
-71.227333 -475.644989 249.822998 -0.006068 0.003441 -0.999976 0.752192 0.639751
34.396751 -390.612946 249.474625 -0.006068 0.003441 -0.999976 0.749117 0.637354
-71.227333 -475.644989 249.822998 0.006667 -0.012378 -0.999901 0.752192 0.639751
-164.406693 -497.623108 249.473785 0.006667 -0.012378 -0.999901 0.754831 0.640415
34.396751 -390.612946 249.474625 0.006667 -0.012378 -0.999901 0.749117 0.637354
62.150978 -128.595612 249.525894 -0.004822 -0.000829 -0.999988 0.748147 0.629018
84.458672 -213.224655 249.488464 -0.004822 -0.000829 -0.999988 0.747437 0.631702
74.007729 -315.964264 249.624008 -0.004822 -0.000829 -0.999988 0.747772 0.634723
-221.333481 21.120134 249.475464 -0.000259 -0.013919 -0.999903 0.756903 0.624442
-130.734222 20.297766 249.463409 -0.000259 -0.013919 -0.999903 0.753993 0.624426
-57.059086 -3.684813 249.778152 -0.000259 -0.013919 -0.999903 0.751703 0.625232
-404.834167 -112.366676 249.474594 0.005356 -0.003813 -0.999978 0.762617 0.628528
-313.774658 -14.591855 249.589569 0.005356 -0.003813 -0.999978 0.759845 0.625586
-430.119324 -176.845474 249.584991 0.005356 -0.003813 -0.999978 0.763398 0.630656
-342.765381 -437.633209 249.459152 0.000031 0.000493 -1.000000 0.760507 0.638702
-417.777924 -337.379547 249.506241 0.000031 0.000493 -1.000000 0.762907 0.635480
-430.119324 -176.845474 249.584991 0.000031 0.000493 -1.000000 0.763398 0.630656
-164.406693 -497.623108 249.473785 -0.001065 -0.000536 -0.999999 0.754831 0.640415
-252.799026 -485.565430 249.561478 -0.001065 -0.000536 -0.999999 0.758342 0.639959
-430.119324 -176.845474 249.584991 -0.001065 -0.000536 -0.999999 0.763398 0.630656
-252.799026 -485.565430 249.561478 0.001697 0.001051 -0.999998 0.758342 0.639959
-342.765381 -437.633209 249.459152 0.001697 0.001051 -0.999998 0.760507 0.638702
-430.119324 -176.845474 249.584991 0.001697 0.001051 -0.999998 0.763398 0.630656
62.150978 -128.595612 249.525894 0.000982 -0.000462 -0.999999 0.748147 0.629018
74.007729 -315.964264 249.624008 0.000982 -0.000462 -0.999999 0.747772 0.634723
-164.406693 -497.623108 249.473785 0.000982 -0.000462 -0.999999 0.754831 0.640415
74.007729 -315.964264 249.624008 -0.001502 0.002798 -0.999995 0.747772 0.634723
34.396751 -390.612946 249.474625 -0.001502 0.002798 -0.999995 0.749117 0.637354
-164.406693 -497.623108 249.473785 -0.001502 0.002798 -0.999995 0.754831 0.640415
-57.059086 -3.684813 249.778152 -0.007454 -0.005095 -0.999959 0.751703 0.625232
15.828414 -58.288174 249.513000 -0.007454 -0.005095 -0.999959 0.749614 0.626844
62.150978 -128.595612 249.525894 -0.007454 -0.005095 -0.999959 0.748147 0.629018
-313.774658 -14.591855 249.589569 0.000978 -0.005726 -0.999983 0.759845 0.625586
-221.333481 21.120134 249.475464 0.000978 -0.005726 -0.999983 0.756903 0.624442
-57.059086 -3.684813 249.778152 0.000978 -0.005726 -0.999983 0.751703 0.625232
-313.774658 -14.591855 249.589569 0.000715 0.000461 -1.000000 0.759845 0.625586
-57.059086 -3.684813 249.778152 0.000715 0.000461 -1.000000 0.751703 0.625232
-164.406693 -497.623108 249.473785 0.000715 0.000461 -1.000000 0.754831 0.640415
-57.059086 -3.684813 249.778152 -0.001198 0.000876 -0.999999 0.751703 0.625232
62.150978 -128.595612 249.525894 -0.001198 0.000876 -0.999999 0.748147 0.629018
-164.406693 -497.623108 249.473785 -0.001198 0.000876 -0.999999 0.754831 0.640415
3 0 1 2
3 3 4 5
3 6 7 8
3 9 10 11
3 12 13 14
3 15 16 17
3 18 19 20
3 21 22 23
3 24 25 26
3 27 28 29
3 30 31 32
3 33 34 35
3 36 37 38
3 39 40 41
3 42 43 44
3 45 46 47
3 48 49 50
3 51 52 53
3 54 55 56
3 57 58 59
3 60 61 62
3 63 64 65
3 66 67 68
3 69 70 71
3 72 73 74
3 75 76 77
3 78 79 80
3 81 82 83
3 84 85 86
3 87 88 89
3 90 91 92
3 93 94 95
3 96 97 98
3 99 100 101
3 102 103 104
3 105 106 107
3 108 109 110
3 111 112 113
3 114 115 116
3 117 118 119
3 120 121 122
3 123 124 125
3 126 127 128
3 129 130 131
3 132 133 134
3 135 136 137
3 138 139 140
3 141 142 143
3 144 145 146
3 147 148 149
3 150 151 152
3 153 154 155
3 156 157 158
3 159 160 161
3 162 163 164
3 165 166 167
3 168 169 170
3 171 172 173
3 174 175 176
3 177 178 179
3 180 181 182
3 183 184 185
3 186 187 188
3 189 190 191
3 192 193 194
3 195 196 197
3 198 199 200
3 201 202 203
3 204 205 206
3 207 208 209
3 210 211 212
3 213 214 215
3 216 217 218
3 219 220 221
3 222 223 224
3 225 226 227
3 228 229 230
3 231 232 233
3 234 235 236
3 237 238 239
3 240 241 242
3 243 244 245
3 246 247 248
3 249 250 251
3 252 253 254
3 255 256 257
3 258 259 260
3 261 262 263
3 264 265 266
3 267 268 269
3 270 271 272
3 273 274 275
3 276 277 278
3 279 280 281
3 282 283 284
3 285 286 287
3 288 289 290
3 291 292 293
3 294 295 296
3 297 298 299
3 300 301 302
3 303 304 305
3 306 307 308
3 309 310 311
3 312 313 314
3 315 316 317
3 318 319 320
3 321 322 323
3 324 325 326
3 327 328 329
3 330 331 332
3 333 334 335
3 336 337 338
3 339 340 341
3 342 343 344
3 345 346 347
3 348 349 350
3 351 352 353
3 354 355 356
3 357 358 359
3 360 361 362
3 363 364 365
3 366 367 368
3 369 370 371
3 372 373 374
3 375 376 377
3 378 379 380
3 381 382 383
3 384 385 386
3 387 388 389
3 390 391 392
3 393 394 395
3 396 397 398
3 399 400 401
3 402 403 404
3 405 406 407
3 408 409 410
3 411 412 413
3 414 415 416
3 417 418 419
3 420 421 422
3 423 424 425
3 426 427 428
3 429 430 431
3 432 433 434
3 435 436 437
3 438 439 440
3 441 442 443
3 444 445 446
3 447 448 449
3 450 451 452
3 453 454 455
3 456 457 458
3 459 460 461
3 462 463 464
3 465 466 467
3 468 469 470
3 471 472 473
3 474 475 476
3 477 478 479
3 480 481 482
3 483 484 485
