ply
format ascii 1.0
comment Created by Blender 2.82 (sub 7) - www.blender.org, source file: ''
element vertex 504
property float x
property float y
property float z
property float nx
property float ny
property float nz
property float s
property float t
element face 168
property list uchar uint vertex_indices
end_header
-361.376343 386.083801 179.257019 0.256309 0.815401 0.519064 0.000000 0.000000
-430.799744 407.833344 179.371231 0.256309 0.815401 0.519064 0.000000 0.000000
-382.546936 370.922852 213.527328 0.256309 0.815401 0.519064 0.000000 0.000000
-430.799744 407.833344 179.371231 0.033835 0.822664 0.567520 0.000000 0.000000
-489.949280 410.041321 179.697067 0.033835 0.822664 0.567520 0.000000 0.000000
-496.679596 386.824341 213.753128 0.033835 0.822664 0.567520 0.000000 0.000000
-428.146027 371.459808 228.683884 0.200322 0.793567 0.574563 0.000000 0.000000
-382.546936 370.922852 213.527328 0.200322 0.793567 0.574563 0.000000 0.000000
-430.799744 407.833344 179.371231 0.200322 0.793567 0.574563 0.000000 0.000000
-489.949280 410.041321 179.697067 -0.157752 0.830148 0.534760 0.000000 0.000000
-552.126465 398.448273 179.351852 -0.157752 0.830148 0.534760 0.000000 0.000000
-496.679596 386.824341 213.753128 -0.157752 0.830148 0.534760 0.000000 0.000000
-496.679596 386.824341 213.753128 0.051719 0.805011 0.591001 0.000000 0.000000
-428.146027 371.459808 228.683884 0.051719 0.805011 0.591001 0.000000 0.000000
-430.799744 407.833344 179.371231 0.051719 0.805011 0.591001 0.000000 0.000000
-382.546936 370.922852 213.527328 0.370990 0.742540 0.557675 0.000000 0.000000
-350.023743 355.519409 212.401047 0.370990 0.742540 0.557675 0.000000 0.000000
-361.376343 386.083801 179.257019 0.370990 0.742540 0.557675 0.000000 0.000000
-317.285065 359.743347 179.259949 0.436631 0.730934 0.524489 0.000000 0.000000
-361.376343 386.083801 179.257019 0.436631 0.730934 0.524489 0.000000 0.000000
-350.023743 355.519409 212.401047 0.436631 0.730934 0.524489 0.000000 0.000000
-650.049011 339.291046 179.281784 -0.524025 0.693044 0.495063 0.000000 0.000000
-622.686768 344.172729 201.410797 -0.524025 0.693044 0.495063 0.000000 0.000000
-601.869751 375.493317 179.599594 -0.524025 0.693044 0.495063 0.000000 0.000000
-562.757385 369.377533 213.638840 -0.206173 0.776960 0.594832 0.000000 0.000000
-496.679596 386.824341 213.753128 -0.206173 0.776960 0.594832 0.000000 0.000000
-552.126465 398.448273 179.351852 -0.206173 0.776960 0.594832 0.000000 0.000000
-601.869751 375.493317 179.599594 -0.350413 0.765172 0.540114 0.000000 0.000000
-562.757385 369.377533 213.638840 -0.350413 0.765172 0.540114 0.000000 0.000000
-552.126465 398.448273 179.351852 -0.350413 0.765172 0.540114 0.000000 0.000000
-334.274567 336.565247 221.179199 0.486452 0.666066 0.565438 0.000000 0.000000
-317.285065 359.743347 179.259949 0.486452 0.666066 0.565438 0.000000 0.000000
-350.023743 355.519409 212.401047 0.486452 0.666066 0.565438 0.000000 0.000000
-562.757385 369.377533 213.638840 -0.407429 0.694564 0.592943 0.000000 0.000000
-601.869751 375.493317 179.599594 -0.407429 0.694564 0.592943 0.000000 0.000000
-599.201721 334.635620 229.292953 -0.407429 0.694564 0.592943 0.000000 0.000000
-622.686768 344.172729 201.410797 -0.419995 0.689814 0.589712 0.000000 0.000000
-599.201721 334.635620 229.292953 -0.419995 0.689814 0.589712 0.000000 0.000000
-601.869751 375.493317 179.599594 -0.419995 0.689814 0.589712 0.000000 0.000000
-496.679596 386.824341 213.753128 -0.196122 0.738564 0.645026 0.000000 0.000000
-562.757385 369.377533 213.638840 -0.196122 0.738564 0.645026 0.000000 0.000000
-541.014648 347.622406 245.159698 -0.196122 0.738564 0.645026 0.000000 0.000000
-428.146027 371.459808 228.683884 0.022761 0.747096 0.664326 0.000000 0.000000
-496.679596 386.824341 213.753128 0.022761 0.747096 0.664326 0.000000 0.000000
-485.438660 356.935120 246.981171 0.022761 0.747096 0.664326 0.000000 0.000000
-644.588440 314.642120 211.505173 -0.561877 0.608335 0.560555 0.000000 0.000000
-622.686768 344.172729 201.410797 -0.561877 0.608335 0.560555 0.000000 0.000000
-650.049011 339.291046 179.281784 -0.561877 0.608335 0.560555 0.000000 0.000000
-485.438660 356.935120 246.981171 -0.141798 0.711631 0.688095 0.000000 0.000000
-496.679596 386.824341 213.753128 -0.141798 0.711631 0.688095 0.000000 0.000000
-541.014648 347.622406 245.159698 -0.141798 0.711631 0.688095 0.000000 0.000000
-650.049011 339.291046 179.281784 -0.610657 0.575643 0.543814 0.000000 0.000000
-675.349182 312.326080 179.415024 -0.610657 0.575643 0.543814 0.000000 0.000000
-644.588440 314.642120 211.505173 -0.610657 0.575643 0.543814 0.000000 0.000000
-653.320923 295.018951 218.913284 -0.641450 0.503850 0.578512 0.000000 0.000000
-644.588440 314.642120 211.505173 -0.641450 0.503850 0.578512 0.000000 0.000000
-675.349182 312.326080 179.415024 -0.641450 0.503850 0.578512 0.000000 0.000000
-283.921173 -26.500021 183.525833 0.571161 -0.608860 0.550512 0.000000 0.000000
-312.121521 -24.118067 215.418350 0.571161 -0.608860 0.550512 0.000000 0.000000
-292.020172 -37.611427 179.639526 0.571161 -0.608860 0.550512 0.000000 0.000000
-312.121521 -24.118067 215.418350 0.574764 -0.602954 0.553257 0.000000 0.000000
-283.921173 -26.500021 183.525833 0.574764 -0.602954 0.553257 0.000000 0.000000
-293.843384 -13.785004 207.690918 0.574764 -0.602954 0.553257 0.000000 0.000000
-293.843384 -13.785004 207.690918 0.620888 -0.453464 0.639428 0.000000 0.000000
-272.154602 46.518574 229.396576 0.620888 -0.453464 0.639428 0.000000 0.000000
-310.556885 21.411982 248.880524 0.620888 -0.453464 0.639428 0.000000 0.000000
-272.154602 46.518574 229.396576 0.658602 -0.256631 0.707378 0.000000 0.000000
-265.654419 93.507431 240.391785 0.658602 -0.256631 0.707378 0.000000 0.000000
-295.654694 70.669640 260.038055 0.658602 -0.256631 0.707378 0.000000 0.000000
-293.843384 -13.785004 207.690918 0.561852 -0.502348 0.657244 0.000000 0.000000
-310.556885 21.411982 248.880524 0.561852 -0.502348 0.657244 0.000000 0.000000
-312.121521 -24.118067 215.418350 0.561852 -0.502348 0.657244 0.000000 0.000000
-332.720581 112.081604 179.165802 0.249786 0.968093 0.020079 0.000000 0.000000
-291.195892 99.599426 264.411377 0.249786 0.968093 0.020079 0.000000 0.000000
-265.654419 93.507431 240.391785 0.249786 0.968093 0.020079 0.000000 0.000000
-291.195892 99.599426 264.411377 0.642632 -0.210415 0.736716 0.000000 0.000000
-295.654694 70.669640 260.038055 0.642632 -0.210415 0.736716 0.000000 0.000000
-265.654419 93.507431 240.391785 0.642632 -0.210415 0.736716 0.000000 0.000000
-295.654694 70.669640 260.038055 0.594013 -0.344388 0.727011 0.000000 0.000000
-310.556885 21.411982 248.880524 0.594013 -0.344388 0.727011 0.000000 0.000000
-272.154602 46.518574 229.396576 0.594013 -0.344388 0.727011 0.000000 0.000000
-312.121521 -24.118067 215.418350 0.501869 -0.523359 0.688638 0.000000 0.000000
-310.556885 21.411982 248.880524 0.501869 -0.523359 0.688638 0.000000 0.000000
-339.581390 3.635047 256.522827 0.501869 -0.523359 0.688638 0.000000 0.000000
-339.581390 3.635047 256.522827 -0.727526 -0.685693 -0.023054 0.000000 0.000000
-343.354858 10.237011 179.243912 -0.727526 -0.685693 -0.023054 0.000000 0.000000
-312.121521 -24.118067 215.418350 -0.727526 -0.685693 -0.023054 0.000000 0.000000
-339.381012 330.167450 229.734375 0.795941 -0.604949 0.022687 0.000000 0.000000
-368.232269 290.313416 179.230072 0.795941 -0.604949 0.022687 0.000000 0.000000
-334.274567 336.565247 221.179199 0.795941 -0.604949 0.022687 0.000000 0.000000
-339.381012 330.167450 229.734375 0.369022 0.625144 0.687763 0.000000 0.000000
-334.274567 336.565247 221.179199 0.369022 0.625144 0.687763 0.000000 0.000000
-350.023743 355.519409 212.401047 0.369022 0.625144 0.687763 0.000000 0.000000
-345.910675 322.764069 240.252380 0.783519 -0.619312 0.050495 0.000000 0.000000
-382.320465 271.721466 179.186554 0.783519 -0.619312 0.050495 0.000000 0.000000
-339.381012 330.167450 229.734375 0.783519 -0.619312 0.050495 0.000000 0.000000
-295.654694 70.669640 260.038055 0.507797 -0.204762 0.836789 0.000000 0.000000
-291.195892 99.599426 264.411377 0.507797 -0.204762 0.836789 0.000000 0.000000
-347.235077 63.797543 289.657501 0.507797 -0.204762 0.836789 0.000000 0.000000
-350.023743 355.519409 212.401047 0.384372 0.625549 0.678931 0.000000 0.000000
-345.910675 322.764069 240.252380 0.384372 0.625549 0.678931 0.000000 0.000000
-339.381012 330.167450 229.734375 0.384372 0.625549 0.678931 0.000000 0.000000
-327.542725 107.256248 289.512299 0.519060 -0.232453 0.822522 0.000000 0.000000
-347.235077 63.797543 289.657501 0.519060 -0.232453 0.822522 0.000000 0.000000
-291.195892 99.599426 264.411377 0.519060 -0.232453 0.822522 0.000000 0.000000
-310.556885 21.411982 248.880524 0.502544 -0.332781 0.797939 0.000000 0.000000
-295.654694 70.669640 260.038055 0.502544 -0.332781 0.797939 0.000000 0.000000
-347.235077 63.797543 289.657501 0.502544 -0.332781 0.797939 0.000000 0.000000
-350.023743 355.519409 212.401047 0.392181 0.623965 0.675915 0.000000 0.000000
-354.836792 315.146576 252.463547 0.392181 0.623965 0.675915 0.000000 0.000000
-345.910675 322.764069 240.252380 0.392181 0.623965 0.675915 0.000000 0.000000
-354.836792 315.146576 252.463547 0.734507 -0.667854 0.120293 0.000000 0.000000
-382.320465 271.721466 179.186554 0.734507 -0.667854 0.120293 0.000000 0.000000
-345.910675 322.764069 240.252380 0.734507 -0.667854 0.120293 0.000000 0.000000
-347.235077 63.797543 289.657501 0.448905 -0.386592 0.805625 0.000000 0.000000
-339.581390 3.635047 256.522827 0.448905 -0.386592 0.805625 0.000000 0.000000
-310.556885 21.411982 248.880524 0.448905 -0.386592 0.805625 0.000000 0.000000
-360.901459 302.960632 262.654846 0.868745 -0.490377 -0.069379 0.000000 0.000000
-394.957275 254.434799 179.201675 0.868745 -0.490377 -0.069379 0.000000 0.000000
-354.836792 315.146576 252.463547 0.868745 -0.490377 -0.069379 0.000000 0.000000
-354.836792 315.146576 252.463547 0.329360 0.644999 0.689564 0.000000 0.000000
-350.023743 355.519409 212.401047 0.329360 0.644999 0.689564 0.000000 0.000000
-382.546936 370.922852 213.527328 0.329360 0.644999 0.689564 0.000000 0.000000
-394.499268 129.075974 179.228592 0.649759 0.716927 -0.252644 0.000000 0.000000
-349.897736 132.384033 303.323914 0.649759 0.716927 -0.252644 0.000000 0.000000
-327.542725 107.256248 289.512299 0.649759 0.716927 -0.252644 0.000000 0.000000
-339.581390 3.635047 256.522827 0.376053 -0.409851 0.831028 0.000000 0.000000
-347.235077 63.797543 289.657501 0.376053 -0.409851 0.831028 0.000000 0.000000
-385.454620 50.377979 300.334106 0.376053 -0.409851 0.831028 0.000000 0.000000
-369.427429 291.901947 273.321686 0.801739 -0.597284 0.021602 0.000000 0.000000
-404.394897 241.562073 179.237793 0.801739 -0.597284 0.021602 0.000000 0.000000
-360.901459 302.960632 262.654846 0.801739 -0.597284 0.021602 0.000000 0.000000
-349.897736 132.384033 303.323914 0.400380 -0.141441 0.905368 0.000000 0.000000
-378.251160 116.059456 313.312317 0.400380 -0.141441 0.905368 0.000000 0.000000
-327.542725 107.256248 289.512299 0.400380 -0.141441 0.905368 0.000000 0.000000
-347.235077 63.797543 289.657501 0.393227 -0.175166 0.902602 0.000000 0.000000
-327.542725 107.256248 289.512299 0.393227 -0.175166 0.902602 0.000000 0.000000
-378.251160 116.059456 313.312317 0.393227 -0.175166 0.902602 0.000000 0.000000
-385.454620 50.377979 300.334106 -0.724363 -0.689024 -0.023324 0.000000 0.000000
-401.613159 71.465866 179.197525 -0.724363 -0.689024 -0.023324 0.000000 0.000000
-339.581390 3.635047 256.522827 -0.724363 -0.689024 -0.023324 0.000000 0.000000
-382.546936 370.922852 213.527328 0.317830 0.643805 0.696060 0.000000 0.000000
-407.670227 339.081909 254.449539 0.317830 0.643805 0.696060 0.000000 0.000000
-354.836792 315.146576 252.463547 0.317830 0.643805 0.696060 0.000000 0.000000
-354.836792 315.146576 252.463547 0.372914 0.479001 0.794666 0.000000 0.000000
-369.427429 291.901947 273.321686 0.372914 0.479001 0.794666 0.000000 0.000000
-360.901459 302.960632 262.654846 0.372914 0.479001 0.794666 0.000000 0.000000
-378.799957 278.757629 284.046021 0.815657 -0.578524 0.003772 0.000000 0.000000
-414.498230 227.743073 179.176270 0.815657 -0.578524 0.003772 0.000000 0.000000
-369.427429 291.901947 273.321686 0.815657 -0.578524 0.003772 0.000000 0.000000
-354.836792 315.146576 252.463547 0.295916 0.528344 0.795793 0.000000 0.000000
-402.861328 297.236023 282.212708 0.295916 0.528344 0.795793 0.000000 0.000000
-369.427429 291.901947 273.321686 0.295916 0.528344 0.795793 0.000000 0.000000
-378.799957 278.757629 284.046021 0.296092 0.468154 0.832563 0.000000 0.000000
-369.427429 291.901947 273.321686 0.296092 0.468154 0.832563 0.000000 0.000000
-402.861328 297.236023 282.212708 0.296092 0.468154 0.832563 0.000000 0.000000
-442.026093 181.409760 179.173798 0.695349 0.673820 -0.249914 0.000000 0.000000
-387.768982 176.744781 317.558533 0.695349 0.673820 -0.249914 0.000000 0.000000
-349.897736 132.384033 303.323914 0.695349 0.673820 -0.249914 0.000000 0.000000
-387.768982 176.744781 317.558533 0.338738 -0.012701 0.940795 0.000000 0.000000
-378.251160 116.059456 313.312317 0.338738 -0.012701 0.940795 0.000000 0.000000
-349.897736 132.384033 303.323914 0.338738 -0.012701 0.940795 0.000000 0.000000
-391.294830 263.733337 296.205322 0.782498 -0.621610 0.036019 0.000000 0.000000
-414.498230 227.743073 179.176270 0.782498 -0.621610 0.036019 0.000000 0.000000
-378.799957 278.757629 284.046021 0.782498 -0.621610 0.036019 0.000000 0.000000
-378.251160 116.059456 313.312317 0.332776 -0.217790 0.917511 0.000000 0.000000
-385.454620 50.377979 300.334106 0.332776 -0.217790 0.917511 0.000000 0.000000
-347.235077 63.797543 289.657501 0.332776 -0.217790 0.917511 0.000000 0.000000
-402.861328 297.236023 282.212708 0.281826 0.450996 0.846863 0.000000 0.000000
-391.294830 263.733337 296.205322 0.281826 0.450996 0.846863 0.000000 0.000000
-378.799957 278.757629 284.046021 0.281826 0.450996 0.846863 0.000000 0.000000
-407.670227 339.081909 254.449539 0.235056 0.691897 0.682662 0.000000 0.000000
-382.546936 370.922852 213.527328 0.235056 0.691897 0.682662 0.000000 0.000000
-428.146027 371.459808 228.683884 0.235056 0.691897 0.682662 0.000000 0.000000
-402.861328 297.236023 282.212708 0.279972 0.552874 0.784822 0.000000 0.000000
-354.836792 315.146576 252.463547 0.279972 0.552874 0.784822 0.000000 0.000000
-407.670227 339.081909 254.449539 0.279972 0.552874 0.784822 0.000000 0.000000
-403.068115 246.894836 305.104156 0.820595 -0.571494 0.004270 0.000000 0.000000
-425.710785 213.442078 179.215942 0.820595 -0.571494 0.004270 0.000000 0.000000
-391.294830 263.733337 296.205322 0.820595 -0.571494 0.004270 0.000000 0.000000
-442.026093 181.409760 179.173798 0.733654 0.625051 -0.266576 0.000000 0.000000
-409.175751 202.174454 318.270050 0.733654 0.625051 -0.266576 0.000000 0.000000
-387.768982 176.744781 317.558533 0.733654 0.625051 -0.266576 0.000000 0.000000
-387.768982 176.744781 317.558533 0.206007 -0.036114 0.977884 0.000000 0.000000
-433.950623 103.130798 324.568817 0.206007 -0.036114 0.977884 0.000000 0.000000
-378.251160 116.059456 313.312317 0.206007 -0.036114 0.977884 0.000000 0.000000
-378.251160 116.059456 313.312317 0.240893 -0.213496 0.946779 0.000000 0.000000
-433.950623 103.130798 324.568817 0.240893 -0.213496 0.946779 0.000000 0.000000
-385.454620 50.377979 300.334106 0.240893 -0.213496 0.946779 0.000000 0.000000
-416.805908 228.505127 314.675659 0.804648 -0.593575 0.014461 0.000000 0.000000
-436.336639 198.728073 179.168747 0.804648 -0.593575 0.014461 0.000000 0.000000
-403.068115 246.894836 305.104156 0.804648 -0.593575 0.014461 0.000000 0.000000
-402.861328 297.236023 282.212708 0.175202 0.558200 0.810997 0.000000 0.000000
-407.670227 339.081909 254.449539 0.175202 0.558200 0.810997 0.000000 0.000000
-444.176361 309.862305 282.447571 0.175202 0.558200 0.810997 0.000000 0.000000
-416.805908 228.505127 314.675659 0.947829 -0.311403 -0.068182 0.000000 0.000000
-442.026093 181.409760 179.173798 0.947829 -0.311403 -0.068182 0.000000 0.000000
-436.336639 198.728073 179.168747 0.947829 -0.311403 -0.068182 0.000000 0.000000
-403.068115 246.894836 305.104156 -0.139111 0.536985 0.832043 0.000000 0.000000
-391.294830 263.733337 296.205322 -0.139111 0.536985 0.832043 0.000000 0.000000
-416.805908 228.505127 314.675659 -0.139111 0.536985 0.832043 0.000000 0.000000
-387.768982 176.744781 317.558533 0.173176 0.118423 0.977746 0.000000 0.000000
-409.175751 202.174454 318.270050 0.173176 0.118423 0.977746 0.000000 0.000000
-448.982208 185.276382 327.367126 0.173176 0.118423 0.977746 0.000000 0.000000
-433.950623 103.130798 324.568817 -0.737579 -0.675233 -0.006155 0.000000 0.000000
-448.325806 120.157753 179.258621 -0.737579 -0.675233 -0.006155 0.000000 0.000000
-385.454620 50.377979 300.334106 -0.737579 -0.675233 -0.006155 0.000000 0.000000
-391.294830 263.733337 296.205322 0.133728 0.420890 0.897200 0.000000 0.000000
-402.861328 297.236023 282.212708 0.133728 0.420890 0.897200 0.000000 0.000000
-444.176361 309.862305 282.447571 0.133728 0.420890 0.897200 0.000000 0.000000
-444.176361 309.862305 282.447571 0.144048 0.430830 0.890862 0.000000 0.000000
-463.326080 263.459991 307.984589 0.144048 0.430830 0.890862 0.000000 0.000000
-391.294830 263.733337 296.205322 0.144048 0.430830 0.890862 0.000000 0.000000
-409.175751 202.174454 318.270050 0.937121 0.236528 -0.256629 0.000000 0.000000
-442.026093 181.409760 179.173798 0.937121 0.236528 -0.256629 0.000000 0.000000
-416.805908 228.505127 314.675659 0.937121 0.236528 -0.256629 0.000000 0.000000
-416.805908 228.505127 314.675659 0.147839 0.175703 0.973279 0.000000 0.000000
-448.982208 185.276382 327.367126 0.147839 0.175703 0.973279 0.000000 0.000000
-409.175751 202.174454 318.270050 0.147839 0.175703 0.973279 0.000000 0.000000
-416.805908 228.505127 314.675659 0.148374 0.372801 0.915972 0.000000 0.000000
-391.294830 263.733337 296.205322 0.148374 0.372801 0.915972 0.000000 0.000000
-463.326080 263.459991 307.984589 0.148374 0.372801 0.915972 0.000000 0.000000
-407.670227 339.081909 254.449539 0.106611 0.659538 0.744072 0.000000 0.000000
-428.146027 371.459808 228.683884 0.106611 0.659538 0.744072 0.000000 0.000000
-467.377380 335.370300 266.294342 0.106611 0.659538 0.744072 0.000000 0.000000
-433.950623 103.130798 324.568817 0.157563 -0.004807 0.987497 0.000000 0.000000
-387.768982 176.744781 317.558533 0.157563 -0.004807 0.987497 0.000000 0.000000
-448.982208 185.276382 327.367126 0.157563 -0.004807 0.987497 0.000000 0.000000
-467.377380 335.370300 266.294342 0.118403 0.605879 0.786697 0.000000 0.000000
-444.176361 309.862305 282.447571 0.118403 0.605879 0.786697 0.000000 0.000000
-407.670227 339.081909 254.449539 0.118403 0.605879 0.786697 0.000000 0.000000
-448.982208 185.276382 327.367126 0.151248 -0.005996 0.988478 0.000000 0.000000
-464.141968 131.272873 329.359131 0.151248 -0.005996 0.988478 0.000000 0.000000
-433.950623 103.130798 324.568817 0.151248 -0.005996 0.988478 0.000000 0.000000
-464.141968 131.272873 329.359131 -0.683257 -0.729957 -0.017941 0.000000 0.000000
-448.325806 120.157753 179.258621 -0.683257 -0.729957 -0.017941 0.000000 0.000000
-433.950623 103.130798 324.568817 -0.683257 -0.729957 -0.017941 0.000000 0.000000
-428.146027 371.459808 228.683884 0.054868 0.691251 0.720529 0.000000 0.000000
-485.438660 356.935120 246.981171 0.054868 0.691251 0.720529 0.000000 0.000000
-467.377380 335.370300 266.294342 0.054868 0.691251 0.720529 0.000000 0.000000
-467.377380 335.370300 266.294342 0.015981 0.545275 0.838105 0.000000 0.000000
-487.629974 302.751068 287.902771 0.015981 0.545275 0.838105 0.000000 0.000000
-444.176361 309.862305 282.447571 0.015981 0.545275 0.838105 0.000000 0.000000
-463.326080 263.459991 307.984589 0.033533 0.471219 0.881379 0.000000 0.000000
-444.176361 309.862305 282.447571 0.033533 0.471219 0.881379 0.000000 0.000000
-487.629974 302.751068 287.902771 0.033533 0.471219 0.881379 0.000000 0.000000
-463.326080 263.459991 307.984589 0.068537 0.274796 0.959057 0.000000 0.000000
-476.223022 214.747147 322.863831 0.068537 0.274796 0.959057 0.000000 0.000000
-416.805908 228.505127 314.675659 0.068537 0.274796 0.959057 0.000000 0.000000
-448.982208 185.276382 327.367126 0.081932 0.224123 0.971111 0.000000 0.000000
-416.805908 228.505127 314.675659 0.081932 0.224123 0.971111 0.000000 0.000000
-476.223022 214.747147 322.863831 0.081932 0.224123 0.971111 0.000000 0.000000
-448.982208 185.276382 327.367126 0.017897 0.031838 0.999333 0.000000 0.000000
-494.061462 162.941406 328.886017 0.017897 0.031838 0.999333 0.000000 0.000000
-464.141968 131.272873 329.359131 0.017897 0.031838 0.999333 0.000000 0.000000
-494.061462 162.941406 328.886017 -0.726569 -0.686760 -0.021386 0.000000 0.000000
-498.958466 172.784012 179.185303 -0.726569 -0.686760 -0.021386 0.000000 0.000000
-464.141968 131.272873 329.359131 -0.726569 -0.686760 -0.021386 0.000000 0.000000
-448.982208 185.276382 327.367126 -0.028579 0.125125 0.991729 0.000000 0.000000
-476.223022 214.747147 322.863831 -0.028579 0.125125 0.991729 0.000000 0.000000
-494.061462 162.941406 328.886017 -0.028579 0.125125 0.991729 0.000000 0.000000
-485.438660 356.935120 246.981171 -0.088438 0.622409 0.777679 0.000000 0.000000
-523.081665 327.394897 266.342651 -0.088438 0.622409 0.777679 0.000000 0.000000
-467.377380 335.370300 266.294342 -0.088438 0.622409 0.777679 0.000000 0.000000
-523.081665 327.394897 266.342651 -0.083161 0.585719 0.806236 0.000000 0.000000
-487.629974 302.751068 287.902771 -0.083161 0.585719 0.806236 0.000000 0.000000
-467.377380 335.370300 266.294342 -0.083161 0.585719 0.806236 0.000000 0.000000
-463.326080 263.459991 307.984589 -0.086122 0.410663 0.907711 0.000000 0.000000
-487.629974 302.751068 287.902771 -0.086122 0.410663 0.907711 0.000000 0.000000
-529.480591 281.941895 293.346466 -0.086122 0.410663 0.907711 0.000000 0.000000
-529.480591 281.941895 293.346466 -0.098124 0.377927 0.920621 0.000000 0.000000
-522.427490 238.240326 312.038269 -0.098124 0.377927 0.920621 0.000000 0.000000
-463.326080 263.459991 307.984589 -0.098124 0.377927 0.920621 0.000000 0.000000
-476.223022 214.747147 322.863831 -0.066085 0.307448 0.949267 0.000000 0.000000
-463.326080 263.459991 307.984589 -0.066085 0.307448 0.949267 0.000000 0.000000
-522.427490 238.240326 312.038269 -0.066085 0.307448 0.949267 0.000000 0.000000
-522.427490 238.240326 312.038269 -0.116082 0.218200 0.968976 0.000000 0.000000
-536.654907 202.957794 318.278992 -0.116082 0.218200 0.968976 0.000000 0.000000
-476.223022 214.747147 322.863831 -0.116082 0.218200 0.968976 0.000000 0.000000
-494.061462 162.941406 328.886017 -0.103868 0.150058 0.983206 0.000000 0.000000
-476.223022 214.747147 322.863831 -0.103868 0.150058 0.983206 0.000000 0.000000
-536.654907 202.957794 318.278992 -0.103868 0.150058 0.983206 0.000000 0.000000
-523.081665 327.394897 266.342651 -0.134450 0.657335 0.741508 0.000000 0.000000
-485.438660 356.935120 246.981171 -0.134450 0.657335 0.741508 0.000000 0.000000
-541.014648 347.622406 245.159698 -0.134450 0.657335 0.741508 0.000000 0.000000
-523.081665 327.394897 266.342651 -0.149451 0.520494 0.840684 0.000000 0.000000
-529.480591 281.941895 293.346466 -0.149451 0.520494 0.840684 0.000000 0.000000
-487.629974 302.751068 287.902771 -0.149451 0.520494 0.840684 0.000000 0.000000
-498.958466 172.784012 179.185303 -0.681062 -0.731770 -0.025834 0.000000 0.000000
-494.061462 162.941406 328.886017 -0.681062 -0.731770 -0.025834 0.000000 0.000000
-536.654907 202.957794 318.278992 -0.681062 -0.731770 -0.025834 0.000000 0.000000
-575.799377 233.681030 299.003632 -0.250080 0.265535 0.931102 0.000000 0.000000
-536.654907 202.957794 318.278992 -0.250080 0.265535 0.931102 0.000000 0.000000
-522.427490 238.240326 312.038269 -0.250080 0.265535 0.931102 0.000000 0.000000
-522.427490 238.240326 312.038269 -0.239001 0.348994 0.906135 0.000000 0.000000
-529.480591 281.941895 293.346466 -0.239001 0.348994 0.906135 0.000000 0.000000
-567.252869 267.305908 289.020691 -0.239001 0.348994 0.906135 0.000000 0.000000
-575.799377 233.681030 299.003632 -0.250457 0.333496 0.908874 0.000000 0.000000
-522.427490 238.240326 312.038269 -0.250457 0.333496 0.908874 0.000000 0.000000
-567.252869 267.305908 289.020691 -0.250457 0.333496 0.908874 0.000000 0.000000
-529.480591 281.941895 293.346466 -0.236342 0.520671 0.820393 0.000000 0.000000
-523.081665 327.394897 266.342651 -0.236342 0.520671 0.820393 0.000000 0.000000
-570.908081 306.386627 265.897736 -0.236342 0.520671 0.820393 0.000000 0.000000
-498.958466 172.784012 179.185303 -0.618298 -0.785938 0.002927 0.000000 0.000000
-536.654907 202.957794 318.278992 -0.618298 -0.785938 0.002927 0.000000 0.000000
-575.799377 233.681030 299.003632 -0.618298 -0.785938 0.002927 0.000000 0.000000
-541.014648 347.622406 245.159698 -0.261121 0.578084 0.773069 0.000000 0.000000
-570.908081 306.386627 265.897736 -0.261121 0.578084 0.773069 0.000000 0.000000
-523.081665 327.394897 266.342651 -0.261121 0.578084 0.773069 0.000000 0.000000
-570.908081 306.386627 265.897736 -0.277978 0.469756 0.837889 0.000000 0.000000
-567.252869 267.305908 289.020691 -0.277978 0.469756 0.837889 0.000000 0.000000
-529.480591 281.941895 293.346466 -0.277978 0.469756 0.837889 0.000000 0.000000
-599.201721 334.635620 229.292953 -0.332333 0.604864 0.723668 0.000000 0.000000
-570.908081 306.386627 265.897736 -0.332333 0.604864 0.723668 0.000000 0.000000
-541.014648 347.622406 245.159698 -0.332333 0.604864 0.723668 0.000000 0.000000
-575.799377 233.681030 299.003632 -0.398464 0.352650 0.846678 0.000000 0.000000
-567.252869 267.305908 289.020691 -0.398464 0.352650 0.846678 0.000000 0.000000
-609.904114 259.773346 272.085510 -0.398464 0.352650 0.846678 0.000000 0.000000
-562.757385 369.377533 213.638840 -0.331402 0.654040 0.680004 0.000000 0.000000
-599.201721 334.635620 229.292953 -0.331402 0.654040 0.680004 0.000000 0.000000
-541.014648 347.622406 245.159698 -0.331402 0.654040 0.680004 0.000000 0.000000
-567.252869 267.305908 289.020691 -0.400355 0.438601 0.804578 0.000000 0.000000
-570.908081 306.386627 265.897736 -0.400355 0.438601 0.804578 0.000000 0.000000
-611.141907 296.964722 251.013718 -0.400355 0.438601 0.804578 0.000000 0.000000
-563.172546 223.098328 179.206238 -0.610419 -0.792058 0.005630 0.000000 0.000000
-575.799377 233.681030 299.003632 -0.610419 -0.792058 0.005630 0.000000 0.000000
-609.904114 259.773346 272.085510 -0.610419 -0.792058 0.005630 0.000000 0.000000
-611.141907 296.964722 251.013718 -0.397365 0.442318 0.804025 0.000000 0.000000
-609.904114 259.773346 272.085510 -0.397365 0.442318 0.804025 0.000000 0.000000
-567.252869 267.305908 289.020691 -0.397365 0.442318 0.804025 0.000000 0.000000
-599.201721 334.635620 229.292953 -0.400026 0.549658 0.733387 0.000000 0.000000
-611.141907 296.964722 251.013718 -0.400026 0.549658 0.733387 0.000000 0.000000
-570.908081 306.386627 265.897736 -0.400026 0.549658 0.733387 0.000000 0.000000
-609.904114 259.773346 272.085510 -0.486246 0.418447 0.767116 0.000000 0.000000
-611.141907 296.964722 251.013718 -0.486246 0.418447 0.767116 0.000000 0.000000
-635.126465 279.793152 245.177582 -0.486246 0.418447 0.767116 0.000000 0.000000
-563.172546 223.098328 179.206238 -0.620193 -0.784446 -0.002294 0.000000 0.000000
-609.904114 259.773346 272.085510 -0.620193 -0.784446 -0.002294 0.000000 0.000000
-635.126465 279.793152 245.177582 -0.620193 -0.784446 -0.002294 0.000000 0.000000
-599.201721 334.635620 229.292953 -0.503058 0.545817 0.670087 0.000000 0.000000
-644.588440 314.642120 211.505173 -0.503058 0.545817 0.670087 0.000000 0.000000
-611.141907 296.964722 251.013718 -0.503058 0.545817 0.670087 0.000000 0.000000
-644.588440 314.642120 211.505173 -0.530137 0.510335 0.677136 0.000000 0.000000
-635.126465 279.793152 245.177582 -0.530137 0.510335 0.677136 0.000000 0.000000
-611.141907 296.964722 251.013718 -0.530137 0.510335 0.677136 0.000000 0.000000
-622.686768 344.172729 201.410797 -0.506393 0.590404 0.628481 0.000000 0.000000
-644.588440 314.642120 211.505173 -0.506393 0.590404 0.628481 0.000000 0.000000
-599.201721 334.635620 229.292953 -0.506393 0.590404 0.628481 0.000000 0.000000
-644.588440 314.642120 211.505173 -0.550533 0.497947 0.670046 0.000000 0.000000
-653.320923 295.018951 218.913284 -0.550533 0.497947 0.670046 0.000000 0.000000
-635.126465 279.793152 245.177582 -0.550533 0.497947 0.670046 0.000000 0.000000
-604.751770 256.354340 179.198242 -0.629742 -0.776678 -0.014001 0.000000 0.000000
-635.126465 279.793152 245.177582 -0.629742 -0.776678 -0.014001 0.000000 0.000000
-653.320923 295.018951 218.913284 -0.629742 -0.776678 -0.014001 0.000000 0.000000
-265.654419 93.507431 240.391785 0.683465 0.073930 -0.726230 0.000000 0.000000
-321.790283 11.957356 179.259811 0.683465 0.073930 -0.726230 0.000000 0.000000
-332.720581 112.081604 179.165802 0.683465 0.073930 -0.726230 0.000000 0.000000
-394.499268 129.075974 179.228592 0.712261 0.646552 -0.273231 0.000000 0.000000
-442.026093 181.409760 179.173798 0.712261 0.646552 -0.273231 0.000000 0.000000
-349.897736 132.384033 303.323914 0.712261 0.646552 -0.273231 0.000000 0.000000
-394.957275 254.434799 179.201675 0.806409 -0.591176 0.014672 0.000000 0.000000
-360.901459 302.960632 262.654846 0.806409 -0.591176 0.014672 0.000000 0.000000
-404.394897 241.562073 179.237793 0.806409 -0.591176 0.014672 0.000000 0.000000
-382.320465 271.721466 179.186554 0.806429 -0.589471 0.046866 0.000000 0.000000
-354.836792 315.146576 252.463547 0.806429 -0.589471 0.046866 0.000000 0.000000
-394.957275 254.434799 179.201675 0.806429 -0.589471 0.046866 0.000000 0.000000
-604.751770 256.354340 179.198242 -0.621254 -0.783603 0.003120 0.000000 0.000000
-653.320923 295.018951 218.913284 -0.621254 -0.783603 0.003120 0.000000 0.000000
-675.349182 312.326080 179.415024 -0.621254 -0.783603 0.003120 0.000000 0.000000
-368.232269 290.313416 179.230072 0.796817 -0.603844 0.021314 0.000000 0.000000
-339.381012 330.167450 229.734375 0.796817 -0.603844 0.021314 0.000000 0.000000
-382.320465 271.721466 179.186554 0.796817 -0.603844 0.021314 0.000000 0.000000
-370.970764 121.884735 179.226028 0.231033 0.972204 0.037979 0.000000 0.000000
-327.542725 107.256248 289.512299 0.231033 0.972204 0.037979 0.000000 0.000000
-291.195892 99.599426 264.411377 0.231033 0.972204 0.037979 0.000000 0.000000
-404.394897 241.562073 179.237793 0.807122 -0.590173 0.015796 0.000000 0.000000
-369.427429 291.901947 273.321686 0.807122 -0.590173 0.015796 0.000000 0.000000
-414.498230 227.743073 179.176270 0.807122 -0.590173 0.015796 0.000000 0.000000
-339.581390 3.635047 256.522827 -0.724253 -0.689133 -0.023508 0.000000 0.000000
-401.613159 71.465866 179.197525 -0.724253 -0.689133 -0.023508 0.000000 0.000000
-343.354858 10.237011 179.243912 -0.724253 -0.689133 -0.023508 0.000000 0.000000
-391.294830 263.733337 296.205322 0.786557 -0.616599 0.033673 0.000000 0.000000
-425.710785 213.442078 179.215942 0.786557 -0.616599 0.033673 0.000000 0.000000
-414.498230 227.743073 179.176270 0.786557 -0.616599 0.033673 0.000000 0.000000
-403.068115 246.894836 305.104156 0.810650 -0.585450 0.009768 0.000000 0.000000
-436.336639 198.728073 179.168747 0.810650 -0.585450 0.009768 0.000000 0.000000
-425.710785 213.442078 179.215942 0.810650 -0.585450 0.009768 0.000000 0.000000
-385.454620 50.377979 300.334106 -0.721424 -0.692069 -0.024246 0.000000 0.000000
-448.325806 120.157753 179.258621 -0.721424 -0.692069 -0.024246 0.000000 0.000000
-401.613159 71.465866 179.197525 -0.721424 -0.692069 -0.024246 0.000000 0.000000
-464.141968 131.272873 329.359131 -0.720390 -0.693134 -0.024580 0.000000 0.000000
-498.958466 172.784012 179.185303 -0.720390 -0.693134 -0.024580 0.000000 0.000000
-448.325806 120.157753 179.258621 -0.720390 -0.693134 -0.024580 0.000000 0.000000
-531.713257 198.288376 179.215652 -0.614348 -0.789004 0.007019 0.000000 0.000000
-498.958466 172.784012 179.185303 -0.614348 -0.789004 0.007019 0.000000 0.000000
-575.799377 233.681030 299.003632 -0.614348 -0.789004 0.007019 0.000000 0.000000
-563.172546 223.098328 179.206238 -0.619235 -0.785195 0.004094 0.000000 0.000000
-531.713257 198.288376 179.215652 -0.619235 -0.785195 0.004094 0.000000 0.000000
-575.799377 233.681030 299.003632 -0.619235 -0.785195 0.004094 0.000000 0.000000
-604.751770 256.354340 179.198242 -0.624577 -0.780897 -0.010125 0.000000 0.000000
-563.172546 223.098328 179.206238 -0.624577 -0.780897 -0.010125 0.000000 0.000000
-635.126465 279.793152 245.177582 -0.624577 -0.780897 -0.010125 0.000000 0.000000
-265.654419 93.507431 240.391785 0.681955 0.075882 -0.727447 0.000000 0.000000
-272.154602 46.518574 229.396576 0.681955 0.075882 -0.727447 0.000000 0.000000
-321.790283 11.957356 179.259811 0.681955 0.075882 -0.727447 0.000000 0.000000
-272.154602 46.518574 229.396576 0.711727 -0.003140 -0.702449 0.000000 0.000000
-293.843384 -13.785004 207.690918 0.711727 -0.003140 -0.702449 0.000000 0.000000
-321.790283 11.957356 179.259811 0.711727 -0.003140 -0.702449 0.000000 0.000000
-368.232269 290.313416 179.230072 0.806228 -0.591605 -0.000354 0.000000 0.000000
-317.285065 359.743347 179.259949 0.806228 -0.591605 -0.000354 0.000000 0.000000
-334.274567 336.565247 221.179199 0.806228 -0.591605 -0.000354 0.000000 0.000000
-283.921173 -26.500021 183.525833 0.714670 0.695684 -0.072606 0.000000 0.000000
-321.790283 11.957356 179.259811 0.714670 0.695684 -0.072606 0.000000 0.000000
-293.843384 -13.785004 207.690918 0.714670 0.695684 -0.072606 0.000000 0.000000
-370.970764 121.884735 179.226028 0.292273 0.956263 0.011750 0.000000 0.000000
-394.499268 129.075974 179.228592 0.292273 0.956263 0.011750 0.000000 0.000000
-327.542725 107.256248 289.512299 0.292273 0.956263 0.011750 0.000000 0.000000
-343.354858 10.237011 179.243912 -0.677538 -0.727782 -0.106186 0.000000 0.000000
-292.020172 -37.611427 179.639526 -0.677538 -0.727782 -0.106186 0.000000 0.000000
-312.121521 -24.118067 215.418350 -0.677538 -0.727782 -0.106186 0.000000 0.000000
-332.720581 112.081604 179.165802 0.248243 0.968473 0.020886 0.000000 0.000000
-370.970764 121.884735 179.226028 0.248243 0.968473 0.020886 0.000000 0.000000
-291.195892 99.599426 264.411377 0.248243 0.968473 0.020886 0.000000 0.000000
-675.349182 312.326080 179.415024 -0.004007 -0.001181 -0.999991 0.771083 0.615257
-650.049011 339.291046 179.281784 -0.004007 -0.001181 -0.999991 0.770111 0.614249
-604.751770 256.354340 179.198242 -0.004007 -0.001181 -0.999991 0.768906 0.616990
-650.049011 339.291046 179.281784 0.004140 0.003269 -0.999986 0.770111 0.614249
-601.869751 375.493317 179.599594 0.004140 0.003269 -0.999986 0.769138 0.613500
-604.751770 256.354340 179.198242 0.004140 0.003269 -0.999986 0.768906 0.616990
-601.869751 375.493317 179.599594 -0.006609 0.003529 -0.999972 0.769138 0.613500
-552.126465 398.448273 179.351852 -0.006609 0.003529 -0.999972 0.767318 0.612671
-604.751770 256.354340 179.198242 -0.006609 0.003529 -0.999972 0.768906 0.616990
-489.949280 410.041321 179.697067 -0.005531 -0.000613 -0.999985 0.765053 0.612211
-430.799744 407.833344 179.371231 -0.005531 -0.000613 -0.999985 0.763326 0.612336
-382.320465 271.721466 179.186554 -0.005531 -0.000613 -0.999985 0.761947 0.616512
-361.376343 386.083801 179.257019 0.000225 0.000265 -1.000000 0.761342 0.612943
-317.285065 359.743347 179.259949 0.000225 0.000265 -1.000000 0.759922 0.613766
-368.232269 290.313416 179.230072 0.000225 0.000265 -1.000000 0.761512 0.615925
-430.799744 407.833344 179.371231 -0.001523 0.000390 -0.999999 0.763326 0.612336
-361.376343 386.083801 179.257019 -0.001523 0.000390 -0.999999 0.761342 0.612943
-368.232269 290.313416 179.230072 -0.001523 0.000390 -0.999999 0.761512 0.615925
-382.320465 271.721466 179.186554 0.000883 0.001671 -0.999998 0.761947 0.616512
-430.799744 407.833344 179.371231 0.000883 0.001671 -0.999998 0.763326 0.612336
-368.232269 290.313416 179.230072 0.000883 0.001671 -0.999998 0.761512 0.615925
-394.957275 254.434799 179.201675 -0.003025 0.001337 -0.999995 0.762342 0.617051
-489.949280 410.041321 179.697067 -0.003025 0.001337 -0.999995 0.765053 0.612211
-382.320465 271.721466 179.186554 -0.003025 0.001337 -0.999995 0.761947 0.616512
-552.126465 398.448273 179.351852 0.005461 0.000486 -0.999985 0.767318 0.612671
-489.949280 410.041321 179.697067 0.005461 0.000486 -0.999985 0.765053 0.612211
-563.172546 223.098328 179.206238 0.005461 0.000486 -0.999985 0.767597 0.618025
-552.126465 398.448273 179.351852 0.000815 0.000779 -0.999999 0.767318 0.612671
-563.172546 223.098328 179.206238 0.000815 0.000779 -0.999999 0.767597 0.618025
-604.751770 256.354340 179.198242 0.000815 0.000779 -0.999999 0.768906 0.616990
-563.172546 223.098328 179.206238 -0.000112 0.002669 -0.999996 0.767597 0.618025
-489.949280 410.041321 179.697067 -0.000112 0.002669 -0.999996 0.765053 0.612211
-404.394897 241.562073 179.237793 -0.000112 0.002669 -0.999996 0.762644 0.617451
-531.713257 198.288376 179.215652 -0.000182 -0.000611 -1.000000 0.766613 0.618798
-563.172546 223.098328 179.206238 -0.000182 -0.000611 -1.000000 0.767597 0.618025
-414.498230 227.743073 179.176270 -0.000182 -0.000611 -1.000000 0.762954 0.617885
-489.949280 410.041321 179.697067 -0.004458 0.000462 -0.999990 0.765053 0.612211
-394.957275 254.434799 179.201675 -0.004458 0.000462 -0.999990 0.762342 0.617051
-404.394897 241.562073 179.237793 -0.004458 0.000462 -0.999990 0.762644 0.617451
-563.172546 223.098328 179.206238 -0.000349 0.004707 -0.999989 0.767597 0.618025
-404.394897 241.562073 179.237793 -0.000349 0.004707 -0.999989 0.762644 0.617451
-414.498230 227.743073 179.176270 -0.000349 0.004707 -0.999989 0.762954 0.617885
-531.713257 198.288376 179.215652 0.000450 -0.003127 -0.999995 0.766613 0.618798
-414.498230 227.743073 179.176270 0.000450 -0.003127 -0.999995 0.762954 0.617885
-425.710785 213.442078 179.215942 0.000450 -0.003127 -0.999995 0.763291 0.618342
-448.325806 120.157753 179.258621 0.000008 -0.001386 -0.999999 0.764008 0.621245
-498.958466 172.784012 179.185303 0.000008 -0.001386 -0.999999 0.765614 0.619622
-442.026093 181.409760 179.173798 0.000008 -0.001386 -0.999999 0.763790 0.619314
-401.613159 71.465866 179.197525 -0.000661 0.000621 -1.000000 0.762549 0.622767
-448.325806 120.157753 179.258621 -0.000661 0.000621 -1.000000 0.764008 0.621245
-394.499268 129.075974 179.228592 -0.000661 0.000621 -1.000000 0.762303 0.620936
-370.970764 121.884735 179.226028 0.000054 0.000533 -1.000000 0.761591 0.621186
-401.613159 71.465866 179.197525 0.000054 0.000533 -1.000000 0.762549 0.622767
-394.499268 129.075974 179.228592 0.000054 0.000533 -1.000000 0.762303 0.620936
-343.354858 10.237011 179.243912 0.000741 -0.000052 -1.000000 0.760729 0.624683
-401.613159 71.465866 179.197525 0.000741 -0.000052 -1.000000 0.762549 0.622767
-321.790283 11.957356 179.259811 0.000741 -0.000052 -1.000000 0.760049 0.624619
-343.354858 10.237011 179.243912 0.191078 0.197050 -0.961593 0.760729 0.624683
-283.921173 -26.500021 183.525833 0.191078 0.197050 -0.961593 0.759165 0.625455
-292.020172 -37.611427 179.639526 0.191078 0.197050 -0.961593 0.759124 0.626169
-321.790283 11.957356 179.259811 0.008842 -0.101643 -0.994782 0.760049 0.624619
-283.921173 -26.500021 183.525833 0.008842 -0.101643 -0.994782 0.759165 0.625455
-343.354858 10.237011 179.243912 0.008842 -0.101643 -0.994782 0.760729 0.624683
-332.720581 112.081604 179.165802 0.000087 -0.000929 -1.000000 0.760408 0.621525
-321.790283 11.957356 179.259811 0.000087 -0.000929 -1.000000 0.760049 0.624619
-401.613159 71.465866 179.197525 0.000087 -0.000929 -1.000000 0.762549 0.622767
-394.499268 129.075974 179.228592 -0.000334 -0.001350 -0.999999 0.762303 0.620936
-448.325806 120.157753 179.258621 -0.000334 -0.001350 -0.999999 0.764008 0.621245
-442.026093 181.409760 179.173798 -0.000334 -0.001350 -0.999999 0.763790 0.619314
-436.336639 198.728073 179.168747 -0.000166 -0.000237 -1.000000 0.763619 0.618804
-442.026093 181.409760 179.173798 -0.000166 -0.000237 -1.000000 0.763790 0.619314
-498.958466 172.784012 179.185303 -0.000166 -0.000237 -1.000000 0.765614 0.619622
-425.710785 213.442078 179.215942 -0.000508 0.003575 -0.999994 0.763291 0.618342
-436.336639 198.728073 179.168747 -0.000508 0.003575 -0.999994 0.763619 0.618804
-531.713257 198.288376 179.215652 -0.000508 0.003575 -0.999994 0.766613 0.618798
-498.958466 172.784012 179.185303 -0.000494 0.000555 -1.000000 0.765614 0.619622
-531.713257 198.288376 179.215652 -0.000494 0.000555 -1.000000 0.766613 0.618798
-436.336639 198.728073 179.168747 -0.000494 0.000555 -1.000000 0.763619 0.618804
-332.720581 112.081604 179.165802 -0.001237 0.001317 -0.999998 0.760408 0.621525
-401.613159 71.465866 179.197525 -0.001237 0.001317 -0.999998 0.762549 0.622767
-370.970764 121.884735 179.226028 -0.001237 0.001317 -0.999998 0.761591 0.621186
3 0 1 2
3 3 4 5
3 6 7 8
3 9 10 11
3 12 13 14
3 15 16 17
3 18 19 20
3 21 22 23
3 24 25 26
3 27 28 29
3 30 31 32
3 33 34 35
3 36 37 38
3 39 40 41
3 42 43 44
3 45 46 47
3 48 49 50
3 51 52 53
3 54 55 56
3 57 58 59
3 60 61 62
3 63 64 65
3 66 67 68
3 69 70 71
3 72 73 74
3 75 76 77
3 78 79 80
3 81 82 83
3 84 85 86
3 87 88 89
3 90 91 92
3 93 94 95
3 96 97 98
3 99 100 101
3 102 103 104
3 105 106 107
3 108 109 110
3 111 112 113
3 114 115 116
3 117 118 119
3 120 121 122
3 123 124 125
3 126 127 128
3 129 130 131
3 132 133 134
3 135 136 137
3 138 139 140
3 141 142 143
3 144 145 146
3 147 148 149
3 150 151 152
3 153 154 155
3 156 157 158
3 159 160 161
3 162 163 164
3 165 166 167
3 168 169 170
3 171 172 173
3 174 175 176
3 177 178 179
3 180 181 182
3 183 184 185
3 186 187 188
3 189 190 191
3 192 193 194
3 195 196 197
3 198 199 200
3 201 202 203
3 204 205 206
3 207 208 209
3 210 211 212
3 213 214 215
3 216 217 218
3 219 220 221
3 222 223 224
3 225 226 227
3 228 229 230
3 231 232 233
3 234 235 236
3 237 238 239
3 240 241 242
3 243 244 245
3 246 247 248
3 249 250 251
3 252 253 254
3 255 256 257
3 258 259 260
3 261 262 263
3 264 265 266
3 267 268 269
3 270 271 272
3 273 274 275
3 276 277 278
3 279 280 281
3 282 283 284
3 285 286 287
3 288 289 290
3 291 292 293
3 294 295 296
3 297 298 299
3 300 301 302
3 303 304 305
3 306 307 308
3 309 310 311
3 312 313 314
3 315 316 317
3 318 319 320
3 321 322 323
3 324 325 326
3 327 328 329
3 330 331 332
3 333 334 335
3 336 337 338
3 339 340 341
3 342 343 344
3 345 346 347
3 348 349 350
3 351 352 353
3 354 355 356
3 357 358 359
3 360 361 362
3 363 364 365
3 366 367 368
3 369 370 371
3 372 373 374
3 375 376 377
3 378 379 380
3 381 382 383
3 384 385 386
3 387 388 389
3 390 391 392
3 393 394 395
3 396 397 398
3 399 400 401
3 402 403 404
3 405 406 407
3 408 409 410
3 411 412 413
3 414 415 416
3 417 418 419
3 420 421 422
3 423 424 425
3 426 427 428
3 429 430 431
3 432 433 434
3 435 436 437
3 438 439 440
3 441 442 443
3 444 445 446
3 447 448 449
3 450 451 452
3 453 454 455
3 456 457 458
3 459 460 461
3 462 463 464
3 465 466 467
3 468 469 470
3 471 472 473
3 474 475 476
3 477 478 479
3 480 481 482
3 483 484 485
3 486 487 488
3 489 490 491
3 492 493 494
3 495 496 497
3 498 499 500
3 501 502 503
