ply
format ascii 1.0
comment Created by Blender 2.82 (sub 7) - www.blender.org, source file: ''
element vertex 486
property float x
property float y
property float z
property float nx
property float ny
property float nz
property float s
property float t
element face 162
property list uchar uint vertex_indices
end_header
-35.521091 -666.575256 150.594193 0.859862 -0.111793 0.498137 0.000000 0.000000
-23.853001 -576.227417 150.729355 0.859862 -0.111793 0.498137 0.000000 0.000000
-53.896938 -627.971436 190.977310 0.859862 -0.111793 0.498137 0.000000 0.000000
-23.853001 -576.227417 150.729355 0.836045 0.160414 0.524686 0.000000 0.000000
-37.647774 -504.026764 150.636108 0.836045 0.160414 0.524686 0.000000 0.000000
-56.899311 -546.283997 194.231308 0.836045 0.160414 0.524686 0.000000 0.000000
-37.647774 -504.026764 150.636108 0.745715 0.375879 0.550112 0.000000 0.000000
-70.998863 -437.647949 150.490723 0.745715 0.375879 0.550112 0.000000 0.000000
-78.439331 -493.731964 198.897705 0.745715 0.375879 0.550112 0.000000 0.000000
-74.732094 -744.124268 150.519882 0.766657 -0.388134 0.511458 0.000000 0.000000
-35.521091 -666.575256 150.594193 0.766657 -0.388134 0.511458 0.000000 0.000000
-77.880974 -696.752991 191.188950 0.766657 -0.388134 0.511458 0.000000 0.000000
-53.896938 -627.971436 190.977310 0.758578 -0.262680 0.596288 0.000000 0.000000
-77.880974 -696.752991 191.188950 0.758578 -0.262680 0.596288 0.000000 0.000000
-35.521091 -666.575256 150.594193 0.758578 -0.262680 0.596288 0.000000 0.000000
-53.896938 -627.971436 190.977310 0.798048 0.005329 0.602570 0.000000 0.000000
-23.853001 -576.227417 150.729355 0.798048 0.005329 0.602570 0.000000 0.000000
-56.899311 -546.283997 194.231308 0.798048 0.005329 0.602570 0.000000 0.000000
-78.439331 -493.731964 198.897705 0.764025 0.260756 0.590145 0.000000 0.000000
-56.899311 -546.283997 194.231308 0.764025 0.260756 0.590145 0.000000 0.000000
-37.647774 -504.026764 150.636108 0.764025 0.260756 0.590145 0.000000 0.000000
-78.439331 -493.731964 198.897705 0.699599 0.411422 0.584204 0.000000 0.000000
-70.998863 -437.647949 150.490723 0.699599 0.411422 0.584204 0.000000 0.000000
-97.456680 -445.281921 187.550812 0.699599 0.411422 0.584204 0.000000 0.000000
-70.998863 -437.647949 150.490723 0.613412 0.562966 0.553890 0.000000 0.000000
-119.340431 -385.498444 151.023148 0.613412 0.562966 0.553890 0.000000 0.000000
-97.456680 -445.281921 187.550812 0.613412 0.562966 0.553890 0.000000 0.000000
-83.615898 -602.528259 224.050797 0.744103 0.000737 0.668064 0.000000 0.000000
-53.896938 -627.971436 190.977310 0.744103 0.000737 0.668064 0.000000 0.000000
-56.899311 -546.283997 194.231308 0.744103 0.000737 0.668064 0.000000 0.000000
-77.880974 -696.752991 191.188950 0.625159 -0.484072 0.612251 0.000000 0.000000
-126.667969 -761.851746 189.534622 0.625159 -0.484072 0.612251 0.000000 0.000000
-74.732094 -744.124268 150.519882 0.625159 -0.484072 0.612251 0.000000 0.000000
-344.614532 -334.504486 150.548874 -0.025950 0.875422 0.482662 0.000000 0.000000
-291.567993 -356.066559 192.508804 -0.025950 0.875422 0.482662 0.000000 0.000000
-229.562897 -331.101807 150.562897 -0.025950 0.875422 0.482662 0.000000 0.000000
-359.965393 -360.109161 181.749771 -0.139392 0.798012 0.586299 0.000000 0.000000
-291.567993 -356.066559 192.508804 -0.139392 0.798012 0.586299 0.000000 0.000000
-344.614532 -334.504486 150.548874 -0.139392 0.798012 0.586299 0.000000 0.000000
-164.017197 -390.699310 193.528473 0.382319 0.778890 0.497154 0.000000 0.000000
-119.340431 -385.498444 151.023148 0.382319 0.778890 0.497154 0.000000 0.000000
-229.562897 -331.101807 150.562897 0.382319 0.778890 0.497154 0.000000 0.000000
-344.614532 -334.504486 150.548874 -0.317259 0.803677 0.503438 0.000000 0.000000
-417.345398 -363.414246 150.865936 -0.317259 0.803677 0.503438 0.000000 0.000000
-359.965393 -360.109161 181.749771 -0.317259 0.803677 0.503438 0.000000 0.000000
-212.168045 -360.969574 184.210083 0.386177 0.779866 0.492622 0.000000 0.000000
-164.017197 -390.699310 193.528473 0.386177 0.779866 0.492622 0.000000 0.000000
-229.562897 -331.101807 150.562897 0.386177 0.779866 0.492622 0.000000 0.000000
-291.567993 -356.066559 192.508804 0.116633 0.768134 0.629576 0.000000 0.000000
-229.004074 -383.754669 214.700195 0.116633 0.768134 0.629576 0.000000 0.000000
-229.562897 -331.101807 150.562897 0.116633 0.768134 0.629576 0.000000 0.000000
-212.168045 -360.969574 184.210083 0.101021 0.769389 0.630742 0.000000 0.000000
-229.562897 -331.101807 150.562897 0.101021 0.769389 0.630742 0.000000 0.000000
-229.004074 -383.754669 214.700195 0.101021 0.769389 0.630742 0.000000 0.000000
-291.567993 -356.066559 192.508804 -0.145995 0.748479 0.646888 0.000000 0.000000
-359.965393 -360.109161 181.749771 -0.145995 0.748479 0.646888 0.000000 0.000000
-307.217224 -382.011475 218.996429 -0.145995 0.748479 0.646888 0.000000 0.000000
-417.345398 -363.414246 150.865936 -0.571965 0.654096 0.494990 0.000000 0.000000
-489.333344 -426.103546 150.522934 -0.571965 0.654096 0.494990 0.000000 0.000000
-455.236053 -421.257538 183.518967 -0.571965 0.654096 0.494990 0.000000 0.000000
-359.965393 -360.109161 181.749771 -0.370522 0.697109 0.613801 0.000000 0.000000
-417.345398 -363.414246 150.865936 -0.370522 0.697109 0.613801 0.000000 0.000000
-409.745392 -409.600494 207.908524 -0.370522 0.697109 0.613801 0.000000 0.000000
-417.345398 -363.414246 150.865936 -0.482064 0.648403 0.589226 0.000000 0.000000
-455.236053 -421.257538 183.518967 -0.482064 0.648403 0.589226 0.000000 0.000000
-409.745392 -409.600494 207.908524 -0.482064 0.648403 0.589226 0.000000 0.000000
-361.610779 -401.531219 223.518036 -0.194225 0.700337 0.686881 0.000000 0.000000
-307.217224 -382.011475 218.996429 -0.194225 0.700337 0.686881 0.000000 0.000000
-359.965393 -360.109161 181.749771 -0.194225 0.700337 0.686881 0.000000 0.000000
-409.745392 -409.600494 207.908524 -0.327216 0.677369 0.658864 0.000000 0.000000
-361.610779 -401.531219 223.518036 -0.327216 0.677369 0.658864 0.000000 0.000000
-359.965393 -360.109161 181.749771 -0.327216 0.677369 0.658864 0.000000 0.000000
-484.915436 -704.686768 192.826675 -0.763594 -0.333809 0.552716 0.000000 0.000000
-514.461792 -649.850586 185.125397 -0.763594 -0.333809 0.552716 0.000000 0.000000
-505.067871 -728.424866 150.649048 -0.763594 -0.333809 0.552716 0.000000 0.000000
-491.629181 -469.794037 183.555511 -0.788456 0.396781 0.470002 0.000000 0.000000
-489.333344 -426.103546 150.522934 -0.788456 0.396781 0.470002 0.000000 0.000000
-538.581299 -524.235901 150.750900 -0.788456 0.396781 0.470002 0.000000 0.000000
-523.930481 -567.740906 181.958786 -0.799420 -0.069172 0.596777 0.000000 0.000000
-542.185120 -627.853882 150.537933 -0.799420 -0.069172 0.596777 0.000000 0.000000
-514.461792 -649.850586 185.125397 -0.799420 -0.069172 0.596777 0.000000 0.000000
-538.581299 -524.235901 150.750900 -0.773535 0.176197 0.608768 0.000000 0.000000
-523.930481 -567.740906 181.958786 -0.773535 0.176197 0.608768 0.000000 0.000000
-496.962555 -533.036987 206.181274 -0.773535 0.176197 0.608768 0.000000 0.000000
-491.629181 -469.794037 183.555511 -0.746077 0.279185 0.604504 0.000000 0.000000
-538.581299 -524.235901 150.750900 -0.746077 0.279185 0.604504 0.000000 0.000000
-496.962555 -533.036987 206.181274 -0.746077 0.279185 0.604504 0.000000 0.000000
-523.930481 -567.740906 181.958786 -0.751428 -0.061317 0.656960 0.000000 0.000000
-514.461792 -649.850586 185.125397 -0.751428 -0.061317 0.656960 0.000000 0.000000
-485.411102 -637.426331 219.513031 -0.751428 -0.061317 0.656960 0.000000 0.000000
-455.236053 -421.257538 183.518967 -0.643427 0.482895 0.593981 0.000000 0.000000
-489.333344 -426.103546 150.522934 -0.643427 0.482895 0.593981 0.000000 0.000000
-491.629181 -469.794037 183.555511 -0.643427 0.482895 0.593981 0.000000 0.000000
-480.756409 -567.178955 227.626205 -0.724521 0.085663 0.683909 0.000000 0.000000
-496.962555 -533.036987 206.181274 -0.724521 0.085663 0.683909 0.000000 0.000000
-523.930481 -567.740906 181.958786 -0.724521 0.085663 0.683909 0.000000 0.000000
-474.725220 -767.144653 151.607559 -0.645406 -0.491292 0.584879 0.000000 0.000000
-484.915436 -704.686768 192.826675 -0.645406 -0.491292 0.584879 0.000000 0.000000
-505.067871 -728.424866 150.649048 -0.645406 -0.491292 0.584879 0.000000 0.000000
-480.756409 -567.178955 227.626205 -0.726120 -0.031215 0.686859 0.000000 0.000000
-523.930481 -567.740906 181.958786 -0.726120 -0.031215 0.686859 0.000000 0.000000
-485.411102 -637.426331 219.513031 -0.726120 -0.031215 0.686859 0.000000 0.000000
-472.026428 -504.530426 220.687820 -0.707029 0.290323 0.644843 0.000000 0.000000
-491.629181 -469.794037 183.555511 -0.707029 0.290323 0.644843 0.000000 0.000000
-496.962555 -533.036987 206.181274 -0.707029 0.290323 0.644843 0.000000 0.000000
-409.498657 -817.061462 150.513351 -0.266904 -0.828587 0.492144 0.000000 0.000000
-303.311981 -851.139099 150.727478 -0.266904 -0.828587 0.492144 0.000000 0.000000
-359.167816 -808.686768 191.909164 -0.266904 -0.828587 0.492144 0.000000 0.000000
-212.260269 -839.029663 152.108185 0.377382 -0.763544 0.524007 0.000000 0.000000
-135.305603 -802.076538 150.531952 0.377382 -0.763544 0.524007 0.000000 0.000000
-178.192596 -793.764465 193.530289 0.377382 -0.763544 0.524007 0.000000 0.000000
-212.260269 -839.029663 152.108185 0.099811 -0.815489 0.570102 0.000000 0.000000
-291.242493 -818.349792 195.517075 0.099811 -0.815489 0.570102 0.000000 0.000000
-303.311981 -851.139099 150.727478 0.099811 -0.815489 0.570102 0.000000 0.000000
-291.242493 -818.349792 195.517075 -0.143300 -0.779760 0.609458 0.000000 0.000000
-359.167816 -808.686768 191.909164 -0.143300 -0.779760 0.609458 0.000000 0.000000
-303.311981 -851.139099 150.727478 -0.143300 -0.779760 0.609458 0.000000 0.000000
-359.167816 -808.686768 191.909164 -0.363276 -0.722768 0.587909 0.000000 0.000000
-416.029480 -782.549561 188.906372 -0.363276 -0.722768 0.587909 0.000000 0.000000
-409.498657 -817.061462 150.513351 -0.363276 -0.722768 0.587909 0.000000 0.000000
-474.725220 -767.144653 151.607559 -0.511866 -0.680356 0.524508 0.000000 0.000000
-409.498657 -817.061462 150.513351 -0.511866 -0.680356 0.524508 0.000000 0.000000
-416.029480 -782.549561 188.906372 -0.511866 -0.680356 0.524508 0.000000 0.000000
-74.732094 -744.124268 150.519882 0.594917 -0.621720 0.509449 0.000000 0.000000
-126.667969 -761.851746 189.534622 0.594917 -0.621720 0.509449 0.000000 0.000000
-135.305603 -802.076538 150.531952 0.594917 -0.621720 0.509449 0.000000 0.000000
-291.242493 -818.349792 195.517075 0.137936 -0.773000 0.619229 0.000000 0.000000
-212.260269 -839.029663 152.108185 0.137936 -0.773000 0.619229 0.000000 0.000000
-226.017761 -790.467041 215.794724 0.137936 -0.773000 0.619229 0.000000 0.000000
-126.667969 -761.851746 189.534622 0.458821 -0.667338 0.586637 0.000000 0.000000
-178.192596 -793.764465 193.530289 0.458821 -0.667338 0.586637 0.000000 0.000000
-135.305603 -802.076538 150.531952 0.458821 -0.667338 0.586637 0.000000 0.000000
-226.017761 -790.467041 215.794724 0.237561 -0.747003 0.620927 0.000000 0.000000
-212.260269 -839.029663 152.108185 0.237561 -0.747003 0.620927 0.000000 0.000000
-178.192596 -793.764465 193.530289 0.237561 -0.747003 0.620927 0.000000 0.000000
-434.388611 -740.978821 212.620865 -0.538946 -0.584196 0.606838 0.000000 0.000000
-474.725220 -767.144653 151.607559 -0.538946 -0.584196 0.606838 0.000000 0.000000
-416.029480 -782.549561 188.906372 -0.538946 -0.584196 0.606838 0.000000 0.000000
-416.029480 -782.549561 188.906372 -0.331504 -0.641737 0.691577 0.000000 0.000000
-359.167816 -808.686768 191.909164 -0.331504 -0.641737 0.691577 0.000000 0.000000
-364.144653 -757.250000 237.253418 -0.331504 -0.641737 0.691577 0.000000 0.000000
-125.690399 -711.708191 225.524734 0.606997 -0.471165 0.639968 0.000000 0.000000
-126.667969 -761.851746 189.534622 0.606997 -0.471165 0.639968 0.000000 0.000000
-77.880974 -696.752991 191.188950 0.606997 -0.471165 0.639968 0.000000 0.000000
-98.694778 -531.262390 230.608200 0.669672 0.073696 0.738991 0.000000 0.000000
-83.615898 -602.528259 224.050797 0.669672 0.073696 0.738991 0.000000 0.000000
-56.899311 -546.283997 194.231308 0.669672 0.073696 0.738991 0.000000 0.000000
-119.340431 -385.498444 151.023148 0.557027 0.571866 0.602237 0.000000 0.000000
-135.642395 -432.527893 210.759048 0.557027 0.571866 0.602237 0.000000 0.000000
-97.456680 -445.281921 187.550812 0.557027 0.571866 0.602237 0.000000 0.000000
-83.615898 -602.528259 224.050797 0.652813 -0.190523 0.733168 0.000000 0.000000
-127.118530 -647.516479 251.094803 0.652813 -0.190523 0.733168 0.000000 0.000000
-53.896938 -627.971436 190.977310 0.652813 -0.190523 0.733168 0.000000 0.000000
-77.880974 -696.752991 191.188950 0.653465 -0.225639 0.722545 0.000000 0.000000
-53.896938 -627.971436 190.977310 0.653465 -0.225639 0.722545 0.000000 0.000000
-127.118530 -647.516479 251.094803 0.653465 -0.225639 0.722545 0.000000 0.000000
-78.439331 -493.731964 198.897705 0.569869 0.392729 0.721812 0.000000 0.000000
-97.456680 -445.281921 187.550812 0.569869 0.392729 0.721812 0.000000 0.000000
-135.642395 -432.527893 210.759048 0.569869 0.392729 0.721812 0.000000 0.000000
-135.642395 -432.527893 210.759048 0.589790 0.417238 0.691419 0.000000 0.000000
-133.410614 -478.880951 236.827103 0.589790 0.417238 0.691419 0.000000 0.000000
-78.439331 -493.731964 198.897705 0.589790 0.417238 0.691419 0.000000 0.000000
-98.694778 -531.262390 230.608200 0.654937 0.069336 0.752496 0.000000 0.000000
-116.107521 -575.105713 249.803223 0.654937 0.069336 0.752496 0.000000 0.000000
-83.615898 -602.528259 224.050797 0.654937 0.069336 0.752496 0.000000 0.000000
-127.118530 -647.516479 251.094803 0.616230 -0.279576 0.736273 0.000000 0.000000
-125.690399 -711.708191 225.524734 0.616230 -0.279576 0.736273 0.000000 0.000000
-77.880974 -696.752991 191.188950 0.616230 -0.279576 0.736273 0.000000 0.000000
-98.694778 -531.262390 230.608200 0.595295 0.306342 0.742818 0.000000 0.000000
-78.439331 -493.731964 198.897705 0.595295 0.306342 0.742818 0.000000 0.000000
-133.410614 -478.880951 236.827103 0.595295 0.306342 0.742818 0.000000 0.000000
-164.017197 -390.699310 193.528473 0.513261 0.600682 0.612980 0.000000 0.000000
-135.642395 -432.527893 210.759048 0.513261 0.600682 0.612980 0.000000 0.000000
-119.340431 -385.498444 151.023148 0.513261 0.600682 0.612980 0.000000 0.000000
-127.118530 -647.516479 251.094803 0.580454 -0.073801 0.810942 0.000000 0.000000
-83.615898 -602.528259 224.050797 0.580454 -0.073801 0.810942 0.000000 0.000000
-116.107521 -575.105713 249.803223 0.580454 -0.073801 0.810942 0.000000 0.000000
-133.410614 -478.880951 236.827103 0.518434 0.246375 0.818856 0.000000 0.000000
-158.517990 -526.458618 267.038147 0.518434 0.246375 0.818856 0.000000 0.000000
-98.694778 -531.262390 230.608200 0.518434 0.246375 0.818856 0.000000 0.000000
-116.107521 -575.105713 249.803223 0.522777 0.159041 0.837503 0.000000 0.000000
-98.694778 -531.262390 230.608200 0.522777 0.159041 0.837503 0.000000 0.000000
-158.517990 -526.458618 267.038147 0.522777 0.159041 0.837503 0.000000 0.000000
-125.690399 -711.708191 225.524734 0.451901 -0.321424 0.832149 0.000000 0.000000
-127.118530 -647.516479 251.094803 0.451901 -0.321424 0.832149 0.000000 0.000000
-178.129089 -717.517517 251.757828 0.451901 -0.321424 0.832149 0.000000 0.000000
-158.517990 -526.458618 267.038147 0.468259 0.097080 0.878242 0.000000 0.000000
-162.255463 -587.162231 275.740997 0.468259 0.097080 0.878242 0.000000 0.000000
-116.107521 -575.105713 249.803223 0.468259 0.097080 0.878242 0.000000 0.000000
-127.118530 -647.516479 251.094803 0.501085 -0.060799 0.863259 0.000000 0.000000
-116.107521 -575.105713 249.803223 0.501085 -0.060799 0.863259 0.000000 0.000000
-162.255463 -587.162231 275.740997 0.501085 -0.060799 0.863259 0.000000 0.000000
-126.667969 -761.851746 189.534622 0.424990 -0.533271 0.731441 0.000000 0.000000
-125.690399 -711.708191 225.524734 0.424990 -0.533271 0.731441 0.000000 0.000000
-178.129089 -717.517517 251.757828 0.424990 -0.533271 0.731441 0.000000 0.000000
-178.192596 -793.764465 193.530289 0.400953 -0.556219 0.727913 0.000000 0.000000
-126.667969 -761.851746 189.534622 0.400953 -0.556219 0.727913 0.000000 0.000000
-178.129089 -717.517517 251.757828 0.400953 -0.556219 0.727913 0.000000 0.000000
-135.642395 -432.527893 210.759048 0.373515 0.558482 0.740665 0.000000 0.000000
-164.017197 -390.699310 193.528473 0.373515 0.558482 0.740665 0.000000 0.000000
-199.195084 -441.755280 249.766174 0.373515 0.558482 0.740665 0.000000 0.000000
-199.195084 -441.755280 249.766174 0.413484 0.463972 0.783429 0.000000 0.000000
-179.730591 -472.768585 257.860138 0.413484 0.463972 0.783429 0.000000 0.000000
-135.642395 -432.527893 210.759048 0.413484 0.463972 0.783429 0.000000 0.000000
-179.730591 -472.768585 257.860138 0.416642 0.460768 0.783647 0.000000 0.000000
-133.410614 -478.880951 236.827103 0.416642 0.460768 0.783647 0.000000 0.000000
-135.642395 -432.527893 210.759048 0.416642 0.460768 0.783647 0.000000 0.000000
-158.517990 -526.458618 267.038147 0.426596 0.313566 0.848347 0.000000 0.000000
-133.410614 -478.880951 236.827103 0.426596 0.313566 0.848347 0.000000 0.000000
-179.730591 -472.768585 257.860138 0.426596 0.313566 0.848347 0.000000 0.000000
-212.168045 -360.969574 184.210083 0.291384 0.682140 0.670656 0.000000 0.000000
-229.004074 -383.754669 214.700195 0.291384 0.682140 0.670656 0.000000 0.000000
-164.017197 -390.699310 193.528473 0.291384 0.682140 0.670656 0.000000 0.000000
-229.004074 -383.754669 214.700195 0.304697 0.602551 0.737626 0.000000 0.000000
-199.195084 -441.755280 249.766174 0.304697 0.602551 0.737626 0.000000 0.000000
-164.017197 -390.699310 193.528473 0.304697 0.602551 0.737626 0.000000 0.000000
-178.129089 -717.517517 251.757828 0.371639 -0.262383 0.890528 0.000000 0.000000
-127.118530 -647.516479 251.094803 0.371639 -0.262383 0.890528 0.000000 0.000000
-215.535049 -640.629700 290.022278 0.371639 -0.262383 0.890528 0.000000 0.000000
-178.129089 -717.517517 251.757828 0.311722 -0.576853 0.755029 0.000000 0.000000
-226.017761 -790.467041 215.794724 0.311722 -0.576853 0.755029 0.000000 0.000000
-178.192596 -793.764465 193.530289 0.311722 -0.576853 0.755029 0.000000 0.000000
-158.517990 -526.458618 267.038147 0.357175 0.110970 0.927422 0.000000 0.000000
-206.106461 -579.163696 291.672119 0.357175 0.110970 0.927422 0.000000 0.000000
-162.255463 -587.162231 275.740997 0.357175 0.110970 0.927422 0.000000 0.000000
-127.118530 -647.516479 251.094803 0.389223 -0.144878 0.909679 0.000000 0.000000
-162.255463 -587.162231 275.740997 0.389223 -0.144878 0.909679 0.000000 0.000000
-215.535049 -640.629700 290.022278 0.389223 -0.144878 0.909679 0.000000 0.000000
-226.017761 -790.467041 215.794724 0.288428 -0.568992 0.770102 0.000000 0.000000
-178.129089 -717.517517 251.757828 0.288428 -0.568992 0.770102 0.000000 0.000000
-244.878555 -757.839050 246.965973 0.288428 -0.568992 0.770102 0.000000 0.000000
-179.730591 -472.768585 257.860138 0.297149 0.273771 0.914742 0.000000 0.000000
-239.907608 -492.466675 283.303711 0.297149 0.273771 0.914742 0.000000 0.000000
-158.517990 -526.458618 267.038147 0.297149 0.273771 0.914742 0.000000 0.000000
-162.255463 -587.162231 275.740997 0.328272 -0.075628 0.941551 0.000000 0.000000
-206.106461 -579.163696 291.672119 0.328272 -0.075628 0.941551 0.000000 0.000000
-215.535049 -640.629700 290.022278 0.328272 -0.075628 0.941551 0.000000 0.000000
-199.195084 -441.755280 249.766174 0.248455 0.387612 0.887709 0.000000 0.000000
-239.907608 -492.466675 283.303711 0.248455 0.387612 0.887709 0.000000 0.000000
-179.730591 -472.768585 257.860138 0.248455 0.387612 0.887709 0.000000 0.000000
-206.106461 -579.163696 291.672119 0.270380 0.196391 0.942510 0.000000 0.000000
-158.517990 -526.458618 267.038147 0.270380 0.196391 0.942510 0.000000 0.000000
-239.907608 -492.466675 283.303711 0.270380 0.196391 0.942510 0.000000 0.000000
-229.004074 -383.754669 214.700195 0.178326 0.574579 0.798786 0.000000 0.000000
-269.797821 -424.791931 253.325989 0.178326 0.574579 0.798786 0.000000 0.000000
-199.195084 -441.755280 249.766174 0.178326 0.574579 0.798786 0.000000 0.000000
-178.129089 -717.517517 251.757828 0.259615 -0.326074 0.908997 0.000000 0.000000
-215.535049 -640.629700 290.022278 0.259615 -0.326074 0.908997 0.000000 0.000000
-247.248474 -681.481323 284.425568 0.259615 -0.326074 0.908997 0.000000 0.000000
-244.878555 -757.839050 246.965973 0.194633 -0.427137 0.882990 0.000000 0.000000
-178.129089 -717.517517 251.757828 0.194633 -0.427137 0.882990 0.000000 0.000000
-247.248474 -681.481323 284.425568 0.194633 -0.427137 0.882990 0.000000 0.000000
-269.797821 -424.791931 253.325989 0.153799 0.456187 0.876493 0.000000 0.000000
-239.907608 -492.466675 283.303711 0.153799 0.456187 0.876493 0.000000 0.000000
-199.195084 -441.755280 249.766174 0.153799 0.456187 0.876493 0.000000 0.000000
-206.106461 -579.163696 291.672119 0.212401 0.175597 0.961276 0.000000 0.000000
-239.907608 -492.466675 283.303711 0.212401 0.175597 0.961276 0.000000 0.000000
-266.163788 -552.474426 300.066864 0.212401 0.175597 0.961276 0.000000 0.000000
-266.163788 -552.474426 300.066864 0.118724 -0.044836 0.991915 0.000000 0.000000
-215.535049 -640.629700 290.022278 0.118724 -0.044836 0.991915 0.000000 0.000000
-206.106461 -579.163696 291.672119 0.118724 -0.044836 0.991915 0.000000 0.000000
-244.878555 -757.839050 246.965973 0.109001 -0.435082 0.893769 0.000000 0.000000
-247.248474 -681.481323 284.425568 0.109001 -0.435082 0.893769 0.000000 0.000000
-291.811951 -724.228455 269.051270 0.109001 -0.435082 0.893769 0.000000 0.000000
-244.878555 -757.839050 246.965973 0.057729 -0.671981 0.738315 0.000000 0.000000
-291.242493 -818.349792 195.517075 0.057729 -0.671981 0.738315 0.000000 0.000000
-226.017761 -790.467041 215.794724 0.057729 -0.671981 0.738315 0.000000 0.000000
-266.163788 -552.474426 300.066864 0.071669 -0.072190 0.994812 0.000000 0.000000
-299.087189 -647.256470 295.560760 0.071669 -0.072190 0.994812 0.000000 0.000000
-215.535049 -640.629700 290.022278 0.071669 -0.072190 0.994812 0.000000 0.000000
-291.567993 -356.066559 192.508804 0.054810 0.696934 0.715037 0.000000 0.000000
-307.217224 -382.011475 218.996429 0.054810 0.696934 0.715037 0.000000 0.000000
-229.004074 -383.754669 214.700195 0.054810 0.696934 0.715037 0.000000 0.000000
-269.797821 -424.791931 253.325989 0.056011 0.654225 0.754223 0.000000 0.000000
-229.004074 -383.754669 214.700195 0.056011 0.654225 0.754223 0.000000 0.000000
-307.217224 -382.011475 218.996429 0.056011 0.654225 0.754223 0.000000 0.000000
-239.907608 -492.466675 283.303711 0.016671 0.262239 0.964859 0.000000 0.000000
-307.573425 -483.342316 281.992920 0.016671 0.262239 0.964859 0.000000 0.000000
-266.163788 -552.474426 300.066864 0.016671 0.262239 0.964859 0.000000 0.000000
-247.248474 -681.481323 284.425568 0.080346 -0.196258 0.977255 0.000000 0.000000
-215.535049 -640.629700 290.022278 0.080346 -0.196258 0.977255 0.000000 0.000000
-299.087189 -647.256470 295.560760 0.080346 -0.196258 0.977255 0.000000 0.000000
-239.907608 -492.466675 283.303711 0.038931 0.419028 0.907138 0.000000 0.000000
-269.797821 -424.791931 253.325989 0.038931 0.419028 0.907138 0.000000 0.000000
-307.573425 -483.342316 281.992920 0.038931 0.419028 0.907138 0.000000 0.000000
-291.811951 -724.228455 269.051270 -0.012677 -0.326678 0.945051 0.000000 0.000000
-247.248474 -681.481323 284.425568 -0.012677 -0.326678 0.945051 0.000000 0.000000
-299.087189 -647.256470 295.560760 -0.012677 -0.326678 0.945051 0.000000 0.000000
-244.878555 -757.839050 246.965973 -0.009277 -0.558141 0.829694 0.000000 0.000000
-291.811951 -724.228455 269.051270 -0.009277 -0.558141 0.829694 0.000000 0.000000
-319.213013 -768.517456 238.951385 -0.009277 -0.558141 0.829694 0.000000 0.000000
-319.213013 -768.517456 238.951385 0.012186 -0.653111 0.757164 0.000000 0.000000
-291.242493 -818.349792 195.517075 0.012186 -0.653111 0.757164 0.000000 0.000000
-244.878555 -757.839050 246.965973 0.012186 -0.653111 0.757164 0.000000 0.000000
-307.573425 -483.342316 281.992920 -0.074829 0.210037 0.974826 0.000000 0.000000
-325.619659 -564.608521 298.117340 -0.074829 0.210037 0.974826 0.000000 0.000000
-266.163788 -552.474426 300.066864 -0.074829 0.210037 0.974826 0.000000 0.000000
-299.087189 -647.256470 295.560760 -0.024822 -0.038869 0.998936 0.000000 0.000000
-266.163788 -552.474426 300.066864 -0.024822 -0.038869 0.998936 0.000000 0.000000
-325.619659 -564.608521 298.117340 -0.024822 -0.038869 0.998936 0.000000 0.000000
-299.087189 -647.256470 295.560760 -0.066056 -0.330498 0.941492 0.000000 0.000000
-345.375336 -686.671814 278.476959 -0.066056 -0.330498 0.941492 0.000000 0.000000
-291.811951 -724.228455 269.051270 -0.066056 -0.330498 0.941492 0.000000 0.000000
-307.217224 -382.011475 218.996429 -0.100989 0.567437 0.817201 0.000000 0.000000
-352.882538 -438.700104 252.715866 -0.100989 0.567437 0.817201 0.000000 0.000000
-269.797821 -424.791931 253.325989 -0.100989 0.567437 0.817201 0.000000 0.000000
-307.573425 -483.342316 281.992920 -0.087233 0.482892 0.871324 0.000000 0.000000
-269.797821 -424.791931 253.325989 -0.087233 0.482892 0.871324 0.000000 0.000000
-352.882538 -438.700104 252.715866 -0.087233 0.482892 0.871324 0.000000 0.000000
-299.087189 -647.256470 295.560760 -0.139418 -0.075300 0.987366 0.000000 0.000000
-325.619659 -564.608521 298.117340 -0.139418 -0.075300 0.987366 0.000000 0.000000
-373.067230 -617.894287 287.353882 -0.139418 -0.075300 0.987366 0.000000 0.000000
-369.761383 -504.289001 276.703766 -0.157810 0.225782 0.961311 0.000000 0.000000
-325.619659 -564.608521 298.117340 -0.157810 0.225782 0.961311 0.000000 0.000000
-307.573425 -483.342316 281.992920 -0.157810 0.225782 0.961311 0.000000 0.000000
-373.067230 -617.894287 287.353882 -0.185715 -0.198969 0.962248 0.000000 0.000000
-345.375336 -686.671814 278.476959 -0.185715 -0.198969 0.962248 0.000000 0.000000
-299.087189 -647.256470 295.560760 -0.185715 -0.198969 0.962248 0.000000 0.000000
-319.213013 -768.517456 238.951385 -0.154837 -0.488001 0.859000 0.000000 0.000000
-291.811951 -724.228455 269.051270 -0.154837 -0.488001 0.859000 0.000000 0.000000
-364.144653 -757.250000 237.253418 -0.154837 -0.488001 0.859000 0.000000 0.000000
-345.375336 -686.671814 278.476959 -0.171246 -0.462552 0.869897 0.000000 0.000000
-364.144653 -757.250000 237.253418 -0.171246 -0.462552 0.869897 0.000000 0.000000
-291.811951 -724.228455 269.051270 -0.171246 -0.462552 0.869897 0.000000 0.000000
-361.610779 -401.531219 223.518036 -0.145620 0.589782 0.794325 0.000000 0.000000
-352.882538 -438.700104 252.715866 -0.145620 0.589782 0.794325 0.000000 0.000000
-307.217224 -382.011475 218.996429 -0.145620 0.589782 0.794325 0.000000 0.000000
-319.213013 -768.517456 238.951385 -0.136214 -0.693277 0.707681 0.000000 0.000000
-359.167816 -808.686768 191.909164 -0.136214 -0.693277 0.707681 0.000000 0.000000
-291.242493 -818.349792 195.517075 -0.136214 -0.693277 0.707681 0.000000 0.000000
-352.882538 -438.700104 252.715866 -0.205408 0.382347 0.900899 0.000000 0.000000
-369.761383 -504.289001 276.703766 -0.205408 0.382347 0.900899 0.000000 0.000000
-307.573425 -483.342316 281.992920 -0.205408 0.382347 0.900899 0.000000 0.000000
-369.761383 -504.289001 276.703766 -0.238143 0.165475 0.957030 0.000000 0.000000
-385.605896 -561.911255 282.724243 -0.238143 0.165475 0.957030 0.000000 0.000000
-325.619659 -564.608521 298.117340 -0.238143 0.165475 0.957030 0.000000 0.000000
-373.067230 -617.894287 287.353882 -0.247440 0.024680 0.968589 0.000000 0.000000
-325.619659 -564.608521 298.117340 -0.247440 0.024680 0.968589 0.000000 0.000000
-385.605896 -561.911255 282.724243 -0.247440 0.024680 0.968589 0.000000 0.000000
-364.144653 -757.250000 237.253418 -0.250587 -0.437710 0.863491 0.000000 0.000000
-345.375336 -686.671814 278.476959 -0.250587 -0.437710 0.863491 0.000000 0.000000
-399.069092 -712.546326 249.778900 -0.250587 -0.437710 0.863491 0.000000 0.000000
-345.375336 -686.671814 278.476959 -0.289018 -0.236109 0.927751 0.000000 0.000000
-373.067230 -617.894287 287.353882 -0.289018 -0.236109 0.927751 0.000000 0.000000
-406.476410 -648.275452 269.214172 -0.289018 -0.236109 0.927751 0.000000 0.000000
-359.167816 -808.686768 191.909164 -0.192797 -0.659309 0.726733 0.000000 0.000000
-319.213013 -768.517456 238.951385 -0.192797 -0.659309 0.726733 0.000000 0.000000
-364.144653 -757.250000 237.253418 -0.192797 -0.659309 0.726733 0.000000 0.000000
-352.882538 -438.700104 252.715866 -0.321927 0.397166 0.859431 0.000000 0.000000
-422.892365 -467.489410 239.795822 -0.321927 0.397166 0.859431 0.000000 0.000000
-369.761383 -504.289001 276.703766 -0.321927 0.397166 0.859431 0.000000 0.000000
-406.476410 -648.275452 269.214172 -0.328818 -0.307876 0.892800 0.000000 0.000000
-399.069092 -712.546326 249.778900 -0.328818 -0.307876 0.892800 0.000000 0.000000
-345.375336 -686.671814 278.476959 -0.328818 -0.307876 0.892800 0.000000 0.000000
-369.761383 -504.289001 276.703766 -0.373314 0.197360 0.906469 0.000000 0.000000
-429.662262 -531.395081 257.936279 -0.373314 0.197360 0.906469 0.000000 0.000000
-385.605896 -561.911255 282.724243 -0.373314 0.197360 0.906469 0.000000 0.000000
-409.745392 -409.600494 207.908524 -0.341447 0.511792 0.788342 0.000000 0.000000
-422.892365 -467.489410 239.795822 -0.341447 0.511792 0.788342 0.000000 0.000000
-361.610779 -401.531219 223.518036 -0.341447 0.511792 0.788342 0.000000 0.000000
-352.882538 -438.700104 252.715866 -0.357931 0.523388 0.773272 0.000000 0.000000
-361.610779 -401.531219 223.518036 -0.357931 0.523388 0.773272 0.000000 0.000000
-422.892365 -467.489410 239.795822 -0.357931 0.523388 0.773272 0.000000 0.000000
-422.892365 -467.489410 239.795822 -0.402919 0.289176 0.868351 0.000000 0.000000
-429.662262 -531.395081 257.936279 -0.402919 0.289176 0.868351 0.000000 0.000000
-369.761383 -504.289001 276.703766 -0.402919 0.289176 0.868351 0.000000 0.000000
-364.144653 -757.250000 237.253418 -0.387424 -0.516612 0.763554 0.000000 0.000000
-399.069092 -712.546326 249.778900 -0.387424 -0.516612 0.763554 0.000000 0.000000
-434.388611 -740.978821 212.620865 -0.387424 -0.516612 0.763554 0.000000 0.000000
-429.662262 -531.395081 257.936279 -0.464230 0.048180 0.884403 0.000000 0.000000
-451.797119 -605.819458 250.371994 -0.464230 0.048180 0.884403 0.000000 0.000000
-385.605896 -561.911255 282.724243 -0.464230 0.048180 0.884403 0.000000 0.000000
-373.067230 -617.894287 287.353882 -0.427712 -0.021065 0.903669 0.000000 0.000000
-385.605896 -561.911255 282.724243 -0.427712 -0.021065 0.903669 0.000000 0.000000
-451.797119 -605.819458 250.371994 -0.427712 -0.021065 0.903669 0.000000 0.000000
-406.476410 -648.275452 269.214172 -0.432117 -0.061990 0.899684 0.000000 0.000000
-373.067230 -617.894287 287.353882 -0.432117 -0.061990 0.899684 0.000000 0.000000
-451.797119 -605.819458 250.371994 -0.432117 -0.061990 0.899684 0.000000 0.000000
-399.069092 -712.546326 249.778900 -0.444894 -0.305817 0.841752 0.000000 0.000000
-406.476410 -648.275452 269.214172 -0.444894 -0.305817 0.841752 0.000000 0.000000
-445.637878 -664.408264 242.654816 -0.444894 -0.305817 0.841752 0.000000 0.000000
-434.388611 -740.978821 212.620865 -0.385931 -0.579786 0.717569 0.000000 0.000000
-416.029480 -782.549561 188.906372 -0.385931 -0.579786 0.717569 0.000000 0.000000
-364.144653 -757.250000 237.253418 -0.385931 -0.579786 0.717569 0.000000 0.000000
-451.797119 -605.819458 250.371994 -0.506247 -0.164720 0.846511 0.000000 0.000000
-445.637878 -664.408264 242.654816 -0.506247 -0.164720 0.846511 0.000000 0.000000
-406.476410 -648.275452 269.214172 -0.506247 -0.164720 0.846511 0.000000 0.000000
-451.797119 -605.819458 250.371994 -0.548780 0.078626 0.832261 0.000000 0.000000
-429.662262 -531.395081 257.936279 -0.548780 0.078626 0.832261 0.000000 0.000000
-480.756409 -567.178955 227.626205 -0.548780 0.078626 0.832261 0.000000 0.000000
-445.637878 -664.408264 242.654816 -0.509108 -0.378081 0.773217 0.000000 0.000000
-434.388611 -740.978821 212.620865 -0.509108 -0.378081 0.773217 0.000000 0.000000
-399.069092 -712.546326 249.778900 -0.509108 -0.378081 0.773217 0.000000 0.000000
-422.892365 -467.489410 239.795822 -0.525588 0.283381 0.802155 0.000000 0.000000
-472.026428 -504.530426 220.687820 -0.525588 0.283381 0.802155 0.000000 0.000000
-429.662262 -531.395081 257.936279 -0.525588 0.283381 0.802155 0.000000 0.000000
-480.756409 -567.178955 227.626205 -0.587933 0.169526 0.790946 0.000000 0.000000
-429.662262 -531.395081 257.936279 -0.587933 0.169526 0.790946 0.000000 0.000000
-472.026428 -504.530426 220.687820 -0.587933 0.169526 0.790946 0.000000 0.000000
-422.892365 -467.489410 239.795822 -0.505092 0.501588 0.702347 0.000000 0.000000
-409.745392 -409.600494 207.908524 -0.505092 0.501588 0.702347 0.000000 0.000000
-455.236053 -421.257538 183.518967 -0.505092 0.501588 0.702347 0.000000 0.000000
-445.637878 -664.408264 242.654816 -0.558152 -0.372764 0.741292 0.000000 0.000000
-484.915436 -704.686768 192.826675 -0.558152 -0.372764 0.741292 0.000000 0.000000
-434.388611 -740.978821 212.620865 -0.558152 -0.372764 0.741292 0.000000 0.000000
-485.411102 -637.426331 219.513031 -0.621473 -0.292879 0.726631 0.000000 0.000000
-484.915436 -704.686768 192.826675 -0.621473 -0.292879 0.726631 0.000000 0.000000
-445.637878 -664.408264 242.654816 -0.621473 -0.292879 0.726631 0.000000 0.000000
-451.797119 -605.819458 250.371994 -0.577641 -0.165999 0.799234 0.000000 0.000000
-485.411102 -637.426331 219.513031 -0.577641 -0.165999 0.799234 0.000000 0.000000
-445.637878 -664.408264 242.654816 -0.577641 -0.165999 0.799234 0.000000 0.000000
-485.411102 -637.426331 219.513031 -0.652806 -0.044086 0.756241 0.000000 0.000000
-451.797119 -605.819458 250.371994 -0.652806 -0.044086 0.756241 0.000000 0.000000
-480.756409 -567.178955 227.626205 -0.652806 -0.044086 0.756241 0.000000 0.000000
-455.236053 -421.257538 183.518967 -0.588240 0.425547 0.687666 0.000000 0.000000
-472.026428 -504.530426 220.687820 -0.588240 0.425547 0.687666 0.000000 0.000000
-422.892365 -467.489410 239.795822 -0.588240 0.425547 0.687666 0.000000 0.000000
-474.725220 -767.144653 151.607559 -0.604258 -0.505211 0.616144 0.000000 0.000000
-434.388611 -740.978821 212.620865 -0.604258 -0.505211 0.616144 0.000000 0.000000
-484.915436 -704.686768 192.826675 -0.604258 -0.505211 0.616144 0.000000 0.000000
-472.026428 -504.530426 220.687820 -0.570078 0.427978 0.701317 0.000000 0.000000
-455.236053 -421.257538 183.518967 -0.570078 0.427978 0.701317 0.000000 0.000000
-491.629181 -469.794037 183.555511 -0.570078 0.427978 0.701317 0.000000 0.000000
-484.915436 -704.686768 192.826675 -0.683815 -0.273441 0.676481 0.000000 0.000000
-485.411102 -637.426331 219.513031 -0.683815 -0.273441 0.676481 0.000000 0.000000
-514.461792 -649.850586 185.125397 -0.683815 -0.273441 0.676481 0.000000 0.000000
-480.756409 -567.178955 227.626205 -0.634758 0.171887 0.753350 0.000000 0.000000
-472.026428 -504.530426 220.687820 -0.634758 0.171887 0.753350 0.000000 0.000000
-496.962555 -533.036987 206.181274 -0.634758 0.171887 0.753350 0.000000 0.000000
-78.439331 -493.731964 198.897705 0.684162 0.218641 0.695786 0.000000 0.000000
-98.694778 -531.262390 230.608200 0.684162 0.218641 0.695786 0.000000 0.000000
-56.899311 -546.283997 194.231308 0.684162 0.218641 0.695786 0.000000 0.000000
-542.185120 -627.853882 150.537933 -0.828318 -0.305184 0.469843 0.000000 0.000000
-505.067871 -728.424866 150.649048 -0.828318 -0.305184 0.469843 0.000000 0.000000
-514.461792 -649.850586 185.125397 -0.828318 -0.305184 0.469843 0.000000 0.000000
-303.311981 -851.139099 150.727478 -0.001960 -0.001339 -0.999997 0.759368 0.651361
-538.581299 -524.235901 150.750900 -0.001960 -0.001339 -0.999997 0.766635 0.641238
-489.333344 -426.103546 150.522934 -0.001960 -0.001339 -0.999997 0.765346 0.638560
-523.930481 -567.740906 181.958786 -0.888101 0.029945 0.458672 0.000000 0.000000
-538.581299 -524.235901 150.750900 -0.888101 0.029945 0.458672 0.000000 0.000000
-542.185120 -627.853882 150.537933 -0.888101 0.029945 0.458672 0.000000 0.000000
-505.067871 -728.424866 150.649048 0.007825 0.001783 -0.999968 0.765852 0.647485
-542.185120 -627.853882 150.537933 0.007825 0.001783 -0.999968 0.766900 0.644497
-538.581299 -524.235901 150.750900 0.007825 0.001783 -0.999968 0.766635 0.641238
-212.260269 -839.029663 152.108185 0.028656 -0.102090 -0.994362 0.756170 0.651014
-303.311981 -851.139099 150.727478 0.028656 -0.102090 -0.994362 0.759368 0.651361
-135.305603 -802.076538 150.531952 0.028656 -0.102090 -0.994362 0.754524 0.650199
-489.333344 -426.103546 150.522934 -0.012018 0.019271 -0.999742 0.765346 0.638560
-417.345398 -363.414246 150.865936 -0.012018 0.019271 -0.999742 0.762798 0.636326
-344.614532 -334.504486 150.548874 -0.012018 0.019271 -0.999742 0.760746 0.635499
-135.305603 -802.076538 150.531952 -0.001588 0.001451 -0.999998 0.754524 0.650199
-303.311981 -851.139099 150.727478 -0.001588 0.001451 -0.999998 0.759368 0.651361
-74.732094 -744.124268 150.519882 -0.001588 0.001451 -0.999998 0.752463 0.648267
-23.853001 -576.227417 150.729355 -0.001428 0.001680 -0.999998 0.750795 0.643340
-35.521091 -666.575256 150.594193 -0.001428 0.001680 -0.999998 0.751072 0.645470
-74.732094 -744.124268 150.519882 -0.001428 0.001680 -0.999998 0.752463 0.648267
-70.998863 -437.647949 150.490723 0.002886 -0.000740 -0.999996 0.751910 0.639332
-37.647774 -504.026764 150.636108 0.002886 -0.000740 -0.999996 0.751130 0.641052
-23.853001 -576.227417 150.729355 0.002886 -0.000740 -0.999996 0.750795 0.643340
-474.725220 -767.144653 151.607559 0.040729 0.007183 -0.999144 0.764255 0.649446
-505.067871 -728.424866 150.649048 0.040729 0.007183 -0.999144 0.765852 0.647485
-538.581299 -524.235901 150.750900 0.040729 0.007183 -0.999144 0.766635 0.641238
-303.311981 -851.139099 150.727478 0.002652 0.001980 -0.999995 0.759368 0.651361
-409.498657 -817.061462 150.513351 0.002652 0.001980 -0.999995 0.762555 0.650596
-538.581299 -524.235901 150.750900 0.002652 0.001980 -0.999995 0.766635 0.641238
-409.498657 -817.061462 150.513351 -0.024370 -0.009932 -0.999654 0.762555 0.650596
-474.725220 -767.144653 151.607559 -0.024370 -0.009932 -0.999654 0.764255 0.649446
-538.581299 -524.235901 150.750900 -0.024370 -0.009932 -0.999654 0.766635 0.641238
-70.998863 -437.647949 150.490723 0.001274 -0.001288 -0.999998 0.751910 0.639332
-23.853001 -576.227417 150.729355 0.001274 -0.001288 -0.999998 0.750795 0.643340
-303.311981 -851.139099 150.727478 0.001274 -0.001288 -0.999998 0.759368 0.651361
-23.853001 -576.227417 150.729355 -0.001739 0.001775 -0.999997 0.750795 0.643340
-74.732094 -744.124268 150.519882 -0.001739 0.001775 -0.999997 0.752463 0.648267
-303.311981 -851.139099 150.727478 -0.001739 0.001775 -0.999997 0.759368 0.651361
-229.562897 -331.101807 150.562897 0.016976 0.025941 -0.999519 0.757321 0.635519
-119.340431 -385.498444 151.023148 0.016976 0.025941 -0.999519 0.754263 0.636737
-70.998863 -437.647949 150.490723 0.016976 0.025941 -0.999519 0.751910 0.639332
-489.333344 -426.103546 150.522934 0.000119 0.000095 -1.000000 0.765346 0.638560
-344.614532 -334.504486 150.548874 0.000119 0.000095 -1.000000 0.760746 0.635499
-229.562897 -331.101807 150.562897 0.000119 0.000095 -1.000000 0.757321 0.635519
-489.333344 -426.103546 150.522934 0.000284 -0.000357 -1.000000 0.765346 0.638560
-229.562897 -331.101807 150.562897 0.000284 -0.000357 -1.000000 0.757321 0.635519
-303.311981 -851.139099 150.727478 0.000284 -0.000357 -1.000000 0.759368 0.651361
-229.562897 -331.101807 150.562897 -0.000610 -0.000230 -1.000000 0.757321 0.635519
-70.998863 -437.647949 150.490723 -0.000610 -0.000230 -1.000000 0.751910 0.639332
-303.311981 -851.139099 150.727478 -0.000610 -0.000230 -1.000000 0.759368 0.651361
3 0 1 2
3 3 4 5
3 6 7 8
3 9 10 11
3 12 13 14
3 15 16 17
3 18 19 20
3 21 22 23
3 24 25 26
3 27 28 29
3 30 31 32
3 33 34 35
3 36 37 38
3 39 40 41
3 42 43 44
3 45 46 47
3 48 49 50
3 51 52 53
3 54 55 56
3 57 58 59
3 60 61 62
3 63 64 65
3 66 67 68
3 69 70 71
3 72 73 74
3 75 76 77
3 78 79 80
3 81 82 83
3 84 85 86
3 87 88 89
3 90 91 92
3 93 94 95
3 96 97 98
3 99 100 101
3 102 103 104
3 105 106 107
3 108 109 110
3 111 112 113
3 114 115 116
3 117 118 119
3 120 121 122
3 123 124 125
3 126 127 128
3 129 130 131
3 132 133 134
3 135 136 137
3 138 139 140
3 141 142 143
3 144 145 146
3 147 148 149
3 150 151 152
3 153 154 155
3 156 157 158
3 159 160 161
3 162 163 164
3 165 166 167
3 168 169 170
3 171 172 173
3 174 175 176
3 177 178 179
3 180 181 182
3 183 184 185
3 186 187 188
3 189 190 191
3 192 193 194
3 195 196 197
3 198 199 200
3 201 202 203
3 204 205 206
3 207 208 209
3 210 211 212
3 213 214 215
3 216 217 218
3 219 220 221
3 222 223 224
3 225 226 227
3 228 229 230
3 231 232 233
3 234 235 236
3 237 238 239
3 240 241 242
3 243 244 245
3 246 247 248
3 249 250 251
3 252 253 254
3 255 256 257
3 258 259 260
3 261 262 263
3 264 265 266
3 267 268 269
3 270 271 272
3 273 274 275
3 276 277 278
3 279 280 281
3 282 283 284
3 285 286 287
3 288 289 290
3 291 292 293
3 294 295 296
3 297 298 299
3 300 301 302
3 303 304 305
3 306 307 308
3 309 310 311
3 312 313 314
3 315 316 317
3 318 319 320
3 321 322 323
3 324 325 326
3 327 328 329
3 330 331 332
3 333 334 335
3 336 337 338
3 339 340 341
3 342 343 344
3 345 346 347
3 348 349 350
3 351 352 353
3 354 355 356
3 357 358 359
3 360 361 362
3 363 364 365
3 366 367 368
3 369 370 371
3 372 373 374
3 375 376 377
3 378 379 380
3 381 382 383
3 384 385 386
3 387 388 389
3 390 391 392
3 393 394 395
3 396 397 398
3 399 400 401
3 402 403 404
3 405 406 407
3 408 409 410
3 411 412 413
3 414 415 416
3 417 418 419
3 420 421 422
3 423 424 425
3 426 427 428
3 429 430 431
3 432 433 434
3 435 436 437
3 438 439 440
3 441 442 443
3 444 445 446
3 447 448 449
3 450 451 452
3 453 454 455
3 456 457 458
3 459 460 461
3 462 463 464
3 465 466 467
3 468 469 470
3 471 472 473
3 474 475 476
3 477 478 479
3 480 481 482
3 483 484 485
