ply
format ascii 1.0
comment Created by Blender 2.82 (sub 7) - www.blender.org, source file: ''
element vertex 486
property float x
property float y
property float z
property float nx
property float ny
property float nz
property float s
property float t
element face 162
property list uchar uint vertex_indices
end_header
-177.226120 472.356354 150.823074 0.880908 -0.128676 0.455459 0.000000 0.000000
-161.266205 580.540283 150.518951 0.880908 -0.128676 0.455459 0.000000 0.000000
-186.991501 524.293091 184.383591 0.880908 -0.128676 0.455459 0.000000 0.000000
-186.991501 524.293091 184.383591 0.823800 -0.036170 0.565725 0.000000 0.000000
-161.266205 580.540283 150.518951 0.823800 -0.036170 0.565725 0.000000 0.000000
-190.670151 577.059814 193.114014 0.823800 -0.036170 0.565725 0.000000 0.000000
-161.266205 580.540283 150.518951 0.825254 0.176302 0.536539 0.000000 0.000000
-177.781296 657.690186 150.570206 0.825254 0.176302 0.536539 0.000000 0.000000
-197.480545 629.559937 190.113098 0.825254 0.176302 0.536539 0.000000 0.000000
-197.480545 629.559937 190.113098 0.809832 0.137650 0.570285 0.000000 0.000000
-190.670151 577.059814 193.114014 0.809832 0.137650 0.570285 0.000000 0.000000
-161.266205 580.540283 150.518951 0.809832 0.137650 0.570285 0.000000 0.000000
-226.993057 391.662170 150.510345 0.744812 -0.461220 0.482215 0.000000 0.000000
-177.226120 472.356354 150.823074 0.744812 -0.461220 0.482215 0.000000 0.000000
-217.364700 443.709717 185.420258 0.744812 -0.461220 0.482215 0.000000 0.000000
-217.364700 443.709717 185.420258 0.734944 -0.288731 0.613589 0.000000 0.000000
-177.226120 472.356354 150.823074 0.734944 -0.288731 0.613589 0.000000 0.000000
-213.501205 507.477234 210.799133 0.734944 -0.288731 0.613589 0.000000 0.000000
-200.146820 703.610901 151.852158 0.725257 0.336465 0.600661 0.000000 0.000000
-197.480545 629.559937 190.113098 0.725257 0.336465 0.600661 0.000000 0.000000
-177.781296 657.690186 150.570206 0.725257 0.336465 0.600661 0.000000 0.000000
-186.991501 524.293091 184.383591 0.758129 -0.247343 0.603376 0.000000 0.000000
-213.501205 507.477234 210.799133 0.758129 -0.247343 0.603376 0.000000 0.000000
-177.226120 472.356354 150.823074 0.758129 -0.247343 0.603376 0.000000 0.000000
-217.364700 443.709717 185.420258 0.640939 -0.505821 0.577358 0.000000 0.000000
-253.292633 390.248840 178.467926 0.640939 -0.505821 0.577358 0.000000 0.000000
-226.993057 391.662170 150.510345 0.640939 -0.505821 0.577358 0.000000 0.000000
-276.681152 782.469910 151.738663 0.628472 0.610639 0.481813 0.000000 0.000000
-251.945877 729.777893 186.254898 0.628472 0.610639 0.481813 0.000000 0.000000
-200.146820 703.610901 151.852158 0.628472 0.610639 0.481813 0.000000 0.000000
-197.480545 629.559937 190.113098 0.700851 0.347187 0.623113 0.000000 0.000000
-200.146820 703.610901 151.852158 0.700851 0.347187 0.623113 0.000000 0.000000
-241.444336 661.839966 221.575867 0.700851 0.347187 0.623113 0.000000 0.000000
-197.480545 629.559937 190.113098 0.724941 0.132676 0.675912 0.000000 0.000000
-222.808960 591.269348 224.794876 0.724941 0.132676 0.675912 0.000000 0.000000
-190.670151 577.059814 193.114014 0.724941 0.132676 0.675912 0.000000 0.000000
-190.670151 577.059814 193.114014 0.724245 -0.063117 0.686648 0.000000 0.000000
-213.501205 507.477234 210.799133 0.724245 -0.063117 0.686648 0.000000 0.000000
-186.991501 524.293091 184.383591 0.724245 -0.063117 0.686648 0.000000 0.000000
-340.737427 812.851868 150.988495 0.158680 0.813421 0.559614 0.000000 0.000000
-411.172241 825.399414 152.722107 0.158680 0.813421 0.559614 0.000000 0.000000
-369.097778 788.479309 194.456619 0.158680 0.813421 0.559614 0.000000 0.000000
-411.172241 825.399414 152.722107 -0.081212 0.790299 0.607315 0.000000 0.000000
-479.418243 819.883423 150.773972 -0.081212 0.790299 0.607315 0.000000 0.000000
-468.458313 770.717834 216.218796 -0.081212 0.790299 0.607315 0.000000 0.000000
-546.812683 750.853882 202.017670 -0.401480 0.710277 0.578204 0.000000 0.000000
-507.248688 788.881592 182.775253 -0.401480 0.710277 0.578204 0.000000 0.000000
-572.632324 778.136353 150.575333 -0.401480 0.710277 0.578204 0.000000 0.000000
-507.248688 788.881592 182.775253 -0.162664 0.775597 0.609910 0.000000 0.000000
-468.458313 770.717834 216.218796 -0.162664 0.775597 0.609910 0.000000 0.000000
-479.418243 819.883423 150.773972 -0.162664 0.775597 0.609910 0.000000 0.000000
-276.681152 782.469910 151.738663 0.339560 0.730546 0.592454 0.000000 0.000000
-340.737427 812.851868 150.988495 0.339560 0.730546 0.592454 0.000000 0.000000
-319.818268 754.480530 210.975616 0.339560 0.730546 0.592454 0.000000 0.000000
-319.818268 754.480530 210.975616 0.302203 0.733709 0.608560 0.000000 0.000000
-340.737427 812.851868 150.988495 0.302203 0.733709 0.608560 0.000000 0.000000
-369.097778 788.479309 194.456619 0.302203 0.733709 0.608560 0.000000 0.000000
-546.812683 750.853882 202.017670 -0.505675 0.630921 0.588415 0.000000 0.000000
-572.632324 778.136353 150.575333 -0.505675 0.630921 0.588415 0.000000 0.000000
-607.817810 748.866333 151.721909 -0.505675 0.630921 0.588415 0.000000 0.000000
-468.458313 770.717834 216.218796 0.014030 0.751378 0.659723 0.000000 0.000000
-386.576996 755.262451 232.080048 0.014030 0.751378 0.659723 0.000000 0.000000
-411.172241 825.399414 152.722107 0.014030 0.751378 0.659723 0.000000 0.000000
-369.097778 788.479309 194.456619 0.000898 0.749436 0.662077 0.000000 0.000000
-411.172241 825.399414 152.722107 0.000898 0.749436 0.662077 0.000000 0.000000
-386.576996 755.262451 232.080048 0.000898 0.749436 0.662077 0.000000 0.000000
-468.458313 770.717834 216.218796 -0.292434 0.656225 0.695594 0.000000 0.000000
-507.248688 788.881592 182.775253 -0.292434 0.656225 0.695594 0.000000 0.000000
-546.812683 750.853882 202.017670 -0.292434 0.656225 0.695594 0.000000 0.000000
-386.576996 755.262451 232.080048 0.229802 0.674140 0.701945 0.000000 0.000000
-319.818268 754.480530 210.975616 0.229802 0.674140 0.701945 0.000000 0.000000
-369.097778 788.479309 194.456619 0.229802 0.674140 0.701945 0.000000 0.000000
-682.315247 577.679810 151.133163 -0.874419 -0.114572 0.471449 0.000000 0.000000
-670.162415 482.565979 150.558868 -0.874419 -0.114572 0.471449 0.000000 0.000000
-658.155273 523.695923 182.824600 -0.874419 -0.114572 0.471449 0.000000 0.000000
-658.155273 523.695923 182.824600 -0.751704 -0.257016 0.607359 0.000000 0.000000
-670.162415 482.565979 150.558868 -0.751704 -0.257016 0.607359 0.000000 0.000000
-622.514709 469.092346 203.828918 -0.751704 -0.257016 0.607359 0.000000 0.000000
-670.162415 482.565979 150.558868 -0.736578 -0.372283 0.564675 0.000000 0.000000
-637.690369 418.322479 150.561417 -0.736578 -0.372283 0.564675 0.000000 0.000000
-622.514709 469.092346 203.828918 -0.736578 -0.372283 0.564675 0.000000 0.000000
-658.155273 523.695923 182.824600 -0.803013 -0.009564 0.595885 0.000000 0.000000
-639.346497 568.903198 208.896820 -0.803013 -0.009564 0.595885 0.000000 0.000000
-682.315247 577.679810 151.133163 -0.803013 -0.009564 0.595885 0.000000 0.000000
-639.346497 568.903198 208.896820 -0.788989 0.112561 0.604009 0.000000 0.000000
-674.017029 634.459778 151.391464 -0.788989 0.112561 0.604009 0.000000 0.000000
-682.315247 577.679810 151.133163 -0.788989 0.112561 0.604009 0.000000 0.000000
-622.514709 469.092346 203.828918 -0.721061 -0.387269 0.574538 0.000000 0.000000
-637.690369 418.322479 150.561417 -0.721061 -0.387269 0.574538 0.000000 0.000000
-610.175476 429.340027 192.519806 -0.721061 -0.387269 0.574538 0.000000 0.000000
-584.572632 389.159424 183.130737 -0.635249 -0.534942 0.557042 0.000000 0.000000
-610.175476 429.340027 192.519806 -0.635249 -0.534942 0.557042 0.000000 0.000000
-637.690369 418.322479 150.561417 -0.635249 -0.534942 0.557042 0.000000 0.000000
-639.346497 568.903198 208.896820 -0.757699 0.155292 0.633858 0.000000 0.000000
-621.667725 644.094177 211.608246 -0.757699 0.155292 0.633858 0.000000 0.000000
-674.017029 634.459778 151.391464 -0.757699 0.155292 0.633858 0.000000 0.000000
-621.667725 644.094177 211.608246 -0.743088 0.300519 0.597920 0.000000 0.000000
-630.412231 692.640747 176.340790 -0.743088 0.300519 0.597920 0.000000 0.000000
-674.017029 634.459778 151.391464 -0.743088 0.300519 0.597920 0.000000 0.000000
-658.155273 523.695923 182.824600 -0.697877 -0.189864 0.690594 0.000000 0.000000
-622.514709 469.092346 203.828918 -0.697877 -0.189864 0.690594 0.000000 0.000000
-603.644531 509.468170 233.998596 -0.697877 -0.189864 0.690594 0.000000 0.000000
-603.644531 509.468170 233.998596 -0.695905 -0.118913 0.708220 0.000000 0.000000
-639.346497 568.903198 208.896820 -0.695905 -0.118913 0.708220 0.000000 0.000000
-658.155273 523.695923 182.824600 -0.695905 -0.118913 0.708220 0.000000 0.000000
-425.723633 304.955963 152.367477 0.089539 -0.847918 0.522511 0.000000 0.000000
-362.280640 310.483002 150.464859 0.089539 -0.847918 0.522511 0.000000 0.000000
-387.303558 327.127441 181.763077 0.089539 -0.847918 0.522511 0.000000 0.000000
-316.762451 351.435638 185.950745 0.230334 -0.770754 0.594040 0.000000 0.000000
-387.303558 327.127441 181.763077 0.230334 -0.770754 0.594040 0.000000 0.000000
-362.280640 310.483002 150.464859 0.230334 -0.770754 0.594040 0.000000 0.000000
-253.292633 390.248840 178.467926 0.473498 -0.662364 0.580581 0.000000 0.000000
-316.762451 351.435638 185.950745 0.473498 -0.662364 0.580581 0.000000 0.000000
-282.534637 344.836975 150.507736 0.473498 -0.662364 0.580581 0.000000 0.000000
-387.303558 327.127441 181.763077 0.009117 -0.804030 0.594519 0.000000 0.000000
-428.492584 339.501923 199.130005 0.009117 -0.804030 0.594519 0.000000 0.000000
-425.723633 304.955963 152.367477 0.009117 -0.804030 0.594519 0.000000 0.000000
-387.303558 327.127441 181.763077 0.208873 -0.720126 0.661658 0.000000 0.000000
-316.762451 351.435638 185.950745 0.208873 -0.720126 0.661658 0.000000 0.000000
-373.715912 375.612183 230.242828 0.208873 -0.720126 0.661658 0.000000 0.000000
-428.492584 339.501923 199.130005 0.077612 -0.715730 0.694051 0.000000 0.000000
-387.303558 327.127441 181.763077 0.077612 -0.715730 0.694051 0.000000 0.000000
-373.715912 375.612183 230.242828 0.077612 -0.715730 0.694051 0.000000 0.000000
-468.035950 420.042542 150.186691 0.424797 -0.550527 -0.718657 0.000000 0.000000
-450.143921 352.539948 212.473038 0.424797 -0.550527 -0.718657 0.000000 0.000000
-499.946350 344.352386 189.306946 0.424797 -0.550527 -0.718657 0.000000 0.000000
-450.143921 352.539948 212.473038 -0.193224 -0.717672 0.669038 0.000000 0.000000
-490.545166 372.137970 221.827499 -0.193224 -0.717672 0.669038 0.000000 0.000000
-499.946350 344.352386 189.306946 -0.193224 -0.717672 0.669038 0.000000 0.000000
-251.945877 729.777893 186.254898 0.640088 0.429972 0.636719 0.000000 0.000000
-241.444336 661.839966 221.575867 0.640088 0.429972 0.636719 0.000000 0.000000
-200.146820 703.610901 151.852158 0.640088 0.429972 0.636719 0.000000 0.000000
-213.501205 507.477234 210.799133 0.691498 -0.043626 0.721060 0.000000 0.000000
-190.670151 577.059814 193.114014 0.691498 -0.043626 0.721060 0.000000 0.000000
-222.808960 591.269348 224.794876 0.691498 -0.043626 0.721060 0.000000 0.000000
-222.808960 591.269348 224.794876 0.665790 0.208492 0.716419 0.000000 0.000000
-197.480545 629.559937 190.113098 0.665790 0.208492 0.716419 0.000000 0.000000
-241.444336 661.839966 221.575867 0.665790 0.208492 0.716419 0.000000 0.000000
-217.364700 443.709717 185.420258 0.579904 -0.475726 0.661359 0.000000 0.000000
-285.369171 407.417725 218.943695 0.579904 -0.475726 0.661359 0.000000 0.000000
-253.292633 390.248840 178.467926 0.579904 -0.475726 0.661359 0.000000 0.000000
-261.031097 473.509491 239.136536 0.572471 -0.425034 0.701159 0.000000 0.000000
-285.369171 407.417725 218.943695 0.572471 -0.425034 0.701159 0.000000 0.000000
-217.364700 443.709717 185.420258 0.572471 -0.425034 0.701159 0.000000 0.000000
-217.364700 443.709717 185.420258 0.642395 -0.316673 0.697887 0.000000 0.000000
-213.501205 507.477234 210.799133 0.642395 -0.316673 0.697887 0.000000 0.000000
-261.031097 473.509491 239.136536 0.642395 -0.316673 0.697887 0.000000 0.000000
-241.444336 661.839966 221.575867 0.558508 0.448961 0.697498 0.000000 0.000000
-251.945877 729.777893 186.254898 0.558508 0.448961 0.697498 0.000000 0.000000
-288.189178 699.782898 234.582993 0.558508 0.448961 0.697498 0.000000 0.000000
-222.808960 591.269348 224.794876 0.634317 -0.058297 0.770872 0.000000 0.000000
-265.773682 573.290833 258.789032 0.634317 -0.058297 0.770872 0.000000 0.000000
-213.501205 507.477234 210.799133 0.634317 -0.058297 0.770872 0.000000 0.000000
-241.444336 661.839966 221.575867 0.561018 0.184951 0.806878 0.000000 0.000000
-265.773682 573.290833 258.789032 0.561018 0.184951 0.806878 0.000000 0.000000
-222.808960 591.269348 224.794876 0.561018 0.184951 0.806878 0.000000 0.000000
-265.773682 573.290833 258.789032 0.575357 -0.131644 0.807238 0.000000 0.000000
-261.031097 473.509491 239.136536 0.575357 -0.131644 0.807238 0.000000 0.000000
-213.501205 507.477234 210.799133 0.575357 -0.131644 0.807238 0.000000 0.000000
-285.369171 407.417725 218.943695 0.458094 -0.627777 0.629322 0.000000 0.000000
-316.762451 351.435638 185.950745 0.458094 -0.627777 0.629322 0.000000 0.000000
-253.292633 390.248840 178.467926 0.458094 -0.627777 0.629322 0.000000 0.000000
-288.189178 699.782898 234.582993 0.506169 0.353992 0.786436 0.000000 0.000000
-287.091522 656.559937 253.332123 0.506169 0.353992 0.786436 0.000000 0.000000
-241.444336 661.839966 221.575867 0.506169 0.353992 0.786436 0.000000 0.000000
-276.681152 782.469910 151.738663 0.457780 0.627481 0.629845 0.000000 0.000000
-319.818268 754.480530 210.975616 0.457780 0.627481 0.629845 0.000000 0.000000
-251.945877 729.777893 186.254898 0.457780 0.627481 0.629845 0.000000 0.000000
-288.189178 699.782898 234.582993 0.455891 0.561624 0.690465 0.000000 0.000000
-251.945877 729.777893 186.254898 0.455891 0.561624 0.690465 0.000000 0.000000
-319.818268 754.480530 210.975616 0.455891 0.561624 0.690465 0.000000 0.000000
-265.773682 573.290833 258.789032 0.545199 0.193038 0.815778 0.000000 0.000000
-241.444336 661.839966 221.575867 0.545199 0.193038 0.815778 0.000000 0.000000
-287.091522 656.559937 253.332123 0.545199 0.193038 0.815778 0.000000 0.000000
-287.091522 656.559937 253.332123 0.422497 0.166550 0.890931 0.000000 0.000000
-344.523499 630.125305 285.509155 0.422497 0.166550 0.890931 0.000000 0.000000
-265.773682 573.290833 258.789032 0.422497 0.166550 0.890931 0.000000 0.000000
-261.031097 473.509491 239.136536 0.484341 -0.146847 0.862467 0.000000 0.000000
-265.773682 573.290833 258.789032 0.484341 -0.146847 0.862467 0.000000 0.000000
-320.270538 538.363281 283.446289 0.484341 -0.146847 0.862467 0.000000 0.000000
-327.125397 453.760773 264.737457 0.432979 -0.405419 0.805086 0.000000 0.000000
-285.369171 407.417725 218.943695 0.432979 -0.405419 0.805086 0.000000 0.000000
-261.031097 473.509491 239.136536 0.432979 -0.405419 0.805086 0.000000 0.000000
-320.270538 538.363281 283.446289 0.410247 -0.228480 0.882890 0.000000 0.000000
-327.125397 453.760773 264.737457 0.410247 -0.228480 0.882890 0.000000 0.000000
-261.031097 473.509491 239.136536 0.410247 -0.228480 0.882890 0.000000 0.000000
-344.523499 630.125305 285.509155 0.369679 0.076891 0.925973 0.000000 0.000000
-320.270538 538.363281 283.446289 0.369679 0.076891 0.925973 0.000000 0.000000
-265.773682 573.290833 258.789032 0.369679 0.076891 0.925973 0.000000 0.000000
-288.189178 699.782898 234.582993 0.347193 0.380602 0.857088 0.000000 0.000000
-352.563324 698.490173 261.234039 0.347193 0.380602 0.857088 0.000000 0.000000
-287.091522 656.559937 253.332123 0.347193 0.380602 0.857088 0.000000 0.000000
-352.563324 698.490173 261.234039 0.330017 0.350094 0.876654 0.000000 0.000000
-344.523499 630.125305 285.509155 0.330017 0.350094 0.876654 0.000000 0.000000
-287.091522 656.559937 253.332123 0.330017 0.350094 0.876654 0.000000 0.000000
-319.818268 754.480530 210.975616 0.316717 0.524297 0.790445 0.000000 0.000000
-352.563324 698.490173 261.234039 0.316717 0.524297 0.790445 0.000000 0.000000
-288.189178 699.782898 234.582993 0.316717 0.524297 0.790445 0.000000 0.000000
-320.270538 538.363281 283.446289 0.330063 -0.229239 0.915701 0.000000 0.000000
-359.902985 489.196960 285.423309 0.330063 -0.229239 0.915701 0.000000 0.000000
-327.125397 453.760773 264.737457 0.330063 -0.229239 0.915701 0.000000 0.000000
-327.125397 453.760773 264.737457 0.291652 -0.526399 0.798651 0.000000 0.000000
-373.715912 375.612183 230.242828 0.291652 -0.526399 0.798651 0.000000 0.000000
-285.369171 407.417725 218.943695 0.291652 -0.526399 0.798651 0.000000 0.000000
-316.762451 351.435638 185.950745 0.311784 -0.606091 0.731741 0.000000 0.000000
-285.369171 407.417725 218.943695 0.311784 -0.606091 0.731741 0.000000 0.000000
-373.715912 375.612183 230.242828 0.311784 -0.606091 0.731741 0.000000 0.000000
-386.576996 755.262451 232.080048 0.255969 0.558530 0.789002 0.000000 0.000000
-352.563324 698.490173 261.234039 0.255969 0.558530 0.789002 0.000000 0.000000
-319.818268 754.480530 210.975616 0.255969 0.558530 0.789002 0.000000 0.000000
-344.523499 630.125305 285.509155 0.270175 0.049792 0.961523 0.000000 0.000000
-374.185059 559.414307 297.505432 0.270175 0.049792 0.961523 0.000000 0.000000
-320.270538 538.363281 283.446289 0.270175 0.049792 0.961523 0.000000 0.000000
-373.715912 375.612183 230.242828 0.203788 -0.494463 0.844972 0.000000 0.000000
-327.125397 453.760773 264.737457 0.203788 -0.494463 0.844972 0.000000 0.000000
-412.826202 419.923035 265.605286 0.203788 -0.494463 0.844972 0.000000 0.000000
-359.902985 489.196960 285.423309 0.160350 -0.382784 0.909815 0.000000 0.000000
-412.826202 419.923035 265.605286 0.160350 -0.382784 0.909815 0.000000 0.000000
-327.125397 453.760773 264.737457 0.160350 -0.382784 0.909815 0.000000 0.000000
-359.902985 489.196960 285.423309 0.204155 -0.125528 0.970857 0.000000 0.000000
-320.270538 538.363281 283.446289 0.204155 -0.125528 0.970857 0.000000 0.000000
-374.185059 559.414307 297.505432 0.204155 -0.125528 0.970857 0.000000 0.000000
-344.523499 630.125305 285.509155 0.153405 0.346624 0.925375 0.000000 0.000000
-352.563324 698.490173 261.234039 0.153405 0.346624 0.925375 0.000000 0.000000
-421.118683 668.418823 283.862885 0.153405 0.346624 0.925375 0.000000 0.000000
-386.576996 755.262451 232.080048 0.095966 0.499601 0.860923 0.000000 0.000000
-439.656097 707.831848 265.521118 0.095966 0.499601 0.860923 0.000000 0.000000
-352.563324 698.490173 261.234039 0.095966 0.499601 0.860923 0.000000 0.000000
-374.185059 559.414307 297.505432 0.115667 -0.145542 0.982567 0.000000 0.000000
-432.373291 511.577362 297.269501 0.115667 -0.145542 0.982567 0.000000 0.000000
-359.902985 489.196960 285.423309 0.115667 -0.145542 0.982567 0.000000 0.000000
-374.185059 559.414307 297.505432 0.103942 0.123819 0.986846 0.000000 0.000000
-344.523499 630.125305 285.509155 0.103942 0.123819 0.986846 0.000000 0.000000
-444.598175 595.730774 300.365265 0.103942 0.123819 0.986846 0.000000 0.000000
-439.656097 707.831848 265.521118 0.092444 0.455526 0.885410 0.000000 0.000000
-421.118683 668.418823 283.862885 0.092444 0.455526 0.885410 0.000000 0.000000
-352.563324 698.490173 261.234039 0.092444 0.455526 0.885410 0.000000 0.000000
-421.118683 668.418823 283.862885 0.077424 0.196882 0.977365 0.000000 0.000000
-444.598175 595.730774 300.365265 0.077424 0.196882 0.977365 0.000000 0.000000
-344.523499 630.125305 285.509155 0.077424 0.196882 0.977365 0.000000 0.000000
-412.826202 419.923035 265.605286 0.057575 -0.315003 0.947343 0.000000 0.000000
-359.902985 489.196960 285.423309 0.057575 -0.315003 0.947343 0.000000 0.000000
-432.373291 511.577362 297.269501 0.057575 -0.315003 0.947343 0.000000 0.000000
-444.598175 595.730774 300.365265 0.023375 -0.033361 0.999170 0.000000 0.000000
-432.373291 511.577362 297.269501 0.023375 -0.033361 0.999170 0.000000 0.000000
-374.185059 559.414307 297.505432 0.023375 -0.033361 0.999170 0.000000 0.000000
-412.826202 419.923035 265.605286 -0.015726 -0.329491 0.944028 0.000000 0.000000
-432.373291 511.577362 297.269501 -0.015726 -0.329491 0.944028 0.000000 0.000000
-475.662323 454.521301 276.634247 -0.015726 -0.329491 0.944028 0.000000 0.000000
-373.715912 375.612183 230.242828 0.005208 -0.620947 0.783836 0.000000 0.000000
-412.826202 419.923035 265.605286 0.005208 -0.620947 0.783836 0.000000 0.000000
-450.143921 352.539948 212.473038 0.005208 -0.620947 0.783836 0.000000 0.000000
-468.458313 770.717834 216.218796 -0.039800 0.605143 0.795121 0.000000 0.000000
-439.656097 707.831848 265.521118 -0.039800 0.605143 0.795121 0.000000 0.000000
-386.576996 755.262451 232.080048 -0.039800 0.605143 0.795121 0.000000 0.000000
-478.491272 694.379395 268.566437 -0.136638 0.261086 0.955596 0.000000 0.000000
-444.598175 595.730774 300.365265 -0.136638 0.261086 0.955596 0.000000 0.000000
-421.118683 668.418823 283.862885 -0.136638 0.261086 0.955596 0.000000 0.000000
-439.656097 707.831848 265.521118 -0.065216 0.395648 0.916084 0.000000 0.000000
-478.491272 694.379395 268.566437 -0.065216 0.395648 0.916084 0.000000 0.000000
-421.118683 668.418823 283.862885 -0.065216 0.395648 0.916084 0.000000 0.000000
-450.143921 352.539948 212.473038 -0.095999 -0.582993 0.806786 0.000000 0.000000
-412.826202 419.923035 265.605286 -0.095999 -0.582993 0.806786 0.000000 0.000000
-490.545166 372.137970 221.827499 -0.095999 -0.582993 0.806786 0.000000 0.000000
-432.373291 511.577362 297.269501 -0.151593 -0.058320 0.986721 0.000000 0.000000
-444.598175 595.730774 300.365265 -0.151593 -0.058320 0.986721 0.000000 0.000000
-514.827576 561.479614 287.551270 -0.151593 -0.058320 0.986721 0.000000 0.000000
-468.458313 770.717834 216.218796 -0.134841 0.572366 0.808836 0.000000 0.000000
-478.491272 694.379395 268.566437 -0.134841 0.572366 0.808836 0.000000 0.000000
-439.656097 707.831848 265.521118 -0.134841 0.572366 0.808836 0.000000 0.000000
-475.662323 454.521301 276.634247 -0.190969 -0.202485 0.960485 0.000000 0.000000
-432.373291 511.577362 297.269501 -0.190969 -0.202485 0.960485 0.000000 0.000000
-528.276367 497.255920 275.182312 -0.190969 -0.202485 0.960485 0.000000 0.000000
-475.662323 454.521301 276.634247 -0.145007 -0.529745 0.835669 0.000000 0.000000
-490.545166 372.137970 221.827499 -0.145007 -0.529745 0.835669 0.000000 0.000000
-412.826202 419.923035 265.605286 -0.145007 -0.529745 0.835669 0.000000 0.000000
-514.827576 561.479614 287.551270 -0.201557 -0.144372 0.968778 0.000000 0.000000
-528.276367 497.255920 275.182312 -0.201557 -0.144372 0.968778 0.000000 0.000000
-432.373291 511.577362 297.269501 -0.201557 -0.144372 0.968778 0.000000 0.000000
-475.662323 454.521301 276.634247 -0.203385 -0.516581 0.831733 0.000000 0.000000
-528.526428 412.325104 237.499710 -0.203385 -0.516581 0.831733 0.000000 0.000000
-490.545166 372.137970 221.827499 -0.203385 -0.516581 0.831733 0.000000 0.000000
-444.598175 595.730774 300.365265 -0.172797 0.247906 0.953249 0.000000 0.000000
-478.491272 694.379395 268.566437 -0.172797 0.247906 0.953249 0.000000 0.000000
-522.932556 645.822937 273.138275 -0.172797 0.247906 0.953249 0.000000 0.000000
-522.932556 645.822937 273.138275 -0.243649 0.140571 0.959622 0.000000 0.000000
-514.827576 561.479614 287.551270 -0.243649 0.140571 0.959622 0.000000 0.000000
-444.598175 595.730774 300.365265 -0.243649 0.140571 0.959622 0.000000 0.000000
-528.526428 412.325104 237.499710 -0.339681 -0.374577 0.862733 0.000000 0.000000
-475.662323 454.521301 276.634247 -0.339681 -0.374577 0.862733 0.000000 0.000000
-562.357117 445.509613 238.587555 -0.339681 -0.374577 0.862733 0.000000 0.000000
-528.526428 412.325104 237.499710 -0.709080 -0.462634 -0.532142 0.000000 0.000000
-468.035950 420.042542 150.186691 -0.709080 -0.462634 -0.532142 0.000000 0.000000
-490.545166 372.137970 221.827499 -0.709080 -0.462634 -0.532142 0.000000 0.000000
-478.491272 694.379395 268.566437 -0.283930 0.567365 0.772969 0.000000 0.000000
-468.458313 770.717834 216.218796 -0.283930 0.567365 0.772969 0.000000 0.000000
-546.812683 750.853882 202.017670 -0.283930 0.567365 0.772969 0.000000 0.000000
-546.812683 750.853882 202.017670 -0.335620 0.519753 0.785631 0.000000 0.000000
-571.170410 702.619507 223.522675 -0.335620 0.519753 0.785631 0.000000 0.000000
-478.491272 694.379395 268.566437 -0.335620 0.519753 0.785631 0.000000 0.000000
-522.932556 645.822937 273.138275 -0.367636 0.414845 0.832314 0.000000 0.000000
-478.491272 694.379395 268.566437 -0.367636 0.414845 0.832314 0.000000 0.000000
-571.170410 702.619507 223.522675 -0.367636 0.414845 0.832314 0.000000 0.000000
-562.357117 445.509613 238.587555 -0.336886 -0.385584 0.858972 0.000000 0.000000
-475.662323 454.521301 276.634247 -0.336886 -0.385584 0.858972 0.000000 0.000000
-528.276367 497.255920 275.182312 -0.336886 -0.385584 0.858972 0.000000 0.000000
-514.827576 561.479614 287.551270 -0.396572 0.117474 0.910456 0.000000 0.000000
-522.932556 645.822937 273.138275 -0.396572 0.117474 0.910456 0.000000 0.000000
-575.632874 626.666809 252.654999 -0.396572 0.117474 0.910456 0.000000 0.000000
-596.818420 567.190857 246.080353 -0.454250 -0.075830 0.887641 0.000000 0.000000
-528.276367 497.255920 275.182312 -0.454250 -0.075830 0.887641 0.000000 0.000000
-514.827576 561.479614 287.551270 -0.454250 -0.075830 0.887641 0.000000 0.000000
-571.170410 702.619507 223.522675 -0.446038 0.343248 0.826578 0.000000 0.000000
-575.632874 626.666809 252.654999 -0.446038 0.343248 0.826578 0.000000 0.000000
-522.932556 645.822937 273.138275 -0.446038 0.343248 0.826578 0.000000 0.000000
-575.632874 626.666809 252.654999 -0.447152 0.060629 0.892401 0.000000 0.000000
-596.818420 567.190857 246.080353 -0.447152 0.060629 0.892401 0.000000 0.000000
-514.827576 561.479614 287.551270 -0.447152 0.060629 0.892401 0.000000 0.000000
-562.357117 445.509613 238.587555 -0.446322 -0.479776 0.755388 0.000000 0.000000
-557.400757 409.136841 218.414276 -0.446322 -0.479776 0.755388 0.000000 0.000000
-528.526428 412.325104 237.499710 -0.446322 -0.479776 0.755388 0.000000 0.000000
-557.400757 409.136841 218.414276 0.521257 -0.820300 -0.235371 0.000000 0.000000
-516.693787 454.519531 150.399628 0.521257 -0.820300 -0.235371 0.000000 0.000000
-493.344604 469.342682 150.448410 0.521257 -0.820300 -0.235371 0.000000 0.000000
-596.818420 567.190857 246.080353 -0.491111 -0.122439 0.862449 0.000000 0.000000
-603.644531 509.468170 233.998596 -0.491111 -0.122439 0.862449 0.000000 0.000000
-528.276367 497.255920 275.182312 -0.491111 -0.122439 0.862449 0.000000 0.000000
-603.644531 509.468170 233.998596 -0.495125 -0.260143 0.828961 0.000000 0.000000
-562.357117 445.509613 238.587555 -0.495125 -0.260143 0.828961 0.000000 0.000000
-528.276367 497.255920 275.182312 -0.495125 -0.260143 0.828961 0.000000 0.000000
-562.357117 445.509613 238.587555 -0.534178 -0.464526 0.706307 0.000000 0.000000
-574.859558 398.390717 198.142700 -0.534178 -0.464526 0.706307 0.000000 0.000000
-557.400757 409.136841 218.414276 -0.534178 -0.464526 0.706307 0.000000 0.000000
-562.357117 445.509613 238.587555 -0.563709 -0.308932 0.766024 0.000000 0.000000
-603.644531 509.468170 233.998596 -0.563709 -0.308932 0.766024 0.000000 0.000000
-622.514709 469.092346 203.828918 -0.563709 -0.308932 0.766024 0.000000 0.000000
-574.859558 398.390717 198.142700 0.643790 -0.757753 -0.106513 0.000000 0.000000
-543.912415 431.400848 150.354462 0.643790 -0.757753 -0.106513 0.000000 0.000000
-516.693787 454.519531 150.399628 0.643790 -0.757753 -0.106513 0.000000 0.000000
-575.632874 626.666809 252.654999 -0.557574 0.325641 0.763590 0.000000 0.000000
-571.170410 702.619507 223.522675 -0.557574 0.325641 0.763590 0.000000 0.000000
-621.667725 644.094177 211.608246 -0.557574 0.325641 0.763590 0.000000 0.000000
-574.859558 398.390717 198.142700 -0.524833 -0.469938 0.709724 0.000000 0.000000
-562.357117 445.509613 238.587555 -0.524833 -0.469938 0.709724 0.000000 0.000000
-610.175476 429.340027 192.519806 -0.524833 -0.469938 0.709724 0.000000 0.000000
-607.817810 748.866333 151.721909 -0.539917 0.554850 0.632954 0.000000 0.000000
-571.170410 702.619507 223.522675 -0.539917 0.554850 0.632954 0.000000 0.000000
-546.812683 750.853882 202.017670 -0.539917 0.554850 0.632954 0.000000 0.000000
-596.818420 567.190857 246.080353 -0.629052 0.139534 0.764738 0.000000 0.000000
-575.632874 626.666809 252.654999 -0.629052 0.139534 0.764738 0.000000 0.000000
-621.667725 644.094177 211.608246 -0.629052 0.139534 0.764738 0.000000 0.000000
-622.514709 469.092346 203.828918 -0.570142 -0.383646 0.726466 0.000000 0.000000
-610.175476 429.340027 192.519806 -0.570142 -0.383646 0.726466 0.000000 0.000000
-562.357117 445.509613 238.587555 -0.570142 -0.383646 0.726466 0.000000 0.000000
-610.175476 429.340027 192.519806 -0.548868 -0.505331 0.665872 0.000000 0.000000
-584.572632 389.159424 183.130737 -0.548868 -0.505331 0.665872 0.000000 0.000000
-574.859558 398.390717 198.142700 -0.548868 -0.505331 0.665872 0.000000 0.000000
-639.346497 568.903198 208.896820 -0.657964 -0.078941 0.748900 0.000000 0.000000
-603.644531 509.468170 233.998596 -0.657964 -0.078941 0.748900 0.000000 0.000000
-596.818420 567.190857 246.080353 -0.657964 -0.078941 0.748900 0.000000 0.000000
-621.667725 644.094177 211.608246 -0.613118 0.389046 0.687553 0.000000 0.000000
-571.170410 702.619507 223.522675 -0.613118 0.389046 0.687553 0.000000 0.000000
-630.412231 692.640747 176.340790 -0.613118 0.389046 0.687553 0.000000 0.000000
-596.818420 567.190857 246.080353 -0.650111 0.125831 0.749348 0.000000 0.000000
-621.667725 644.094177 211.608246 -0.650111 0.125831 0.749348 0.000000 0.000000
-639.346497 568.903198 208.896820 -0.650111 0.125831 0.749348 0.000000 0.000000
-607.817810 748.866333 151.721909 -0.586564 0.510882 0.628444 0.000000 0.000000
-630.412231 692.640747 176.340790 -0.586564 0.510882 0.628444 0.000000 0.000000
-571.170410 702.619507 223.522675 -0.586564 0.510882 0.628444 0.000000 0.000000
-373.715912 375.612183 230.242828 0.037094 -0.683990 0.728547 0.000000 0.000000
-450.143921 352.539948 212.473038 0.037094 -0.683990 0.728547 0.000000 0.000000
-428.492584 339.501923 199.130005 0.037094 -0.683990 0.728547 0.000000 0.000000
-468.035950 420.042542 150.186691 -0.219780 -0.692387 -0.687239 0.000000 0.000000
-443.353546 412.009827 150.386108 -0.219780 -0.692387 -0.687239 0.000000 0.000000
-450.143921 352.539948 212.473038 -0.219780 -0.692387 -0.687239 0.000000 0.000000
-516.693787 454.519531 150.399628 0.628382 -0.766087 -0.135082 0.000000 0.000000
-557.400757 409.136841 218.414276 0.628382 -0.766087 -0.135082 0.000000 0.000000
-574.859558 398.390717 198.142700 0.628382 -0.766087 -0.135082 0.000000 0.000000
-493.344604 469.342682 150.448410 0.360366 -0.840397 -0.404808 0.000000 0.000000
-528.526428 412.325104 237.499710 0.360366 -0.840397 -0.404808 0.000000 0.000000
-557.400757 409.136841 218.414276 0.360366 -0.840397 -0.404808 0.000000 0.000000
-543.912415 431.400848 150.354462 0.709863 -0.703841 -0.026485 0.000000 0.000000
-574.859558 398.390717 198.142700 0.709863 -0.703841 -0.026485 0.000000 0.000000
-584.572632 389.159424 183.130737 0.709863 -0.703841 -0.026485 0.000000 0.000000
-443.353546 412.009827 150.386108 -0.586970 -0.551642 -0.592586 0.000000 0.000000
-426.506500 393.979645 150.483124 -0.586970 -0.551642 -0.592586 0.000000 0.000000
-450.143921 352.539948 212.473038 -0.586970 -0.551642 -0.592586 0.000000 0.000000
-493.344604 469.342682 150.448410 -0.744545 -0.379302 -0.549347 0.000000 0.000000
-468.035950 420.042542 150.186691 -0.744545 -0.379302 -0.549347 0.000000 0.000000
-528.526428 412.325104 237.499710 -0.744545 -0.379302 -0.549347 0.000000 0.000000
-507.248688 788.881592 182.775253 -0.362361 0.806869 0.466537 0.000000 0.000000
-479.418243 819.883423 150.773972 -0.362361 0.806869 0.466537 0.000000 0.000000
-572.632324 778.136353 150.575333 -0.362361 0.806869 0.466537 0.000000 0.000000
-584.572632 389.159424 183.130737 -0.633913 -0.566076 0.526984 0.000000 0.000000
-637.690369 418.322479 150.561417 -0.633913 -0.566076 0.526984 0.000000 0.000000
-597.350281 373.091492 150.500580 -0.633913 -0.566076 0.526984 0.000000 0.000000
-316.762451 351.435638 185.950745 0.346032 -0.803849 0.483826 0.000000 0.000000
-362.280640 310.483002 150.464859 0.346032 -0.803849 0.483826 0.000000 0.000000
-282.534637 344.836975 150.507736 0.346032 -0.803849 0.483826 0.000000 0.000000
-282.534637 344.836975 150.507736 0.560530 -0.664899 0.493676 0.000000 0.000000
-226.993057 391.662170 150.510345 0.560530 -0.664899 0.493676 0.000000 0.000000
-253.292633 390.248840 178.467926 0.560530 -0.664899 0.493676 0.000000 0.000000
-428.492584 339.501923 199.130005 -0.651875 -0.491732 -0.577286 0.000000 0.000000
-450.143921 352.539948 212.473038 -0.651875 -0.491732 -0.577286 0.000000 0.000000
-426.506500 393.979645 150.483124 -0.651875 -0.491732 -0.577286 0.000000 0.000000
-426.506500 393.979645 150.483124 -0.998607 -0.009879 -0.051833 0.000000 0.000000
-425.723633 304.955963 152.367477 -0.998607 -0.009879 -0.051833 0.000000 0.000000
-428.492584 339.501923 199.130005 -0.998607 -0.009879 -0.051833 0.000000 0.000000
-597.350281 373.091492 150.500580 0.736576 -0.674928 0.043916 0.000000 0.000000
-543.912415 431.400848 150.354462 0.736576 -0.674928 0.043916 0.000000 0.000000
-584.572632 389.159424 183.130737 0.736576 -0.674928 0.043916 0.000000 0.000000
-607.817810 748.866333 151.721909 -0.818040 0.472396 0.328106 0.000000 0.000000
-674.017029 634.459778 151.391464 -0.818040 0.472396 0.328106 0.000000 0.000000
-630.412231 692.640747 176.340790 -0.818040 0.472396 0.328106 0.000000 0.000000
-468.035950 420.042542 150.186691 -0.928748 0.367870 -0.045822 0.000000 0.000000
-499.946350 344.352386 189.306946 -0.928748 0.367870 -0.045822 0.000000 0.000000
-490.545166 372.137970 221.827499 -0.928748 0.367870 -0.045822 0.000000 0.000000
-282.534637 344.836975 150.507736 0.000333 0.000475 -1.000000 0.758834 0.614175
-362.280640 310.483002 150.464859 0.000333 0.000475 -1.000000 0.761328 0.615203
-426.506500 393.979645 150.483124 0.000333 0.000475 -1.000000 0.763410 0.612741
-362.280640 310.483002 150.464859 -0.028106 -0.021401 -0.999376 0.761328 0.615203
-425.723633 304.955963 152.367477 -0.028106 -0.021401 -0.999376 0.763305 0.615467
-426.506500 393.979645 150.483124 -0.028106 -0.021401 -0.999376 0.763410 0.612741
-426.506500 393.979645 150.483124 0.002362 -0.003174 -0.999992 0.763410 0.612741
-443.353546 412.009827 150.386108 0.002362 -0.003174 -0.999992 0.763884 0.612151
-177.226120 472.356354 150.823074 0.002362 -0.003174 -0.999992 0.755636 0.610181
-443.353546 412.009827 150.386108 0.005396 -0.008244 -0.999951 0.763884 0.612151
-468.035950 420.042542 150.186691 0.005396 -0.008244 -0.999951 0.764827 0.611817
-161.266205 580.540283 150.518951 0.005396 -0.008244 -0.999951 0.755131 0.606903
-468.035950 420.042542 150.186691 -0.001336 0.004623 -0.999988 0.764827 0.611817
-493.344604 469.342682 150.448410 -0.001336 0.004623 -0.999988 0.765467 0.610395
-161.266205 580.540283 150.518951 -0.001336 0.004623 -0.999988 0.755131 0.606903
-226.993057 391.662170 150.510345 0.000135 -0.000105 -1.000000 0.757219 0.612817
-282.534637 344.836975 150.507736 0.000135 -0.000105 -1.000000 0.758834 0.614175
-426.506500 393.979645 150.483124 0.000135 -0.000105 -1.000000 0.763410 0.612741
-177.226120 472.356354 150.823074 0.000180 0.003764 -0.999993 0.755636 0.610181
-226.993057 391.662170 150.510345 0.000180 0.003764 -0.999993 0.757219 0.612817
-426.506500 393.979645 150.483124 0.000180 0.003764 -0.999993 0.763410 0.612741
-161.266205 580.540283 150.518951 0.002358 -0.003159 -0.999992 0.755131 0.606903
-177.226120 472.356354 150.823074 0.002358 -0.003159 -0.999992 0.755636 0.610181
-443.353546 412.009827 150.386108 0.002358 -0.003159 -0.999992 0.763884 0.612151
-177.781296 657.690186 150.570206 -0.000009 0.000662 -1.000000 0.755794 0.604068
-161.266205 580.540283 150.518951 -0.000009 0.000662 -1.000000 0.755131 0.606903
-493.344604 469.342682 150.448410 -0.000009 0.000662 -1.000000 0.765467 0.610395
-200.146820 703.610901 151.852158 -0.012607 0.021768 -0.999683 0.756708 0.602486
-177.781296 657.690186 150.570206 -0.012607 0.021768 -0.999683 0.755794 0.604068
-493.344604 469.342682 150.448410 -0.012607 0.021768 -0.999683 0.765467 0.610395
-670.162415 482.565979 150.558868 0.000067 0.006046 -0.999982 0.770792 0.610015
-682.315247 577.679810 151.133163 0.000067 0.006046 -0.999982 0.771271 0.607012
-516.693787 454.519531 150.399628 0.000067 0.006046 -0.999982 0.766155 0.610790
-637.690369 418.322479 150.561417 -0.002056 -0.001079 -0.999997 0.769768 0.612067
-670.162415 482.565979 150.558868 -0.002056 -0.001079 -0.999997 0.770792 0.610015
-543.912415 431.400848 150.354462 -0.002056 -0.001079 -0.999997 0.766988 0.611529
-543.912415 431.400848 150.354462 -0.002130 -0.000554 -0.999998 0.766988 0.611529
-597.350281 373.091492 150.500580 -0.002130 -0.000554 -0.999998 0.768664 0.613338
-637.690369 418.322479 150.561417 -0.002130 -0.000554 -0.999998 0.769768 0.612067
-516.693787 454.519531 150.399628 -0.000913 0.004729 -0.999988 0.766155 0.610790
-682.315247 577.679810 151.133163 -0.000913 0.004729 -0.999988 0.771271 0.607012
-493.344604 469.342682 150.448410 -0.000913 0.004729 -0.999988 0.765467 0.610395
-682.315247 577.679810 151.133163 -0.000937 0.004686 -0.999989 0.771271 0.607012
-674.017029 634.459778 151.391464 -0.000937 0.004686 -0.999989 0.770835 0.604738
-493.344604 469.342682 150.448410 -0.000937 0.004686 -0.999989 0.765467 0.610395
-572.632324 778.136353 150.575333 0.001746 0.000859 -0.999998 0.767956 0.600839
-479.418243 819.883423 150.773972 0.001746 0.000859 -0.999998 0.764818 0.599444
-493.344604 469.342682 150.448410 0.001746 0.000859 -0.999998 0.765467 0.610395
-276.681152 782.469910 151.738663 0.003344 0.001806 -0.999993 0.758332 0.600869
-200.146820 703.610901 151.852158 0.003344 0.001806 -0.999993 0.756708 0.602486
-493.344604 469.342682 150.448410 0.003344 0.001806 -0.999993 0.765467 0.610395
-340.737427 812.851868 150.988495 0.010288 -0.002998 -0.999943 0.760400 0.599750
-276.681152 782.469910 151.738663 0.010288 -0.002998 -0.999943 0.758332 0.600869
-493.344604 469.342682 150.448410 0.010288 -0.002998 -0.999943 0.765467 0.610395
-411.172241 825.399414 152.722107 -0.022541 0.011586 -0.999679 0.762700 0.599258
-340.737427 812.851868 150.988495 -0.022541 0.011586 -0.999679 0.760400 0.599750
-493.344604 469.342682 150.448410 -0.022541 0.011586 -0.999679 0.765467 0.610395
-479.418243 819.883423 150.773972 0.028551 -0.000206 -0.999592 0.764818 0.599444
-411.172241 825.399414 152.722107 0.028551 -0.000206 -0.999592 0.762700 0.599258
-493.344604 469.342682 150.448410 0.028551 -0.000206 -0.999592 0.765467 0.610395
-607.817810 748.866333 151.721909 -0.027122 -0.006553 -0.999611 0.769675 0.602515
-572.632324 778.136353 150.575333 -0.027122 -0.006553 -0.999611 0.767956 0.600839
-493.344604 469.342682 150.448410 -0.027122 -0.006553 -0.999611 0.765467 0.610395
-674.017029 634.459778 151.391464 -0.001688 0.003865 -0.999991 0.770835 0.604738
-607.817810 748.866333 151.721909 -0.001688 0.003865 -0.999991 0.769675 0.602515
-493.344604 469.342682 150.448410 -0.001688 0.003865 -0.999991 0.765467 0.610395
-670.162415 482.565979 150.558868 -0.000560 0.002613 -0.999997 0.770792 0.610015
-516.693787 454.519531 150.399628 -0.000560 0.002613 -0.999997 0.766155 0.610790
-543.912415 431.400848 150.354462 -0.000560 0.002613 -0.999997 0.766988 0.611529
3 0 1 2
3 3 4 5
3 6 7 8
3 9 10 11
3 12 13 14
3 15 16 17
3 18 19 20
3 21 22 23
3 24 25 26
3 27 28 29
3 30 31 32
3 33 34 35
3 36 37 38
3 39 40 41
3 42 43 44
3 45 46 47
3 48 49 50
3 51 52 53
3 54 55 56
3 57 58 59
3 60 61 62
3 63 64 65
3 66 67 68
3 69 70 71
3 72 73 74
3 75 76 77
3 78 79 80
3 81 82 83
3 84 85 86
3 87 88 89
3 90 91 92
3 93 94 95
3 96 97 98
3 99 100 101
3 102 103 104
3 105 106 107
3 108 109 110
3 111 112 113
3 114 115 116
3 117 118 119
3 120 121 122
3 123 124 125
3 126 127 128
3 129 130 131
3 132 133 134
3 135 136 137
3 138 139 140
3 141 142 143
3 144 145 146
3 147 148 149
3 150 151 152
3 153 154 155
3 156 157 158
3 159 160 161
3 162 163 164
3 165 166 167
3 168 169 170
3 171 172 173
3 174 175 176
3 177 178 179
3 180 181 182
3 183 184 185
3 186 187 188
3 189 190 191
3 192 193 194
3 195 196 197
3 198 199 200
3 201 202 203
3 204 205 206
3 207 208 209
3 210 211 212
3 213 214 215
3 216 217 218
3 219 220 221
3 222 223 224
3 225 226 227
3 228 229 230
3 231 232 233
3 234 235 236
3 237 238 239
3 240 241 242
3 243 244 245
3 246 247 248
3 249 250 251
3 252 253 254
3 255 256 257
3 258 259 260
3 261 262 263
3 264 265 266
3 267 268 269
3 270 271 272
3 273 274 275
3 276 277 278
3 279 280 281
3 282 283 284
3 285 286 287
3 288 289 290
3 291 292 293
3 294 295 296
3 297 298 299
3 300 301 302
3 303 304 305
3 306 307 308
3 309 310 311
3 312 313 314
3 315 316 317
3 318 319 320
3 321 322 323
3 324 325 326
3 327 328 329
3 330 331 332
3 333 334 335
3 336 337 338
3 339 340 341
3 342 343 344
3 345 346 347
3 348 349 350
3 351 352 353
3 354 355 356
3 357 358 359
3 360 361 362
3 363 364 365
3 366 367 368
3 369 370 371
3 372 373 374
3 375 376 377
3 378 379 380
3 381 382 383
3 384 385 386
3 387 388 389
3 390 391 392
3 393 394 395
3 396 397 398
3 399 400 401
3 402 403 404
3 405 406 407
3 408 409 410
3 411 412 413
3 414 415 416
3 417 418 419
3 420 421 422
3 423 424 425
3 426 427 428
3 429 430 431
3 432 433 434
3 435 436 437
3 438 439 440
3 441 442 443
3 444 445 446
3 447 448 449
3 450 451 452
3 453 454 455
3 456 457 458
3 459 460 461
3 462 463 464
3 465 466 467
3 468 469 470
3 471 472 473
3 474 475 476
3 477 478 479
3 480 481 482
3 483 484 485
