ply
format ascii 1.0
comment Created by Blender 2.82 (sub 7) - www.blender.org, source file: ''
element vertex 486
property float x
property float y
property float z
property float nx
property float ny
property float nz
property float s
property float t
element face 162
property list uchar uint vertex_indices
end_header
-537.001648 -118.971954 150.930496 0.802062 0.352915 0.481817 0.000000 0.000000
-573.078918 -36.614265 150.662659 0.802062 0.352915 0.481817 0.000000 0.000000
-567.105652 -91.922394 181.230545 0.802062 0.352915 0.481817 0.000000 0.000000
-537.001648 -118.971954 150.930496 0.804926 0.094000 0.585882 0.000000 0.000000
-561.326416 -187.891617 195.407135 0.804926 0.094000 0.585882 0.000000 0.000000
-529.367615 -181.882797 150.535812 0.804926 0.094000 0.585882 0.000000 0.000000
-537.595703 -245.117966 151.923981 0.816825 -0.093789 0.569210 0.000000 0.000000
-529.367615 -181.882797 150.535812 0.816825 -0.093789 0.569210 0.000000 0.000000
-561.326416 -187.891617 195.407135 0.816825 -0.093789 0.569210 0.000000 0.000000
-567.105652 -91.922394 181.230545 0.778280 0.199078 0.595523 0.000000 0.000000
-578.221375 -125.525604 206.990738 0.778280 0.199078 0.595523 0.000000 0.000000
-537.001648 -118.971954 150.930496 0.778280 0.199078 0.595523 0.000000 0.000000
-578.221375 -125.525604 206.990738 0.795367 0.104573 0.597039 0.000000 0.000000
-561.326416 -187.891617 195.407135 0.795367 0.104573 0.597039 0.000000 0.000000
-537.001648 -118.971954 150.930496 0.795367 0.104573 0.597039 0.000000 0.000000
-567.105652 -91.922394 181.230545 0.710132 0.397770 0.580940 0.000000 0.000000
-573.078918 -36.614265 150.662659 0.710132 0.397770 0.580940 0.000000 0.000000
-602.069397 -59.435715 201.726074 0.710132 0.397770 0.580940 0.000000 0.000000
-561.326416 -187.891617 195.407135 0.759122 -0.163892 0.629978 0.000000 0.000000
-592.366028 -230.298019 221.777588 0.759122 -0.163892 0.629978 0.000000 0.000000
-537.595703 -245.117966 151.923981 0.759122 -0.163892 0.629978 0.000000 0.000000
-573.078918 -36.614265 150.662659 0.625053 0.538725 0.564875 0.000000 0.000000
-614.988220 11.819582 150.844986 0.625053 0.538725 0.564875 0.000000 0.000000
-635.606628 -17.366570 201.495026 0.625053 0.538725 0.564875 0.000000 0.000000
-635.606628 -17.366570 201.495026 0.632244 0.507237 0.585643 0.000000 0.000000
-602.069397 -59.435715 201.726074 0.632244 0.507237 0.585643 0.000000 0.000000
-573.078918 -36.614265 150.662659 0.632244 0.507237 0.585643 0.000000 0.000000
-578.373596 -285.270294 186.434540 0.745733 -0.215503 0.630429 0.000000 0.000000
-537.595703 -245.117966 151.923981 0.745733 -0.215503 0.630429 0.000000 0.000000
-592.366028 -230.298019 221.777588 0.745733 -0.215503 0.630429 0.000000 0.000000
-578.373596 -285.270294 186.434540 0.681032 -0.449885 0.577754 0.000000 0.000000
-609.974548 -337.509186 183.007065 0.681032 -0.449885 0.577754 0.000000 0.000000
-590.300171 -349.483368 150.491699 0.681032 -0.449885 0.577754 0.000000 0.000000
-848.323486 73.869514 150.607681 -0.317246 0.802190 0.505812 0.000000 0.000000
-920.638916 45.334953 150.505661 -0.317246 0.802190 0.505812 0.000000 0.000000
-862.043762 48.295036 182.562012 -0.317246 0.802190 0.505812 0.000000 0.000000
-672.869141 52.254826 150.606308 0.267298 0.779012 0.567179 0.000000 0.000000
-747.520447 77.790398 150.714996 0.267298 0.779012 0.567179 0.000000 0.000000
-733.844910 33.687698 204.844452 0.267298 0.779012 0.567179 0.000000 0.000000
-614.988220 11.819582 150.844986 0.500166 0.718812 0.482849 0.000000 0.000000
-672.869141 52.254826 150.606308 0.500166 0.718812 0.482849 0.000000 0.000000
-646.995728 17.054878 176.206696 0.500166 0.718812 0.482849 0.000000 0.000000
-934.444885 8.426308 186.346481 -0.362782 0.715482 0.597055 0.000000 0.000000
-862.043762 48.295036 182.562012 -0.362782 0.715482 0.597055 0.000000 0.000000
-920.638916 45.334953 150.505661 -0.362782 0.715482 0.597055 0.000000 0.000000
-862.043762 48.295036 182.562012 -0.124981 0.800105 0.586696 0.000000 0.000000
-790.332520 61.237026 180.188751 -0.124981 0.800105 0.586696 0.000000 0.000000
-848.323486 73.869514 150.607681 -0.124981 0.800105 0.586696 0.000000 0.000000
-985.447815 -6.687335 150.552780 -0.545431 0.679937 0.490093 0.000000 0.000000
-934.444885 8.426308 186.346481 -0.545431 0.679937 0.490093 0.000000 0.000000
-920.638916 45.334953 150.505661 -0.545431 0.679937 0.490093 0.000000 0.000000
-747.520447 77.790398 150.714996 0.116410 0.784183 0.609513 0.000000 0.000000
-790.332520 61.237026 180.188751 0.116410 0.784183 0.609513 0.000000 0.000000
-733.844910 33.687698 204.844452 0.116410 0.784183 0.609513 0.000000 0.000000
-934.444885 8.426308 186.346481 -0.352258 0.698793 0.622578 0.000000 0.000000
-865.716797 17.251978 215.327087 -0.352258 0.698793 0.622578 0.000000 0.000000
-862.043762 48.295036 182.562012 -0.352258 0.698793 0.622578 0.000000 0.000000
-733.844910 33.687698 204.844452 0.328961 0.716534 0.615113 0.000000 0.000000
-692.908936 1.847743 220.041779 0.328961 0.716534 0.615113 0.000000 0.000000
-672.869141 52.254826 150.606308 0.328961 0.716534 0.615113 0.000000 0.000000
-646.995728 17.054878 176.206696 0.352633 0.705936 0.614252 0.000000 0.000000
-672.869141 52.254826 150.606308 0.352633 0.705936 0.614252 0.000000 0.000000
-692.908936 1.847743 220.041779 0.352633 0.705936 0.614252 0.000000 0.000000
-798.432495 25.481031 219.813385 0.063277 0.734464 0.675691 0.000000 0.000000
-733.844910 33.687698 204.844452 0.063277 0.734464 0.675691 0.000000 0.000000
-790.332520 61.237026 180.188751 0.063277 0.734464 0.675691 0.000000 0.000000
-646.995728 17.054878 176.206696 0.553193 0.604301 0.573409 0.000000 0.000000
-635.606628 -17.366570 201.495026 0.553193 0.604301 0.573409 0.000000 0.000000
-614.988220 11.819582 150.844986 0.553193 0.604301 0.573409 0.000000 0.000000
-790.332520 61.237026 180.188751 -0.113583 0.749052 0.652702 0.000000 0.000000
-862.043762 48.295036 182.562012 -0.113583 0.749052 0.652702 0.000000 0.000000
-798.432495 25.481031 219.813385 -0.113583 0.749052 0.652702 0.000000 0.000000
-798.432495 25.481031 219.813385 -0.133811 0.726843 0.673642 0.000000 0.000000
-862.043762 48.295036 182.562012 -0.133811 0.726843 0.673642 0.000000 0.000000
-865.716797 17.251978 215.327087 -0.133811 0.726843 0.673642 0.000000 0.000000
-1021.182556 -211.655060 192.103622 -0.852244 -0.035989 0.521905 0.000000 0.000000
-1049.567627 -141.950409 150.558868 -0.852244 -0.035989 0.521905 0.000000 0.000000
-1045.589111 -236.993759 150.501633 -0.852244 -0.035989 0.521905 0.000000 0.000000
-1045.589111 -236.993759 150.501633 -0.805328 -0.330928 0.491867 0.000000 0.000000
-1010.863403 -320.379242 151.255951 -0.805328 -0.330928 0.491867 0.000000 0.000000
-1004.547913 -287.494263 183.721237 -0.805328 -0.330928 0.491867 0.000000 0.000000
-1049.567627 -141.950409 150.558868 -0.793999 0.187119 0.578405 0.000000 0.000000
-1018.189026 -146.723862 195.177750 -0.793999 0.187119 0.578405 0.000000 0.000000
-1015.924500 -102.838356 184.088974 -0.793999 0.187119 0.578405 0.000000 0.000000
-1024.295776 -64.960991 150.537659 -0.818518 0.268819 0.507706 0.000000 0.000000
-1049.567627 -141.950409 150.558868 -0.818518 0.268819 0.507706 0.000000 0.000000
-1015.924500 -102.838356 184.088974 -0.818518 0.268819 0.507706 0.000000 0.000000
-1004.547913 -287.494263 183.721237 -0.769410 -0.234437 0.594178 0.000000 0.000000
-1021.182556 -211.655060 192.103622 -0.769410 -0.234437 0.594178 0.000000 0.000000
-1045.589111 -236.993759 150.501633 -0.769410 -0.234437 0.594178 0.000000 0.000000
-1049.567627 -141.950409 150.558868 -0.817409 0.010416 0.575964 0.000000 0.000000
-1021.182556 -211.655060 192.103622 -0.817409 0.010416 0.575964 0.000000 0.000000
-1018.189026 -146.723862 195.177750 -0.817409 0.010416 0.575964 0.000000 0.000000
-1015.924500 -102.838356 184.088974 -0.715204 0.368166 0.594085 0.000000 0.000000
-986.826538 -38.404812 179.188522 -0.715204 0.368166 0.594085 0.000000 0.000000
-1024.295776 -64.960991 150.537659 -0.715204 0.368166 0.594085 0.000000 0.000000
-985.447815 -6.687335 150.552780 -0.721624 0.480939 0.497953 0.000000 0.000000
-1024.295776 -64.960991 150.537659 -0.721624 0.480939 0.497953 0.000000 0.000000
-986.826538 -38.404812 179.188522 -0.721624 0.480939 0.497953 0.000000 0.000000
-1010.863403 -320.379242 151.255951 -0.626928 -0.522452 0.577932 0.000000 0.000000
-969.660828 -370.265045 150.854660 -0.626928 -0.522452 0.577932 0.000000 0.000000
-945.561768 -336.602600 207.427719 -0.626928 -0.522452 0.577932 0.000000 0.000000
-986.826538 -38.404812 179.188522 -0.683834 0.357204 0.636221 0.000000 0.000000
-1015.924500 -102.838356 184.088974 -0.683834 0.357204 0.636221 0.000000 0.000000
-976.704102 -92.749756 220.580292 -0.683834 0.357204 0.636221 0.000000 0.000000
-934.444885 8.426308 186.346481 -0.580831 0.559266 0.591488 0.000000 0.000000
-985.447815 -6.687335 150.552780 -0.580831 0.559266 0.591488 0.000000 0.000000
-986.826538 -38.404812 179.188522 -0.580831 0.559266 0.591488 0.000000 0.000000
-1021.182556 -211.655060 192.103622 -0.704145 -0.228745 0.672202 0.000000 0.000000
-1004.547913 -287.494263 183.721237 -0.704145 -0.228745 0.672202 0.000000 0.000000
-980.899414 -222.937500 230.461746 -0.704145 -0.228745 0.672202 0.000000 0.000000
-945.561768 -336.602600 207.427719 -0.638716 -0.474963 0.605353 0.000000 0.000000
-1004.547913 -287.494263 183.721237 -0.638716 -0.474963 0.605353 0.000000 0.000000
-1010.863403 -320.379242 151.255951 -0.638716 -0.474963 0.605353 0.000000 0.000000
-961.677551 -279.383881 227.604904 -0.665667 -0.262045 0.698727 0.000000 0.000000
-980.899414 -222.937500 230.461746 -0.665667 -0.262045 0.698727 0.000000 0.000000
-1004.547913 -287.494263 183.721237 -0.665667 -0.262045 0.698727 0.000000 0.000000
-907.476562 -414.669250 150.956528 -0.209942 -0.862623 0.460224 0.000000 0.000000
-796.794495 -441.819916 150.556915 -0.209942 -0.862623 0.460224 0.000000 0.000000
-818.305237 -419.601990 182.388489 -0.209942 -0.862623 0.460224 0.000000 0.000000
-796.794495 -441.819916 150.556915 0.149081 -0.841270 0.519653 0.000000 0.000000
-690.168457 -422.892639 150.608887 0.149081 -0.841270 0.519653 0.000000 0.000000
-743.720947 -400.773041 201.781876 0.149081 -0.841270 0.519653 0.000000 0.000000
-743.720947 -400.773041 201.781876 0.048489 -0.803368 0.593505 0.000000 0.000000
-818.305237 -419.601990 182.388489 0.048489 -0.803368 0.593505 0.000000 0.000000
-796.794495 -441.819916 150.556915 0.048489 -0.803368 0.593505 0.000000 0.000000
-663.286438 -389.874115 175.814896 0.299452 -0.720912 0.624992 0.000000 0.000000
-743.720947 -400.773041 201.781876 0.299452 -0.720912 0.624992 0.000000 0.000000
-690.168457 -422.892639 150.608887 0.299452 -0.720912 0.624992 0.000000 0.000000
-690.168457 -422.892639 150.608887 0.545738 -0.741817 0.389715 0.000000 0.000000
-590.300171 -349.483368 150.491699 0.545738 -0.741817 0.389715 0.000000 0.000000
-663.286438 -389.874115 175.814896 0.545738 -0.741817 0.389715 0.000000 0.000000
-818.305237 -419.601990 182.388489 0.077775 -0.848020 0.524226 0.000000 0.000000
-743.720947 -400.773041 201.781876 0.077775 -0.848020 0.524226 0.000000 0.000000
-783.111145 -404.566376 201.489563 0.077775 -0.848020 0.524226 0.000000 0.000000
-907.476562 -414.669250 150.956528 -0.251330 -0.765004 0.592960 0.000000 0.000000
-818.305237 -419.601990 182.388489 -0.251330 -0.765004 0.592960 0.000000 0.000000
-882.004211 -379.641510 206.943970 -0.251330 -0.765004 0.592960 0.000000 0.000000
-783.111145 -404.566376 201.489563 -0.088440 -0.696996 0.711600 0.000000 0.000000
-856.428101 -372.244965 224.035583 -0.088440 -0.696996 0.711600 0.000000 0.000000
-818.305237 -419.601990 182.388489 -0.088440 -0.696996 0.711600 0.000000 0.000000
-929.700256 -361.324829 196.486389 -0.483634 -0.676012 0.555973 0.000000 0.000000
-969.660828 -370.265045 150.854660 -0.483634 -0.676012 0.555973 0.000000 0.000000
-907.476562 -414.669250 150.956528 -0.483634 -0.676012 0.555973 0.000000 0.000000
-663.286438 -389.874115 175.814896 0.541473 -0.628030 0.558914 0.000000 0.000000
-590.300171 -349.483368 150.491699 0.541473 -0.628030 0.558914 0.000000 0.000000
-609.974548 -337.509186 183.007065 0.541473 -0.628030 0.558914 0.000000 0.000000
-856.428101 -372.244965 224.035583 -0.215191 -0.736850 0.640893 0.000000 0.000000
-882.004211 -379.641510 206.943970 -0.215191 -0.736850 0.640893 0.000000 0.000000
-818.305237 -419.601990 182.388489 -0.215191 -0.736850 0.640893 0.000000 0.000000
-929.700256 -361.324829 196.486389 -0.397106 -0.685900 0.609793 0.000000 0.000000
-907.476562 -414.669250 150.956528 -0.397106 -0.685900 0.609793 0.000000 0.000000
-882.004211 -379.641510 206.943970 -0.397106 -0.685900 0.609793 0.000000 0.000000
-743.720947 -400.773041 201.781876 0.305521 -0.689054 0.657162 0.000000 0.000000
-663.286438 -389.874115 175.814896 0.305521 -0.689054 0.657162 0.000000 0.000000
-694.601013 -354.021027 227.966415 0.305521 -0.689054 0.657162 0.000000 0.000000
-578.221375 -125.525604 206.990738 0.694181 0.054748 0.717715 0.000000 0.000000
-611.006531 -164.740601 241.692215 0.694181 0.054748 0.717715 0.000000 0.000000
-561.326416 -187.891617 195.407135 0.694181 0.054748 0.717715 0.000000 0.000000
-592.366028 -230.298019 221.777588 0.672989 -0.033105 0.738911 0.000000 0.000000
-561.326416 -187.891617 195.407135 0.672989 -0.033105 0.738911 0.000000 0.000000
-611.006531 -164.740601 241.692215 0.672989 -0.033105 0.738911 0.000000 0.000000
-592.366028 -230.298019 221.777588 0.654950 -0.283616 0.700431 0.000000 0.000000
-618.367126 -285.318085 223.811829 0.654950 -0.283616 0.700431 0.000000 0.000000
-578.373596 -285.270294 186.434540 0.654950 -0.283616 0.700431 0.000000 0.000000
-578.221375 -125.525604 206.990738 0.625884 0.283716 0.726481 0.000000 0.000000
-602.069397 -59.435715 201.726074 0.625884 0.283716 0.726481 0.000000 0.000000
-631.393738 -107.246071 245.661453 0.625884 0.283716 0.726481 0.000000 0.000000
-663.286438 -389.874115 175.814896 0.508936 -0.602571 0.614729 0.000000 0.000000
-609.974548 -337.509186 183.007065 0.508936 -0.602571 0.614729 0.000000 0.000000
-639.309753 -333.289429 211.430069 0.508936 -0.602571 0.614729 0.000000 0.000000
-611.006531 -164.740601 241.692215 0.616644 0.165524 0.769644 0.000000 0.000000
-578.221375 -125.525604 206.990738 0.616644 0.165524 0.769644 0.000000 0.000000
-631.393738 -107.246071 245.661453 0.616644 0.165524 0.769644 0.000000 0.000000
-609.974548 -337.509186 183.007065 0.593881 -0.434107 0.677390 0.000000 0.000000
-618.367126 -285.318085 223.811829 0.593881 -0.434107 0.677390 0.000000 0.000000
-639.309753 -333.289429 211.430069 0.593881 -0.434107 0.677390 0.000000 0.000000
-611.006531 -164.740601 241.692215 0.566253 -0.087943 0.819526 0.000000 0.000000
-658.354858 -230.673294 267.332397 0.566253 -0.087943 0.819526 0.000000 0.000000
-592.366028 -230.298019 221.777588 0.566253 -0.087943 0.819526 0.000000 0.000000
-618.367126 -285.318085 223.811829 0.553508 -0.232000 0.799878 0.000000 0.000000
-592.366028 -230.298019 221.777588 0.553508 -0.232000 0.799878 0.000000 0.000000
-658.354858 -230.673294 267.332397 0.553508 -0.232000 0.799878 0.000000 0.000000
-663.286438 -389.874115 175.814896 0.427646 -0.604325 0.672243 0.000000 0.000000
-639.309753 -333.289429 211.430069 0.427646 -0.604325 0.672243 0.000000 0.000000
-694.601013 -354.021027 227.966415 0.427646 -0.604325 0.672243 0.000000 0.000000
-635.606628 -17.366570 201.495026 0.422069 0.623288 0.658308 0.000000 0.000000
-646.995728 17.054878 176.206696 0.422069 0.623288 0.658308 0.000000 0.000000
-692.908936 1.847743 220.041779 0.422069 0.623288 0.658308 0.000000 0.000000
-635.606628 -17.366570 201.495026 0.505729 0.407340 0.760468 0.000000 0.000000
-678.064392 -65.439400 255.480408 0.505729 0.407340 0.760468 0.000000 0.000000
-602.069397 -59.435715 201.726074 0.505729 0.407340 0.760468 0.000000 0.000000
-631.393738 -107.246071 245.661453 0.510883 0.390445 0.765866 0.000000 0.000000
-602.069397 -59.435715 201.726074 0.510883 0.390445 0.765866 0.000000 0.000000
-678.064392 -65.439400 255.480408 0.510883 0.390445 0.765866 0.000000 0.000000
-676.825562 -290.336151 256.918060 0.476046 -0.408796 0.778631 0.000000 0.000000
-639.309753 -333.289429 211.430069 0.476046 -0.408796 0.778631 0.000000 0.000000
-618.367126 -285.318085 223.811829 0.476046 -0.408796 0.778631 0.000000 0.000000
-658.354858 -230.673294 267.332397 0.569617 -0.091415 0.816811 0.000000 0.000000
-611.006531 -164.740601 241.692215 0.569617 -0.091415 0.816811 0.000000 0.000000
-647.602905 -181.048508 265.388184 0.569617 -0.091415 0.816811 0.000000 0.000000
-611.006531 -164.740601 241.692215 0.501821 0.118794 0.856775 0.000000 0.000000
-631.393738 -107.246071 245.661453 0.501821 0.118794 0.856775 0.000000 0.000000
-647.602905 -181.048508 265.388184 0.501821 0.118794 0.856775 0.000000 0.000000
-658.354858 -230.673294 267.332397 0.489914 -0.294871 0.820387 0.000000 0.000000
-676.825562 -290.336151 256.918060 0.489914 -0.294871 0.820387 0.000000 0.000000
-618.367126 -285.318085 223.811829 0.489914 -0.294871 0.820387 0.000000 0.000000
-676.825562 -290.336151 256.918060 0.409977 -0.469833 0.781777 0.000000 0.000000
-694.601013 -354.021027 227.966415 0.409977 -0.469833 0.781777 0.000000 0.000000
-639.309753 -333.289429 211.430069 0.409977 -0.469833 0.781777 0.000000 0.000000
-680.635010 -113.275299 272.992828 0.468890 0.130513 0.873561 0.000000 0.000000
-647.602905 -181.048508 265.388184 0.468890 0.130513 0.873561 0.000000 0.000000
-631.393738 -107.246071 245.661453 0.468890 0.130513 0.873561 0.000000 0.000000
-631.393738 -107.246071 245.661453 0.437468 0.288315 0.851761 0.000000 0.000000
-678.064392 -65.439400 255.480408 0.437468 0.288315 0.851761 0.000000 0.000000
-680.635010 -113.275299 272.992828 0.437468 0.288315 0.851761 0.000000 0.000000
-692.908936 1.847743 220.041779 0.413248 0.494048 0.764946 0.000000 0.000000
-678.064392 -65.439400 255.480408 0.413248 0.494048 0.764946 0.000000 0.000000
-635.606628 -17.366570 201.495026 0.413248 0.494048 0.764946 0.000000 0.000000
-647.602905 -181.048508 265.388184 0.352107 0.066861 0.933569 0.000000 0.000000
-680.635010 -113.275299 272.992828 0.352107 0.066861 0.933569 0.000000 0.000000
-724.016785 -190.762985 294.904388 0.352107 0.066861 0.933569 0.000000 0.000000
-658.354858 -230.673294 267.332397 0.364700 -0.042576 0.930151 0.000000 0.000000
-647.602905 -181.048508 265.388184 0.364700 -0.042576 0.930151 0.000000 0.000000
-724.016785 -190.762985 294.904388 0.364700 -0.042576 0.930151 0.000000 0.000000
-676.825562 -290.336151 256.918060 0.306507 -0.254970 0.917084 0.000000 0.000000
-658.354858 -230.673294 267.332397 0.306507 -0.254970 0.917084 0.000000 0.000000
-741.005249 -245.772095 290.757935 0.306507 -0.254970 0.917084 0.000000 0.000000
-758.770630 -51.071514 271.544952 0.253491 0.493966 0.831709 0.000000 0.000000
-678.064392 -65.439400 255.480408 0.253491 0.493966 0.831709 0.000000 0.000000
-692.908936 1.847743 220.041779 0.253491 0.493966 0.831709 0.000000 0.000000
-678.064392 -65.439400 255.480408 0.237240 0.322698 0.916288 0.000000 0.000000
-742.601562 -124.109924 292.852631 0.237240 0.322698 0.916288 0.000000 0.000000
-680.635010 -113.275299 272.992828 0.237240 0.322698 0.916288 0.000000 0.000000
-694.601013 -354.021027 227.966415 0.280020 -0.460973 0.842077 0.000000 0.000000
-676.825562 -290.336151 256.918060 0.280020 -0.460973 0.842077 0.000000 0.000000
-746.318237 -318.930023 264.373810 0.280020 -0.460973 0.842077 0.000000 0.000000
-724.016785 -190.762985 294.904388 0.296428 -0.162486 0.941132 0.000000 0.000000
-741.005249 -245.772095 290.757935 0.296428 -0.162486 0.941132 0.000000 0.000000
-658.354858 -230.673294 267.332397 0.296428 -0.162486 0.941132 0.000000 0.000000
-724.016785 -190.762985 294.904388 0.286037 0.109060 0.951992 0.000000 0.000000
-680.635010 -113.275299 272.992828 0.286037 0.109060 0.951992 0.000000 0.000000
-742.601562 -124.109924 292.852631 0.286037 0.109060 0.951992 0.000000 0.000000
-742.601562 -124.109924 292.852631 0.239471 0.320391 0.916517 0.000000 0.000000
-678.064392 -65.439400 255.480408 0.239471 0.320391 0.916517 0.000000 0.000000
-758.770630 -51.071514 271.544952 0.239471 0.320391 0.916517 0.000000 0.000000
-741.005249 -245.772095 290.757935 0.239232 -0.344734 0.907704 0.000000 0.000000
-746.318237 -318.930023 264.373810 0.239232 -0.344734 0.907704 0.000000 0.000000
-676.825562 -290.336151 256.918060 0.239232 -0.344734 0.907704 0.000000 0.000000
-733.844910 33.687698 204.844452 0.181140 0.603516 0.776503 0.000000 0.000000
-771.083496 -12.145749 249.154099 0.181140 0.603516 0.776503 0.000000 0.000000
-692.908936 1.847743 220.041779 0.181140 0.603516 0.776503 0.000000 0.000000
-758.770630 -51.071514 271.544952 0.208538 0.536382 0.817806 0.000000 0.000000
-692.908936 1.847743 220.041779 0.208538 0.536382 0.817806 0.000000 0.000000
-771.083496 -12.145749 249.154099 0.208538 0.536382 0.817806 0.000000 0.000000
-746.318237 -318.930023 264.373810 0.148983 -0.597720 0.787740 0.000000 0.000000
-743.720947 -400.773041 201.781876 0.148983 -0.597720 0.787740 0.000000 0.000000
-694.601013 -354.021027 227.966415 0.148983 -0.597720 0.787740 0.000000 0.000000
-746.318237 -318.930023 264.373810 0.094660 -0.343810 0.934256 0.000000 0.000000
-741.005249 -245.772095 290.757935 0.094660 -0.343810 0.934256 0.000000 0.000000
-797.013245 -307.366180 273.765839 0.094660 -0.343810 0.934256 0.000000 0.000000
-743.720947 -400.773041 201.781876 0.118488 -0.600833 0.790545 0.000000 0.000000
-746.318237 -318.930023 264.373810 0.118488 -0.600833 0.790545 0.000000 0.000000
-805.438416 -351.793976 248.257462 0.118488 -0.600833 0.790545 0.000000 0.000000
-724.016785 -190.762985 294.904388 0.094492 0.056942 0.993896 0.000000 0.000000
-742.601562 -124.109924 292.852631 0.094492 0.056942 0.993896 0.000000 0.000000
-806.123535 -182.842957 302.256744 0.094492 0.056942 0.993896 0.000000 0.000000
-741.005249 -245.772095 290.757935 0.079248 -0.099241 0.991903 0.000000 0.000000
-724.016785 -190.762985 294.904388 0.079248 -0.099241 0.991903 0.000000 0.000000
-806.123535 -182.842957 302.256744 0.079248 -0.099241 0.991903 0.000000 0.000000
-758.770630 -51.071514 271.544952 0.044017 0.288755 0.956391 0.000000 0.000000
-823.525085 -96.622673 288.278076 0.044017 0.288755 0.956391 0.000000 0.000000
-742.601562 -124.109924 292.852631 0.044017 0.288755 0.956391 0.000000 0.000000
-771.083496 -12.145749 249.154099 0.091341 0.652794 0.752008 0.000000 0.000000
-733.844910 33.687698 204.844452 0.091341 0.652794 0.752008 0.000000 0.000000
-798.432495 25.481031 219.813385 0.091341 0.652794 0.752008 0.000000 0.000000
-827.690552 -251.983887 290.910767 0.022075 -0.284477 0.958429 0.000000 0.000000
-797.013245 -307.366180 273.765839 0.022075 -0.284477 0.958429 0.000000 0.000000
-741.005249 -245.772095 290.757935 0.022075 -0.284477 0.958429 0.000000 0.000000
-797.013245 -307.366180 273.765839 0.044897 -0.503807 0.862649 0.000000 0.000000
-805.438416 -351.793976 248.257462 0.044897 -0.503807 0.862649 0.000000 0.000000
-746.318237 -318.930023 264.373810 0.044897 -0.503807 0.862649 0.000000 0.000000
-805.438416 -351.793976 248.257462 0.056829 -0.648601 0.759004 0.000000 0.000000
-783.111145 -404.566376 201.489563 0.056829 -0.648601 0.759004 0.000000 0.000000
-743.720947 -400.773041 201.781876 0.056829 -0.648601 0.759004 0.000000 0.000000
-806.123535 -182.842957 302.256744 0.013638 -0.166060 0.986021 0.000000 0.000000
-827.690552 -251.983887 290.910767 0.013638 -0.166060 0.986021 0.000000 0.000000
-741.005249 -245.772095 290.757935 0.013638 -0.166060 0.986021 0.000000 0.000000
-823.525085 -96.622673 288.278076 -0.001547 0.159733 0.987159 0.000000 0.000000
-806.123535 -182.842957 302.256744 -0.001547 0.159733 0.987159 0.000000 0.000000
-742.601562 -124.109924 292.852631 -0.001547 0.159733 0.987159 0.000000 0.000000
-771.083496 -12.145749 249.154099 -0.055542 0.588559 0.806544 0.000000 0.000000
-798.432495 25.481031 219.813385 -0.055542 0.588559 0.806544 0.000000 0.000000
-839.819031 -26.279524 254.734497 -0.055542 0.588559 0.806544 0.000000 0.000000
-758.770630 -51.071514 271.544952 -0.030319 0.491161 0.870541 0.000000 0.000000
-771.083496 -12.145749 249.154099 -0.030319 0.491161 0.870541 0.000000 0.000000
-839.819031 -26.279524 254.734497 -0.030319 0.491161 0.870541 0.000000 0.000000
-839.819031 -26.279524 254.734497 -0.060035 0.418283 0.906330 0.000000 0.000000
-823.525085 -96.622673 288.278076 -0.060035 0.418283 0.906330 0.000000 0.000000
-758.770630 -51.071514 271.544952 -0.060035 0.418283 0.906330 0.000000 0.000000
-805.438416 -351.793976 248.257462 -0.074678 -0.678906 0.730418 0.000000 0.000000
-856.428101 -372.244965 224.035583 -0.074678 -0.678906 0.730418 0.000000 0.000000
-783.111145 -404.566376 201.489563 -0.074678 -0.678906 0.730418 0.000000 0.000000
-839.819031 -26.279524 254.734497 -0.127639 0.622821 0.771883 0.000000 0.000000
-798.432495 25.481031 219.813385 -0.127639 0.622821 0.771883 0.000000 0.000000
-865.716797 17.251978 215.327087 -0.127639 0.622821 0.771883 0.000000 0.000000
-852.602478 -200.718307 294.337830 -0.120056 -0.124184 0.984969 0.000000 0.000000
-827.690552 -251.983887 290.910767 -0.120056 -0.124184 0.984969 0.000000 0.000000
-806.123535 -182.842957 302.256744 -0.120056 -0.124184 0.984969 0.000000 0.000000
-797.013245 -307.366180 273.765839 -0.156973 -0.370373 0.915524 0.000000 0.000000
-827.690552 -251.983887 290.910767 -0.156973 -0.370373 0.915524 0.000000 0.000000
-878.414917 -302.748535 261.677032 -0.156973 -0.370373 0.915524 0.000000 0.000000
-823.525085 -96.622673 288.278076 -0.126089 0.133913 0.982939 0.000000 0.000000
-868.601624 -136.958160 287.990997 -0.126089 0.133913 0.982939 0.000000 0.000000
-806.123535 -182.842957 302.256744 -0.126089 0.133913 0.982939 0.000000 0.000000
-797.013245 -307.366180 273.765839 -0.155701 -0.469475 0.869109 0.000000 0.000000
-878.414917 -302.748535 261.677032 -0.155701 -0.469475 0.869109 0.000000 0.000000
-805.438416 -351.793976 248.257462 -0.155701 -0.469475 0.869109 0.000000 0.000000
-852.602478 -200.718307 294.337830 -0.186699 0.050813 0.981102 0.000000 0.000000
-806.123535 -182.842957 302.256744 -0.186699 0.050813 0.981102 0.000000 0.000000
-868.601624 -136.958160 287.990997 -0.186699 0.050813 0.981102 0.000000 0.000000
-823.525085 -96.622673 288.278076 -0.192309 0.385742 0.902342 0.000000 0.000000
-839.819031 -26.279524 254.734497 -0.192309 0.385742 0.902342 0.000000 0.000000
-887.825806 -73.315659 264.610657 -0.192309 0.385742 0.902342 0.000000 0.000000
-878.414917 -302.748535 261.677032 -0.191350 -0.513577 0.836435 0.000000 0.000000
-856.428101 -372.244965 224.035583 -0.191350 -0.513577 0.836435 0.000000 0.000000
-805.438416 -351.793976 248.257462 -0.191350 -0.513577 0.836435 0.000000 0.000000
-868.601624 -136.958160 287.990997 -0.245741 0.267995 0.931553 0.000000 0.000000
-823.525085 -96.622673 288.278076 -0.245741 0.267995 0.931553 0.000000 0.000000
-887.825806 -73.315659 264.610657 -0.245741 0.267995 0.931553 0.000000 0.000000
-852.602478 -200.718307 294.337830 -0.257173 -0.188332 0.947836 0.000000 0.000000
-907.984985 -253.107315 268.901520 -0.257173 -0.188332 0.947836 0.000000 0.000000
-827.690552 -251.983887 290.910767 -0.257173 -0.188332 0.947836 0.000000 0.000000
-878.414917 -302.748535 261.677032 -0.249814 -0.283550 0.925847 0.000000 0.000000
-827.690552 -251.983887 290.910767 -0.249814 -0.283550 0.925847 0.000000 0.000000
-907.984985 -253.107315 268.901520 -0.249814 -0.283550 0.925847 0.000000 0.000000
-868.601624 -136.958160 287.990997 -0.310085 0.016812 0.950560 0.000000 0.000000
-925.577393 -185.630722 270.265594 -0.310085 0.016812 0.950560 0.000000 0.000000
-852.602478 -200.718307 294.337830 -0.310085 0.016812 0.950560 0.000000 0.000000
-887.825806 -73.315659 264.610657 -0.287127 0.468484 0.835512 0.000000 0.000000
-839.819031 -26.279524 254.734497 -0.287127 0.468484 0.835512 0.000000 0.000000
-909.268616 -27.449945 231.524185 -0.287127 0.468484 0.835512 0.000000 0.000000
-887.825806 -73.315659 264.610657 -0.335950 0.233718 0.912422 0.000000 0.000000
-924.000244 -121.440491 263.618591 -0.335950 0.233718 0.912422 0.000000 0.000000
-868.601624 -136.958160 287.990997 -0.335950 0.233718 0.912422 0.000000 0.000000
-925.577393 -185.630722 270.265594 -0.331088 -0.105277 0.937709 0.000000 0.000000
-907.984985 -253.107315 268.901520 -0.331088 -0.105277 0.937709 0.000000 0.000000
-852.602478 -200.718307 294.337830 -0.331088 -0.105277 0.937709 0.000000 0.000000
-865.716797 17.251978 215.327087 -0.272772 0.551412 0.788379 0.000000 0.000000
-909.268616 -27.449945 231.524185 -0.272772 0.551412 0.788379 0.000000 0.000000
-839.819031 -26.279524 254.734497 -0.272772 0.551412 0.788379 0.000000 0.000000
-924.000244 -121.440491 263.618591 -0.375800 0.104582 0.920781 0.000000 0.000000
-925.577393 -185.630722 270.265594 -0.375800 0.104582 0.920781 0.000000 0.000000
-868.601624 -136.958160 287.990997 -0.375800 0.104582 0.920781 0.000000 0.000000
-856.428101 -372.244965 224.035583 -0.355292 -0.529599 0.770255 0.000000 0.000000
-878.414917 -302.748535 261.677032 -0.355292 -0.529599 0.770255 0.000000 0.000000
-945.561768 -336.602600 207.427719 -0.355292 -0.529599 0.770255 0.000000 0.000000
-909.268616 -27.449945 231.524185 -0.415618 0.396269 0.818678 0.000000 0.000000
-948.705444 -66.668358 230.486389 -0.415618 0.396269 0.818678 0.000000 0.000000
-887.825806 -73.315659 264.610657 -0.415618 0.396269 0.818678 0.000000 0.000000
-882.004211 -379.641510 206.943970 -0.356743 -0.535423 0.765543 0.000000 0.000000
-856.428101 -372.244965 224.035583 -0.356743 -0.535423 0.765543 0.000000 0.000000
-945.561768 -336.602600 207.427719 -0.356743 -0.535423 0.765543 0.000000 0.000000
-924.000244 -121.440491 263.618591 -0.438360 0.312131 0.842861 0.000000 0.000000
-887.825806 -73.315659 264.610657 -0.438360 0.312131 0.842861 0.000000 0.000000
-948.705444 -66.668358 230.486389 -0.438360 0.312131 0.842861 0.000000 0.000000
-907.984985 -253.107315 268.901520 -0.453520 -0.386992 0.802843 0.000000 0.000000
-945.561768 -336.602600 207.427719 -0.453520 -0.386992 0.802843 0.000000 0.000000
-878.414917 -302.748535 261.677032 -0.453520 -0.386992 0.802843 0.000000 0.000000
-945.561768 -336.602600 207.427719 -0.424532 -0.405107 0.809729 0.000000 0.000000
-907.984985 -253.107315 268.901520 -0.424532 -0.405107 0.809729 0.000000 0.000000
-961.677551 -279.383881 227.604904 -0.424532 -0.405107 0.809729 0.000000 0.000000
-934.444885 8.426308 186.346481 -0.372195 0.614621 0.695493 0.000000 0.000000
-909.268616 -27.449945 231.524185 -0.372195 0.614621 0.695493 0.000000 0.000000
-865.716797 17.251978 215.327087 -0.372195 0.614621 0.695493 0.000000 0.000000
-945.561768 -336.602600 207.427719 -0.378112 -0.566605 0.732114 0.000000 0.000000
-929.700256 -361.324829 196.486389 -0.378112 -0.566605 0.732114 0.000000 0.000000
-882.004211 -379.641510 206.943970 -0.378112 -0.566605 0.732114 0.000000 0.000000
-925.577393 -185.630722 270.265594 -0.496241 0.101478 0.862234 0.000000 0.000000
-924.000244 -121.440491 263.618591 -0.496241 0.101478 0.862234 0.000000 0.000000
-967.277039 -154.429779 242.594086 -0.496241 0.101478 0.862234 0.000000 0.000000
-907.984985 -253.107315 268.901520 -0.508886 -0.149813 0.847698 0.000000 0.000000
-925.577393 -185.630722 270.265594 -0.508886 -0.149813 0.847698 0.000000 0.000000
-980.899414 -222.937500 230.461746 -0.508886 -0.149813 0.847698 0.000000 0.000000
-961.677551 -279.383881 227.604904 -0.524664 -0.220284 0.822316 0.000000 0.000000
-907.984985 -253.107315 268.901520 -0.524664 -0.220284 0.822316 0.000000 0.000000
-980.899414 -222.937500 230.461746 -0.524664 -0.220284 0.822316 0.000000 0.000000
-924.000244 -121.440491 263.618591 -0.524672 0.254716 0.812305 0.000000 0.000000
-948.705444 -66.668358 230.486389 -0.524672 0.254716 0.812305 0.000000 0.000000
-976.704102 -92.749756 220.580292 -0.524672 0.254716 0.812305 0.000000 0.000000
-967.277039 -154.429779 242.594086 -0.549698 0.205011 0.809816 0.000000 0.000000
-924.000244 -121.440491 263.618591 -0.549698 0.205011 0.809816 0.000000 0.000000
-976.704102 -92.749756 220.580292 -0.549698 0.205011 0.809816 0.000000 0.000000
-967.277039 -154.429779 242.594086 -0.569294 -0.032282 0.821500 0.000000 0.000000
-980.899414 -222.937500 230.461746 -0.569294 -0.032282 0.821500 0.000000 0.000000
-925.577393 -185.630722 270.265594 -0.569294 -0.032282 0.821500 0.000000 0.000000
-934.444885 8.426308 186.346481 -0.519520 0.504158 0.689873 0.000000 0.000000
-948.705444 -66.668358 230.486389 -0.519520 0.504158 0.689873 0.000000 0.000000
-909.268616 -27.449945 231.524185 -0.519520 0.504158 0.689873 0.000000 0.000000
-934.444885 8.426308 186.346481 -0.539858 0.500384 0.676882 0.000000 0.000000
-986.826538 -38.404812 179.188522 -0.539858 0.500384 0.676882 0.000000 0.000000
-948.705444 -66.668358 230.486389 -0.539858 0.500384 0.676882 0.000000 0.000000
-986.826538 -38.404812 179.188522 -0.614738 0.402241 0.678454 0.000000 0.000000
-976.704102 -92.749756 220.580292 -0.614738 0.402241 0.678454 0.000000 0.000000
-948.705444 -66.668358 230.486389 -0.614738 0.402241 0.678454 0.000000 0.000000
-945.561768 -336.602600 207.427719 -0.536664 -0.604748 0.588449 0.000000 0.000000
-969.660828 -370.265045 150.854660 -0.536664 -0.604748 0.588449 0.000000 0.000000
-929.700256 -361.324829 196.486389 -0.536664 -0.604748 0.588449 0.000000 0.000000
-945.561768 -336.602600 207.427719 -0.613121 -0.410665 0.674861 0.000000 0.000000
-961.677551 -279.383881 227.604904 -0.613121 -0.410665 0.674861 0.000000 0.000000
-1004.547913 -287.494263 183.721237 -0.613121 -0.410665 0.674861 0.000000 0.000000
-980.899414 -222.937500 230.461746 -0.681060 0.005756 0.732205 0.000000 0.000000
-967.277039 -154.429779 242.594086 -0.681060 0.005756 0.732205 0.000000 0.000000
-1018.189026 -146.723862 195.177750 -0.681060 0.005756 0.732205 0.000000 0.000000
-976.704102 -92.749756 220.580292 -0.659435 0.161273 0.734259 0.000000 0.000000
-1018.189026 -146.723862 195.177750 -0.659435 0.161273 0.734259 0.000000 0.000000
-967.277039 -154.429779 242.594086 -0.659435 0.161273 0.734259 0.000000 0.000000
-1018.189026 -146.723862 195.177750 -0.689951 -0.002461 0.723852 0.000000 0.000000
-1021.182556 -211.655060 192.103622 -0.689951 -0.002461 0.723852 0.000000 0.000000
-980.899414 -222.937500 230.461746 -0.689951 -0.002461 0.723852 0.000000 0.000000
-1015.924500 -102.838356 184.088974 -0.694399 0.209758 0.688340 0.000000 0.000000
-1018.189026 -146.723862 195.177750 -0.694399 0.209758 0.688340 0.000000 0.000000
-976.704102 -92.749756 220.580292 -0.694399 0.209758 0.688340 0.000000 0.000000
-567.105652 -91.922394 181.230545 0.672941 0.296798 0.677541 0.000000 0.000000
-602.069397 -59.435715 201.726074 0.672941 0.296798 0.677541 0.000000 0.000000
-578.221375 -125.525604 206.990738 0.672941 0.296798 0.677541 0.000000 0.000000
-618.367126 -285.318085 223.811829 0.620320 -0.418765 0.663204 0.000000 0.000000
-609.974548 -337.509186 183.007065 0.620320 -0.418765 0.663204 0.000000 0.000000
-578.373596 -285.270294 186.434540 0.620320 -0.418765 0.663204 0.000000 0.000000
-537.595703 -245.117966 151.923981 0.789317 -0.404938 0.461524 0.000000 0.000000
-578.373596 -285.270294 186.434540 0.789317 -0.404938 0.461524 0.000000 0.000000
-590.300171 -349.483368 150.491699 0.789317 -0.404938 0.461524 0.000000 0.000000
-747.520447 77.790398 150.714996 -0.035187 0.892315 0.450041 0.000000 0.000000
-848.323486 73.869514 150.607681 -0.035187 0.892315 0.450041 0.000000 0.000000
-790.332520 61.237026 180.188751 -0.035187 0.892315 0.450041 0.000000 0.000000
-907.476562 -414.669250 150.956528 -0.001928 0.001061 -0.999997 0.777803 0.638096
-1010.863403 -320.379242 151.255951 -0.001928 0.001061 -0.999997 0.781686 0.634758
-614.988220 11.819582 150.844986 -0.001928 0.001061 -0.999997 0.769319 0.624613
-573.078918 -36.614265 150.662659 -0.016420 -0.010444 -0.999811 0.767782 0.626448
-537.001648 -118.971954 150.930496 -0.016420 -0.010444 -0.999811 0.767029 0.628047
-614.988220 11.819582 150.844986 -0.016420 -0.010444 -0.999811 0.769319 0.624613
-537.001648 -118.971954 150.930496 0.014585 0.008043 -0.999861 0.767029 0.628047
-529.367615 -181.882797 150.535812 0.014585 0.008043 -0.999861 0.766645 0.630980
-614.988220 11.819582 150.844986 0.014585 0.008043 -0.999861 0.769319 0.624613
-747.520447 77.790398 150.714996 -0.006808 -0.015647 -0.999854 0.773615 0.622639
-672.869141 52.254826 150.606308 -0.006808 -0.015647 -0.999854 0.771223 0.623339
-614.988220 11.819582 150.844986 -0.006808 -0.015647 -0.999854 0.769319 0.624613
-848.323486 73.869514 150.607681 0.001059 0.000156 -0.999999 0.776643 0.622794
-747.520447 77.790398 150.714996 0.001059 0.000156 -0.999999 0.773615 0.622639
-614.988220 11.819582 150.844986 0.001059 0.000156 -0.999999 0.769319 0.624613
-920.638916 45.334953 150.505661 0.001176 0.000596 -0.999999 0.778614 0.623549
-848.323486 73.869514 150.607681 0.001176 0.000596 -0.999999 0.776643 0.622794
-614.988220 11.819582 150.844986 0.001176 0.000596 -0.999999 0.769319 0.624613
-529.367615 -181.882797 150.535812 -0.041118 -0.016581 -0.999017 0.766645 0.630980
-537.595703 -245.117966 151.923981 -0.041118 -0.016581 -0.999017 0.767052 0.633279
-614.988220 11.819582 150.844986 -0.041118 -0.016581 -0.999017 0.769319 0.624613
-1049.567627 -141.950409 150.558868 0.001581 -0.000794 -0.999998 0.782680 0.629357
-1024.295776 -64.960991 150.537659 0.001581 -0.000794 -0.999998 0.781901 0.626913
-985.447815 -6.687335 150.552780 0.001581 -0.000794 -0.999998 0.780665 0.625163
-1045.589111 -236.993759 150.501633 0.025749 0.001680 -0.999667 0.782624 0.632206
-1049.567627 -141.950409 150.558868 0.025749 0.001680 -0.999667 0.782680 0.629357
-1010.863403 -320.379242 151.255951 0.025749 0.001680 -0.999667 0.781686 0.634758
-690.168457 -422.892639 150.608887 -0.001233 0.009691 -0.999952 0.771622 0.638076
-796.794495 -441.819916 150.556915 -0.001233 0.009691 -0.999952 0.774980 0.638715
-907.476562 -414.669250 150.956528 -0.001233 0.009691 -0.999952 0.777803 0.638096
-537.595703 -245.117966 151.923981 0.022226 0.002496 -0.999750 0.767052 0.633279
-590.300171 -349.483368 150.491699 0.022226 0.002496 -0.999750 0.768484 0.635738
-614.988220 11.819582 150.844986 0.022226 0.002496 -0.999750 0.769319 0.624613
-1049.567627 -141.950409 150.558868 0.000810 -0.000429 -1.000000 0.782680 0.629357
-985.447815 -6.687335 150.552780 0.000810 -0.000429 -1.000000 0.780665 0.625163
-614.988220 11.819582 150.844986 0.000810 -0.000429 -1.000000 0.769319 0.624613
-985.447815 -6.687335 150.552780 0.000889 -0.002014 -0.999998 0.780665 0.625163
-920.638916 45.334953 150.505661 0.000889 -0.002014 -0.999998 0.778614 0.623549
-614.988220 11.819582 150.844986 0.000889 -0.002014 -0.999998 0.769319 0.624613
-1010.863403 -320.379242 151.255951 0.001895 -0.003496 -0.999992 0.781686 0.634758
-1049.567627 -141.950409 150.558868 0.001895 -0.003496 -0.999992 0.782680 0.629357
-614.988220 11.819582 150.844986 0.001895 -0.003496 -0.999992 0.769319 0.624613
-907.476562 -414.669250 150.956528 0.017988 0.022898 -0.999576 0.777803 0.638096
-969.660828 -370.265045 150.854660 0.017988 0.022898 -0.999576 0.780360 0.636414
-1010.863403 -320.379242 151.255951 0.017988 0.022898 -0.999576 0.781686 0.634758
-590.300171 -349.483368 150.491699 -0.001802 0.000855 -0.999998 0.768484 0.635738
-690.168457 -422.892639 150.608887 -0.001802 0.000855 -0.999998 0.771622 0.638076
-614.988220 11.819582 150.844986 -0.001802 0.000855 -0.999998 0.769319 0.624613
-690.168457 -422.892639 150.608887 -0.001569 0.000814 -0.999999 0.771622 0.638076
-907.476562 -414.669250 150.956528 -0.001569 0.000814 -0.999999 0.777803 0.638096
-614.988220 11.819582 150.844986 -0.001569 0.000814 -0.999999 0.769319 0.624613
3 0 1 2
3 3 4 5
3 6 7 8
3 9 10 11
3 12 13 14
3 15 16 17
3 18 19 20
3 21 22 23
3 24 25 26
3 27 28 29
3 30 31 32
3 33 34 35
3 36 37 38
3 39 40 41
3 42 43 44
3 45 46 47
3 48 49 50
3 51 52 53
3 54 55 56
3 57 58 59
3 60 61 62
3 63 64 65
3 66 67 68
3 69 70 71
3 72 73 74
3 75 76 77
3 78 79 80
3 81 82 83
3 84 85 86
3 87 88 89
3 90 91 92
3 93 94 95
3 96 97 98
3 99 100 101
3 102 103 104
3 105 106 107
3 108 109 110
3 111 112 113
3 114 115 116
3 117 118 119
3 120 121 122
3 123 124 125
3 126 127 128
3 129 130 131
3 132 133 134
3 135 136 137
3 138 139 140
3 141 142 143
3 144 145 146
3 147 148 149
3 150 151 152
3 153 154 155
3 156 157 158
3 159 160 161
3 162 163 164
3 165 166 167
3 168 169 170
3 171 172 173
3 174 175 176
3 177 178 179
3 180 181 182
3 183 184 185
3 186 187 188
3 189 190 191
3 192 193 194
3 195 196 197
3 198 199 200
3 201 202 203
3 204 205 206
3 207 208 209
3 210 211 212
3 213 214 215
3 216 217 218
3 219 220 221
3 222 223 224
3 225 226 227
3 228 229 230
3 231 232 233
3 234 235 236
3 237 238 239
3 240 241 242
3 243 244 245
3 246 247 248
3 249 250 251
3 252 253 254
3 255 256 257
3 258 259 260
3 261 262 263
3 264 265 266
3 267 268 269
3 270 271 272
3 273 274 275
3 276 277 278
3 279 280 281
3 282 283 284
3 285 286 287
3 288 289 290
3 291 292 293
3 294 295 296
3 297 298 299
3 300 301 302
3 303 304 305
3 306 307 308
3 309 310 311
3 312 313 314
3 315 316 317
3 318 319 320
3 321 322 323
3 324 325 326
3 327 328 329
3 330 331 332
3 333 334 335
3 336 337 338
3 339 340 341
3 342 343 344
3 345 346 347
3 348 349 350
3 351 352 353
3 354 355 356
3 357 358 359
3 360 361 362
3 363 364 365
3 366 367 368
3 369 370 371
3 372 373 374
3 375 376 377
3 378 379 380
3 381 382 383
3 384 385 386
3 387 388 389
3 390 391 392
3 393 394 395
3 396 397 398
3 399 400 401
3 402 403 404
3 405 406 407
3 408 409 410
3 411 412 413
3 414 415 416
3 417 418 419
3 420 421 422
3 423 424 425
3 426 427 428
3 429 430 431
3 432 433 434
3 435 436 437
3 438 439 440
3 441 442 443
3 444 445 446
3 447 448 449
3 450 451 452
3 453 454 455
3 456 457 458
3 459 460 461
3 462 463 464
3 465 466 467
3 468 469 470
3 471 472 473
3 474 475 476
3 477 478 479
3 480 481 482
3 483 484 485
