ply
format ascii 1.0
comment Created by Blender 2.82 (sub 7) - www.blender.org, source file: ''
element vertex 486
property float x
property float y
property float z
property float nx
property float ny
property float nz
property float s
property float t
element face 162
property list uchar uint vertex_indices
end_header
715.796997 -335.734467 159.575531 0.777510 0.380727 0.500525 0.000000 0.000000
673.150818 -248.615082 159.553802 0.777510 0.380727 0.500525 0.000000 0.000000
668.330200 -292.129181 200.141327 0.777510 0.380727 0.500525 0.000000 0.000000
723.385864 -441.709534 159.679581 0.830853 0.060041 0.553243 0.000000 0.000000
715.796997 -335.734467 159.575531 0.830853 0.060041 0.553243 0.000000 0.000000
688.036499 -414.288849 209.790955 0.830853 0.060041 0.553243 0.000000 0.000000
668.330200 -292.129181 200.141327 0.762474 0.293629 0.576555 0.000000 0.000000
678.598938 -339.310760 210.590012 0.762474 0.293629 0.576555 0.000000 0.000000
715.796997 -335.734467 159.575531 0.762474 0.293629 0.576555 0.000000 0.000000
688.036499 -414.288849 209.790955 0.782405 -0.111190 0.612764 0.000000 0.000000
702.124146 -460.162323 183.479141 0.782405 -0.111190 0.612764 0.000000 0.000000
723.385864 -441.709534 159.679581 0.782405 -0.111190 0.612764 0.000000 0.000000
689.906616 -532.088745 159.540817 0.815286 -0.302765 0.493602 0.000000 0.000000
723.385864 -441.709534 159.679581 0.815286 -0.302765 0.493602 0.000000 0.000000
702.124146 -460.162323 183.479141 0.815286 -0.302765 0.493602 0.000000 0.000000
688.036499 -414.288849 209.790955 0.801220 0.094554 0.590852 0.000000 0.000000
715.796997 -335.734467 159.575531 0.801220 0.094554 0.590852 0.000000 0.000000
678.598938 -339.310760 210.590012 0.801220 0.094554 0.590852 0.000000 0.000000
702.124146 -460.162323 183.479141 0.751224 -0.319777 0.577412 0.000000 0.000000
664.531189 -529.540649 193.965866 0.751224 -0.319777 0.577412 0.000000 0.000000
689.906616 -532.088745 159.540817 0.751224 -0.319777 0.577412 0.000000 0.000000
664.531189 -529.540649 193.965866 0.692046 -0.473169 0.545145 0.000000 0.000000
660.276855 -574.074646 160.712509 0.692046 -0.473169 0.545145 0.000000 0.000000
689.906616 -532.088745 159.540817 0.692046 -0.473169 0.545145 0.000000 0.000000
673.150818 -248.615082 159.553802 0.686436 0.453890 0.568146 0.000000 0.000000
648.155029 -257.526123 196.872787 0.686436 0.453890 0.568146 0.000000 0.000000
668.330200 -292.129181 200.141327 0.686436 0.453890 0.568146 0.000000 0.000000
702.124146 -460.162323 183.479141 0.733899 -0.306003 0.606428 0.000000 0.000000
663.416199 -479.711731 220.458847 0.733899 -0.306003 0.606428 0.000000 0.000000
664.531189 -529.540649 193.965866 0.733899 -0.306003 0.606428 0.000000 0.000000
673.150818 -248.615082 159.553802 0.610279 0.595570 0.522356 0.000000 0.000000
620.846313 -194.992233 159.523590 0.610279 0.595570 0.522356 0.000000 0.000000
617.750671 -216.338089 187.477966 0.610279 0.595570 0.522356 0.000000 0.000000
663.416199 -479.711731 220.458847 0.723311 -0.162777 0.671063 0.000000 0.000000
702.124146 -460.162323 183.479141 0.723311 -0.162777 0.671063 0.000000 0.000000
688.036499 -414.288849 209.790955 0.723311 -0.162777 0.671063 0.000000 0.000000
617.750671 -216.338089 187.477966 0.609877 0.574675 0.545709 0.000000 0.000000
648.155029 -257.526123 196.872787 0.609877 0.574675 0.545709 0.000000 0.000000
673.150818 -248.615082 159.553802 0.609877 0.574675 0.545709 0.000000 0.000000
688.036499 -414.288849 209.790955 0.709242 0.081811 0.700202 0.000000 0.000000
678.598938 -339.310760 210.590012 0.709242 0.081811 0.700202 0.000000 0.000000
646.662842 -363.989777 245.821854 0.709242 0.081811 0.700202 0.000000 0.000000
458.595062 -142.531174 161.854034 -0.136464 0.809520 0.571012 0.000000 0.000000
397.408386 -152.025925 160.691879 -0.136464 0.809520 0.571012 0.000000 0.000000
400.375061 -182.486679 204.584900 -0.136464 0.809520 0.571012 0.000000 0.000000
567.423767 -197.487411 202.989761 0.391330 0.756232 0.524380 0.000000 0.000000
620.846313 -194.992233 159.523590 0.391330 0.756232 0.524380 0.000000 0.000000
543.039856 -154.883194 159.745361 0.391330 0.756232 0.524380 0.000000 0.000000
363.494019 -165.597260 165.476105 -0.236725 0.790631 0.564680 0.000000 0.000000
400.375061 -182.486679 204.584900 -0.236725 0.790631 0.564680 0.000000 0.000000
397.408386 -152.025925 160.691879 -0.236725 0.790631 0.564680 0.000000 0.000000
343.848969 -203.368332 159.416397 -0.404715 0.346277 -0.846344 0.000000 0.000000
324.769287 -192.600677 172.945679 -0.404715 0.346277 -0.846344 0.000000 0.000000
363.494019 -165.597260 165.476105 -0.404715 0.346277 -0.846344 0.000000 0.000000
510.023621 -173.484283 199.039749 0.276283 0.757937 0.590931 0.000000 0.000000
567.423767 -197.487411 202.989761 0.276283 0.757937 0.590931 0.000000 0.000000
543.039856 -154.883194 159.745361 0.276283 0.757937 0.590931 0.000000 0.000000
567.423767 -197.487411 202.989761 0.436432 0.691132 0.576076 0.000000 0.000000
617.750671 -216.338089 187.477966 0.436432 0.691132 0.576076 0.000000 0.000000
620.846313 -194.992233 159.523590 0.436432 0.691132 0.576076 0.000000 0.000000
458.595062 -142.531174 161.854034 -0.057048 0.766836 0.639303 0.000000 0.000000
400.375061 -182.486679 204.584900 -0.057048 0.766836 0.639303 0.000000 0.000000
455.180328 -207.238892 239.165421 -0.057048 0.766836 0.639303 0.000000 0.000000
324.769287 -192.600677 172.945679 -0.329662 0.438720 -0.835971 0.000000 0.000000
303.472351 -234.821609 159.186356 -0.329662 0.438720 -0.835971 0.000000 0.000000
284.701752 -224.181137 172.172638 -0.329662 0.438720 -0.835971 0.000000 0.000000
324.769287 -192.600677 172.945679 -0.508046 0.630209 0.587133 0.000000 0.000000
284.701752 -224.181137 172.172638 -0.508046 0.630209 0.587133 0.000000 0.000000
332.922668 -227.102280 217.033646 -0.508046 0.630209 0.587133 0.000000 0.000000
363.494019 -165.597260 165.476105 -0.368194 0.697932 0.614267 0.000000 0.000000
324.769287 -192.600677 172.945679 -0.368194 0.697932 0.614267 0.000000 0.000000
332.922668 -227.102280 217.033646 -0.368194 0.697932 0.614267 0.000000 0.000000
510.023621 -173.484283 199.039749 -0.002463 0.766897 0.641765 0.000000 0.000000
458.595062 -142.531174 161.854034 -0.002463 0.766897 0.641765 0.000000 0.000000
455.180328 -207.238892 239.165421 -0.002463 0.766897 0.641765 0.000000 0.000000
332.922668 -227.102280 217.033646 -0.345738 0.697758 0.627375 0.000000 0.000000
400.375061 -182.486679 204.584900 -0.345738 0.697758 0.627375 0.000000 0.000000
363.494019 -165.597260 165.476105 -0.345738 0.697758 0.627375 0.000000 0.000000
206.236664 -448.155731 160.211121 -0.847095 -0.022271 0.530976 0.000000 0.000000
220.590378 -374.340302 186.206528 -0.847095 -0.022271 0.530976 0.000000 0.000000
203.781418 -371.829956 159.495560 -0.847095 -0.022271 0.530976 0.000000 0.000000
206.236664 -448.155731 160.211121 -0.811746 -0.285327 0.509565 0.000000 0.000000
235.023819 -531.317566 159.503815 -0.811746 -0.285327 0.509565 0.000000 0.000000
247.557449 -509.546936 191.660385 -0.811746 -0.285327 0.509565 0.000000 0.000000
225.263779 -297.208160 161.664368 -0.816297 0.219469 0.534314 0.000000 0.000000
203.781418 -371.829956 159.495560 -0.816297 0.219469 0.534314 0.000000 0.000000
220.590378 -374.340302 186.206528 -0.816297 0.219469 0.534314 0.000000 0.000000
220.590378 -374.340302 186.206528 -0.790664 -0.060801 0.609223 0.000000 0.000000
206.236664 -448.155731 160.211121 -0.790664 -0.060801 0.609223 0.000000 0.000000
257.916809 -419.185822 230.174011 -0.790664 -0.060801 0.609223 0.000000 0.000000
237.285034 -277.795044 163.232651 -0.697423 0.382930 0.605778 0.000000 0.000000
225.263779 -297.208160 161.664368 -0.697423 0.382930 0.605778 0.000000 0.000000
272.891907 -308.518463 223.647491 -0.697423 0.382930 0.605778 0.000000 0.000000
206.236664 -448.155731 160.211121 -0.774625 -0.217091 0.593993 0.000000 0.000000
247.557449 -509.546936 191.660385 -0.774625 -0.217091 0.593993 0.000000 0.000000
257.542389 -467.681854 219.982422 -0.774625 -0.217091 0.593993 0.000000 0.000000
257.916809 -419.185822 230.174011 -0.772651 -0.124841 0.622435 0.000000 0.000000
206.236664 -448.155731 160.211121 -0.772651 -0.124841 0.622435 0.000000 0.000000
257.542389 -467.681854 219.982422 -0.772651 -0.124841 0.622435 0.000000 0.000000
281.287079 -261.751587 203.246506 -0.617617 0.567602 0.544406 0.000000 0.000000
268.212250 -239.291748 164.996567 -0.617617 0.567602 0.544406 0.000000 0.000000
249.039139 -259.498474 164.312744 -0.617617 0.567602 0.544406 0.000000 0.000000
281.839294 -566.619934 185.099457 -0.668778 -0.468110 0.577589 0.000000 0.000000
247.557449 -509.546936 191.660385 -0.668778 -0.468110 0.577589 0.000000 0.000000
235.023819 -531.317566 159.503815 -0.668778 -0.468110 0.577589 0.000000 0.000000
272.891907 -308.518463 223.647491 -0.683748 0.403356 0.608106 0.000000 0.000000
249.039139 -259.498474 164.312744 -0.683748 0.403356 0.608106 0.000000 0.000000
237.285034 -277.795044 163.232651 -0.683748 0.403356 0.608106 0.000000 0.000000
225.263779 -297.208160 161.664368 -0.747504 0.242108 0.618564 0.000000 0.000000
220.590378 -374.340302 186.206528 -0.747504 0.242108 0.618564 0.000000 0.000000
272.891907 -308.518463 223.647491 -0.747504 0.242108 0.618564 0.000000 0.000000
281.287079 -261.751587 203.246506 -0.687135 0.499112 0.527952 0.000000 0.000000
284.701752 -224.181137 172.172638 -0.687135 0.499112 0.527952 0.000000 0.000000
268.212250 -239.291748 164.996567 -0.687135 0.499112 0.527952 0.000000 0.000000
284.701752 -224.181137 172.172638 -0.203550 0.592337 -0.779554 0.000000 0.000000
303.472351 -234.821609 159.186356 -0.203550 0.592337 -0.779554 0.000000 0.000000
268.212250 -239.291748 164.996567 -0.203550 0.592337 -0.779554 0.000000 0.000000
220.590378 -374.340302 186.206528 -0.719702 0.192415 0.667087 0.000000 0.000000
271.457947 -367.063568 238.987244 -0.719702 0.192415 0.667087 0.000000 0.000000
272.891907 -308.518463 223.647491 -0.719702 0.192415 0.667087 0.000000 0.000000
249.039139 -259.498474 164.312744 -0.698753 0.387693 0.601197 0.000000 0.000000
272.891907 -308.518463 223.647491 -0.698753 0.387693 0.601197 0.000000 0.000000
281.287079 -261.751587 203.246506 -0.698753 0.387693 0.601197 0.000000 0.000000
257.916809 -419.185822 230.174011 -0.723104 0.071694 0.687009 0.000000 0.000000
271.457947 -367.063568 238.987244 -0.723104 0.071694 0.687009 0.000000 0.000000
220.590378 -374.340302 186.206528 -0.723104 0.071694 0.687009 0.000000 0.000000
450.530029 -663.968994 159.577911 0.077674 -0.837893 0.540280 0.000000 0.000000
524.664001 -656.724487 160.155060 0.077674 -0.837893 0.540280 0.000000 0.000000
467.388306 -628.671509 211.895325 0.077674 -0.837893 0.540280 0.000000 0.000000
370.680298 -621.826538 194.691940 -0.384334 -0.770285 0.508869 0.000000 0.000000
307.904572 -613.497437 159.887222 -0.384334 -0.770285 0.508869 0.000000 0.000000
388.963074 -653.720215 160.222321 -0.384334 -0.770285 0.508869 0.000000 0.000000
467.388306 -628.671509 211.895325 -0.127518 -0.802668 0.582634 0.000000 0.000000
388.963074 -653.720215 160.222321 -0.127518 -0.802668 0.582634 0.000000 0.000000
450.530029 -663.968994 159.577911 -0.127518 -0.802668 0.582634 0.000000 0.000000
524.664001 -656.724487 160.155060 0.294920 -0.769334 0.566699 0.000000 0.000000
585.360291 -633.932861 159.508942 0.294920 -0.769334 0.566699 0.000000 0.000000
548.229980 -608.953064 212.743973 0.294920 -0.769334 0.566699 0.000000 0.000000
660.276855 -574.074646 160.712509 0.548761 -0.696118 0.462905 0.000000 0.000000
611.389954 -594.371338 188.144302 0.548761 -0.696118 0.462905 0.000000 0.000000
585.360291 -633.932861 159.508942 0.548761 -0.696118 0.462905 0.000000 0.000000
370.680298 -621.826538 194.691940 -0.164753 -0.765999 0.621370 0.000000 0.000000
388.963074 -653.720215 160.222321 -0.164753 -0.765999 0.621370 0.000000 0.000000
467.388306 -628.671509 211.895325 -0.164753 -0.765999 0.621370 0.000000 0.000000
611.389954 -594.371338 188.144302 0.394594 -0.694827 0.601259 0.000000 0.000000
548.229980 -608.953064 212.743973 0.394594 -0.694827 0.601259 0.000000 0.000000
585.360291 -633.932861 159.508942 0.394594 -0.694827 0.601259 0.000000 0.000000
548.229980 -608.953064 212.743973 0.180607 -0.766953 0.615763 0.000000 0.000000
467.388306 -628.671509 211.895325 0.180607 -0.766953 0.615763 0.000000 0.000000
524.664001 -656.724487 160.155060 0.180607 -0.766953 0.615763 0.000000 0.000000
322.285248 -573.745911 213.519547 -0.524471 -0.610703 0.593273 0.000000 0.000000
281.839294 -566.619934 185.099457 -0.524471 -0.610703 0.593273 0.000000 0.000000
307.904572 -613.497437 159.887222 -0.524471 -0.610703 0.593273 0.000000 0.000000
370.680298 -621.826538 194.691940 -0.169932 -0.725957 0.666416 0.000000 0.000000
467.388306 -628.671509 211.895325 -0.169932 -0.725957 0.666416 0.000000 0.000000
382.656952 -592.461182 229.734940 -0.169932 -0.725957 0.666416 0.000000 0.000000
307.904572 -613.497437 159.887222 -0.426624 -0.668121 0.609595 0.000000 0.000000
370.680298 -621.826538 194.691940 -0.426624 -0.668121 0.609595 0.000000 0.000000
322.285248 -573.745911 213.519547 -0.426624 -0.668121 0.609595 0.000000 0.000000
548.229980 -608.953064 212.743973 0.401875 -0.646216 0.648769 0.000000 0.000000
611.389954 -594.371338 188.144302 0.401875 -0.646216 0.648769 0.000000 0.000000
572.581909 -575.479248 231.001434 0.401875 -0.646216 0.648769 0.000000 0.000000
663.416199 -479.711731 220.458847 0.622604 -0.356456 0.696638 0.000000 0.000000
619.997192 -534.510986 231.223862 0.622604 -0.356456 0.696638 0.000000 0.000000
664.531189 -529.540649 193.965866 0.622604 -0.356456 0.696638 0.000000 0.000000
663.416199 -479.711731 220.458847 0.677671 -0.137222 0.722449 0.000000 0.000000
688.036499 -414.288849 209.790955 0.677671 -0.137222 0.722449 0.000000 0.000000
637.625732 -444.000519 251.433762 0.677671 -0.137222 0.722449 0.000000 0.000000
660.276855 -574.074646 160.712509 0.580856 -0.521922 0.624663 0.000000 0.000000
664.531189 -529.540649 193.965866 0.580856 -0.521922 0.624663 0.000000 0.000000
619.997192 -534.510986 231.223862 0.580856 -0.521922 0.624663 0.000000 0.000000
619.997192 -534.510986 231.223862 0.571479 -0.531893 0.624901 0.000000 0.000000
611.389954 -594.371338 188.144302 0.571479 -0.531893 0.624901 0.000000 0.000000
660.276855 -574.074646 160.712509 0.571479 -0.531893 0.624901 0.000000 0.000000
646.662842 -363.989777 245.821854 0.643388 -0.018992 0.765304 0.000000 0.000000
637.625732 -444.000519 251.433762 0.643388 -0.018992 0.765304 0.000000 0.000000
688.036499 -414.288849 209.790955 0.643388 -0.018992 0.765304 0.000000 0.000000
648.155029 -257.526123 196.872787 0.586165 0.407884 0.700029 0.000000 0.000000
618.909424 -293.342804 242.230606 0.586165 0.407884 0.700029 0.000000 0.000000
668.330200 -292.129181 200.141327 0.586165 0.407884 0.700029 0.000000 0.000000
678.598938 -339.310760 210.590012 0.615157 0.295734 0.730838 0.000000 0.000000
668.330200 -292.129181 200.141327 0.615157 0.295734 0.730838 0.000000 0.000000
618.909424 -293.342804 242.230606 0.615157 0.295734 0.730838 0.000000 0.000000
617.750671 -216.338089 187.477966 0.512277 0.531947 0.674244 0.000000 0.000000
586.674805 -248.894608 236.774368 0.512277 0.531947 0.674244 0.000000 0.000000
648.155029 -257.526123 196.872787 0.512277 0.531947 0.674244 0.000000 0.000000
637.625732 -444.000519 251.433762 0.551347 -0.282652 0.784936 0.000000 0.000000
619.997192 -534.510986 231.223862 0.551347 -0.282652 0.784936 0.000000 0.000000
663.416199 -479.711731 220.458847 0.551347 -0.282652 0.784936 0.000000 0.000000
646.662842 -363.989777 245.821854 0.607634 0.276553 0.744512 0.000000 0.000000
678.598938 -339.310760 210.590012 0.607634 0.276553 0.744512 0.000000 0.000000
618.909424 -293.342804 242.230606 0.607634 0.276553 0.744512 0.000000 0.000000
618.909424 -293.342804 242.230606 0.526259 0.468742 0.709459 0.000000 0.000000
648.155029 -257.526123 196.872787 0.526259 0.468742 0.709459 0.000000 0.000000
586.674805 -248.894608 236.774368 0.526259 0.468742 0.709459 0.000000 0.000000
646.662842 -363.989777 245.821854 0.557779 -0.004786 0.829976 0.000000 0.000000
590.601868 -404.548706 283.263306 0.557779 -0.004786 0.829976 0.000000 0.000000
637.625732 -444.000519 251.433762 0.557779 -0.004786 0.829976 0.000000 0.000000
619.997192 -534.510986 231.223862 0.478297 -0.557250 0.678752 0.000000 0.000000
572.581909 -575.479248 231.001434 0.478297 -0.557250 0.678752 0.000000 0.000000
611.389954 -594.371338 188.144302 0.478297 -0.557250 0.678752 0.000000 0.000000
586.674805 -248.894608 236.774368 0.432450 0.602686 0.670639 0.000000 0.000000
617.750671 -216.338089 187.477966 0.432450 0.602686 0.670639 0.000000 0.000000
567.423767 -197.487411 202.989761 0.432450 0.602686 0.670639 0.000000 0.000000
619.997192 -534.510986 231.223862 0.543771 -0.282374 0.790303 0.000000 0.000000
637.625732 -444.000519 251.433762 0.543771 -0.282374 0.790303 0.000000 0.000000
582.848022 -499.187500 269.405518 0.543771 -0.282374 0.790303 0.000000 0.000000
582.848022 -499.187500 269.405518 0.389711 -0.455385 0.800469 0.000000 0.000000
572.581909 -575.479248 231.001434 0.389711 -0.455385 0.800469 0.000000 0.000000
619.997192 -534.510986 231.223862 0.389711 -0.455385 0.800469 0.000000 0.000000
618.909424 -293.342804 242.230606 0.491798 0.235808 0.838170 0.000000 0.000000
568.033142 -325.508148 281.131653 0.491798 0.235808 0.838170 0.000000 0.000000
646.662842 -363.989777 245.821854 0.491798 0.235808 0.838170 0.000000 0.000000
590.601868 -404.548706 283.263306 0.453894 -0.165396 0.875571 0.000000 0.000000
582.848022 -499.187500 269.405518 0.453894 -0.165396 0.875571 0.000000 0.000000
637.625732 -444.000519 251.433762 0.453894 -0.165396 0.875571 0.000000 0.000000
568.033142 -325.508148 281.131653 0.392873 0.387303 0.834055 0.000000 0.000000
618.909424 -293.342804 242.230606 0.392873 0.387303 0.834055 0.000000 0.000000
586.674805 -248.894608 236.774368 0.392873 0.387303 0.834055 0.000000 0.000000
590.601868 -404.548706 283.263306 0.467477 0.156942 0.869962 0.000000 0.000000
646.662842 -363.989777 245.821854 0.467477 0.156942 0.869962 0.000000 0.000000
568.033142 -325.508148 281.131653 0.467477 0.156942 0.869962 0.000000 0.000000
568.033142 -325.508148 281.131653 0.421073 0.375559 0.825623 0.000000 0.000000
586.674805 -248.894608 236.774368 0.421073 0.375559 0.825623 0.000000 0.000000
548.070923 -280.710144 270.934845 0.421073 0.375559 0.825623 0.000000 0.000000
586.674805 -248.894608 236.774368 0.306214 0.600254 0.738870 0.000000 0.000000
567.423767 -197.487411 202.989761 0.306214 0.600254 0.738870 0.000000 0.000000
517.359436 -225.863907 246.791107 0.306214 0.600254 0.738870 0.000000 0.000000
590.601868 -404.548706 283.263306 0.339060 0.121970 0.932824 0.000000 0.000000
568.033142 -325.508148 281.131653 0.339060 0.121970 0.932824 0.000000 0.000000
528.455444 -379.404327 302.564362 0.339060 0.121970 0.932824 0.000000 0.000000
548.070923 -280.710144 270.934845 0.288101 0.516338 0.806470 0.000000 0.000000
586.674805 -248.894608 236.774368 0.288101 0.516338 0.806470 0.000000 0.000000
517.359436 -225.863907 246.791107 0.288101 0.516338 0.806470 0.000000 0.000000
582.848022 -499.187500 269.405518 0.364700 -0.164089 0.916552 0.000000 0.000000
590.601868 -404.548706 283.263306 0.364700 -0.164089 0.916552 0.000000 0.000000
528.295410 -463.303680 297.536469 0.364700 -0.164089 0.916552 0.000000 0.000000
510.023621 -173.484283 199.039749 0.233016 0.672779 0.702191 0.000000 0.000000
517.359436 -225.863907 246.791107 0.233016 0.672779 0.702191 0.000000 0.000000
567.423767 -197.487411 202.989761 0.233016 0.672779 0.702191 0.000000 0.000000
572.581909 -575.479248 231.001434 0.318757 -0.460049 0.828703 0.000000 0.000000
582.848022 -499.187500 269.405518 0.318757 -0.460049 0.828703 0.000000 0.000000
508.363037 -547.820740 271.057434 0.318757 -0.460049 0.828703 0.000000 0.000000
508.363037 -547.820740 271.057434 0.229345 -0.589353 0.774638 0.000000 0.000000
548.229980 -608.953064 212.743973 0.229345 -0.589353 0.774638 0.000000 0.000000
572.581909 -575.479248 231.001434 0.229345 -0.589353 0.774638 0.000000 0.000000
528.295410 -463.303680 297.536469 0.243283 -0.341771 0.907748 0.000000 0.000000
508.363037 -547.820740 271.057434 0.243283 -0.341771 0.907748 0.000000 0.000000
582.848022 -499.187500 269.405518 0.243283 -0.341771 0.907748 0.000000 0.000000
528.455444 -379.404327 302.564362 0.274606 -0.058043 0.959803 0.000000 0.000000
528.295410 -463.303680 297.536469 0.274606 -0.058043 0.959803 0.000000 0.000000
590.601868 -404.548706 283.263306 0.274606 -0.058043 0.959803 0.000000 0.000000
568.033142 -325.508148 281.131653 0.216787 0.307495 0.926526 0.000000 0.000000
548.070923 -280.710144 270.934845 0.216787 0.307495 0.926526 0.000000 0.000000
488.295410 -287.401520 287.141724 0.216787 0.307495 0.926526 0.000000 0.000000
517.359436 -225.863907 246.791107 0.179414 0.478781 0.859406 0.000000 0.000000
488.295410 -287.401520 287.141724 0.179414 0.478781 0.859406 0.000000 0.000000
548.070923 -280.710144 270.934845 0.179414 0.478781 0.859406 0.000000 0.000000
467.388306 -628.671509 211.895325 0.148782 -0.642335 0.751844 0.000000 0.000000
548.229980 -608.953064 212.743973 0.148782 -0.642335 0.751844 0.000000 0.000000
457.929291 -602.041748 236.518204 0.148782 -0.642335 0.751844 0.000000 0.000000
488.295410 -287.401520 287.141724 0.187088 0.241293 0.952248 0.000000 0.000000
528.455444 -379.404327 302.564362 0.187088 0.241293 0.952248 0.000000 0.000000
568.033142 -325.508148 281.131653 0.187088 0.241293 0.952248 0.000000 0.000000
508.363037 -547.820740 271.057434 0.152795 -0.628132 0.762957 0.000000 0.000000
457.929291 -602.041748 236.518204 0.152795 -0.628132 0.762957 0.000000 0.000000
548.229980 -608.953064 212.743973 0.152795 -0.628132 0.762957 0.000000 0.000000
528.455444 -379.404327 302.564362 0.193331 0.243706 0.950385 0.000000 0.000000
488.295410 -287.401520 287.141724 0.193331 0.243706 0.950385 0.000000 0.000000
475.659607 -351.173035 306.064972 0.193331 0.243706 0.950385 0.000000 0.000000
455.180328 -207.238892 239.165421 0.114023 0.677984 0.726180 0.000000 0.000000
517.359436 -225.863907 246.791107 0.114023 0.677984 0.726180 0.000000 0.000000
510.023621 -173.484283 199.039749 0.114023 0.677984 0.726180 0.000000 0.000000
528.455444 -379.404327 302.564362 0.168671 -0.059284 0.983888 0.000000 0.000000
470.879974 -439.692932 308.802063 0.168671 -0.059284 0.983888 0.000000 0.000000
528.295410 -463.303680 297.536469 0.168671 -0.059284 0.983888 0.000000 0.000000
470.879974 -439.692932 308.802063 0.058264 -0.310948 0.948639 0.000000 0.000000
508.363037 -547.820740 271.057434 0.058264 -0.310948 0.948639 0.000000 0.000000
528.295410 -463.303680 297.536469 0.058264 -0.310948 0.948639 0.000000 0.000000
455.180328 -207.238892 239.165421 0.054716 0.529317 0.846658 0.000000 0.000000
488.295410 -287.401520 287.141724 0.054716 0.529317 0.846658 0.000000 0.000000
517.359436 -225.863907 246.791107 0.054716 0.529317 0.846658 0.000000 0.000000
470.879974 -439.692932 308.802063 0.080226 0.026478 0.996425 0.000000 0.000000
528.455444 -379.404327 302.564362 0.080226 0.026478 0.996425 0.000000 0.000000
475.659607 -351.173035 306.064972 0.080226 0.026478 0.996425 0.000000 0.000000
508.363037 -547.820740 271.057434 0.150540 -0.278894 0.948449 0.000000 0.000000
470.879974 -439.692932 308.802063 0.150540 -0.278894 0.948449 0.000000 0.000000
456.430939 -520.578857 287.310760 0.150540 -0.278894 0.948449 0.000000 0.000000
456.430939 -520.578857 287.310760 -0.012077 -0.529208 0.848406 0.000000 0.000000
457.929291 -602.041748 236.518204 -0.012077 -0.529208 0.848406 0.000000 0.000000
508.363037 -547.820740 271.057434 -0.012077 -0.529208 0.848406 0.000000 0.000000
424.853607 -385.092255 308.125519 0.020645 0.029786 0.999343 0.000000 0.000000
470.879974 -439.692932 308.802063 0.020645 0.029786 0.999343 0.000000 0.000000
475.659607 -351.173035 306.064972 0.020645 0.029786 0.999343 0.000000 0.000000
475.659607 -351.173035 306.064972 -0.053118 0.293732 0.954411 0.000000 0.000000
488.295410 -287.401520 287.141724 -0.053118 0.293732 0.954411 0.000000 0.000000
396.804138 -301.115967 286.270508 -0.053118 0.293732 0.954411 0.000000 0.000000
470.879974 -439.692932 308.802063 -0.077228 -0.243114 0.966919 0.000000 0.000000
390.309387 -465.309662 295.926025 -0.077228 -0.243114 0.966919 0.000000 0.000000
456.430939 -520.578857 287.310760 -0.077228 -0.243114 0.966919 0.000000 0.000000
488.295410 -287.401520 287.141724 -0.049653 0.497726 0.865912 0.000000 0.000000
455.180328 -207.238892 239.165421 -0.049653 0.497726 0.865912 0.000000 0.000000
402.936707 -233.364822 251.186813 -0.049653 0.497726 0.865912 0.000000 0.000000
402.936707 -233.364822 251.186813 -0.077955 0.463992 0.882403 0.000000 0.000000
396.804138 -301.115967 286.270508 -0.077955 0.463992 0.882403 0.000000 0.000000
488.295410 -287.401520 287.141724 -0.077955 0.463992 0.882403 0.000000 0.000000
396.804138 -301.115967 286.270508 -0.105681 0.217244 0.970380 0.000000 0.000000
424.853607 -385.092255 308.125519 -0.105681 0.217244 0.970380 0.000000 0.000000
475.659607 -351.173035 306.064972 -0.105681 0.217244 0.970380 0.000000 0.000000
457.929291 -602.041748 236.518204 -0.088700 -0.528175 0.844490 0.000000 0.000000
456.430939 -520.578857 287.310760 -0.088700 -0.528175 0.844490 0.000000 0.000000
387.116913 -539.280884 268.333496 -0.088700 -0.528175 0.844490 0.000000 0.000000
424.853607 -385.092255 308.125519 -0.127493 -0.095239 0.987256 0.000000 0.000000
390.309387 -465.309662 295.926025 -0.127493 -0.095239 0.987256 0.000000 0.000000
470.879974 -439.692932 308.802063 -0.127493 -0.095239 0.987256 0.000000 0.000000
390.309387 -465.309662 295.926025 -0.162354 -0.338698 0.926782 0.000000 0.000000
387.116913 -539.280884 268.333496 -0.162354 -0.338698 0.926782 0.000000 0.000000
456.430939 -520.578857 287.310760 -0.162354 -0.338698 0.926782 0.000000 0.000000
400.375061 -182.486679 204.584900 -0.162682 0.661974 0.731659 0.000000 0.000000
402.936707 -233.364822 251.186813 -0.162682 0.661974 0.731659 0.000000 0.000000
455.180328 -207.238892 239.165421 -0.162682 0.661974 0.731659 0.000000 0.000000
467.388306 -628.671509 211.895325 -0.151961 -0.699574 0.698215 0.000000 0.000000
457.929291 -602.041748 236.518204 -0.151961 -0.699574 0.698215 0.000000 0.000000
382.656952 -592.461182 229.734940 -0.151961 -0.699574 0.698215 0.000000 0.000000
457.929291 -602.041748 236.518204 -0.145618 -0.573106 0.806440 0.000000 0.000000
387.116913 -539.280884 268.333496 -0.145618 -0.573106 0.806440 0.000000 0.000000
382.656952 -592.461182 229.734940 -0.145618 -0.573106 0.806440 0.000000 0.000000
396.804138 -301.115967 286.270508 -0.229422 0.172662 0.957890 0.000000 0.000000
360.436310 -390.371185 293.648590 -0.229422 0.172662 0.957890 0.000000 0.000000
424.853607 -385.092255 308.125519 -0.229422 0.172662 0.957890 0.000000 0.000000
390.309387 -465.309662 295.926025 -0.214562 -0.055898 0.975110 0.000000 0.000000
424.853607 -385.092255 308.125519 -0.214562 -0.055898 0.975110 0.000000 0.000000
360.436310 -390.371185 293.648590 -0.214562 -0.055898 0.975110 0.000000 0.000000
387.116913 -539.280884 268.333496 -0.327265 -0.317817 0.889882 0.000000 0.000000
390.309387 -465.309662 295.926025 -0.327265 -0.317817 0.889882 0.000000 0.000000
330.172760 -514.768494 256.146057 -0.327265 -0.317817 0.889882 0.000000 0.000000
315.423798 -456.691559 266.182281 -0.382132 -0.250748 0.889438 0.000000 0.000000
330.172760 -514.768494 256.146057 -0.382132 -0.250748 0.889438 0.000000 0.000000
390.309387 -465.309662 295.926025 -0.382132 -0.250748 0.889438 0.000000 0.000000
402.936707 -233.364822 251.186813 -0.290629 0.638285 0.712830 0.000000 0.000000
400.375061 -182.486679 204.584900 -0.290629 0.638285 0.712830 0.000000 0.000000
332.922668 -227.102280 217.033646 -0.290629 0.638285 0.712830 0.000000 0.000000
396.804138 -301.115967 286.270508 -0.357271 0.454785 0.815799 0.000000 0.000000
402.936707 -233.364822 251.186813 -0.357271 0.454785 0.815799 0.000000 0.000000
332.922668 -227.102280 217.033646 -0.357271 0.454785 0.815799 0.000000 0.000000
332.922668 -227.102280 217.033646 -0.322703 0.482952 0.814015 0.000000 0.000000
319.618103 -291.539581 249.989670 -0.322703 0.482952 0.814015 0.000000 0.000000
396.804138 -301.115967 286.270508 -0.322703 0.482952 0.814015 0.000000 0.000000
360.436310 -390.371185 293.648590 -0.378530 -0.123015 0.917378 0.000000 0.000000
315.423798 -456.691559 266.182281 -0.378530 -0.123015 0.917378 0.000000 0.000000
390.309387 -465.309662 295.926025 -0.378530 -0.123015 0.917378 0.000000 0.000000
360.436310 -390.371185 293.648590 -0.389953 0.232541 0.890989 0.000000 0.000000
396.804138 -301.115967 286.270508 -0.389953 0.232541 0.890989 0.000000 0.000000
319.618103 -291.539581 249.989670 -0.389953 0.232541 0.890989 0.000000 0.000000
319.618103 -291.539581 249.989670 -0.380342 0.237738 0.893768 0.000000 0.000000
311.313446 -374.921112 268.634766 -0.380342 0.237738 0.893768 0.000000 0.000000
360.436310 -390.371185 293.648590 -0.380342 0.237738 0.893768 0.000000 0.000000
315.423798 -456.691559 266.182281 -0.465621 -0.049906 0.883576 0.000000 0.000000
360.436310 -390.371185 293.648590 -0.465621 -0.049906 0.883576 0.000000 0.000000
311.313446 -374.921112 268.634766 -0.465621 -0.049906 0.883576 0.000000 0.000000
330.172760 -514.768494 256.146057 -0.383405 -0.506783 0.772122 0.000000 0.000000
322.285248 -573.745911 213.519547 -0.383405 -0.506783 0.772122 0.000000 0.000000
387.116913 -539.280884 268.333496 -0.383405 -0.506783 0.772122 0.000000 0.000000
382.656952 -592.461182 229.734940 -0.368835 -0.525523 0.766672 0.000000 0.000000
387.116913 -539.280884 268.333496 -0.368835 -0.525523 0.766672 0.000000 0.000000
322.285248 -573.745911 213.519547 -0.368835 -0.525523 0.766672 0.000000 0.000000
315.423798 -456.691559 266.182281 -0.535301 -0.274014 0.798980 0.000000 0.000000
302.505646 -524.790833 234.172440 -0.535301 -0.274014 0.798980 0.000000 0.000000
330.172760 -514.768494 256.146057 -0.535301 -0.274014 0.798980 0.000000 0.000000
382.656952 -592.461182 229.734940 -0.378153 -0.641853 0.667102 0.000000 0.000000
322.285248 -573.745911 213.519547 -0.378153 -0.641853 0.667102 0.000000 0.000000
370.680298 -621.826538 194.691940 -0.378153 -0.641853 0.667102 0.000000 0.000000
311.313446 -374.921112 268.634766 -0.540665 0.234503 0.807892 0.000000 0.000000
319.618103 -291.539581 249.989670 -0.540665 0.234503 0.807892 0.000000 0.000000
272.891907 -308.518463 223.647491 -0.540665 0.234503 0.807892 0.000000 0.000000
315.423798 -456.691559 266.182281 -0.554465 -0.052781 0.830532 0.000000 0.000000
311.313446 -374.921112 268.634766 -0.554465 -0.052781 0.830532 0.000000 0.000000
257.916809 -419.185822 230.174011 -0.554465 -0.052781 0.830532 0.000000 0.000000
271.457947 -367.063568 238.987244 -0.594400 0.018483 0.803957 0.000000 0.000000
257.916809 -419.185822 230.174011 -0.594400 0.018483 0.803957 0.000000 0.000000
311.313446 -374.921112 268.634766 -0.594400 0.018483 0.803957 0.000000 0.000000
330.172760 -514.768494 256.146057 -0.425030 -0.492208 0.759658 0.000000 0.000000
302.505646 -524.790833 234.172440 -0.425030 -0.492208 0.759658 0.000000 0.000000
322.285248 -573.745911 213.519547 -0.425030 -0.492208 0.759658 0.000000 0.000000
319.618103 -291.539581 249.989670 -0.509309 0.472892 0.719011 0.000000 0.000000
332.922668 -227.102280 217.033646 -0.509309 0.472892 0.719011 0.000000 0.000000
281.287079 -261.751587 203.246506 -0.509309 0.472892 0.719011 0.000000 0.000000
272.891907 -308.518463 223.647491 -0.552912 0.223839 0.802611 0.000000 0.000000
271.457947 -367.063568 238.987244 -0.552912 0.223839 0.802611 0.000000 0.000000
311.313446 -374.921112 268.634766 -0.552912 0.223839 0.802611 0.000000 0.000000
302.505646 -524.790833 234.172440 -0.572506 -0.257318 0.778476 0.000000 0.000000
315.423798 -456.691559 266.182281 -0.572506 -0.257318 0.778476 0.000000 0.000000
257.542389 -467.681854 219.982422 -0.572506 -0.257318 0.778476 0.000000 0.000000
257.916809 -419.185822 230.174011 -0.596927 -0.160584 0.786060 0.000000 0.000000
257.542389 -467.681854 219.982422 -0.596927 -0.160584 0.786060 0.000000 0.000000
315.423798 -456.691559 266.182281 -0.596927 -0.160584 0.786060 0.000000 0.000000
281.287079 -261.751587 203.246506 -0.556531 0.414105 0.720271 0.000000 0.000000
272.891907 -308.518463 223.647491 -0.556531 0.414105 0.720271 0.000000 0.000000
319.618103 -291.539581 249.989670 -0.556531 0.414105 0.720271 0.000000 0.000000
322.285248 -573.745911 213.519547 -0.554355 -0.503544 0.662672 0.000000 0.000000
302.505646 -524.790833 234.172440 -0.554355 -0.503544 0.662672 0.000000 0.000000
281.839294 -566.619934 185.099457 -0.554355 -0.503544 0.662672 0.000000 0.000000
281.287079 -261.751587 203.246506 -0.544122 0.563544 0.621570 0.000000 0.000000
332.922668 -227.102280 217.033646 -0.544122 0.563544 0.621570 0.000000 0.000000
284.701752 -224.181137 172.172638 -0.544122 0.563544 0.621570 0.000000 0.000000
247.557449 -509.546936 191.660385 -0.633491 -0.324196 0.702557 0.000000 0.000000
302.505646 -524.790833 234.172440 -0.633491 -0.324196 0.702557 0.000000 0.000000
257.542389 -467.681854 219.982422 -0.633491 -0.324196 0.702557 0.000000 0.000000
247.557449 -509.546936 191.660385 -0.621609 -0.447304 0.643056 0.000000 0.000000
281.839294 -566.619934 185.099457 -0.621609 -0.447304 0.643056 0.000000 0.000000
302.505646 -524.790833 234.172440 -0.621609 -0.447304 0.643056 0.000000 0.000000
343.848969 -203.368332 159.416397 -0.339464 0.441844 -0.830384 0.000000 0.000000
303.472351 -234.821609 159.186356 -0.339464 0.441844 -0.830384 0.000000 0.000000
324.769287 -192.600677 172.945679 -0.339464 0.441844 -0.830384 0.000000 0.000000
281.839294 -566.619934 185.099457 -0.681470 -0.602419 0.415560 0.000000 0.000000
235.023819 -531.317566 159.503815 -0.681470 -0.602419 0.415560 0.000000 0.000000
307.904572 -613.497437 159.887222 -0.681470 -0.602419 0.415560 0.000000 0.000000
543.039856 -154.883194 159.745361 0.136622 0.846052 0.515296 0.000000 0.000000
458.595062 -142.531174 161.854034 0.136622 0.846052 0.515296 0.000000 0.000000
510.023621 -173.484283 199.039749 0.136622 0.846052 0.515296 0.000000 0.000000
237.285034 -277.795044 163.232651 0.154204 -0.015680 -0.987915 0.742087 0.633834
203.781418 -371.829956 159.495560 0.154204 -0.015680 -0.987915 0.743506 0.636400
225.263779 -297.208160 161.664368 0.154204 -0.015680 -0.987915 0.742810 0.634436
458.595062 -142.531174 161.854034 -0.029875 -0.033698 -0.998985 0.734964 0.629519
543.039856 -154.883194 159.745361 -0.029875 -0.033698 -0.998985 0.732958 0.629943
363.494019 -165.597260 165.476105 -0.029875 -0.033698 -0.998985 0.738362 0.630610
397.408386 -152.025925 160.691879 0.100268 -0.544198 -0.832943 0.737547 0.629911
458.595062 -142.531174 161.854034 0.100268 -0.544198 -0.832943 0.734964 0.629519
363.494019 -165.597260 165.476105 0.100268 -0.544198 -0.832943 0.738362 0.630610
249.039139 -259.498474 164.312744 0.119259 -0.005472 -0.992848 0.741668 0.633484
206.236664 -448.155731 160.211121 0.119259 -0.005472 -0.992848 0.743463 0.639257
203.781418 -371.829956 159.495560 0.119259 -0.005472 -0.992848 0.743506 0.636400
249.039139 -259.498474 164.312744 0.067259 0.015683 -0.997612 0.741668 0.633484
203.781418 -371.829956 159.495560 0.067259 0.015683 -0.997612 0.743506 0.636400
237.285034 -277.795044 163.232651 0.067259 0.015683 -0.997612 0.742087 0.633834
235.023819 -531.317566 159.503815 0.023089 0.016494 -0.999597 0.742559 0.641551
206.236664 -448.155731 160.211121 0.023089 0.016494 -0.999597 0.743463 0.639257
249.039139 -259.498474 164.312744 0.023089 0.016494 -0.999597 0.741668 0.633484
543.039856 -154.883194 159.745361 0.000208 0.005932 -0.999982 0.732958 0.629943
620.846313 -194.992233 159.523590 0.000208 0.005932 -0.999982 0.730663 0.631153
343.848969 -203.368332 159.416397 0.000208 0.005932 -0.999982 0.739255 0.631357
543.039856 -154.883194 159.745361 -0.042086 0.179569 -0.982845 0.732958 0.629943
343.848969 -203.368332 159.416397 -0.042086 0.179569 -0.982845 0.739255 0.631357
363.494019 -165.597260 165.476105 -0.042086 0.179569 -0.982845 0.738362 0.630610
620.846313 -194.992233 159.523590 0.000392 -0.000181 -1.000000 0.730663 0.631153
673.150818 -248.615082 159.553802 0.000392 -0.000181 -1.000000 0.728841 0.633040
343.848969 -203.368332 159.416397 0.000392 -0.000181 -1.000000 0.739255 0.631357
673.150818 -248.615082 159.553802 0.000411 -0.000048 -1.000000 0.728841 0.633040
715.796997 -335.734467 159.575531 0.000411 -0.000048 -1.000000 0.727738 0.635430
343.848969 -203.368332 159.416397 0.000411 -0.000048 -1.000000 0.739255 0.631357
307.904572 -613.497437 159.887222 0.023815 0.016456 -0.999581 0.740428 0.644006
235.023819 -531.317566 159.503815 0.023815 0.016456 -0.999581 0.742559 0.641551
249.039139 -259.498474 164.312744 0.023815 0.016456 -0.999581 0.741668 0.633484
388.963074 -653.720215 160.222321 0.003234 -0.001813 -0.999993 0.738242 0.645222
307.904572 -613.497437 159.887222 0.003234 -0.001813 -0.999993 0.740428 0.644006
303.472351 -234.821609 159.186356 0.003234 -0.001813 -0.999993 0.740469 0.632394
450.530029 -663.968994 159.577911 -0.011260 -0.004771 -0.999925 0.735979 0.645667
388.963074 -653.720215 160.222321 -0.011260 -0.004771 -0.999925 0.738242 0.645222
303.472351 -234.821609 159.186356 -0.011260 -0.004771 -0.999925 0.740469 0.632394
715.796997 -335.734467 159.575531 0.000080 -0.000976 -1.000000 0.727738 0.635430
723.385864 -441.709534 159.679581 0.000080 -0.000976 -1.000000 0.727633 0.638895
343.848969 -203.368332 159.416397 0.000080 -0.000976 -1.000000 0.739255 0.631357
723.385864 -441.709534 159.679581 0.001345 0.001037 -0.999999 0.727633 0.638895
689.906616 -532.088745 159.540817 0.001345 0.001037 -0.999999 0.728574 0.641753
343.848969 -203.368332 159.416397 0.001345 0.001037 -0.999999 0.739255 0.631357
660.276855 -574.074646 160.712509 0.010682 0.006736 -0.999920 0.729813 0.643349
585.360291 -633.932861 159.508942 0.010682 0.006736 -0.999920 0.731459 0.644585
303.472351 -234.821609 159.186356 0.010682 0.006736 -0.999920 0.740469 0.632394
585.360291 -633.932861 159.508942 -0.008173 -0.006581 -0.999945 0.731459 0.644585
524.664001 -656.724487 160.155060 -0.008173 -0.006581 -0.999945 0.733946 0.645547
303.472351 -234.821609 159.186356 -0.008173 -0.006581 -0.999945 0.740469 0.632394
524.664001 -656.724487 160.155060 0.007619 0.001698 -0.999969 0.733946 0.645547
450.530029 -663.968994 159.577911 0.007619 0.001698 -0.999969 0.735979 0.645667
303.472351 -234.821609 159.186356 0.007619 0.001698 -0.999969 0.740469 0.632394
343.848969 -203.368332 159.416397 -0.015651 -0.016855 -0.999735 0.739255 0.631357
689.906616 -532.088745 159.540817 -0.015651 -0.016855 -0.999735 0.728574 0.641753
660.276855 -574.074646 160.712509 -0.015651 -0.016855 -0.999735 0.729813 0.643349
343.848969 -203.368332 159.416397 0.005058 0.000821 -0.999987 0.739255 0.631357
660.276855 -574.074646 160.712509 0.005058 0.000821 -0.999987 0.729813 0.643349
303.472351 -234.821609 159.186356 0.005058 0.000821 -0.999987 0.740469 0.632394
307.904572 -613.497437 159.887222 0.019131 0.015679 -0.999694 0.740428 0.644006
249.039139 -259.498474 164.312744 0.019131 0.015679 -0.999694 0.741668 0.633484
268.212250 -239.291748 164.996567 0.019131 0.015679 -0.999694 0.741149 0.632987
307.904572 -613.497437 159.887222 -0.162128 -0.003724 -0.986763 0.740428 0.644006
268.212250 -239.291748 164.996567 -0.162128 -0.003724 -0.986763 0.741149 0.632987
303.472351 -234.821609 159.186356 -0.162128 -0.003724 -0.986763 0.740469 0.632394
3 0 1 2
3 3 4 5
3 6 7 8
3 9 10 11
3 12 13 14
3 15 16 17
3 18 19 20
3 21 22 23
3 24 25 26
3 27 28 29
3 30 31 32
3 33 34 35
3 36 37 38
3 39 40 41
3 42 43 44
3 45 46 47
3 48 49 50
3 51 52 53
3 54 55 56
3 57 58 59
3 60 61 62
3 63 64 65
3 66 67 68
3 69 70 71
3 72 73 74
3 75 76 77
3 78 79 80
3 81 82 83
3 84 85 86
3 87 88 89
3 90 91 92
3 93 94 95
3 96 97 98
3 99 100 101
3 102 103 104
3 105 106 107
3 108 109 110
3 111 112 113
3 114 115 116
3 117 118 119
3 120 121 122
3 123 124 125
3 126 127 128
3 129 130 131
3 132 133 134
3 135 136 137
3 138 139 140
3 141 142 143
3 144 145 146
3 147 148 149
3 150 151 152
3 153 154 155
3 156 157 158
3 159 160 161
3 162 163 164
3 165 166 167
3 168 169 170
3 171 172 173
3 174 175 176
3 177 178 179
3 180 181 182
3 183 184 185
3 186 187 188
3 189 190 191
3 192 193 194
3 195 196 197
3 198 199 200
3 201 202 203
3 204 205 206
3 207 208 209
3 210 211 212
3 213 214 215
3 216 217 218
3 219 220 221
3 222 223 224
3 225 226 227
3 228 229 230
3 231 232 233
3 234 235 236
3 237 238 239
3 240 241 242
3 243 244 245
3 246 247 248
3 249 250 251
3 252 253 254
3 255 256 257
3 258 259 260
3 261 262 263
3 264 265 266
3 267 268 269
3 270 271 272
3 273 274 275
3 276 277 278
3 279 280 281
3 282 283 284
3 285 286 287
3 288 289 290
3 291 292 293
3 294 295 296
3 297 298 299
3 300 301 302
3 303 304 305
3 306 307 308
3 309 310 311
3 312 313 314
3 315 316 317
3 318 319 320
3 321 322 323
3 324 325 326
3 327 328 329
3 330 331 332
3 333 334 335
3 336 337 338
3 339 340 341
3 342 343 344
3 345 346 347
3 348 349 350
3 351 352 353
3 354 355 356
3 357 358 359
3 360 361 362
3 363 364 365
3 366 367 368
3 369 370 371
3 372 373 374
3 375 376 377
3 378 379 380
3 381 382 383
3 384 385 386
3 387 388 389
3 390 391 392
3 393 394 395
3 396 397 398
3 399 400 401
3 402 403 404
3 405 406 407
3 408 409 410
3 411 412 413
3 414 415 416
3 417 418 419
3 420 421 422
3 423 424 425
3 426 427 428
3 429 430 431
3 432 433 434
3 435 436 437
3 438 439 440
3 441 442 443
3 444 445 446
3 447 448 449
3 450 451 452
3 453 454 455
3 456 457 458
3 459 460 461
3 462 463 464
3 465 466 467
3 468 469 470
3 471 472 473
3 474 475 476
3 477 478 479
3 480 481 482
3 483 484 485
